<svg id="ab92586d-93a6-4d1c-b268-3324acb53ea6" data-name="Layer 1" xmlns="http://www.w3.org/2000/svg" viewBox="0 0 400 400"><title>State</title><path id="b45f584f-5bc7-4d27-8a94-f6e8b72eda9b" data-name="SD" d="M333,117.71l-.18.52-.15.18-.11.26-.07.22-.22,3-.23.81-.7,1.3-1,2.39-.14.22-.26.37-.33.37-1,.78-2.59,1.48-.37.32-.77.93-1.36,1-.3.26-.26.29-.44,1-.11,1,1,1.18,1.84,1.88.74,1.07,1.4,2.88.85,1.41.77.58,2.88.22,1.55.41,1.07.7.41.41.89.66.36.33,1,1.77.25.48.19.15v0l.07,1.84.33,10.56.33,10.59.38,10.59.33,10.59.33,10.63.33,10.63.34,10.62.36,10.63-5.23.22-.15.15.11.29.11.26.11.33,0,.33-.08.56v.44l0,.37.18.48.19.26.7.7.29.41.67.66.14.19.11.51.08,2.51-.11,1.18-.08.19-.14.18-.19.11-.26.08-.55-.08-.22.08-.11.22,0,.33.33.52.29.18.19.19.07.18-.11.19-.33.36-.11.22,0,.26.08.26.25.26.26.08.33,0,.59-.08.82.12h.29l.37,0h.22l.22.11.15.18.11.23.15.52.37,2.1.15.48.11.36.07.3v.41l-.33,1.95-.15.37-.15.26-1.17,1.18-.08.26v.26l.19.26.11.18.07.15,0,.22-.08.33-.22.67-.15.25V260l0,.11,0,.18.08.92-.15.6-.11.29-.67.78,0,.11,0,.33,0,1.33-.07.37-.08.25-.15.12-.14.18-.08.22-.07.3v.62l0,.27-.11.18-.14.11-.56.26-.14.07-.12.15-.14.18-.11.22-.11.26,0,.26-.11.26-.07.22-.56.81-.29.71-.15.47-.07.67.07.4.22.48.63.89.33.37.33.29,2,1.37.34.29.29.34.15.18,0,.22-.12.22-.41.33,0,.08-.11.18v.11l.08.15.63.37.22.11.15.15.15.22.26.44.11.26,0,.3v.4l0,.3.18.26.22.11.26.59.08,1.73-4.87-.63-.67-.4-.4-.63-.19-.92-.37-.78-1.55-1.1-.48-.59,0-.63.18-.41.22-.33.11-.44-.22-.37-.44-.26-.52-.15-.4,0-1.56.15-.48-.08-.44-.26-.22-.26-.15-.33-.25-.44-.41-.59-.52-.52-.69-.37-3.36-.15-.7-.22-.42-.33-.25-.33-.37-.22-1-.19-.84-.4-.37-.11h-2l-.89-.19-.88-.4-.81-.56-1.41-1.18-1.14-1.4-.66-.55-.78-.37-.92-.11-7.42,1.51h-1l-2.72-.59-.81.22-1.45.78-.88.07-.44-.15-.78-.44-.48-.07-1.51.4-2.55-.55-.92.26-.45.18-.4.3-.33.4-.11.66-.45,1.3-.14.22-.22.15-.74.66-.44.22-1,.11-1-.07-2.69-.85-.44-.3-.19-.55-.37-.41-5.2-2.06L273.14,266l-1.59-1-.18,0-.44,0-.26,0-3.95-2.43-.26-.26-.77-.89-.11-.08h-.22l-3.22,0-6.34.08-6.35.07-6.35,0-6.34.07-6.35,0h-6.35l-6.38,0h-19l-6.35,0-6.35,0-6.34,0-6.35,0-6.35-.07-6.35-.08-6.34-.08-6.35-.07-6.35-.11-6.35-.11-6.34-.11-6.35-.15-6.35-.11-6.34-.15-6.35-.18-6.35-.15-6.35-.18-6.34-.19L78,259.56l-6.35-.22-6.34-.22L59,258.9l.22-6.1.19-6,.22-6.06.18-6.09.23-6.05.18-6.05.22-6.06.18-6,.19-6,.22-6,.18-6.05.22-6,.19-6,.18-6.06.22-6,.19-6,1.18.08,0-.63.07-3,.19-5.2.15-5.24L64,143l.15-5.2.15-5.2.18-5.2.15-5.21.18-5.2,8.38.29,8.37.3,8.38.25,8.38.23,8.37.22,8.38.22,8.38.18,8.37.19,8.38.15,8.37.11,8.38.15,8.41.07,8.38.11,8.38.07,8.38,0,8.38,0h16.79l8.37,0,8.38,0,8.38,0,8.37-.08,8.42-.11,8.34-.11,8.41-.11,8.37-.15,8.38-.18,8.38-.19,8.37-.18,8.38-.22,8.38-.23,8.37-.25Z" fill="#35156B"/></svg>