<svg id="ec199128-fd0c-4c1e-bd0e-c4ebc400161b" data-name="Layer 1" xmlns="http://www.w3.org/2000/svg" viewBox="0 0 400 400"><title>State</title><polygon id="fdd8f0b6-12f1-4e80-819f-84e0cea0b53e" data-name="IL" points="285.61 242.53 284.93 240.62 285.01 239.98 285.49 239.1 285.56 238.46 285.32 236.3 284.97 235.66 283.6 234.74 283.04 234.18 282.72 233.34 282.13 231.38 281.61 230.5 280.17 229.34 279.48 229.02 279.16 228.82 278.88 228.38 278.81 226.35 281.21 223.43 281.01 221.15 279.84 219.47 279.52 218.59 279.84 217.47 280.53 216.59 282.92 215.11 283.04 214.87 282.84 212.84 282 205.16 281.13 197.52 280.33 189.85 278.65 174.5 277.81 166.82 276.97 159.19 276.13 151.52 275.29 143.88 274.45 136.25 273.61 128.61 272.77 120.97 271.97 113.34 271.14 105.7 270.29 98.07 269.45 90.44 269.37 89.92 266.74 86.96 265.85 85.36 264.46 81.64 262.94 79.09 261.89 74.49 261.54 73.53 261.06 72.57 260.82 72.21 260.5 71.89 259.02 71.41 258.74 71.17 258.54 70.85 258.14 70.49 257.71 70.05 257.46 69.49 257.3 68.93 257.02 68.45 255.38 66.01 254.54 64.29 253.91 62.3 253.35 58.34 253.31 57.74 253.43 57.3 253.59 57.02 253.71 56.66 253.51 51.5 253.43 51.06 246.39 51.74 239.23 52.46 232.04 53.18 224.88 53.86 217.73 54.54 210.57 55.18 203.38 55.86 196.22 56.5 189.07 57.1 181.92 57.74 174.72 58.34 167.52 58.94 160.37 59.49 153.21 60.1 146.02 60.66 138.82 61.18 138.82 61.18 138.82 61.18 138.82 61.18 138.78 61.18 138.78 61.18 138.78 61.18 138.78 61.18 138.74 61.22 138.74 61.22 138.74 61.22 138.7 61.22 138.7 61.22 138.7 61.22 138.66 61.22 138.22 62.42 138.78 63.09 140.1 63.65 140.74 64.17 141.43 64.89 142.82 65.85 146.5 67.73 147.86 68.85 148.74 70.57 148.69 70.21 149.05 73.2 149.53 74.41 150.9 75.05 151.9 76.21 152.45 76.44 153.01 76.53 156.69 78.25 157.13 78.6 158.25 79.69 158.65 79.92 159.29 79.97 159.61 80.32 159.73 80.96 159.77 81.76 159.97 82.48 161.21 84.76 161.09 85.4 161.09 87.64 160.53 89.56 160.49 92.84 160.13 95.23 159.73 96.39 159.04 96.95 158.41 97.27 156.81 98.75 156.29 99.35 155.81 100.19 155.33 101.31 155.06 102.51 154.97 103.67 154.49 104.79 154.57 104.99 154.78 105.23 154.86 105.5 154.97 106.79 154.94 107.34 154.78 107.9 154.21 108.58 152.49 109.74 152.17 110.14 151.9 110.9 151.18 111.5 149.53 112.3 145.53 113.38 144.7 113.83 143.3 115.78 142.54 116.58 140.82 117.3 129.15 119.18 127.59 120.38 126.75 122.09 126.07 124.25 125.63 126.61 125.47 128.89 125.55 130.01 125.87 131.29 126.43 132.37 127.31 132.77 127.91 132.97 130.11 134.37 131.43 135.88 132.31 138 132.79 140.4 132.83 142.92 132.26 144.88 128.55 149.84 127.91 150.92 127.55 151.79 127.43 152.63 127.47 155 127.31 156.15 126.67 158.35 125.71 159.99 124.39 161.11 122.79 161.79 121.16 162.11 119.88 162.54 118.11 163.51 116.52 164.63 115.88 165.63 115.8 165.98 115.48 166.58 115.4 167.1 115.6 167.54 116.8 168.47 117.24 169.3 117.36 170.26 117.2 171.9 117.28 172.82 117.59 174.18 117.72 174.98 117.4 175.54 115 176.46 113.8 177.66 113 180.13 112.6 182.89 112.48 185.09 112.64 187.53 114.4 196.21 114.68 197 115.32 197.84 116.12 198.64 116.36 199 116.6 199.37 116.76 199.76 116.84 200.24 116.92 201.52 116.72 203.12 116.8 203.72 117 204.08 117.59 204.64 117.95 205.32 119.16 206.32 119.48 206.84 119.6 207.4 119.8 208.64 120.44 210.39 121.39 211.63 132.63 220.23 133.35 220.99 133.91 221.95 134.23 223.07 134.51 223.78 135.18 224.34 145.5 230.59 146.5 231.42 147.58 232.62 148.81 234.5 149.41 235.58 149.77 236.62 149.89 237.34 149.93 238.82 150.01 239.5 150.3 240.14 151.18 241.25 151.38 241.81 151.26 242.41 150.98 243.05 150.86 243.74 151.18 244.41 151.58 245.01 151.85 245.89 151.97 246.77 151.85 247.45 154.09 251.25 155.53 252.73 157.33 253.25 159.09 252.25 161.45 248.57 163.52 247.93 164.37 248.17 165.88 249.01 166.68 249.13 167.68 249.13 169.88 249.57 174.24 251.53 176.07 252.77 176.87 254.13 176.63 255.08 176.03 256.48 175.36 257.76 174.8 258.32 174.28 258.96 174.32 260.28 174.72 262.4 174.88 264.6 174.28 266.32 172.48 269.92 170.84 276.03 169.08 279.51 168.57 281.27 168.57 283.27 169.16 285.66 169.48 286.5 169.8 287.11 170.12 287.62 170.52 288.11 173.04 289.9 173.36 290.38 174.68 291.5 175 291.94 175.36 292.74 176.16 293.3 177.84 294.1 179.04 295.1 180.19 296.34 181.43 297.34 182.99 297.7 185.51 299.49 186.23 299.81 187.79 299.65 188.35 299.77 189.75 300.05 191.31 301.01 193.98 303.33 195.07 303.89 197.78 304.77 198.9 305.41 200.06 306.81 201.58 309.61 202.62 310.61 206.94 312.17 208.17 313.05 207.89 313.73 208.13 314.56 208.54 315.53 208.78 316.48 208.78 317.36 208.66 318.28 208.62 319.29 208.86 320.36 209.94 322.12 211.29 323.72 212.45 325.48 213.1 327.64 212.53 329.64 211.17 331.23 210.06 332.88 210.25 334.95 210.49 335.11 211.37 335.39 211.77 335.55 212.49 336.03 212.49 336.75 212.73 337.63 213.14 338.43 214.29 340.11 216.25 342.35 217.01 343.79 216.85 345.38 217.65 346.11 219.97 347.66 221.81 348.22 222.29 348.18 222.45 347.62 222.25 346.82 221.89 346.39 221.48 346.11 221.04 345.7 220.49 344.54 220.69 343.99 221.48 343.79 222.53 343.7 222.81 343.94 223.13 345.23 223.29 345.66 223.73 345.99 224.68 346.47 225.04 346.79 225.32 347.34 225.48 347.9 225.68 348.46 226.12 348.86 226.65 348.94 227.16 348.78 227.64 348.5 228.04 348.34 228.92 348.66 227.28 347.11 226.37 345.87 226.12 344.5 226.89 342.75 228.2 340.95 229.4 338.11 229.8 337.47 231.16 336.11 232.88 335.15 234.83 334.71 236.96 334.91 249.31 339.31 252.58 341.03 254.35 341.35 255.94 340.91 257.06 339.51 257.75 337.27 257.54 335.59 256.62 334.03 255.14 332.31 254.03 330.63 253.43 328.76 253.43 326.63 253.99 324.32 254.39 323.52 254.86 322.92 255.54 322.49 256.42 322.24 258.34 322.08 259.06 321.8 261.42 320.12 269.13 317.84 270.41 316.8 270.57 315.29 269.41 313.08 267.98 311.89 267.74 311.61 266.86 310.21 266.45 309.25 266.62 307.93 267.06 306.69 267.46 305.94 269.65 303.61 270.21 302.85 270.53 301.62 270.45 300.54 270.53 299.81 269.49 299.53 268.65 299.53 268.38 299.45 268.18 299.21 268.18 298.94 268.3 298.82 269.53 298.78 270.21 298.66 270.61 298.38 270.29 297.82 267.98 296.06 267.18 295.26 269.13 295.38 269.53 295.34 270.17 294.94 270.25 294.54 270.09 294.02 269.89 293.3 269.53 292.26 269.49 291.58 269.85 291.26 270.01 290.9 269.89 290.06 269.65 289.22 269.41 288.7 269.85 288.02 269.13 286.78 269.61 286.5 270.33 286.3 271.06 285.86 271.69 285.35 272.25 284.75 271.54 284.23 270.25 284.55 269.53 284.27 270.41 283.47 271.26 282.47 271.62 282.11 272.53 281.79 272.89 281.51 273.25 280.51 272.65 279.99 271.77 279.59 271.34 279.15 271.14 278.83 270.81 278.51 270.45 278.15 270.29 277.59 270.33 276.91 270.61 276.51 270.93 276.19 271.26 275.67 271.46 274.8 271.62 273.87 271.93 273.19 272.73 272.91 272.81 273.23 273.29 273.79 273.77 274.03 274.01 272.99 274.21 272.55 274.53 272.11 274.81 271.91 275.01 272.11 275.17 272.63 275.41 273.11 275.81 273.31 276.09 272.99 276.13 272.39 276.09 271.71 276.17 271.24 276.41 270.6 276.65 269.36 276.93 268.71 277.25 268.44 278.05 268.04 278.33 267.84 278.88 266.96 279.4 265.76 279.48 264.68 278.81 264.12 278.73 263.72 279.97 263.16 281.25 262.36 281.57 262 281.97 261.4 282.25 261.13 282.64 261.08 282.92 261.28 283.12 261.28 283.36 260.68 283.28 260.04 282.44 259 282.2 258.2 282.32 257.37 282.68 256.72 283.2 256.2 283.68 255.85 283.44 255.85 283.6 255.72 283.72 255.56 283.84 255.32 283.92 255.04 283.6 254.01 283.84 252.89 284.36 251.93 285.01 251.29 285.4 251.17 286 251.09 286.48 250.93 286.64 250.53 287.52 246.49 286.76 244.45 285.61 242.53" fill="#35156B"/></svg>