<svg id="f802c0f1-2b21-47a1-a7c0-70c675cb2351" data-name="Layer 1" xmlns="http://www.w3.org/2000/svg" viewBox="0 0 400 400"><title>State</title><polygon points="336.14 108.86 333.86 108.52 333.07 108.56 331.87 108.94 331.45 108.86 330.63 108.56 330.03 108.44 329.4 108.52 328.61 108.75 325.2 110.39 324.56 110.39 322.35 109.5 321.79 109.12 321.27 108.63 319.13 105.9 318.64 105.45 316.92 104.93 314.86 105.04 304.63 107.21 304.37 107.17 304.14 107.02 303.88 106.99 303.51 107.1 302.49 107.66 302.12 107.73 301.37 107.54 300.92 107.14 300.43 106.87 299.57 106.99 296.46 108.18 294.7 108.33 293.39 107.66 292.94 106.91 292.6 105.49 292.19 104.85 291.78 104.55 291.4 104.4 291.07 104.17 290.77 103.58 290.77 103.16 291.11 102.56 290.99 102.11 289.75 101.52 288.03 102 285.14 103.84 284.47 104.32 283.01 105.11 278.55 108.52 277.43 109.83 276.12 110.77 273 111.37 270.83 112.57 270.2 112.42 269.49 112.05 268.69 111.89 265.59 112.38 265.13 112.23 265.17 111.82 265.33 111.33 265.25 110.84 264.91 110.51 264.65 110.43 263.9 110.54 261.25 110.32 260.34 109.72 260.98 108.44 259.74 107.06 259.11 106.57 258.32 106.23 255.21 106.08 251.39 104.81 250.71 104.44 250.08 103.95 249.48 103.27 248.92 102.11 248.51 100.92 247.97 99.94 246.97 99.42 243.97 99.5 240.3 100.24 239.54 100.69 238.83 101.7 238.98 102.68 239.36 103.65 239.47 104.63 239.06 105.15 238.24 105.67 237.34 106.05 236.7 106.12 236.22 105.67 234.86 103.39 233.59 102 233.14 101.22 232.92 100.09 232.77 98.14 232.47 97.39 231.79 96.35 230.48 95.82 228.94 95.89 225.91 96.5 225.2 96.38 224.22 96.27 223.66 95.6 223.89 94.47 224.52 94.09 226.09 93.65 226.77 93.35 226.58 92.56 225.91 91.77 223.13 91.36 217.44 90.28 214.81 88.89 213.95 88.66 208.56 88.66 204.1 88.66 199.61 89.67 198.52 90.28 197.36 90.65 197.32 91.18 197.39 91.85 197.17 92.6 196.08 93.38 193.46 93.72 192.3 94.36 191.7 94.17 186.79 95.14 186.01 95.03 184.84 93.94 183.72 90.5 182.3 89.67 176.64 89.64 169.63 89.6 168.96 89.37 168.89 89.11 168.73 88.14 168.62 87.8 168.35 87.46 168.02 87.17 167.68 86.98 167.34 86.83 166.67 86.79 160.79 87.72 159.36 87.61 156.75 86.67 153.22 84.36 152.74 83.83 152.36 83.01 152.25 82.25 152.25 81.36 152.21 80.38 152.21 80.35 152.14 77.91 150.37 72.66 148.8 67.98 148.35 67.05 148.05 66.07 148.13 63.97 147.94 63.07 147.56 62.06 147.19 60.11 146.74 59.36 146.14 58.95 143.63 57.76 141.6 57.34 137.41 57.64 135.35 57 135.5 59.7 135.69 63.93 135.95 69.37 136.14 74.01 136.1 74.5 135.88 74.8 135.58 74.95 127.82 75.28 120.1 75.59 112.38 75.89 104.62 76.19 96.9 76.45 89.15 76.67 81.43 76.94 73.68 77.16 65.96 77.35 63.48 77.42 63.48 77.42 63.41 78.59 63.71 79.37 64.09 80.08 64.24 80.72 64.42 81.66 64.65 82.1 64.87 82.52 65.06 82.93 65.36 84.58 66.48 87.13 66.78 88.96 67.12 89.75 67.98 91.36 68.32 93.65 67.64 95.49 66.74 97.24 66.48 99.27 67.38 102 67.6 103.5 67.83 104.29 67.83 104.81 67.68 105.34 67.27 106.2 67.12 106.8 67.83 109.91 68.1 110.58 68.28 111.33 67.83 114.67 67.9 116.65 68.21 118.45 68.84 120.14 70.49 123.66 70.94 125.42 71.54 127.03 72.82 128.34 72.33 129.51 72.48 130.59 73.45 132.91 73.45 133.22 73.27 133.55 73.34 133.78 73.45 133.85 73.6 133.89 73.68 133.96 73.75 134.08 73.86 134.26 74.76 135.2 75.02 135.8 75.51 137.48 76.03 138.46 76.53 139.17 76.94 139.99 77.2 141.72 77.65 143.03 78.25 143.44 78.4 143.67 78.44 144 78.36 144.26 78.21 144.49 78.17 144.68 78.25 145.84 78.21 146.78 78.28 147.64 78.66 148.42 78.7 149.13 78.17 151.61 78.17 152.58 78.4 152.85 78.7 153.15 79.03 153.56 79.18 154.05 79.11 160.19 79.26 161.28 79.86 163.6 80 164.61 79.97 164.99 79.86 165.4 79.74 165.89 79.78 166.45 80.34 168.43 80.42 169.37 80.23 172.56 80.34 173.19 80.53 173.64 81.02 174.35 81.17 174.99 81.17 175.37 81.02 175.37 81.25 175.48 81.66 175.59 82.03 175.82 82.44 175.93 82.67 176.12 82.82 176.41 82.78 176.64 82.67 176.86 82.48 177.65 82 178.32 81.88 178.81 82 180.46 81.96 180.99 81.85 181.32 81.55 182.11 81.47 182.6 81.62 183.39 82.18 185.03 82.33 186.12 82.22 187.21 81.85 188.89 81.96 189.94 82.33 190.62 83.53 192.08 83.79 193.01 84.05 194.81 84.13 195.83 83.9 196.84 84.13 197.17 84.73 197.77 84.96 198.15 85.03 198.52 85.03 198.93 85.11 199.42 85.37 199.95 87.58 203.06 88.85 204.33 89.42 205.15 89.68 206.16 89.68 209.31 89.79 210.28 89.94 210.81 90.09 211.22 90.99 212.5 90.99 212.84 90.91 213.21 90.91 213.77 91.06 214.03 91.36 215.84 91.36 216.43 91.17 217.82 90.76 218.9 90.8 220.07 91.62 223.66 91.44 224.19 91.29 224.37 91.17 224.64 91.1 224.86 90.87 227.86 90.65 228.68 89.94 230 88.92 232.43 88.77 232.66 88.51 233.03 88.17 233.4 87.2 234.19 84.58 235.69 84.2 236.03 83.42 236.96 82.03 237.94 81.73 238.2 81.47 238.5 81.02 239.55 80.91 240.59 81.92 241.8 83.79 243.71 84.54 244.79 85.97 247.72 86.83 249.15 87.61 249.74 90.54 249.96 92.11 250.38 93.19 251.09 93.61 251.5 94.51 252.18 94.88 252.51 95.93 254.31 96.19 254.8 96.38 254.95 96.38 254.99 96.45 256.86 96.79 267.58 97.13 278.33 97.51 289.08 97.85 299.83 98.18 310.63 98.52 321.42 98.86 332.21 99.23 343 111.44 342.59 123.66 342.14 135.88 341.65 148.13 341.17 160.34 340.6 172.55 340 184.77 339.37 196.98 338.73 209.2 338.02 221.41 337.27 233.63 336.52 245.81 335.69 258.02 334.87 270.24 333.97 282.41 333.07 294.63 332.09 294.74 330.93 294.78 330.3 294.67 329.66 294.32 328.43 294.25 327.75 294.29 326.21 294.25 325.69 293.84 324.42 293.8 323.96 294.06 321.27 293.99 320.33 293.76 319.4 293.61 318.94 293.35 318.61 292.79 318.05 292.56 317.71 292.38 317.33 292.26 316.92 292.23 316.47 292.19 315.05 292.08 313.92 291.82 312.73 291.59 312.2 291.33 311.75 290.92 311.37 290.39 311.12 288.74 310.66 288.41 310.03 287.47 309.06 287.17 308.38 287.06 308 286.95 307.71 286.76 307.44 286.5 307.21 286.04 307.03 284.66 307.03 284.32 306.95 284.06 306.84 281.81 305.34 281.58 305.27 277.99 305.53 277.5 305.46 277.05 305.23 272.44 301.82 270.95 301.3 270.16 300.4 266.98 295.38 265.4 293.17 259.37 288.63 257.35 288.07 252.96 287.66 252.43 287.47 252.02 287.1 251.69 286.57 250.56 284.51 249.4 283.31 248.09 282.41 246.74 282.04 240.94 281.52 239.25 280.65 239.06 280.39 238.87 279.94 238.61 279.53 237.9 279.15 235.16 276.79 232.77 275.56 231.72 274.77 233.07 271.62 233.22 270.28 233.14 269.67 232.84 268.14 232.92 267.61 233.37 266.75 233.48 266.41 233.18 264.35 232.69 262.29 231.68 260.16 231.34 259.11 231.83 258.58 232.54 258.28 232.99 257.57 233.14 256.6 233.03 255.51 232.28 253.94 232.09 253.68 232.13 253.11 232.32 252.06 232.21 249.89 232.28 248.99 232.54 248.17 233.03 247.53 233.55 247.04 234 246.44 234.15 245.54 234.3 244.42 235.27 242.66 235.35 241.8 235.12 240.87 234.56 240.15 233.85 239.51 233.18 238.76 232.84 238.09 232.17 236.25 231.72 235.54 230.29 235.13 228.42 235.28 226.84 235.01 226.02 233.37 226.06 229.66 226.13 228.83 226.43 228.23 229.39 225.13 230.33 223.62 230.07 222.24 231.34 219.5 232.32 218.23 233.4 217.63 234.04 217.44 235.95 216.13 236.89 215.94 237.15 215.76 237.34 215.53 237.71 214.82 237.75 214.71 237.86 214.59 238.09 214.33 238.35 214.11 238.68 213.96 240.19 213.85 240.71 213.55 241.42 212.23 241.95 211.75 242.58 211.75 243.52 211.86 244.35 211.86 244.68 211.41 244.8 210.73 245.13 210.06 245.58 209.5 246.03 209.13 246.7 208.94 246.63 207.36 246.55 206.65 246.37 203.58 246.14 200.51 245.92 197.43 245.73 194.36 245.51 191.29 245.32 188.26 245.09 185.18 244.91 182.11 244.83 181.06 244.91 180.87 245.06 180.91 245.58 181.06 246.25 181.06 246.85 180.99 247.38 180.8 247.56 180.69 247.68 180.5 247.75 180.39 247.82 180.16 247.9 178.92 247.94 178.63 248.05 178.36 248.2 178.14 248.35 177.99 248.58 177.87 249.14 177.69 249.33 177.54 249.44 177.35 249.7 176.53 249.93 176.04 250.49 175.59 250.97 175.37 250.82 175.14 251.42 173.56 253 171.99 256.14 169.78 258.17 167.87 259.48 167.35 261.58 165.77 263.34 163.56 264.5 162.97 266.45 161.35 266.64 161.05 266.94 160.3 267.12 160.04 267.46 159.82 267.95 159.59 268.36 159.29 268.51 158.73 268.85 158.13 271.32 156.7 287.77 137.45 289.94 136.32 295.15 130.89 303.99 125.53 308.75 123.66 310.51 123.28 311.11 123.06 312.5 122.09 319.5 119.35 331.15 112.53 331.75 111.97 332.77 110.66 333.71 110.09 334.23 109.16 334.64 108.9 335.73 109.16 336.29 109.16 336.59 108.86 336.14 108.86" fill="#35156B"/></svg>