<svg id="b7ac66b7-c635-4836-8de4-417a4d9578fd" data-name="Layer 1" xmlns="http://www.w3.org/2000/svg" viewBox="0 0 400 400"><title>State</title><polygon id="f39084b9-afce-429b-8f92-af8208c7f0cf" data-name="OH" points="304.55 165.26 305.76 164.63 307.01 164.35 307.93 164.68 309.87 162.75 310.59 162.41 309.43 155.78 308.22 149.16 307.06 142.49 305.85 135.92 304.69 129.29 303.54 122.67 302.32 116.05 301.16 109.43 298.8 96.22 296.47 82.97 295.55 78 283.61 84.33 282.26 85.68 280.42 86.31 279.6 86.7 279.21 87.09 278.78 87.96 278.54 88.25 276.85 88.88 275.73 89.89 272.45 91.05 257.99 101.06 244.36 116.82 242.66 117.69 241.16 119 240.01 119.29 238.26 118.75 237.83 118.75 237.34 119.09 236.52 120.11 235.9 120.4 234.64 120.54 228.5 120.16 226.42 120.54 220.18 123.39 216.7 126.06 214.67 126.97 211.33 127.65 210.61 128.28 209.98 129.05 208.05 130.74 207.13 131.27 204.81 131.52 202.59 130.84 198.72 128.66 198.23 128.47 197.27 128.18 196.93 128.03 196.35 127.5 195.97 127.02 195.53 126.68 194.99 126.59 195.82 127.84 198.19 129.29 199.39 130.26 196.74 129 195.34 128.57 194.07 128.47 193.5 128.62 192.77 129.05 192.29 129.19 191.61 129.24 191.23 129.1 190.12 128.62 188.13 129.29 185.96 131.18 183.78 132.44 181.89 131.27 181.51 131.81 181.03 132.15 180.54 132.05 180.25 131.33 179.77 131.27 176.82 131.62 177.54 131.09 179.29 130.69 180.06 130.16 180.78 130.55 181.07 130.26 181.27 129.63 181.56 129.1 181.99 128.81 182.47 128.62 183.73 128.37 185.91 127.5 187.02 127.26 188.22 127.65 189.19 126.64 190.79 126.01 194.07 125.33 193.59 124.31 193.21 123.78 192.67 123.54 190.79 123.59 190.26 123.73 189.53 124.31 189.09 124.12 188.75 123.73 188.47 123.54 187.74 122.57 187.02 121.94 186.15 121.75 186.25 122.09 186.25 122.91 186.2 123.83 186 124.41 185.47 125.09 184.75 125.53 183.15 126.15 182.18 126.25 180.4 125.91 179.53 125.86 178.02 125.47 175.03 122.81 173.57 121.9 172.27 122.04 170.58 121.9 167.29 121.12 165.89 120.44 163.24 118.41 161.97 117.88 161.44 117.93 160.33 118.46 159.56 118.7 158.74 118.75 154.77 118.12 154.43 117.69 154.34 117.11 150.32 117.88 146.26 118.65 142.2 119.38 138.14 120.16 134.08 120.88 130.01 121.66 125.96 122.38 121.9 123.1 117.83 123.88 113.77 124.6 109.72 125.33 105.65 126.06 101.59 126.78 97.53 127.5 93.47 128.23 89.41 128.95 90.08 134.13 90.71 139.3 92.06 149.6 92.75 154.77 93.42 159.94 94.1 165.12 94.78 170.29 95.45 175.47 96.13 180.69 96.8 185.86 97.43 191.03 98.11 196.21 98.79 201.38 99.47 206.55 100.14 211.77 100.82 216.94 101.49 222.12 102.17 227.34 102.84 232.51 103.53 237.74 104.2 242.91 104.83 248.08 105.51 253.3 106.18 258.47 106.86 263.69 107.53 268.87 108.21 274.09 108.9 279.31 109.57 284.48 110.25 289.7 110.92 294.93 113.53 292.8 114.21 291.79 114.6 291.35 115.23 291.16 115.71 291.3 116.48 292.17 116.77 292.31 117.59 292.66 120.55 294.88 122.72 294.78 126.78 292.22 128.9 291.5 130.06 291.93 130.94 293.04 131.66 294.11 132.29 294.54 133.31 294.59 134.61 294.88 136.94 295.7 137.8 296.37 138.48 297.39 138.96 298.51 139.2 299.62 139.59 300.49 140.31 301.11 141.09 301.64 141.67 302.18 142.35 303.14 142.83 304.26 143.17 305.51 143.46 307.06 144.09 308.08 145.29 308.76 151.29 310.06 152.46 310.01 156.85 308.46 158.06 308.46 160.23 309.14 162.5 309.43 163.43 310.25 164.25 311.27 165.21 312.18 169.13 315.14 171.35 316.2 173.63 316.34 174.6 315.86 175.42 314.99 175.85 313.83 175.9 312.62 176.43 312.14 179.87 310.45 180.98 310.35 182.09 310.64 183.15 311.12 184.11 311.85 184.6 311.99 186.44 311.7 187.16 311.75 188.71 312.18 189.43 312.57 189.83 312.96 191.37 314.75 192.09 315.33 192.53 315.43 194.27 314.75 194.8 314.12 195.53 313.54 196.69 313.25 199.05 313.35 200.12 313.11 200.95 312.43 201.24 311.7 201.57 310.3 201.77 309.77 202.15 309.38 203.41 308.66 204.03 307.88 204.61 306.87 205.29 306 206.26 305.51 207.52 305.13 210.37 303.1 211.68 302.66 212.35 303 212.64 303.92 212.84 305.18 213.18 306.38 215.06 310.45 216.95 312.67 219.36 313.54 221.82 313.98 223.96 314.9 228.21 317.99 228.89 318.81 230.05 320.75 230.67 321.42 230.72 321.47 232.65 322 234.88 321.42 238.95 319.2 242.66 318.28 243.53 317.79 244.07 316.54 244.26 315.38 244.46 309.58 244.84 308.08 245.42 307.4 247.93 307.35 248.99 306.96 249.63 305.8 249.58 305.13 249.28 304.31 248.94 303.54 248.32 302.47 248.27 301.79 248.46 300.82 248.03 299.28 247.45 298.27 246.87 297.49 246.34 296.43 246.24 294.93 246.97 294.01 247.84 293.24 248.17 291.64 248.66 290.43 248.8 289.8 248.7 287.15 249.19 285.01 250.26 282.36 251.56 279.84 252.96 278.39 254.17 278.2 255.24 278.68 256.11 279.26 257.8 279.65 258.62 280.33 259.24 281.25 259.63 282.21 259.87 282.5 260.06 282.84 260.22 283.28 260.11 283.61 259.92 283.86 259.68 284 259.58 284.19 259.58 285.06 259.39 285.5 259.34 285.79 259.82 286.47 260.85 286.76 261.86 286.03 262.68 284.82 263.11 283.81 263.26 282.21 263.4 281.44 263.89 281 264.56 281.15 265.57 281.93 266.21 282.07 267.13 281.58 266.98 280.86 266.36 279.94 265.83 278.92 265.73 276.61 265.43 275.49 264.71 275.11 264.37 275.01 263.93 274.76 263.5 274.38 263.26 273.99 262.87 273.22 262.87 272.98 263.16 272.93 265.53 271.48 265.83 270.8 265.73 269.35 265.14 267.03 265.09 266.21 265.33 265.14 267.27 261.95 267.71 259.68 268.67 259.2 269.88 258.96 270.94 258.38 271.34 258.76 271.72 258.38 271.96 258.23 272.3 258.28 272.79 258.52 273.22 257.65 273.12 255.14 273.36 253.94 276.56 249.73 277.28 249.19 279.41 248.85 279.99 249.29 280.61 250.31 281.48 251.37 282.6 251.95 283.76 251.56 285.25 249.68 286.22 249.09 287.24 248.8 288.26 248.32 289.22 247.69 289.9 247.06 291.06 245.28 291.83 244.41 293.67 243.34 294.25 242.23 295.07 239.91 296.37 237.88 301.21 232.56 304.31 230 304.26 229.37 304.55 227.53 304.55 227.19 304.36 226.51 304.36 226.22 304.5 225.93 305.23 225.11 305.27 223.86 304.94 223.04 304.31 222.41 303.33 221.68 302.95 220.95 303.24 220.33 304.21 219.46 304.36 218.78 304.36 217.48 304.4 216.8 304.6 216.03 304.84 215.4 305.56 214.09 305.61 213.56 305.27 212.93 304.89 212.21 304.65 211.58 304.69 210.56 305.23 210.56 305.95 210.81 306.58 210.61 306.77 209.93 306.63 209.36 306.33 208.87 306.19 208.44 306.33 207.28 306.67 206.45 306.91 205.49 306.82 204.04 306.29 201.43 306.24 200.17 306.53 198.53 307.2 196.11 307.44 194.9 307.4 192.58 307.59 191.03 308.22 188.37 308.6 187.79 309.72 186.49 309.96 186.05 310.11 183.97 310.25 183.59 310.01 182.76 309.43 181.36 309.38 181.07 309.34 180.4 309.24 180.11 308.95 179.91 308.6 179.82 308.26 179.82 308.12 179.82 307.93 178.37 308.51 175.71 308.51 174.21 308.17 173.34 307.54 172.27 306.05 170.34 304.07 168.45 303.49 167.44 303.78 166.08 304.55 165.26" fill="#35156B"/></svg>