<svg id="f62812e6-67ca-4cd7-9ff5-ef33afe25f7a" data-name="Layer 1" xmlns="http://www.w3.org/2000/svg" viewBox="0 0 400 400"><title>State</title><path id="e429d23c-acc6-4473-8f8d-e9b7d871551e" data-name="NC" d="M282.11,263.48l-.43-.33-.56.07-.5.43-.13.76.3.43.59.16.63.1.47.2.2-.46.2-2.79-.57,1.17Zm2.13-13.08-.23,1.17,0,1.32-.14,1.16.4-.62.33-1.13.3-2.19.07-.07h.1l.06-.07-.06-.23Zm13.83-19.07-1.26,1.12-.63.34-.59.33-4,4-1,1.59-.4,1.57.46-.77,3-4.11.47-.3,1.13-.57,2.62-2.18.76-1,.1-.07.14,0,0-.07-.07-.2ZM326.31,219l-.43-.23-2.69-.37-.72.17.06.3.46.16,2,.27,1.55.73.17.13.46-.37-.26-.43Zm-6.93-1-5.74,2.09-5.44,2.22-.9.63-.5.8,9.33-4.38.89-.3,4.42-.63-.07-.3Zm16-13.21-.47.53-.16.43-.17.33-1.29,1.36-2.86,4.68-2.75,7.73-.23,1.4.49.79.14-1.26,2.85-8.46,1.5-2.65.56-.6.7-.6,1.39-2.32.83-.83.47-1.36-.43.3Zm4.42-7.5-.17.17,0,.43-.2.36-.23.3-.07.26-.1.67-.82,1.39-.27.57.23,0,.37-1,2.26-2.45.13-.07.1-.07.1-.1.1-.16-.9-.27Zm5.87-5.08L344,193.93l-.9.63-.86-.07-.07,1.23-.13.56-.33.54,3.35-3.52,3-1.9.53-.82.5-.43.16-.27.13-.36-.89.82Zm11.44-18.45-.06-3.52-.53-1.75-1.16-2.09-.3-.87-.3-.93-.54-1.09-.69-.93-.76-.43-.27.3.4.76.93,1.33.26.83,1.63,3,.63,1.76.27,1v.5l-.27,1.06,0,.53.13.5.36.8.14.46.16,1v1.62l.2,1.69.07,2.23-.1.6.3,1.32-.77,1-2.28,1.43-2,1.65-.13.07-.06-.1-.07-.13-.13-.07-.17.13,0,.2,0,.23,0,.14-.13.23,0,.23-.13.17-.33.13L351,189l-.26.36v.3l.36,0,.3-.14.37-.49.19-.17.53-.27,1.23-.93.74-.3,1.19-.92,1.12-.2.37-.14.53-.59.2-.8.13-3.52ZM347,158l-.6-.63-.13-.36-.26-.17-.27-.13-.56-.1-.3-.1-.33-.1-.33,0-.3.13-.23.33.13.2.27.13.26.2.4.43,1.26.9.43.63.36.79.41.63.59.2.66-.2.07-.23-.1-.43.17-.86Zm3.89,3,.16.26.3.1.73.13.33.14-1.66-2.36-.76-1.72-7.6-9-2.52-4.15-1.5-1.93-.29-.66-.3-1-.37-.87-.92-1.65-3-6.84,0,0-.49.1-.47.1,0,.06,0,.23.79,1.43.6,1.43.73.93.3.73.73,1,.23.53.86,2.79.5,1.16h-.06l-.1.1,0,.17.17.19.59.44,1.46,1.72.67,1.36.8,1.16.66,1.23.06,1.13.07.3.43.66.37.73.39.67.64.33.33-.4.4.17.4.5.33.66-.8.43h-.3l-.39-.4v.8l.46.43.6.1.39-.4.24,0,3.15,2.75.79,1,.43,1.52.37.74.89.33.14.33Zm-21.67-27.71.2.6.26.59.8.1,1.46-.29.33-.2-.06-.3-.24-.37-.2-.4-.3-1.16v0l-.63.13-.56.13-.2.3-.43.13-.23-.26-1.63.33.3.33Zm12.34,39,.6.72.69.24.8-.57.1.14.1.1.07.13.07.16-.24.14-.43.33.07.3,1.09-.27.47-.2.33-.3,0-.26-.17-.4,0-.36.3-.2.3-.13.16-.2.14-.24.29-1-.13-.43L345,168.84l-.53-.7-.07-.33.83-.26.89-.17.07-.33-.23-.93-.3-.57-.66-.66-.2-.4,0-.69.17-.67.13-.69-.16-.8-.24-.27-.79-.76-.13-.56-2.3-2.36-1.25-1-1.4-.57.06.43,0,.4-.07.4-.13.4.43-.1h.4l.4.13.4.23-.63.5-.8,0-.83-.16-.76,0,.3.54.46.49.5.37.79.17.17.29v.3l-.3.2H339l-1-.3-.93-.82-.63-.44-.2.2-.19.4-1,1.06-.19.43,1.2,5.38.13,1.49-.51,3.72-.23.06-.23-.29-.17-.24-.06-.16v-.13l-1,.43-.93.26-.93-.16-.86-1,.83-.21,1.26.17h1.13l.46-.8-.23-.09-.5-.44-.3-.5.33-.33.14-.3-.27-.46-.46-.46-.37-.2.27,0-.53.06h-.63l-.6-.13-.5-.2-.37-.4.43-.1,1,.13,1-.53-.07-1.16-.69-1.13-.94-.5-.06-.29.73-.34.5-.79.26-1,.1-1-.46.19-1.13.73,0-1.56.3-.5.87.27-.07-.73-.83-.5-1.09-.26-.9,0-3.32,1-2.95,1.59-.67.83.44.4.82.26.57.47-.9.13-1.65-.36-.8,0-.36.23-.24.37-.23.16-.3-.23-.07-.23v-.4l0-.46-.23-.4-1.26-.1-1.8.79-1.72,1.17-1,1-.26.07-1-.1-4.9,1-.07-.3.86-2,.07-.66-.53,0-.2-.33-.1-.53-.2-.5-.36-.3-.37-.23-.36-.33-.5-1.2-.7-.86-.2-.46-.6-2.89,0-.93L305,152l.39-.93.47-.7.13-.4,0-.59-.24-.37-.79-.6-.33-.46.86.13.77.3.46.73-.06,1.26-.17.46-.4.7-.07.5-.1,2.06.47,1.09,1.23,1.8,1,2.25.86.63.84-.19.36-1.14.43.27,1.33,1.39.46.1.66-.1,1.2-.33.83-.43,1-.76,1-1,.56-1-.37.07-.09,0-.1-.33.53-.43,3.45-1.36-.1-.33h-.7l-1.06-.24-1-.36-.46-.36-.27-.34-1.43-.43-.33-.26-.37-.37-.69-.93.73.3.76.43.69.23.54-.26.8.8,1.12.43,4.08.83h.9l.83-.37,0-.26-.8-.43-1.63-1.5-.46-.27-.36-.06-.4-.2-.37-.33-.23-.37-.16-.59h.23l.66.43,1.19.56.34.07.29.2.8.86,1.26.43.4.07.37,0,1.09-.29-.07-.27-.23.07-.07-.34,1.27-.4.36-.23.67-.66.16-.36-.43,0-.46-.13-.57-1-1-.27-.5-.43-.76-.93-.63-.4-.84-.43-.89-.3-.83,0-.16-.2.06-.56.2-.6.3-.3.46,0,.07.3-.17.37-.29.23,2,.13.63.2.86.47.76.59.33.17.71,0,.33.17,1.12,1.13.76.49.8.1.77-.06,2.65.23-.07-.3-.56-.1-.6-.23-1.09-.7.4-.4-.2-.66-.43-.76-.67-1.56-.4-.34-.46-.19-.47-.6.7-.1.6.2,1.13.63-.3.9.26.33.57.13.59.23.17.27.17.63.13.26.26.17.93.5.6.59.3.47.2.4,0,.37-.07.39,0,.4.27.36,1.19,1.1.73.53.67.17.6-.4-.34-.73-.7-.86-.46-.8-.3-.63-3-4.62-.27-.53-.39-.63-1.53-1.52-.46-.6-.27-2-.33-1.17-.43.14-.07.93-.13.56h-.14l.17.43.23.3.31.3.39.3-.86-.37-1.13-.93-.66-1,.56-.43-.89-.33-.93-.57-.8-.73-.47-.79-.13-.73v-.86l-.1-.53-.06-.11-.93.2L320.93,134l-6.16,1.26-6.18,1.26-6.17,1.27-6.2,1.26L290,140.3l-6.16,1.23-6.18,1.23L271.49,144l-6.16,1.19-6.18,1.2-6.2,1.19-6.21,1.16-6.17,1.16-6.21,1.16-6.17,1.13-6.2,1.13-6.21,1.13-6.2,1.13-6.21,1.09-6.21,1.1-6.2,1.09-6.2,1.07L178.55,161,172.34,162l-6.2,1.06-6.21,1-6.24,1-6.2,1-6.21,1-6.24,1-6.2,1-.79.13-.27,0-.17-.1-.3-.47-1.22,3.06-.17,1,.1.2.7,1,.06.4-.29,1.73-.6,2-.07.43v.3l.1.16.5.7.6.6.13.19.13.2-.07.17-.16.07-1.13,0-2-.33-.17,0-.16.1-2.49,2.32-.83,1-.13.19-2.46,7.37-.23.43-.3.37-.33.23-.5.6-.3.3-.3.16-.23.07h-.3l-.56-.07-.26-.06-.2-.1-.2-.1-.17-.17-.1-.16-.06-.2-.07-.24-.1-.2-.1-.16-.13-.13-.17-.1-.2-.07h-.23l-.5.07h-.27l-.19-.07-.37-.2-.2,0-.13,0-.2.07-.36.23-1,1-.17.13-.76.1-.3.07-.83.59-1.19.53-.33.2-.54.4-.56.6-1,1.49-.3.56-.29,1.13-.1.3-.53,1-.23.34-.2.23-.14.13-.14.1-1.49,1.29-.29.2-.24.1-.23,0-.23,0-.23-.07-.2-.09-.2-.17-.13-.13-.13-.17-.31-.56-.06-.23,0-.27,0-.33.1-.6,0-.2,0-.13-.07-.1-.73-.76-.17-.1-.26,0-.33.14L95,199.73l-.83.47-2.26,1.72,0,.07-.07.13v.17l.1.63,0,.23-.07.2-.36.54-.1.39,0,.27-.17.36-.2.17-.23.1-.2,0-.43-.26-.53-.3-.5-.13-.33,0-.37.06-.53.2-.26.2-.2.2-.07.2-.06.2-.07.26V206l0,.23.07.23.1.2.43.66,0,.24-.06.26-.33.6-.07.2v.46l0,.23-.14.43-.7,1.47-.73,1.22-.26.24-.2.1-.56-.07-1.53.1-.43-.07-.2.07-.17.1-1.75,1.26-1.2.56-.27.17-.2.17-.73,1-.33.27-.86.5-.26.16-.17.2-.1.2-.66.86-.57,1.13-.23.14-.27.06-.26,0-.33,0-.37.13-.3.2-.46.6-.33.5-.4.43-1.83,1.13-.3.27-.19.23-.3.53-.7.89-.23.23-.2.14-2.29.83-.27,0-.26,0-.2-.1-.2-.13-.2-.14-.26,0-.34,0-.7.33-.39.1-.33.07-.2,0h-.23l-.24.06-.23.07-.33.2-.13,0-.13,0-1.3.06-.24,0-.69.29-.66.37-.8.66-.5.53-.33.23-.27.17-1.12.43-.57.3-.3.23-.16.2-.43,1.3-.13.23-.24.36-.23.2-1.43.73-.3.24-.23.26-.69,1-.07.23-.07.17v.33l.27.56,0,.2v.26l0,.24-.07.23-.5,1-.06.26-.1.43v.27l.13,1.42-.1.4-.26.43-.61.8-.29.37-.24.19-.13,0-.93.13-1.92.5-.53.06h-.23l-.2-.06-.2-.1-.33-.27-.24,0-.29,0-.53.27-.27.2-.2.2-.56.69-.34.6-.16.43-.07.2v.37l.07,1.52.1,1.66.13,2.49.1,2.12.14,2.1,2.71-.44,2.76-.43,2.75-.43,2.72-.43,2.76-.43,5.48-.9,2.74-.43,2.73-.43,2.75-.47,2.73-.43,2.74-.46,2.76-.46,2.72-.44,2.73-.46,2.75-.47.66-.1,10-5.17,1.14-.43.2.33.16.13.3.07.17-.07.29-.23.37-.33.79-.6.33-.33.24-.33.06-.5.07-.27.2-.23.33-.07.4,0,.3-.1.3-.2,1.13-.79,1.76-.9.23-.1,1.32-.23.27-.1.16-.13.14-.2.23-.3.23-.13,1.3-.2.26-.17.17-.2.1-.7.13-.26.2-.27.46-.43.27-.13.23,0,.17.1.1.13.23.23.1.1.13.07.17,0,2.69-.7,2.62-.26.33-.07,1-.1,1.57-.16,2-.24,2.46-.26,2.78-.3,3-.36L134,232l3.32-.4,3.32-.39,3.32-.37,3.15-.36,2.95-.37,2.69-.3,2.29-.26,1.89-.24,2.26-.26h.47l.29.07.2.13.17.13.13.13.1.17.1.2,0,.23,0,.27-.07.23-.23.89,0,.2v.37l.07.16.1.2.17.2.16.17.27.16.2,0,.2-.1,2.62-2.65.2-.17h.16l.13,0,.14.1,1.66,1.52,2.39,2.26,1.92,1.82.2.24.07.26.66,4.58.07.3.13.26.23.2.3,0,1.46-.24.4-.06,1.13-.17,1.79-.26,2.32-.37,2.72-.43,3.09-.47,3.25-.53,3.39-.53,3.38-.53,3.26-.49,3-.5,2.76-.44,2.29-.36,1.79-.3,1.17-.2.39-.07,1.36-.19h1.13l.77.09,1.39,1,2.82,2,2.81,2,2.83,2,5.67,4,5.67,3.95,2.86,2,2.86,2,2.85,2,2.82,2,2.85,2,2.86,1.95,2.89,2,2.84,2,2.86,2,1-.53.07.26-.14.2-.26.53,3-1.82,2.16-1.06.76-.7.13-1.33.27,0,.36.76,0,.37-.1.36,1.26,0,2.82-1.22h1l.5.13,2-.46.7-.07,3.48.3.63-.07.5-.3.24-.43.92-2.35.37-1.76v-.6l-.33-1.49-.07-.77.1-.62-.56-1-1-3.06-.23-1.22.23,0,.94,1.8,1.06,1.55,0,1.33,1,3.39-.27,1.39,0,.27.2.3,0,.39-.13.86.86-1.42.2-2.49-.3-4.94.1-.8.5-1.76.17-1.46.43-.8.92-1.29L287,243l1.73-3.09,3.95-5,2.59-2.22,1.76-.93.53-.33.26-.27-.13-.13-.2-.1-.07-.3.33-.53-.39-.43-.73-.27-.66,0-.34-.13-.46-.37-.44-.43-.2-.33.1-.4.3-.3.34-.1.17.17.33,0,.56-.26.43-.63-.16-1.1-.34-.53-.49-.53-.5-.23-.4.36-.4-.66-.73-2.22.5.5h.43l.37-.17.3-.07.53.24.33.33-.07.26-.59.13.06.27.7.36,1.72,1.46.33.44-.16.89-1.33,1.53-.4.76,1.36,0,.2.14h.17l.86.56.63-.3.76-.8.43-.23.87-.76,1.36-2.85,1-.77.1-.2-.46-.72,0-.3.3-.1.26.2.27.26.26.07.36-.3.24-.57.06-.69-.1-.77-.2-.16-.43-.7-.1-.66h.67l0,.16.43,1,1,1-.49.6.1.5.39.2.34-.26.29-.31,4.88-2.65,1-1,7.1-.89-.33-.5-1.06-1.06-.2.3-.27.23-.3.2-.56.13.37-.86.63-.83.79-.66.83-.37.59.33.38,1,.33,1.12.43.83,1,.33.17-1-.56-3.75.29,0,.7.63.93.53-.47.76.3.64.77.39.83.14.79-.17.34-.2.26-.3.1-.4-.13-.3-.17-.23-.06-.23.16-.4.23-.26.2-.2L328,213l.87-1.78.46-.64.17-.3.13-.46v-.47l-.13-.72.07-.37.2,0,.09.23.27.36.1.24,1.26-1,.26-.3.23-.8-.16-.37-.27-.2-.19-.43.06-.73.3-.13.44.07.59-.14.33-.33.37-.79.26-.34-.06-.33-1-.33-.64-.7-.73-.59-1.16-.1.4.59.83.8.23.63-.3.2-.76.2-.7.47-.19.82h-.34l-1.46.83-.56.17-.23-.07-.24-.13-.13-.23-.06-.37.06-.49.23-.1.27,0,.83-.69.13-.3-.3-.37-.83-.76,0-.4,0-.73-.06-.43-.1-.13-.47-.47-.1-.2-.19,0-.3.7-.23.89-.1.66.1.5.13.6.13.63-.07.7-.66-.63-.6-.23-.6,0-.53.1-.66.43.2.6,1.06,1,.36.83-.63-.09-.92-.4-.73-.24-.07-.13-.26-.36-.4-.34-.41-.19-.39.06-.37.23-.59.63-.5.7-.43.83-.53.73-.87.57-.26.49-.24.13-.19-.06-.2-.17-.23-.26-1.43-.63-1.86-.2-1.69.07-1.63-.37-1.66-1.49L306.64,205l-.77-.7-.76-.2-.17-.46-2.05-2.19,1.42.3,2.2,2.09,1.42.3.56.16,2,1.46,1.16.6,1.39.46,1.16,0,1.56-.4,1.26-.8.4-1.12.63-.77,1.39-1.26,1.06-1.19-.33-.7,1-.63.59-1,0-1.16-.87-1.09-.46.43.06.27.2.06.2.1.21.07-.51.43-.43,0-.39-.24-.5-.13-1.53.23-.5-.06.31-.53.49-.4.57-.27.53-.16.23-.2.26-.4.37-.4.56-.23,1.1.2.5,0,.13-.39-.27-.37-.49-.2-.94-.2-.06-.26h1.89l.8-.17.23-.63v-.46l.2-.83-.13-.3-.7-.5-.33-.36-.2-.44-.86.14L318,190l-3.08-.07-2.53-.82-2.25-.07-.64-.24-1.25-.63-1.66-.56-1.56-.07-1,.87-.6-1.3-.46-.46-.77-.07-.43-.13-.5-.46-.86-1.2,1.59.86.83.3,1.69.07,1.93.63,1.06.1,1.89-.17.77.23.92.57.9.23,1.83-.93,1.09,0,.1-.29.2-.2.23-.17.33-.13.1,1,.89.5h1.1l.67-.53-.2-.3-.27-.2-.3-.13-.39-.07.06-.19,0-.17.06-.17.2-.16-.06-.27-.27-.1-.27-.16-.66-.47.1-.27.16-1-.33-.36-.36-.34-.47-.2-.56,0,1.26-1.26.69-.47,1-.13,1.76.07.79-.14.9-.36-.26,1.29-.54.44-1.85.1-.9.4,0,.53.49.49.8.37.07.26-.43.57.59.36,1.62.3-.06.27-.07.2-.16.13-.3.13.59.63.57.33,1.43.37-.2-.3-.2-.23-.26-.13-.27-.1.17-.47.33-.26.43,0,.46.17.47-1.66-.47-.77.3-.39.63.1.47.73.33,1.39.3.7.4.26.06.34-1.46.33.26.43.24,0,.27-.1.33,0,.6.3.33.4.49-.4,0-.66-.24-.6-.33-.2-.1-.33-.1-.6.2-.43.9.24.4.39.73,1,1.26.5h.43l.07-.5,0-.49.2-.2h.26l.57.73.66.06,2.46-.46.23-.27.3-.7.36-.39,1.27-.73.53-.17-.07-.27-.53-.56,0-1,.39-.73.77.3-.2.37.43.2.2-.1.06-.37-.1-.63.1-.4.3-.36.1-.44-.4-.56.83-.5.2-.19.13-.37,0-.23-.17-.2-.06-.23-.17-.27v-.27l.63-.3.17-.13,1.56-2.55v-.43l-.2-.7-.13-.76.16-.73Z" fill="#35156B"/></svg>