<svg id="b1d9448d-15b8-431d-9e7f-309d6349ffe9" data-name="Layer 1" xmlns="http://www.w3.org/2000/svg" viewBox="0 0 400 400"><title>State</title><path id="e94be219-da8f-49d5-b79b-0e5f27930eb7" data-name="TN" d="M280.69,155.82l3.75-.54,3.74-.53,3.74-.53,3.75-.57,3.74-.54,3.74-.57,3.74-.57,3.75-.56,3.74-.57,3.74-.57,3.75-.57,3.74-.57,3.71-.6,3.74-.57,3.75-.6,3.74-.56,1.74-.3.27-.17.66-.8.3-.14.3-.06,2.48-.31,3-.4,3.37-.43-1.23,3.07-.17,1,.1.2.7,1,.07.4-.3,1.74-.6,2-.07.43v.3l.1.17.5.7.6.6.13.2.14.2-.07.17-.17.07-1.13,0-2-.34-.16,0-.17.1-2.5,2.34-.84,1-.14.2L343,167.15l-.23.43-.3.37-.33.23-.51.61-.3.3-.3.16-.23.07h-.3l-.57-.07-.27-.06-.2-.1-.2-.1-.17-.17-.1-.17-.06-.2-.07-.23-.1-.2-.1-.17-.13-.13-.17-.1-.21-.07h-.23l-.5.07h-.27l-.2-.07-.36-.2-.2,0-.14,0-.2.06-.37.24-1,1-.17.14-.77.1-.3.06-.83.6-1.2.54-.34.2-.54.4-.56.6-1,1.51-.3.56-.3,1.14-.1.3-.53,1-.24.34-.2.23-.13.13-.14.1-1.5,1.31-.3.2-.23.1-.24,0-.23,0-.23-.07-.21-.1-.2-.17-.13-.13-.13-.17-.31-.57-.07-.23,0-.27,0-.33.11-.6,0-.2,0-.14-.07-.1-.74-.77-.16-.1-.27,0-.33.13-1.57,1.14-.84.47-2.27,1.74,0,.06-.07.14V178l.1.64,0,.23-.07.2-.37.54-.1.4,0,.27-.17.36-.2.17-.23.1-.21,0-.43-.27-.54-.3-.5-.13-.33,0-.37.07-.53.2-.27.2-.2.2-.06.2-.07.2-.07.27v.27l0,.23.06.23.1.21.44.66,0,.24-.07.27-.33.6-.07.2v.46l0,.24-.13.43-.71,1.48-.74,1.23-.26.23-.2.1-.57-.06-1.54.1-.43-.07-.21.07-.16.1L305.76,190l-1.21.57-.26.17-.2.16-.74,1-.33.26-.87.5-.27.17-.16.2-.1.2-.67.87-.57,1.14-.24.13-.26.07-.27,0-.34,0-.36.13-.3.2-.47.6-.33.5-.4.44-1.85,1.14-.3.27-.2.23-.3.53-.7.9-.23.24-.2.13-2.31.84-.27,0-.26,0-.2-.1-.2-.14-.2-.13-.27,0-.34,0-.7.33-.4.1-.33.07-.2,0h-.24l-.23.06-.24.07-.33.21-.13,0-.14,0-1.3.07-.24,0-.7.3-.66.37-.81.67-.5.53-.34.23-.26.17-1.14.44-.56.3-.3.23-.17.2-.44,1.31-.13.23-.23.37-.24.2-1.44.73-.3.24-.23.26-.7,1-.07.23-.06.17v.33l.26.57,0,.2v.27l0,.23-.06.24-.51,1-.06.27-.1.43v.27l.13,1.43-.1.41-.27.43-.6.8-.3.37-.24.2-.13,0-.93.14-1.94.5-.54.07h-.23l-.2-.07-.2-.1-.34-.27-.23,0-.3,0-.53.27-.27.2-.2.2-.57.7-.34.6-.17.44-.06.2v.37l.06,1.53.1,1.68.14,2.5.1,2.14.14,2.11-3.24.3-3.48.3L258,232l-.27-.06-1.26.16-4.62.67-4.58.63-4.61.64-4.61.64-4.58.6-4.61.6-4.61.63-4.58.6-5.82.67-5.78.67-5.78.67-5.78.67-5.78.67-5.82.63-5.78.63-5.79.64-5.77.6-5.82.61-5.78.6-5.78.6-5.82.6-5.78.57-5.81.57L127,247l-1.26.1-.44,0,.54,1.13-.34,0-1.34.13-4.74.5-4.78.5-4.78.5-4.81.51-4.78.47-4.78.46-4.78.47-4.78.47-4.78.43-4.78.47-4.78.43-4.81.44-4.78.43-4.78.44-4.78.43-4.81.4-.33-.5.37-.37.7-.2.83-.43,1.27-.9.5-.61.34-.73.16-.77v-.9l.31-.8.9-.1,1,.16h.77l.67-1.2-.14-1.8-.53-1.84-.94-2.18-.23-.86-.24-2,.07-1.07.4-.74,1.81-1.8.5-.7.37-.77.13-.77-.1-1.14.1-.76.4-.51.87-.33.9-.2.8-.3.34-.61-.6-1-.64-.8-.2-.5.2-.44.57-.57.57-.77,0-.56-1.13-1.24-.63-1-.08-.81.48-.63,5.34-2.94,2.14-2.14-.4-.77-1-.63-1-.37.27-.84.5-.63.63-.4.81-.17,1.13.74.57.1.2-.87-.63-1.31-1-.9-.8-1.07,0-.33.17-1.57.94-1.94.06-.77.24-.44.53-.5.67-.43.57-.17.23-.86-1.14-1.71-2.24-2.71.64-.3,3.37-.43.44-.17.34-.3.1-.5-.4-.27-.94-.23-.74-.57-.63-.87-.17-.8.67-.44.93-.07.88-.2.6-.5.3-1-.2-1-1-1.77,0-.7.16-.87-.34-.64-.16-.13,2.34-.3-.07.4-.23.9.1.67,1,.17.47-.3.54-.64.7-1.07.07-.27,6.24-.6,6.29-.6,6.22-.63,6.28-.64,6.22-.63,6.25-.64,6.24-.67,6.25-.67v-1.06l-.13-1.61-.13-.7-.74-2.24-.86-2-.14-.43,0-.24.07-.06.16,0,2,0,3.28,0,2,0,.31.07.2.23.3.6.2.24.2.13.2-.07,1.46-.16.5-.07,1.38-.17,2.1-.26,2.78-.34,3.27-.43,3.61-.44,3.91-.5,4-.53,4-.5,3.88-.51,3.64-.5,3.28-.43,2.74-.34,2.14-.3,1.37-.16.47-.07,1.57-.23,1.24-.44.33-.07,1.57-.13,1.07-.1,3.11-.27,4.78-.43,6.21-.57,7.35-.67,8.19-.77,8.8-.83,9-.9,9.06-.94,8.75-.9,8.19-.87,7.35-.77,6.22-.7,4.78-.53,3.08-.34,1.1-.1,1.74-.24,1.23-.53.9-.6Z" fill="#35156B"/></svg>