<svg id="b953475f-00ce-461f-a0f9-18834a34e7c8" data-name="Layer 1" xmlns="http://www.w3.org/2000/svg" viewBox="0 0 400 400"><title>State</title><polygon id="b7022ade-b9ec-4b7c-a3a3-06b0ad4cbb35" data-name="VT" points="142.13 101.75 138.35 102.7 137.24 103.01 130.76 104.68 127.92 105.38 127.92 105.31 126.03 106.57 126.89 107.99 127.29 108.95 127.44 109.89 127.21 111 126.81 111.39 126.42 111.47 126.18 111.71 126.34 113.29 127.05 116.93 126.81 119.85 126.97 121.74 127.37 123.57 128 124.68 129.34 125.46 130.28 126.34 130.52 127.6 130.05 129.65 129.57 130.2 129.1 130.28 128.63 130.52 128.31 131.55 128.39 132.81 128.63 133.13 129.18 133.37 130.44 134.48 131 134.87 131.47 135.5 131.71 136.53 131.47 137.32 130.92 137.32 130.44 136.92 129.34 135.43 128.39 135.43 127.76 136.45 127.84 138.58 128.86 141.19 128.94 142.7 128 143.96 128.71 144.75 129.18 145.54 129.42 146.49 129.42 147.28 129.89 147.2 130.13 148.54 130.92 150.6 131.94 152.34 132.73 153.05 134.55 153.29 135.35 154.63 135.19 156.36 134.15 157.87 136.06 159.93 136.77 161.19 136.77 162.61 136.53 163.96 136.61 165.38 137.01 166.72 137.8 167.91 137.4 166.16 137.32 163.88 137.64 162.06 138.51 161.82 138.9 162.93 140.08 168.46 140.4 168.78 140.87 169.25 141.43 169.97 142.85 173.28 143.81 176.13 144.36 177.48 145.15 178.5 146.25 179.69 142.29 186.72 140.56 188.38 142.13 191.7 141.98 202.53 143.4 206.64 143.63 205.53 144.36 204.5 144.91 204.27 145.62 204.82 145.7 204.98 145.94 206.17 146.02 208.22 147.36 213.52 148.15 215.25 149.25 216.91 150.59 218.25 151.3 219.2 151.78 220.31 151.86 221.58 151.62 223.63 151.7 224.82 152.33 225.84 154.48 227.19 155.26 227.97 155.58 228.85 156.29 232.01 156.6 231.46 156.6 232.25 155.03 243.23 155.03 244.19 155.19 245.36 155.74 247.58 156.21 248.77 156.84 249.8 157.63 250.66 157.87 250.9 158.1 250.9 158.34 250.74 159.13 250.19 159.84 249.32 160.08 248.85 160.31 248.38 160.39 247.74 160.31 245.84 160.39 245.28 160.63 244.73 160.94 244.34 161.34 244.02 161.83 243.71 162.38 243.55 162.93 243.39 164.2 243.39 164.83 243.47 165.38 243.86 165.85 244.34 167.82 247.66 168.69 248.38 169.17 248.53 170.03 249.09 170.84 249.72 171.31 251.93 171.47 252.72 171.94 254.78 172.65 258.1 173.6 262.36 174.78 267.34 176.05 272.95 177.39 278.96 180.16 291.37 181.51 297.37 182.77 303.07 183.87 308.06 184.82 312.32 185.53 315.63 186 317.77 186.24 318.48 186.4 319.59 186.63 321.33 186.63 325.11 188.62 328.21 190.28 330.73 201.81 328.29 205.7 327.49 209.56 326.7 213.43 325.91 217.23 325.03 221.1 324.25 224.98 323.46 228.77 322.59 232.65 321.8 236.51 321.01 240.38 320.14 244.18 319.35 248.05 318.48 251.93 317.69 251.93 317.61 250.67 314.85 248.6 313.11 244.42 310.66 243.47 309.7 242.84 308.84 242.21 307.74 241.66 306.23 241.26 304.41 241.34 303.07 241.58 301.89 241.82 300.3 241.26 295.8 241.34 293.9 242.53 292.8 244.18 291.68 244.5 289.78 243.63 285.13 243.55 279.12 243.16 276.75 242.05 274.22 241.74 273.03 241.11 268.76 241.5 268.05 241.74 267.5 241.74 266.87 241.58 266.24 241.26 266 241.01 265.84 240.85 265.6 240.69 264.26 240.78 263.15 241.11 262.04 241.66 260.94 242.13 258.81 241.74 256.51 240.46 252.72 236.67 235.41 236.44 232.65 236.83 230.99 238.88 227.9 239.51 225.84 239.67 223.71 239.28 219.37 238.64 215.81 238.88 214.62 240.54 212.49 241.19 210.91 244.26 206.32 244.74 204.5 244.81 202.37 244.74 200.07 244.34 197.87 244.26 195.66 244.81 193.28 248.05 185.14 248.05 184.35 247.42 183.95 246.55 183.47 246 182.69 246.08 181.03 247.89 174.54 248.13 171.07 247.58 167.11 245.29 158.34 244.58 153.05 245.29 149.02 247.58 146.17 251.22 144.44 255.01 143.65 256.74 142.85 257.93 141.51 259.68 137.79 260.55 136.45 266.15 130.68 267.98 129.41 268.37 128.31 269.16 125.86 271.21 123.08 272.16 120.95 271.77 119.14 271.13 117.41 271.13 115.34 271.77 114.64 272.71 114.39 273.58 114 273.98 112.81 273.74 111.87 272.95 110.92 271.61 109.81 267.82 104.68 267.1 103.25 266.07 101.59 264.65 100.57 263.55 99.14 263.15 96.53 264.1 92.5 266.38 86.73 268.53 81.28 268.61 78.67 267.49 77.25 266.07 76.06 264.96 73.85 264.49 71.16 264.96 69.98 266.15 69.27 258.64 71.24 251.14 73.3 243.63 75.27 236.12 77.32 228.61 79.3 221.1 81.28 213.59 83.26 206.09 85.23 198.58 87.21 190.99 89.19 183.48 91.16 175.97 93.06 160.94 97.01 153.37 98.9 146.41 100.65 145.86 100.81 143.4 101.44 142.13 101.75" fill="#35156B"/></svg>