<svg id="f3502093-2430-4932-9bff-84507326db66" data-name="Layer 1" xmlns="http://www.w3.org/2000/svg" viewBox="0 0 400 400"><title>State</title><path id="b896b479-074b-459d-9d62-19549f07357c" data-name="NE" d="M311.08,152.43l1.55.21.84.24.63.45.55,1.87-.42,2-.1,1.94,1.21,1.39.07.72.52.39.42.58.2.77.11,1.08-.14.86-.28.8-.1.83.38,1.11.52.7,1.22.72.65.56.42.76.07.87,0,.94.18,1,1,1.29,1.49.8,1.32,1,.48,1.83-.1.42-.35.94V180l.14.42.62,1.18.14.27,2.19,2.08.38,1-.1.9-.28.84-.14.87.07.62.07.24-.1.24-.35.49-.21.38-.1.35.07,1.94.14,1,.27.8.52.35v.38l-.17.94.07.93.8.52.41,0,.7-.49.31-.1.45.1.45.31.28.31,0,.15-.17.2-.17.55-.14.6-.07.45.24.52.49.28,1.45.27.31,0,.25.1.24.45-.28,1.91v.52l-.73,2.95.59.31,1.64.49.62.07.35.38-.49.93-.73.87-.38.21-.2,2,0,.76.52.55,1.63.45.48.35-.83.42.21.69.14,1.49.24.63-.45,1.32-.21.31v.28l.17.1.11.14.07.17.14.25.2.34-.1.24-.21.25-.07.42.21.51.31.35.66.49.25.48,0,.45-.1,1,.07.6.48,1.1.18,1.15-.18.9-.24.87-.1,1.07.1.56.38.59.07.38-.69,1.14-.49.56-.14.24-.1.49.06.66.18.34.24.31.11.42.42.76,1.94.69.69.46.38,1v1l-.11.76-.13,1.22.2,1.18.5.41.72.11.87.27.59.49,0,.52-.1.52.07.66.34.66.66.76.31.73,0,.28,0,.69,0,.31.17.35.63.87L345,251l.11.17-.17.35-.35.35-.45.34.28.59.58.07.73-.14h.66l.66.42.38.56.34.62.46.59.56.24,1.31,0,.62.21.42.49,0,.59-.52,1.18,1,1.18.53.76.24.66,1.18,1,.1.21-.1.52-.35.86-.1,1.05.1.8.45.52,1.7.24.63.31,1,.83-7.63.31-7.56.31-7.6.28-7.59.28L319,268l-7.59.25-7.6.24-7.59.21-7.6.21-7.6.17-7.59.17-7.63.18-7.6.14-7.59.1-7.6.14-7.59.1-7.6.07-7.59.07-7.6.07-7.63,0-7.6,0H182.19l-7.63,0-7.6,0-7.59,0-7.6-.06-7.6-.07-7.63-.07L129,269.8l-7.6-.14-7.59-.1,0-2.91.07-2.88,0-2.88L114,258l0-2.88.07-2.87,0-2.88.07-2.88,0-2.89.06-2.87,0-2.88.07-2.88,0-2.88.07-2.88,0-2.88.07-2.88-3.3-.07-4.3-.06-4.27-.11-4.26-.1-4.27-.07-4.26-.11-4.27-.1-4.26-.14-4.27-.1-4.27-.14-4.27-.1-4.26-.14-4.27-.14-4.26-.14-4.27-.14-4.26-.14L43,221.49l.21-5.73.21-5.75.17-5.76.21-5.76.17-5.72.21-5.76.17-5.72.21-5.73.17-5.75.21-5.72.17-5.73.21-5.72.21-5.73.17-5.72.21-5.69.17-5.72,6,.21,6,.21,6,.2,6,.18,6,.17,6,.17,6,.14,6,.18,6,.13,6,.11,6,.14,6,.1,6,.1,6,.11,6,.07,6,.07,6,.07,6,.07,6,0,6,0,6,0,6,0h17.9l6,0h6l6,0,6-.06,6,0,6-.07,6-.06,3,0h.2l.11.07.72.83.25.25,3.71,2.28.24,0,.42,0,.17,0,1.49.93,1.46,1.22,4.89,1.94.34.38.18.52.42.28,2.53.8.93.07.94-.11.42-.2.69-.63.21-.14.14-.21.41-1.21.11-.63.31-.38.38-.27.41-.18.88-.24,2.38.52,1.43-.38.45.07.73.41.41.14.83-.07,1.36-.72.76-.21,2.57.55h.94l7-1.42.87.1.72.35.63.52,1.07,1.32,1.32,1.11.76.52.84.38.83.18h1.84l.34.1.8.38.94.17.34.21.24.31.39.32.66.2,3.16.14.65.35.49.48.38.56.24.42.14.31.21.24.41.25.45.06,1.47-.13.38,0,.48.14.42.24.2.35-.1.41-.21.32-.17.38,0,.59.45.55,1.46,1,.35.73.17.87.39.59.62.38,4.58.59Z" fill="#35156B"/></svg>