<svg id="a236eb3a-99ea-4aa8-b822-ba7574ad29a8" data-name="Layer 1" xmlns="http://www.w3.org/2000/svg" viewBox="0 0 400 400"><title>State</title><path id="b9ff3129-58a2-44c5-ae37-dcaa48e9c6d8" data-name="VA" d="M355.16,234.38l-.58.58.39.51v.07l.66-.15.74-.16-.55-1.32Zm-3.35-34.73-.31,0,.08.35,1.37-.43.46-.89,0-1.33-.38-1.71-.28.08-.16,1,0,1.13-.12,1.09Zm3.86-11,.23-1.17v-1.2l-.31.07-.23.63-.63,2.92v.27l.08.39.27-.08Zm5-33.09-1.13.39-1.75.66-2,.7-1.32.5-1.72.63-1,.35-.19.31-.16.82-.15.82.43.11-.39.66-.62.39-1.25.55-.85.82-.83,1,.08.31,1-.39h1.24l.86.43.31.7-.2.47.12.42.27.43.47.39-.43.2-1,0-.27.11-.16.59.16.58.31.51.47.35-2.34.85-.51-.11-.54-.28-.47,0-.31.74,1,.66.16.67-.39.78-.7.85.08.39.85-.19.16.27L346.91,176l0,.43.42.74-.93.23-.74.31-.5.58-.27.9.81.62-.43.39-.81.43-.63.62.59.28,0,.43-.31.54-.48.58,1.84.35-.82.74-.67.94-.35,1.24.2,1.48.78-.58.43.19.08.59-1,.82-.32.81-.12,1,.08.89.32-.08v-.35l.15-.07h.24l.08-.08.07.5-.15.7-.31.7-.59.51.35.62,0,1-.39,2,.35-.23.19-.08.59.08-.54.78-.4,1.28.2,1.21,1.05.74.08.31-.08.74,1.4,1.36.55,1,.46,1.09.62.24.6-.39.35-.86v-.46l-.2-1.87.08-.55.27-.62.35-.31.19.15.32,2.22.42.55.9-.7-.35-.51-.43-1.09-.27-.39.19-1v-1.25l-.66-4.67v-.62l.12-.63.58-1.4.2-.7V190l-.16-.4-.27-.81,0-.67.54-1.24.12-.43.42-.46,3-1.25-.42-.47-.59-.12-.63,0-.58-.08.2-.81.51-.94.58-.46.39.58.39.85.5.51.59.39.46.55.66-1,.59-1.24.47-1.37.19-1.24-.74-.28-.12-1.36.24-1.67.43-1.68.08-1.94,1.86-7.36,1.17-2.06.12-.86-.63-.94.67-.42,0-.31-.27-.31-.23-.59L360,159l-.12-.82.08-.63.47-.62.58-.43.43-.54,0-.66Zm6-2.22-.27.11-.08.31-.71,1.41-.5,1.32-.16.66-.19,1.8-.16.46-.11.59-.27.39-.43.27-.51.15-.08.24.35.35.74.66-.31.27-.39.23-.42.12-.47.08.12.39,1.28-.39.93-1.29.58-1.71L367,153.2Zm-15.11,69.1-1.75-4.05-1.05-1.16-1,.11-1,.63-1.33.31-1.79-.31-2.14.27-4.24-.66-1.4.31-.67,1.17.27.78.52.19.27.24-.39,1v.58l.5.58,1,.9-.7,0-.78-.28-.55-.5,0-.62-1-.35-1.17-.08-1.16.19-1.06.43-.78.7-.66.82-.78.7-1,.35-.11-.39,1-1.09.43-.7L329,222l-.39-.63-.5-.5-.2-.51.59-.62,0-.35-2.85-.86-.66-.39-.35-.12-.35-.07-.58.07-.27-.15v-.31l.07-.12.35-.39-.07-.31-2.61-.15-.74-.24-.43-.66-.7-3.12-1.2-2.88-.4-.47-.51.35-.85,1.64-.78.32-.85-.4-1.72-1.28-.62-.2-3.82.78-.85-.16-1.79-.81-1,0-.43-.39-.39-1-.58-.9-1-.19-.31.27-1,1.29-.43.34-.44-.27-.42-.42-.28-.24-3.54.74-2.88-.47-.42.24-.2-.12-.42,0-.48-.15-.27-.66.9-1.29.82.7.66.15,1.71-.42.27.07.82.32H297l.39-.12.78-.51.5-.31.39-.12.35.12.5.31.2.31.43.59.43.47.08-.27.19-.4,1.05-1.32.39-.31.58,0,.43.31,1.6,1.75.59.82.62.43.93-.31.66-.78.35-.59.08-.54-.31-1.37,0-.54.35-.47.35.9.19,1.17.28,1,.62.31.62,0,1.67.39.74,0,.35.12.32.39.23.5.28.35.46.19.16-.31,0-.54.15-.39.74-.39,1.67-.5L318,207l1,.47.89,1,.58,1.28-.08,1.52.35.32.67.58,1,.74,1.05.5.74-.19,4.32,2.41.66.63.9,1.9.62.08.59-.47.93-1.24.51-.47.7-.27,1-.28.7-.42.39-.9.12-1.09,0-1.09-.36-1.44-.5-.24-1.59.79-.74-.16.39-.74.81-.82.43-.31-.43-.7-1-.58-1.36-.55,0,.63-.47,0-.59-.35-.38-.43-.12-.47-.08-.67v-.58l.08-.11-.62-.55-.74.12-1.68.7-.89,0-1.09-.23-1.91-.74-3.19-1.76-3-2.33-1.25-1.4-.73-.7-1.49-.55-2.37-2.68-.43-.16-.5,0-.43-.11-.24-.31-.08-.55v-.55l.12-.39.36-.23,2.52,1.64,1.72,2.06,1.05.93,1,.28.74.31,3.35,3.5.35.19h.54l.43.08.54.63,1.29.19,1.83.86.86.12,3.11-1.45.12-.35-.35-.62-.51-.62-.42-.31-.39,0-1.29.39-.08-.32,1.1-.7.15-.15-.15-.47-.28-.15-.31,0-1.29-.59-.27-.39.08-.58.31-.39.43-.12.46,0,.47.12-.23-.39-.28-.43-.38-.31-.51,0,.27-1.36.9.51,1.75,2,.78.07.54-.38.47-.2.27.78,2.15,1.76.5.58.24,0-.2-1.56.35-3-.31-1.59-.54-.82-.47-.08-.5.08-.48-.24-.12-.54.28-.62.47-.55.39-.35-.08-.31-1.41-.93-.62,0V190l-.27.62-1-.2-1.59-.74h-.91l-.73-.27-.08-.43,1-.62,1.87-.59.66-.42.59-.74-1.79-.2-1.76.2-1.63-.2-1.28-1.32-.55.43-.86.19H319l-.74-.23-.67-.47-.82-1-.58-.86-.16-.39-.07-.07-.55-1.45-.35-.31-1.36-.9-.47-.15-1.91,0-.07-.16-.08-.7-.08-.15-.19,0-.16.08-.15,0-.55-.28-1-.11-.23-.2-.5-.58-.24-.08-.43-.31-1.32-1.52-.31-.51-.31-.93-.39-.39-1.4-.23-.59-.2-.74-.42-.7-.55-.62-1-.46-.2-.52-.12-.46-.23-.51-.43-.15-.27-1-2.8-.24-.27-.93-.67-.23-.23-.55-.39-3-.12-.46-.27-.35-.35-.27-.46-.16-.66-.24-.36-.31,0-.47.35-1.4.08-.77-.15-.43-.51.23-.59.78-.07,1.9.07.67.2.62.62.59.74.5.55L294,165h1.9l.71.23.58.39,1,1,1.75,2.54.43.27,1.87.89.9,1.52,2.76.78.94,1.48,2,2.14.63.39.58.16.54-.2.39-.62.12.78.31.43.39.23.43.12.38-.59.32.2.27.47.27.35,1.45.69.23.28.54.93,1.83,1.52.67.74.11.58.51.9.62.5.62-.23,0-1.94.23-.78.7.7.2.43.47.58.38.35.16,0,.16-.31.51.23.54.43.23.23,2.41.35,1.22,0,.54-.85-.54.15-.24-.31-.74-.66-.24-.47.12-.38.31-.28.16-.35-.39-.66.43.08h.51l.47-.12.31-.31-.2-.59-1.52-.77-.47-.55,0-.23.27,0h.31l.16-.12.16-.74v-.54l-.08-.47-.31-.74-1.21-1.52-.5-.93.31-.55.7.2,1.6,1.09.74-.08.27-.78-.08-1.25-.5-2.14-.43-.5-.83-.39-.93-.28-4.05-.62-1.71-.7-2.14-.31-.51-.2.31-.11.24-.27.23-.12-.43-.31-.47-.24-.5-.15h-.51l-1.39.62-.24-.08-.19-.7-.08-.19.39-.62,0-.7-.7-.55-1.6-.66-1.13-.7-.23-.2-.16-1.09-.19-.35-.39-.07-.47.19-.78.43-.47.11-.35-.07-.35-.2-.39-.15h-.46l-.35.39-.82.77-.94.47-.58-.47-.39-.58-.7-.27-.82,0-.85.11-1.68,0-2.18-.31-1.75-.54-.82-1.17,0-.32,0-.31-.12-.39-.39-.35-.42-.15-.43-.12-.35-.15-2.22-1.56-.24,0-.42-.23-.31-.28.23-.19.74-.12.35-.11.23-.24.24-.82-.2-.85-.39-.78-.43-.47-1.05-.35-.89.63-.89,1-1.84,1.05-1.16,1.24-.7.39-2.58.9-1.82-.15-1.95.19-.08-.35.43-.19,1.36-.2.39-.27-.15-.39-.63-.51-.42-.47-1.72-1.16-.58-.55.54-.46.58.23,1,.89-.74-1.83v-2.3l.23-2-.12-1-.08-.38.32-.2.66-.7-.27-.19-.24-.31-.23-.08.43-.66.31-.86.12-.94,0-.81.12-.82.46-.54.59-.12.35.43.23.81.27.35.43-.11.62-.47.43-.47.31-.58-.08-.5-.74-.24-.38-.47-.12-.62.31-.59.66-.27,0,.7.27.32.32-.08,0-1,.31-.15.43,0,.39-.27.66-.7.62-.35.35-.54-.12-1.29-1.09-5.26-.11-.23-.31-.55-.2-.27-1-.93h0l-.47-.43-1.83-.94-.23-.19-.63-.55-.5-.27-1.29,0-1.48-.2h-.58l-.62-.15-.39-.62-.35-.78-.39-.66-1.1-.74-1.28-.4-1.36-.11-3.62.39-1.09-.31-1.72-1.17-.73-.43-.67-.54-.38-.74.11-.94,1.09-1.44.43-.89,0-1-.62-.7-.86-.2-1-.08-.86-.35-1.05-1.13-.51-.31-1.9-.08-1.87-.31h-.78l-2,.43-.86-.23,0,.23-.16.67-.43,2.21-.38,1.71-.51,2.54-.35,1.63-.16.7-.11.66-.39-.23-.51-.24-2.65-1.36-2.61-1.36-2.64-1.36-2.65-1.33-2.64-1.36L233,111l-2.65-1.36-2.61-1.36L227,108l-.51.38-.39,1-.12.55v.43l.12.5.55,1.49.12.5,0,.62v.31l-.08.59-.4,1.09-.89,2-.08.24,0,.27v.23l0,.24.08.23.08.2.15.54,0,.27V120l-.11.86v.66l.07.28.08.23.31.7.08.23,0,.28,0,.19-.16.31-1,1.87-1.36,1.56-1.24,2.22-.44,1.21,0,.23V131l.07.16.08.19v.2l-.12.46-.77,1.52-.24.28-.31.31-.58.35-.43.15-.31.2-.19.23-.16.47-.23,1-.23.47-.16.27-.27.27-.87.59-.31.16-.23.07-.23,0-.2-.07-.15-.16-.16-.2-.15-.15-.16-.08-.19,0-.2.15-.66,1.52-.89,2.07-1.1,2.41-.81,2-.2.27-.19.23-.31,0-1.6-.7-2-.89-1.36-.59-.19,0-.2.24-1.25,2.61-.23.5-.08.47v.27l-.08.31-.11.39-.51,1.13-.11.47,0,.31.15,3,0,.23-.15.24-.27.31-.55.5-.35.39-.35.51-.23.66-.12.39,0,.35-.07,1.75,0,.16v.43l-.27,1.86-.12.59-.2.5-.55,1.13-.74,1.56-1,2.26-.16.19-.19.16-.32,0-2.68-.35-2.26-.27-2-.28-2-.27-.12,0-.07,0,0-.19.07-.43v-.35l0-.08-.15-.23-2.11-2.53-.15-.16-.16-.08-.12,0-3.62-.62-.27,0-.19.27-.16.43-.12.94,0,.5,0,.39.08.27,0,.32,0,.27-.12.43-.54,1.2v.9l.35,2.14,0,.31-.12.35-.5,1-.12.5-.15,1.6-.12.31-.39.35-.7.43-.15.19-.08.31-.08.51-.15.47-.32.58-.16.39,0,.51.12.31.24.46.11.24.08.23-.08.35-.11.35-.55.86-.82.78-.31.43-.7,1.24-1.59,2.1-.08.28,0,.27.08.43.19.47V187l-.39,3-.63,2L173,195l-1,1.71-1.79,3-1.41,2.26-1.12,1.91-1.4,2.25,0,.2-.12,1.25-.07.38-.79,2.38-1,3-.08.55.08.19.08.12.08.08.62.39.46.23,1.33.39.2.16.19.27.12.47,0,.31-.08.27-.35.43-.74.66-.63.47-.23.19-.27.31-.35.51-.12.39,0,.35,0,.24.08.23.12.19.19.16.54.23.21.2.07.54-.07.31-.17.27-4.51,3.7-1.05,1.32-.2.24-.23.12-.19,0H159l-.19-.08-.2-.12-.15-.2-.12-.23,0-.27-.07-.43-.08-.19-.08-.2-.19-.15-.43,0-.31,0-.94.27-.94.51-1.55,1.09-1.83,1.28-1.68,1.44L148.55,232l-.15.12-.31.16h-.17l-.15,0-.12-.12-.11-.2-.16-.15-.19-.12-.2,0-.78,0-.19-.08-.12-.15-.07-.43-.08-.12-.16-.07-.15,0-1.21,0-.35,0-.39.11-.55.32-.27.27-.19.23-.12.31,0,.28,0,.31,0,.27,0,.27.12.28.81,1,.08.27V235l-.16.58-.19.31-.16.28-2.44,2.06-.28.12h-.23l-.71-.39h-.31l-.39.12-1.05.78-.35.15-4.16,1.28-3.08,2.34-.43.2-.11,0-.12-.08-.12-.15-.23-.32-.12-.19-.19-.12-.39-.23-2.42-1-.19-.11-.31-.24-1-1-.2-.15-.27-.12h-.35l-.54.12-.31.27-.16.23-.08.24-.15.89-.12.39-.15.47-.4.66-.31.31-.27.2-1.6.46-.62.28-.31.23-.23.23-1.76,2.65-.27.28-.27.19-1,.23-2.58.2-.5-.08-1.17-.58-1.59-.51-.23-.12-.4-.31-.7-.74-.2-.15-.19-.16-.27-.12-.23-.08-.39-.08-.94,0-.54.12-.55,0-.16,0-.54-.19-.43-.32-.15-.15-.16-.2-.54-.89-.16-.19-.19-.2-.43-.27-2.22-1.05-.2-.16-.15-.19-.16-.24,0-.27-.08-.27,0-1.29,0-.27,0-.27-.12-.27-.12-.24-.11-.19-.16-.16-.19-.12-1.63-.7-.2-.15-.12-.2,0-.23.07-.27.08-.2.9-.93v0l0-.12v-.23l0-.27-.07-.31-.08-.24-.16-.23-.15-.16-.43-.31-2,2.34-3.08,3.54L89,241.23l-3.43,4-3.12,3.58-.89.82-2.76,2-3,2.14-4,2.84-1.79,1.71-.67.86-.27.55,0,.35.27.77.24,1.13v.63l-.08.31-.12.23-.12.23-.38.36L65.43,266l-.9.9-.35.5-.15.47.11.82.08.27.12.58,0,.78v.27l-.08.27,0,.28-.12.23-.15.24-.58.42L61,273.43l-2.42,1.4-1.79.31-.27.11-.2.16-.7,1-.55,1.79-.19.51-.43.62-.08.2v.19l.16.47,0,.27,0,.24-.23.23-.32.24-4.16,1.32-4.09,2.06-1.52,1.17-.46.54-.27.24-.44.19-4,1-3.47,1.91-.27.08-.79.51L33,292l4.36-.62,4.36-.62,8.72-1.28,4.36-.63,4.36-.66,4.36-.66,4.36-.66,4.36-.66,4.36-.66,4.36-.67,4.36-.66,4.33-.7,4.36-.66,4.36-.7,4.36-.66,2-.35.31-.2.77-.93.35-.16.35-.08,2.89-.35L113,279l3.94-.5.35.54.19.12.32,0,.93-.16,7.28-1.17,7.32-1.12,7.28-1.21,7.28-1.21,7.32-1.17,7.28-1.2,7.28-1.25,7.28-1.24,7.28-1.25,7.28-1.25,7.28-1.28,7.28-1.28,7.29-1.29,7.27-1.33,7.28-1.32,7.29-1.32,7.23-1.33,7.28-1.36,7.25-1.36,7.27-1.36,7.29-1.41,7.24-1.39,7.24-1.41,7.28-1.44,7.24-1.44,7.24-1.44,7.24-1.44,7.28-1.48,7.24-1.48,7.25-1.48,7.23-1.48,6.12-1.32,1.09-.24-.24-.43-.27-.35-.27-.38-.19-.7,1.75,1.71,1.91-.39-.08-.08-.93-2.72-.59-5.38.07-.58.48,0,.54.23.35.24.39.5,1.67,3.43.27.31.63.55.27.35.11.62,0,.59.07.58.36.62.54-.12.59-.11-.9-2Z" fill="#35156B"/></svg>