<svg id="b3fb50bb-7ab0-4671-85fc-df51870df51a" data-name="Layer 1" xmlns="http://www.w3.org/2000/svg" viewBox="0 0 400 400"><title>State</title><path id="a3da737e-60b2-4332-adca-8d213e3bafac" data-name="MD" d="M305.36,271.83l-.81-.6-.87-.27-.6.4-.07,1.27.6.87,2,.53.93.67-.87.47-2.14.33-.27.54.6.67,2.08.47.73.66.34-1.66.27-2-.4-1.67ZM302,258.33l-.73-.67L300,257l-1.47.73-.88,1.47.75,1.6.73.14,2.74-.34.6-.8v-.73Zm61-21.87-1.26,7-1,3.81-.27,2.41.27,2.6-.14.93-1.47,3.49-.8,3.2.47-.2.67-.27.2-.86,1.73-3.28,1.2-7.76-.06-5.27,1.4-5.35.13-2.74-.4.13Zm1.94-13.76-.53-2.48h0l-.94.2v.07l.47,2.67v5.15l.4,2.67.81-1.8.14-3.07ZM361,240.54l.8-4.34.6-1.27.6-1.81.27-1.81-.13-1.4-.8-.8-.8.13-.94.4-1-.13.2-.2.34-.33.26-.34-.13-.53-.53.13-.14-.66.4-1.34-1.2-.54-3.15-.27,1.07-1h1.21l1.27.4,1.27.07,1.13-.47-.06-.6L359.77,222l1.07.13.73-.13.2-.6-.13-.47-1.67.33-3.75.87-5.4,1.27-5.36,1.21-5.48,1.2L334.63,227l-5.41,1.2-5.42,1.2-5.41,1.2-1.2-4-1.14-4.16-1.73-6.28-1.75-6.35-1.74-6.28-1.73-6.35-1.67-6.29-1.74-6.35-3.48-12.64-1.73-6.28-1.67-6.34L297.06,153l-1.74-6.28-1.73-6.36-1.74-6.28-1.74-6.35-1.67-6.28-7.89,1.74-7.95,1.73-7.89,1.74-7.89,1.74-7.89,1.74-8,1.67-7.89,1.73-8,1.68-7.89,1.67-7.89,1.74-8,1.6-7.89,1.67-8,1.67-7.9,1.68-8,1.6-8,1.67-7.89,1.61-8,1.6-8,1.61-7.89,1.6-7.95,1.53-8,1.61-7.88,1.61-8,1.53-7.95,1.54-8,1.53-8,1.54-7.95,1.55-8,1.53-8,1.47-7.88,1.53-8,1.48,7.62,45,.2.27.34-.07.61-.47.73-.73,6.48-8.3.55-.26L54,207.72l.54-.34.2-.4.46-2,.34-.87.73-1.07,1.67-1.88,2.88-2.33.33-.27.2-.4.61-1.27,1.13-1.2.2-.34.2-.33.13-.4.14-.27.4-2.41.13-.4.2-.47.33-.33,2.35-1.8.54-.21.6-.06,1.27.27,1.26.4,1.54,1,.8.27h.55l.6-.14L75,190l.4-.4.2-.4.54-1.21,3.27-5,.67-1.27.4-1.34.2-.34.21-.33.27-.27.26-.27.34-.2,1.13-.47.4-.26.14-.26-.14-.21L83,177.3l-.14-.33-.06-.47.06-.53.14-.4.73-1.74.2-.81.2-.72.07-.34.2-.34.2-.14h.33l.6.34.27.34.73.53.87.4.2.27v.2l-.33.2-.53.47-.07.2-.14.27V175l.07.34.07.26v.14l.13.06.47.47.2.13.27.14,2.68.66,1.33.61.34.2.4.2,1.8.26,5.75-.2.13-.32,2.21-1.21,5.08-.34,1.8-1.93.2-1-.46-.33-1.47-.2v-1.28l1.07-.6,1.33-.26.81-.47-2.41-2.27.6-.6.6-.2h1.42l.6-.2,1.6-1.28,1.33-.53h2.87l1.35-.27.47-.54.93-1.8.67-.8,1.53-2.88.47-.46.6-.47.73-.4,3.62-.47,3.54,1.4,6.28,4.21,1.54.61,1.61.26,1.54-.26.93-.81.67-.4,2.07.14.33-.34.2-.73.8-.33h1l.73.13,1.27,1.13-.07,1.41-1.06,1.34-1.62.8.6.87,1.68,3.07.4-.13v-.87l.2-1,.4-.67.67.14.6.86-.07.74-.33.53.07.6,1.07.87,1-.19,1.13-.61,1.21-.34.14.61-.88.4-.34.8.2.94.68,1-1.28,1.41,1.08.66,3.41.74.93,1.33-.06,1.67-.21,1.74.41,1.61,1.33,1.47h.13l1.48.4,3.48-.74h1.33l3.22.54,3.27.13.86.54,1.8,1.93,1.49.61,1.66.13,1.47.34,1.07,1.2.07,1.8-.74,1.54-1.87,2.48-.2,1.6.67,1.27,1.14.94,1.26.73,2.95,2,1.87.54,6.22-.67,2.34.2,2.2.68,1.88,1.26.67,1.14.6,1.34.67,1.06,1.06.27h1l2.54.33,2.22-.06.86.46,1.07.94,4.07-6.82,10,9.17-4.68,8.42.33,1.47,1.6,2-.2.81-.2.6-.27.46-.4.34,1.07,1.61-.6,1.2-2.6,1.4-.87.74-.47.53-.4.67-.26.87.06,1.54-.33,1.53-.13,1.54-.27.6-.67.4-1.55.2-.4.27-.46.54-.4.26-.34.34-.2.73v.94l.2.6h.4l.67-.53.6.47-1.73,1.26-.61.54-1.46.8-.4,1.87-.07,1.87-.47.94-.26,1.2.53,2.41.93,2.54.67,1.61,1.14,1.4,1.6,1.53,1.75.74,1.4-.87.6-.73,1.4-1,.67-1,.8-3.35-.94-.93-.4-.33-.46-.2.73-.87.8-.73.2.13.07.13.13.07.27.13.13.67-.27.73.34.94.73.8.82.35.86-.35.74-.87.8-1.87.2-.73.13-.8V249l-.13-.88,1.47,1.08,1.4,2,3.35,6,1.33,1.47,5.82,4.07,2.14.81,1.4-.4-.14-2.22-1.06-2.4-1.14-1.93-2.55-3.49,2.55.94,1.87,1.41,1.33,2.14.94,3.2.4.81.75,1.07,1.6,1.67,1.27.74,1.06.13,6.49-2.2,2.54-.28,2.21.88,1.14.73,1.06.47,1.07.67,1.14,1.26.66,1.07.94,2.08.26.74,1.09.4.33-.81-.07-2.41,1.94,1.41,1.06.47.27-1.35.27-.53.2-.8-.07-.87-.2-.6-.67-1.2-.2-.8,1.87,1.13,1.14,2.74.86,2.74,1.09,1.14,2,.27,6.08,3.54-.33-1.27-.6-.67-.68-.53-.6-.73-.14-1.41.21-1.8V267l-.74-1.47-2.87-2.81L276,261.4l-.6-.54-.81-1.6.13-1.4.33-1.34.07-1.6-1-1.21-1.6.27-1.8.87-1.54.4-1.61-.6L266,253.44l-1.27-1.53-.66-1.54-.8-.4-5-1.2-2.8-1.61-2.27-2-1.82-2.73-1.07-3.21-.26-.61-.54-.4.4-.8-.8-1.2-.66-1.87L246.73,228l-.13-1-.2-.66v-.68l1.2,2,4.8,12.9.55.61.87.4,5.94,4.94,1.34.67h2.34l.8.2,1.34.4.6.54.2.47.2.53.53.73,1.35,1.14,1.13.27,2.41-.61,1.4-1.06-.07-1.74-.93-1.87-1-1.54-2.6-2.54-6-4.55-2.07-3.07-.54-1.94-.6-5.61-.6-1.55-.8-1.54-.61-1.67.07-2.06-2.4-1.68-1.14-1.33-.46-1.74.46-1.41,2.27-2.13.67-1.54v-2l-.73.14-1.8,1.67-.81-.46.34-3.08-.87-.53-.48-.47-.13-.27-.14-.33,1.62-.4h.73l.6.33.87-1.41-.93-.86-2.62-.94-.93-.81-.8-1.13-.14-1.07,1.07-.53,1.55.53,3,2.2,1.34.34.33-1-1.34-1.94L253,194.55l-2-1.47-.8-.47-1.6-.27-.8-.4-.67-.8-.2-.87.2-.8.8-.4.73.27.87.73,1.4,1.47,4.82,3.22.53-.34.27-.68.4-.4,1.6-.46,1.14-.67.06-.93-1.26-1.34-1.47-.73-4-.94h-1.61l-.53-.2-.61-.54-.33-.81.27-.66h.6l2.68,1.21.74-.81h.93l.87.54.53.87.53-.14-.06-2L256,184l-1.4-1.6-1.67-3-.88.26L250.67,181l-.8-.34-1.27-1.4-.53-.2-.34-.47-.47-.93-.86-.87-2.22-.27-.53-.47-.47-.73-.8-.67h-.53l-1.27-.2-1-.2.46-.34,1.74-.53.6-.47.47-.8.93.53,3.82.87,1.07.74,1.06.87.74.53.47-.4.6.6.4-.66.6-.14.74.27.74.53,2.47-2.41-.14-.53-2.47.2-2.14-1.27-1.87-1.94-1.6-2.2,2.4.27.67.33L253,170l.8.73,1.2.47.54-.94-.07-.6-2.88-2.47-.8-.94.33-.6,4,.07.13-.4-.73-1,.6-.8.73-.2.67-.33.4-1.07-.4.06-.2-1.6-1.6-.4h-2l-1.28-.67,5-2.48,1,.28,2.28,3.67,1.33,4,1.54-3.08.46-.4-.06-.53-.67-.94-1.33-1.27-.47-6.75.33-.47.27-.87.4-.73.67-.21.6.54.13.73-.07,1.74.34,3.81.6,1.67,1.4.87,1.4-1.94,3.75-3.4,2.54-4,.33-.87-.13-1.13-.6-.27-2.67-.33-.94-.67.8-5.29.54-.8.67-.53.93-.33,4.68-.94.67-.53.67-2.35.6-1.07,1.07-.53-.07,3.61-.2,1.61-.47,1.47-1.2,2.87-.27,1.81.6,1.53.87-1.73,4-5.09,1-1.6.73-1.81.94-1.53,1.47-.94-.07,2.07-.33,2.21-.87,1.94L285,141.6l1,1.28,1.26.73,2.34.74.07.53-1.87.14-3.47-.34-1.47.47-1,1-1.21,1.67-2.07,3.61.14,1.67,1.8.21,7.82-1.67,1.95.13,1.13.94-1.74.46h-.54l-3,.8-7.82,1.48-5.82,2.07-.2.4-.07,2-.26.8-.61.46-1.4.6-.6.8-.06.74.26,1.81-.13.86-2,7-.46,3.27-.2.6-.2,1.08.2,1,1.81.4.67.68.53.8.27.67.67,3.88.4,1.53.8.74,1-1.41-.13-3.34.26-3.55,2.07-1.8.14.61-.81.86,1.82.2,1.33-1,1.2-1.4,1.41-1-.47,1.73-2.4,3.75-.87,2.27.67.53-.74.4-1.61.61.4.8.48.6.53.47.6.2L277,189l-.94,1.33-1.48.94-1.47.46-2,.14-1.33-.47-2.29-1.54-.8-.33-.86-.13-.6.26v2.14l-.54,2.07-.07.67.27,2.21.13,6.81.47,1.48,1.07-.27,1.27-1.21.48-1.06-.48-.47-.8-.61-.6-.8v-.87l.53-.73.53-.27,2.09-.6.46-.27.6-.53v-.27l.34-.86.46-.74h.27l.2-1.61,1.2.26,2.62,1.41-.07,1.14.14,1.4.53,1.21,1,.33.33-.53.07-2.21.13-.53.94-.07.2.74-.07,1.93.54.2,3.13.6-1.27,1.34-1.73,1.15-1.34,1.46.27,2.54,1.4,1.8,1.47-.07,1.27-1.2.61-1.6.6,1.34-.33,1.53-.75,1.21-.73.6-1.34.13-1.33-.2-1.27-.53-1.13-.81-.94-1.87-.26-.33-.75.07-.54-.27-.93-.94-1.2-.33-.94.8-1.53,2v.74l-.13.94-.27,5.41-.27,1.67v1.27l.27,2.15.53.4.87-.34.87-.8.47-.74-.54-1.19-.27-2v-2.13l.27-1.47.8-1.28.27.74.13,3.74.74.74,1-1.54,1.61-3.41,1.47.33.13,1.48-.8,3,1,.39,1.07,1.88.67.33.73-.6.2-1.07.07-1.27.33-1.14.47.8.2.87-.13.74-.34.67.87.93,1.22-.26,1.4-.67,1.47-.41.13.62-.87.52-1.6,1.28-.53.67.13.6,1.47.26,1-.4.73-.73,1-.67v1.87l1.61,1.2,2.21.67,1.74.06,1.46-.86.74-1.4.8-3.41.4-.07.27.2.4.21-.4,1.46.2,2.81-.54,1.6-.67.73-1,.61-2.13.73-7.62-1.14-1.2.54-.87-.33-.88-.54.4-.33.81-1.14-.95.4-1.6,1.14-1,.47-1.13.27-3.27.06.93.94.4.33.54.2.13.61-1.13,2.13-.27,1.34,1,.34,2.14-.48.8-.46.6-.74.26-.73-.06-.47.13-.33.73-.27.6-.13h.47l.42.07.33.26.47.87-.87,1.4.6.8-1.22,1-1.46.81-1.14,1-.2,1.54.2,2.27-.4,1.4-.73-.06-.74-1.94-.8-.67-1.26.07-.95.87.48,1.8.47.4.8.34.73.53.87,1.81.67.94.66.8.54.4,2.75,2.81,1.8,1.87.87,2.27.4-.07-.2-1.93L284,244.62l.6-.87,1.34.54,5.28,4.28,1,1.47.6.47,1.94.13.8.53,3.15,3.41.94.47.46-1,.27-2.41-.27-1.2-.4-1.14-.67-.73-.86-.27.8-2.48,1.47-2.8,1.53-1.4,1.07,1.8-.14,1.4-1.73,1.33-.2,1.21.47.74.73.6.8.47.54.47.26.8.14.87.13.8.47.4.33-.94.55-5.55.33-.8,2.67-4.88.13-.87-.06-1.07.06-.87.4-.4.94-.13.2.33-.07.47v2l-.33,1.47-1.4,4.27-.4,2.08.13,2,1.07,1.6,1.4.47,3.15-.47,1.27.33-2.35,1.8-2.67,1.41L308,256.72l-.2,3.54.47,1.74.4.67.46.13.54-.4v-.73l-.14-.81.27-.67,1.34-.73,3.28-.33,1.47-1h.93l1.2-.41,1.07.07.4.87-.4.6-2,.8-.67.53.54.47-.14.88-.47.8-.6.74-.66.46.2.67.26.07.14.06v.14l.2.2.73-.67,1-.4,1.74-.33.94-.68.54-1.06.6-.81h1.07l-.6,1.81-2.49,3.67-.46,1.2-.4.4-1.87.75-.27.73-.13,1-1,2.67-.4.66.2.07h.2l.13.07.07.46.46-.13.2-.6.34-.47.53-.33.6-.2-.06,1.2-.47.8-.47.67-.27.74.07.8.27.33.27.27.26.61.74.26,1.2-1.2,1.68-2.41,1.27-1.4,1.6-.54,6.42-.86h1.4l.87.2.26-1.41.27-1.4.33-.54,1.67-.61,3-1.06,2.27-.87,3.42-1.2,3-1.14,1.94-.66,1.33-.54v-.74l.55-4.74-.48-.6.34-.47.74-1.74.53-.6.67-.14,1.4.2.47-.13.33-.94.13-2.94.2-.66.54-.94-.2-5.35.46-1.2.74-1,1.95-1.74-.47,2.07.4.67,2.27-.67Z" fill="#35156B"/></svg>