<svg id="aefbddf2-1d19-4924-b306-10d650001258" data-name="Layer 1" xmlns="http://www.w3.org/2000/svg" viewBox="0 0 400 400"><title>State</title><polygon id="eeea93a2-a02a-43c1-aae8-c4190a86f6f8" data-name="PA" points="358.46 208.73 355.21 207.06 353.13 205.48 350.85 203.46 350.6 203.1 349.94 202.59 346.74 200.87 345.42 198.48 344.51 197.52 342.67 198.73 341.36 198.23 340.09 197.11 339.28 195.99 337.76 190.97 336.43 189.45 333.64 189.19 332.18 189.85 331.47 189.7 330.65 187.97 330.29 187.37 330.04 186.66 330.14 185.95 329.48 183.92 329.38 183.3 329.43 182.75 329.08 182.14 328.72 181.38 328.72 180.42 328.97 178.38 328.82 178.38 328.52 177.98 328.32 177.42 328.52 177.11 328.82 176.81 329.08 176.2 329.28 174.99 330.34 175.24 331.31 174.88 332.02 174.02 332.07 172.75 332.02 171.07 332.48 170.31 333.09 169.66 333.34 168.44 332.88 167.22 331.87 166.25 330.85 165.54 330.34 165.09 330.14 164.68 329.94 164.53 329.58 164.53 329.28 164.58 329.08 164.53 329.02 164.28 329.02 163.97 328.92 163.72 328.11 163.06 327.71 162.6 327.5 162.14 327.81 160.98 328.72 159.71 329.73 158.64 330.39 158.14 331.47 157.58 332.28 156.62 333.75 153.57 333.95 153.41 333.9 153.26 333.69 152.45 333.85 152.1 334.25 151.59 334.71 151.18 335.01 150.93 335.57 150.27 337.45 146.16 337.96 143.01 338.06 141.03 337.96 140.58 338.16 139.62 340.34 136.47 340.39 136.26 340.49 135.55 340.6 135.25 340.8 135 341.36 134.84 341.91 134.08 342.37 133.78 343.49 133.42 344.35 132.56 344.3 132.46 343.75 131.19 342.62 129.97 342.01 129.46 341.36 128.5 341 128.04 340.54 127.89 340.04 128.2 339.58 128.55 339.02 128.65 338.26 128.2 337.1 127.84 334.66 128.6 333.39 128.6 332.53 128.15 331.87 127.53 331.05 127.08 328.67 127.03 327.61 126.47 326.75 125.6 322.94 120.83 322.13 120.38 321.82 119.72 321.37 116.27 321.06 114.89 319.79 112.62 319.83 111.95 320.4 111.25 320.4 110.58 319.83 109.21 319.07 108.75 318.16 108.65 316.95 108.3 317.81 106.63 317.86 105.96 317.15 105.86 316.64 105.72 315.63 104.64 314.15 104.49 312.78 103.83 312.13 103.73 309.44 104.84 308.42 104.39 307.81 103.02 307.35 101.4 306.75 100.28 305.53 99.77 303.81 99.42 302.38 98.81 302.18 97.89 301.57 98.05 300.45 98.3 293.55 99.83 286.7 101.4 279.8 102.92 272.9 104.44 266 105.96 259.15 107.44 252.25 108.96 245.34 110.43 238.44 111.9 231.54 113.38 224.64 114.84 217.73 116.32 210.83 117.74 203.93 119.21 197.03 120.63 190.13 122.05 183.17 123.48 176.27 124.84 169.37 126.26 162.47 127.64 155.52 129 148.61 130.38 141.71 131.74 134.76 133.06 127.86 134.43 120.9 135.76 114 137.12 107.05 138.45 100.15 139.72 93.2 141.03 86.24 142.3 79.34 143.62 77.47 143.98 77.06 141.69 76.71 139.81 76.36 137.88 76 135.96 75.64 134.03 75.28 132.1 74.93 130.17 74.57 128.25 74.22 126.36 74.17 126.21 68.23 129.97 66.31 131.95 64.32 133.01 62.39 135.3 60.37 136.47 58.13 138.49 56.96 139.1 56.86 138.59 57.12 138.24 57.62 137.28 57.82 137.02 59.1 136.77 59.56 136.41 59.96 135.76 58.75 135.5 57.88 136.21 57.22 137.22 56.05 138.24 55.7 139.86 55.19 140.32 54.78 140.53 53.52 142 45.9 148.09 42.81 149.3 42.1 149.91 41.43 150.73 39 152 39.96 157.22 42.4 171.13 44.89 184.99 46.1 191.94 47.38 198.88 48.59 205.84 49.81 212.79 51.08 219.7 52.29 226.7 53.57 233.65 54.78 240.6 54.78 240.65 54.78 240.65 54.78 240.7 54.78 240.75 54.78 240.81 54.84 240.81 54.84 240.85 54.84 240.91 56.71 251.56 57.67 256.89 58.63 262.22 59.61 267.55 60.57 272.88 61.48 278.2 62.45 283.58 63.26 288.2 64.12 292.82 64.94 297.49 65.75 302.11 72.6 300.89 79.39 299.67 86.24 298.41 93.05 297.19 99.9 295.92 106.7 294.65 113.5 293.38 120.35 292.11 126.38 290.99 132.37 289.83 138.42 288.71 144.46 287.55 150.5 286.38 156.54 285.21 162.57 284.04 168.61 282.88 174.65 281.71 180.64 280.49 186.68 279.27 192.72 278.1 198.7 276.89 204.74 275.67 210.78 274.45 216.77 273.23 222.81 271.96 228.84 270.75 234.84 269.48 240.88 268.2 246.87 266.94 252.91 265.72 258.89 264.41 264.88 263.13 270.92 261.86 276.91 260.55 282.95 259.28 288.93 257.96 294.92 256.63 300.91 255.32 306.95 254 312.94 252.68 313.34 252.63 313.39 252.48 314.15 250.35 314.87 248.27 315.68 245.93 316.44 244.81 317.4 243.8 318.26 243.14 319.83 242.28 320.96 241.82 323.24 241.21 325.78 241.01 327.81 241.21 329.53 241.77 330.55 242.33 330.6 242.38 331.57 240.3 332.28 239.74 333.19 239.33 336.03 237.05 337.35 237.3 338.57 236.8 340.44 235.12 343.29 233.29 343.9 232.43 343.29 231.11 343.24 229.59 343.64 228.22 344.45 227.56 345.52 226.95 346.89 225.08 348 224.31 349.63 223.04 350.19 222.43 351.71 219.75 352.37 219.04 354.2 217.97 354.66 217.61 356.13 215.63 356.53 215.23 357.8 214.77 359.37 213.81 360.64 212.59 361 211.11 360.09 209.85 358.46 208.73" fill="#35156B"/></svg>