<svg id="ef44b807-c8bf-4180-a9d8-9853011c92b5" data-name="Layer 1" xmlns="http://www.w3.org/2000/svg" viewBox="0 0 400 400"><title>State</title><path id="b71d94d3-788d-400f-a2e4-d7f0b0c9f78a" data-name="SC" d="M320.31,221.17l-.87.86-.46,1.22-.06,1.45.29,1.5.46-.12.7-3.24-.18-1.21.23-.12.06-.11-.06-.12Zm37-69.8-.47-.41-.57-.24h-.64l-.06-.51,1.56-.81-5-3.47-5-3.41-5-3.42-5-3.41-5-3.41-4.91-3.41-5-3.48-5-3.46-5-3.42-9.88-6.88-9.9-6.94-4.91-3.41-4.91-3.47-4.92-3.47-2.42-1.68-1.34-.17h-2l-2.36.35L269,93l-2,.35-3.12.52-4,.64-4.8.75-5.31.87L244.1,97l-5.9.92-5.9.92-5.67.93-5.38.81-4.75.75-4,.64-3.13.46-2,.29-.69.12-2.55.4-.52-.06-.41-.34-.23-.46-.11-.52-1.16-8-.11-.46-.35-.41-3.35-3.17-4.16-3.94-2.9-2.66L190.6,83l-.23-.06h-.29l-.35.29-4.56,4.63-.35.17-.35.06-.47-.29-.28-.29-.29-.35-.18-.35-.11-.29V85.9l.06-.35.4-1.56.12-.4-.06-.46-.06-.41-.17-.34-.18-.3-.23-.23-.29-.23-.34-.23-.52-.12h-.81l-3.94.46-3.29.41-4,.47-4.69.52-5.14.63-5.49.64-5.79.63-5.78.69-5.79.7L131.5,87l-5.27.63-4.85.52-4.28.47-3.58.41-2.73.28-1.73.18-.57.11-4.58.47-4.68,1.21-.29-.06-.23-.12-.18-.17-.4-.4L98,90.3l-.29-.18-.41.06-.46.23-.81.75-.34.46-.23.47-.18,1.21-.29.35-.46.29-2.26.35-.4.23-.41.52-.23.35-.29.23-.46.17-2.31.41-.4.17-3.07,1.56-2,1.38-.52.35-.52.18-.7.06-.58.11-.34.41-.12.46-.11.87-.41.58-.58.57-1.38,1-.64.58-.52.4L76,105l-.52-.12-.29-.23-.35-.57-2,.75-17.52,9-1.16.17,0,.12.06.93-.23,1-.4.92-.64.81-1.61.75-.76.58-2.26,2.26-.58.92-.4,1.22-.58,2.54-.46,1.22-.69.87-.87.75-.75.92L43.72,131l-.18.46-.06.58.06.63v.64l-.17.7-.87,1.5-.11,3.35,2.42,2.49,6.36,2.89,2.26.75,1.5-.69.47.05.23,1,.64.86,2.54,1,1.67,1.56,1.45.69,1.33,1.62,1.16,1,2.25.82,3-.59,4.39-.63,3,1.28,1,1.9.63,2,1.27,2.38.7.58,4.51,5,.81,1.68,2.2,6.42.52,1,.52.29,1.27,1.27,1.56.35.92.64.87.74.65.7,1,2,.69,1,1.62.58.69.75,1,2,1,1.73.82,1.91.92.75,1.1.18,1.27-.18,1.21.87,1.33,1.44,1.8,1.51,2.2,1,2.19.64,2.72,1.21,3.06,1.79,3.59,2.38,2.08,1.79,1.33,3.29,1.28,1.39.81,1.62,1.33,2.08,1.5,1.22,1.67.75,1.46.41,3.17.4,1.39.46,1.51.87,3.29,3,1.5,1,2.9,1.34,1.15,1.21-.23,1.74.41.34.75,1-1,.35-.06.58,1,1.79-.81.64.63,1,3.25,2.84.63.4.18-.4.28-.41.7-.06.81.17.46.17.11.53-.8.64,1.26.69.58.81-.06.81-.8.75,1.27,1.56,1.15.81,1.22.23,1.45-.17.52.58.92,3,.52,1,2.61,1.57,6,1.39,2.89,1.09,2.14,1.45,1,.46h1.45l.92.4,1,1.16.87,1.45.4,1.27,0,2.72.23,1.5.86.53,4.29,5.2,1,2,.4,1.16.23,1.1.58,1.16.81.92.64,1.16.06,1-.29.63v.93l-.11.87.23.35.35.11.46.46.4.52.23.52.06,1.51-.17,1.21.11,1.16.87,1.16.92.69,1.33.63,1.44.41,2,.06.63.17.64.35.57.4,1.16,1,.34.16.29,0,1.52.52.4.23.35.64.29.81.46.69.92.18,1,.4.52,1.28L209,291l3.07,6,1,.17.92.76.75,1.27.41,1.56,0,1-.34,1.09-.12.75.06.87.46,2-.06.53-.4,1.45v.8l.29.52,1.56,2.26,0,.23-.11.35.06.4.29.52.35.29.75.29.41.23,2.25,2,.63.24,3.71-1,1.5.11,2.83.75.52.52.65.93,1.09.64,1.27.23,1.33-.12h.06l-.58-1-.06-.93.29-.92,2.37-4.05.41-1.56-.11-1.91.23-.58,1.21-1.85.35-.86-.06-1.16-.11-1v-.93l.4-.81.63,2.89-1.38,5.15-.12,2.95,4.85-4.34,1.63-3.36,1.39-2.13-.12-.82L244.39,300l-.7-.63-.87-.52-1-.06-1.1.75-2.6-3.23-.63-.52-1-.29-.18-1.1.42-2-.94-1.79L234,288.07l-1.33-2.59.18-1.86-.06-.52-.63-.75-1.33-2-.94-.58-.06-.46,1.23-.23.69.57.46.92.75.87,1.1.41.87-.06.23.35-.7,1.5.35,1.62,1.27,2.72,2.38,4,5,3.13,1,.34.64-.29.06-1.44-.29-.76-.81-1.15-.29-.58-.88-5.2L243,285l.4-1-.4-.17-.13-.23-.4.17-.17.12-.12-.12-.29-.58,1.75-.17.63,1.27-.23,5.73.4.34,2.14-1.44v4.91l.29,2,.75,2,.75.18,2.32-1.68.46-.11h1l.69-.29,4.75-4.29.52-1.27-1.33-.52.17-.11.23-.06.06-.12-.06-.4.41-.06.86.23.47-1.39.17-1.9-.06-1.57-.46.12-.17.69-.41.64-.81,1.1-.63.92-1.46,1.28-1.61,1-1.16.4-.17-.81.87-1.44,1.32-1.45,2.61-1.68.06-1.5-1-1.33-1.74-.35-6.08.58,1.46-.92,1.73-.76,1.91-.46,1.78-.17-.11-.58-.92-.17-1.74-.7-.92-.06-.69.24-1.16.52-.76.23-5.9-.12-1.1.81-.05-.52-.12-.46.41-.87.52-.46,2-.35,4.73-.11,1.57-.47-.52-.63-.46-.69-.35-.82-.11-.87.46-.11.63.92.58.47,2.77,1.73.87.06.81-.11,1.34.05,1.09.47.7.57.69.46h1.15l.87-.63.34-1.21,0-1.45-.41-1.22,1,.35.42.75.23.87.52.7,1,.51.46-.28.41-.52.75-.41,4.05-4.22.64-.46.52-.53.34-.74.12-.7-.12-.17-.4-.06-3.48-2.2-1-.8.92-.36,1.4.59,2.43,1.84,1.79,1,.86-.41.75-1,1.4-.75,1.38-.46,2.78-1.57,3.3-1.21.52-.69-.64-.7-1.61-.75-.12-.47.52-.51.69-.06,1.68.06,1.61-.35.58-.4,3.3-3.41.75-1.68-.23-2.38-.4.12v.47l-.18,0-1-.41-.52-.63-.65-.46-2.37-.07-1-.57-.86-.92-.46-1,1,.64,1,.35L286,250l.06-1-.35-1.21-1-1.79-.35-1,.35-.29,2.54,1.1-.17-.24v-.57l.17-.58.41-.29,1.33.81-1.1,2.2-.35,1.32.52.47,1.22.17.87.81.75.81.75.29,1.38-.58,1.81-1.16,3.11-2.71.81-1.56.69-1.91.93-1.74,1.63-1,.28-.29.12-.58.17-.58.47-.34.51-.23,2.78-2.38.4-.69L307,234l-.63.29-.58.46-.41.52-.23.69-1-1.09-.52-.81-.06-.93,1-3.76.63-1.16.87-.57,1.8-1.75,1.09-.57.7.81.29.58,1.15,1.33.4.75.81-.81,1.16-.75,1.39-.64,1.45-.34,1.56-.7.28-1-.17-1.28.23-1.44,1-1.4,2.55-1.78.81-1.22-.11-1.62-1.27-.4-1.52-.06-.86-.93,1.33-.12,1.57.12,1.27.52.69,1.21.4-.22.23-.23.29-.35.17-.46-.8-.59-.64-.8-.06-.75.81-.47.58.18.75,1.21.64.46.28-1.33.64-.86.82-.76.69-.81-.92-.11-.48-.35-.69-1.27-.34-.87-.06-.87-.29-.63-2.31-.17-1.67-.58-1.52-1-.81-1.39-.11-1.62.23-1.73.4-1.68,2.15-4.62,1-1.45,1.33-.92.06.46-.58.81-1.79,3.12-1,3.88-.17,1.84.34.76,2.66-.47.92.29.87.93.58,1.33.57,2.78.77,1,.4-.06-.35-1.79v-9.26l.35-.92-.58-.41.87-3.47,4.79-10.17,4.4-9.42,3.53-5.62,5.55-6.93,5.95-5.44,2.49-1.57,2.6-.69Z" fill="#35156B"/></svg>