<svg id="bc16a117-b4f6-4fd6-b8d4-f86bfbc10751" data-name="Layer 1" xmlns="http://www.w3.org/2000/svg" viewBox="0 0 400 400"><title>State</title><path id="fe5f61c9-fe01-4aef-987e-230fbd8bd2c6" data-name="WA" d="M123.48,123.22l-1.25-.3-.43.17-.3.26,0,.17.3.34.09.26.13.13,0,.3-.3.65.13.09.09,0,.13-.18.65-.34.64-.61.09-.21-.09,0-.13-.17.13-.34Zm-2.68,5.39.7-.39.47-.73.09-.91-.35-.86-.78.52-.47-.18-.26-.68,0-.91.52-1.72.13-1-.39-1.56-.39,0-1.11.68-.18.31-.25.39-.09.51.13.61L118,123l-.65.65-.43.9v1l.56.51.91.39.52.43-.43.91ZM117.18,114l-.38.13-1.13.78-.3.25-.13.57.09.43.34.82.43.56.4-.34.3-.78.17-.73.26-.26.43.34.56.73.13.57,0,.64.22.61.6.34,1.16.17.56-.08.61-.35-1.3-3.41.26-.38,0-.31,0-.34.09-.6.26-.43.43-.09.35.3.08.48,0,.6.26,1.59.65,1.73.3.56.38.26h.48l.21-.3.13-.35.22-.3,1.94-.73.3-.18.3-.47-3.92-3.32-1.51-.51-.87-.13-.47,0-2.41,1.76Zm3.19,34.92.09.78.3,1.17.52.94.78.17.52-.81.13-1.38-.13-1.38-.31-1.47-.26-.3-.38-.09-.48.22.52.86.21,1.12-.17.82-.61-.08-.08-.4.13-1.16-.17-.43-.39,0-.17.43Zm.69-39.57h-.13l.09.34.17.17-.13.05.13.13.26.17.09-.09-.09-.12h.13l.17.25.48.17-.43-.69-.17,0-.31-.3.39-.13.35,0,.47.21-.35-.38-.51-.26-.57,0-.08.17.13.13v.09Zm-5,10.26v.3l1.26.69.3-.13.09-.3.13-.18.13-.13h.21l.26.09h.17l.13,0,.26-.13.26-.43,0-.43-.3-.09h-.3l-.17.09,0,.26-.18,0-.08-.26.08-.26,0-.13-.73-.3-.31-.34-1.42.17-.47-.09-.09.18.13.21.47.17.13.13.35.69v.18Zm13.8,11.81-.43.09-.52.39-.64.13-1-.22-.73,1.08L122,138.31l-.39,1,.17,1.39.26.43.43.47.48.43.39.17.21.3.65,1.81,1.12-.39.86.09.52.65,0,1.34-1.21,2.84v.86l.52,1.13-.22.9.31,1.2.52,1.08.47.52.26.52.3.35.52.12.47-.12.91-.65.51,0,.52.61.21,1.07v1.29l-.12,1.17.17.3h.56l1-.17.17.17,0,.34v.31l.26.09.21-.14.22-.34.26-.22,1-1.08.26-.16.17-.22-.05-.61-.17-.9V155l-.43-1-2.76-2.67-.56-.78-.47-.9-.73-.78-.52.52-.22,1.25.3,1.25-.73,1.16-.64.22-.3-.69.21-2.72.48-3V144.3l-.13-1.25-.43-1-.78-.56-.43-.22-.83-.73-.51-.22-1.29.09-.56-.22-.39-.78,2.41.05.65-.31.26-.64.26-1,.3-.34.34,1.24.44-.73.64-.82.69-.34.65.69.38.73.61.39h.65l.64-.43.35-1.51L130.12,134l.17-1.12-.13-.22v-.6ZM132,114.68l-.13-.17-.51,0-.3-.13.3.34.78.91.43-.13.17-.78-.09-.34-.26-.26,0,.13v.47l-.13,0Zm-1.72-.21-.78-1.85-.6-.39-.34.73,0,.56.43.52.73,1.24.47,1.08.22.4.74.86.43.43L132,118v-.56l-.13-.6-.17-.52-.22-.38-.38-.48-.52-.52Zm-2.07,4.18.6.69.69.43.05-.48-.05-.38-.17-.26-.82-.09Zm-.21,1.64-.18-.48-.43-.39-.52.14-.43.51-.21.69.21,1.68.3.44.44.08h.39l.25-.17.22-.52.34-.34.22-.17-.09-.26-.47-.82Zm-3.8,67.77-.6.08-.43.52-.17.74.08.73.91-.43,1.55-1,1.9-.34.3,0-.69-.73-.69-.48-.57-.59-.34-1V185l.17-1.12,0-.6-.21-.53-.3-.34-.09-.39.39-.69-.65.13-.9.56-.77.69-.39.61-1.12,4-.22.3-.35.4-.26.47,0,.61.25.55.27.35.26.13.34-.22.26-.38.21-.52.22-1.08.26-.31.47-.17.86-.17-.21-.43h.69l.17.47-.22.53Zm-2.54-13.23.21.38h.56l.61.26.6,1.34.86.34.52-.47.39-.26-.31-.22-.12-.26v-.73l-.09-.3.09-.39-.35-.56.35,0,.25-.18.43-.33-.34-.49-.09-.86.18-1.81-.18-.38-.3-.44-.38-.38-.39-.21-.43.08-.13.43-.09.56-.26.52-.86.73-.17.3-.09.82,0,.6.22.53-.22.59Zm-9.87,21.72-.57,0-.3.43-.34.48-.39.17-.39.17,0,.56.17.08.43.7.3.3.3.3.22,0,.52-.21.64-.43.35-.83.17-.51,0-.65-.35-.35Zm-5.65-6.08.17-.51.65-.26.39-.65-.52.22-.31.08-.77.18-.39.21-.6-.13-.35.43-.3.73-.47.95-.13.43.3.65.48.65.17.52,0,.43.09.73v.47l.21.3.69-.43.6-.77.18-.73.12-.7-.25-.72-.35-.7.22-.69ZM51.7,223.67l-.3.43.47.6.73,2,.3-.52.22-.57.3-1.29-.08-.47-.61-.77-.08-.74v-.22l-.09-.51-.34.26-.39.3.08.52,0,.51ZM110,113.52l.51.3.31.3,1.25.48,0,0-.09-.13-.12,0-.22-.26-.43-.21-.56-.3-.22-.13-.39-.18Zm5.34-1.55-.13.82.18.13,1.12-.35.21-.26,0-.25.17-1-.13-.3h-1.12l-.26.21-.6.26-.31.22.69.47Zm-4.27,3.23-1.24,0-1,.7-.09,1.12,0,.26,0,1.67.13,1.73.12.43.31.65.3.39.47.43.47.3.43.17.87.13.17.13.39.39.3.43.18.43.3.34.51.26.61,0,.47,0,.43,0,.52.38.08-.34-.64-.48-.3-.26-.26-.34-.43-1.42-.09-.17.26-.65.26,0,.3.22.43-.17.64-.52.13-.3-.94-.65-.56-1.47-1.21-.81-.6-.74-.52-.86-.22-.73Zm242.07,23.71-8.79-1.38-8.8-1.37-8.79-1.43-8.8-1.42-8.75-1.47-8.79-1.46-8.8-1.51-8.75-1.51-8.79-1.51-8.76-1.55-8.79-1.55-8.75-1.56-8.75-1.59L230.31,118l-8.76-1.64-8.75-1.64-8.75-1.63-8.75-1.69-8.75-1.72L177.8,108l-8.71-1.72-8.75-1.77-8.71-1.77-8.71-1.77-8.75-1.81-3.93-.82h0l.31,1,.17,1L129,99.59l-.94,0-.61.43v1l2,.34.31,1.08-.22.26-.43.26-.47.38-.3.52,0,.73.3.61,1.46,1.76.26.65v.86l-.47,1.29.51-.64.65.56.61,1,.17.77-.17.26-.69.43-.18.26,0,.65.22.56.3.3.47-.13,1.6-1.72.82-.7.86-.17.73.3.91.7.69.86.21.94-1.25,1.47-.34.86.82.61,0,.26-.08,1.46.08.6.27.52.3.26.3.22.3.34.3,1.21-.09,1.25-.47.94-.91.22-.64-.43-1.34-1.59-.78-.43h-.86l.35.56,1.37,1.33.35.86.21.87,0,.9-.17,1.47v.56l0,.34-.09.34-.43.43-.51.13-.52-.25-.43-.48-.73-1.33-.61-.6-.56.17-.3,1.42-.43-1-.39-1.56-.6-1-1.21.52-.56.09-.65-.18h-.56l-.21.6.25.35.52.22.48.47,0,1-.3.48-.48.25-.3.44.22,1,.39.47.56.3.69.05.64-.13.35-.26.86-.87.34-.13.39.13.56.27.22.43-.69.43-.09.39.43.6.48,1.59.39.39.64.18.56.29.48.39.73,1.12,1.08.91,1.08,1.38.17.34.09.44v.6l.08.3-.82,1-.26.51.09.6-.52.18-.3-.43-.22-.61-.39-.52-.6-.21-.77-.13-1.47.13-1,.52-.65,1-.34,1.25v1.42l.38,1.42.61,1.08,2.93,3,.26.39.56,1.29.39.47.69.13-.48-1.89-.43-1-.56-.48-.52-.35-.6-.69-.51-.77-.31-.6-.13-.86,0-1,.3-.78.9-.39.13-1.12.3-.47.35,0,.3.17.17.3.17.17,1.56,1,.13,1.3-.43,1.68-.18,2,.52,1.94,1,1.59,2.36,2.72.78-.52.56.13.22.26.26.21,0,.26-.22.18-.25.17-.26.17-.26.78-.3.69-.91.3-.39.21h-1.5l-.39.17-.35.27-.9.38-.35.21-.26.4-.13.51-.56.69-.26.82-.34,1.16-.73.78-1.38.69-.52.56-.43.65-.39.86-.3,1,.13.91.34.64,0,.91,0,.91-.26.56-.87.82-.34.38-.17.48-.26.34-.52,0-.17.22.09.57.3.55.34.35,1.64,1.08.43.77.09.73-.22.86-.43,1.08-.3-.55-.26-.87-.34-.64h-.56l-.65.52-.3.34,0,.52.3,2.58.13.65.3.82,0,.65-.52,2.37.13.69.82,1.63.17.78-.13,1-.38.77-.56.47-1.38.09-.86.22-.83.3-.6.39-.43.51v.48l.3.47.6.61-.86.47-.64.13-.56-.3-1.25-1.51-1.26-1.12-.6-.69-.39,2-.94,1.85-1.21,1.64-4.22,3.7-1.6,1-1.68.52,0-.6-.25-.69-.39-.56-.9-.65-.26-.6-.22-.69-.22-.57-.69-.59-.25.25-.18.87v.17l-.43.17-.69.17-.56,0,.39-.34.26-.44.13-.47-.13-.6-1.85.9-.48.61-.13.64.05.78-.14.64-.6.44.17.68.13.82-.13.57-.56-.18-.35-.52,0-1.29-.26-.69.35-.47.22-.56,0-.61-.13-.55-.69,1.16-1,.77-1,.31-.95-.31.86-.3.65-.47,2.46-2.81.34-.73-.43-.3L100.93,196l-.22.14-.25,0-3.93,1.63-.86.18.6-.78.87-.13.82-.05.56-.34v-.82l-.78-.17-1,.22-.69.22.6-.74,1.12-.26L100,195l1.2-.64.87-1,2.07-3.83.34-.35h.69l.52-.08.73-.31,1.16-.73.57-.91,1.25-2.5.73-.69-.35.74.09.43.26.34.21.43,0,.82v.43l-.3,1.51-.34,1-.52.78-.86.17-.26,1.29.13,2.64.69,1.94,1.42-.78.09-.35,0-.38-.08-.35,0-.13.21-.17.26-.26L111,194l0,.25.35-.38.3-.22.13-.3-.69-1.77,0-.82.35-.73.82-.78.26-.43.13-.52.21-.42.31-.13.39-.1.34-.25.39-.35.38-.25,1.51-.35.65-.43.52-1-.09,1.38-.6.82-.78.65-.47.86-.52.65-.65.34-.21.47.86.95,2.89,1.94.6.13.69-1,0-.9-.65-2.15.77,0,.61-.22.51-.48.48-.68-.52-1.34.43-1.17.78-1.16.6-1.3.52-.94.78-1,.26-.94-.95-.61-.18-.81.22-1.39-.22-1-1.46.47-1,.57-1.08.42-2.24.48.3-.52,1-.56.52-.52.47-.6v-.13l-.3,0-1.25-1-.26-.39-.09-.77.09-.75.21-.55.35-.48.39-.38.9,3.36.82,1.38,1.12-.26-.22-.47L121,175l-.35-5.52-.13-.38-.3-.43-.3-.35-.21-.43,0-.69.39,0,1.81,2.67.69-.22.78-.64.56-.83,0-.64.69.05,1.85.77H127l.18-.22.3-.29.34-.44.09-.65-.17-.47-.3-.39-.39-.3-.35-.17.78-.74,0-.59-.35-.53-.13-.6.13-1.89.13-.82-.17-1.38-.82-1-2.11-1.85,0,.52.48,1.51.08.38.13,2.72,0,1.25-.35.77-.81-.34-.09-.48.22-.43v-.43l-.65-.3-.47.09-.52.3L117,165.9l-.56.77L115.33,169l-.39.65-.56.34-1,.3-3.28.48-2.8,1-.65.17-3.79,3.41-2.42,3.23-.47.52-1.38,1.17-.65.73-.25.73.6,1.47,1.59.34,3.33-.64,3.18-1.17,1.73-.34,1.12.47-1.55.9-1.56.53-7.41,1.29-2.29-.26-1.07-1.16.26-.79,1.5-2,1-1.9.9-.7,1-.55.78-.65,2-2.8.65-.74,4-3.1.55-.25.53-.09.38-.22.52-1.17.86-.68.65-1.12.86-1.12,1.08-.52-.48-1.73-.08-1,.13-.86.6-.82.35.39,0,1-.17,1.08.82-.39.34-1,.26-1,.6-.61-.13,2-.39,1.59-1.42,3.32-.69,1-.09.6.61.4h.48l.51-.13.39-.36.26-.55.3-.87.47-.94,1.17-1.85.77-1,2.2-1.68.47-.51.52-1,.43-.43h.39l1.26.21.34-.17-.09-.69-1.59-2.93-.09-.47.13-1.21,0-.44-.18-.39-.69-.6-.26-.43-1.12-3.06-.08-.86-.09-.39-.3-.47-.17-.61.17-.73L119,146l1.07-.3.43-.22L120,144l-1-.18-1.25.31-1.39,0-.56.22-.51.6-.31.78,0,.69,1.25,1.94.34.86-1,1.51-.65.43-.77-.09.09-.38.9-.35,0-1.08-.38-1.21-.43-.81L114,147l-.43-.08-.26-.3,0-.86-.13-.57-.52-.26-.65-.08-1.77,0-.38.64-.09,2.24-.47-.08-.78-.56-.47-.91.56-1.21-.65-1.59-.91-1.29-1.16-.91-1.51-.56.09-.43h.6l.6-.17.48-.3.3-.65-1.64.56-3.19,1.68-1.46.3-6.55-1.76-.74-.57L93,139l.38,0,.35,0,.43-.13-2.93-.26-.73-.26-1.73-1L86.27,137l-1.12.21-.6-.47-.91-1.08-1.33-.6-2.93-.44L73.43,133l-5.13-2.58-.74-.52-.9-1.94-.69-.78-2.89-2-.86-.39-1.85-.18-.65-.34-.78-1.08-.34-.25-2.72-1.38-1.29-1.56-5.78-4.39-1.85-1-2.12-.64-.25.77.13.74.9,1.38.78,1,.13.21-.26.52-.78.69-.26.47-.43,2-.17.26-.43.3-.13.25,0,.26.17.43-.09.3-.65,1.73-.51.73-.73.22-.22.43.73,3-.39,2-.25,2v2.07l.21,2.15.35,2,.86,2.63.25.3,1,.39.43.3.35.38,1.89,3.15.35,1.08.17,1.94.22.69.38.43.48.26.34.35,0,1.93.74,3.46,0,1-.56,4.48,0,2.28-.82,8.36.3.36.82.38.39.39-.3.39-.17.6,0,.56.3.34.52.22.22.39.47,1.94.3,2.45v2.25l-.52,4.48,0,2.5-.13,1.21L50,195.3l-.25.56-.22.26-.17.6,0,.65.17.39.3-.13,1.68-1.29.26-.05.17-.17-.08-.39-.22-.56v-.26l.09-1-.18-.91v-.42l.56-.74,1-.21,1.12.08.91.3.73.57.56.85.26,1.08,0,1.17.31.77,1.07.34,2.12.22-.09.35-.13.09-.22.26,2.5.34,1.26.38.86.7-3.28.17-3.28.69-1.37.51-.65.13-.91-.08-.73.25-.48.74,0,.6.73-.17.26.69.17.52-.08.47-.43.48L54,204l-.48-.43-.6-.44-.6,0v-.9L51.74,201l.35-.61-.3-1.33-.95.56-.3.65.21,2.16v2.28l-.25,3.79.17.78.51.47,1.42.43.69.09.35.13.39.39.3.42.34.22.61-.22-.52-.55.09-.35,2,.9.6-.12.52-.43.35-.22.43.08.6.4,1,1.12.65,1.25.73,1.07,1.25.48-.65.47-.86.22-.64-.26-.13-.73-.09-1-.64-.38-1.43,0-1.51.26-.77,1.21-.09,1.63.56,1.6-.6-.26-1-1-.69-.35.26,1,.69,1.6.34,1.51.13.3,0,.39-.09.74-.17.51-.26.39-.34.21-1,.09-.26.39,0,.64,0,.61.13.3.21.3.26.26.22.09.08.16,0,.57v.3l.65.6.86.61.56.73-.47,1-.56-.77-1.51-1.56-.22-.55-.35-.05-.38,1.25-.78,1.08-1,.6-1-.17-.48-.86L49.72,227l0-2.93.26-1.47,1.25-4.09,0-1.3-.3-1,0-.9.73-1-1.16.26-.65,2.07-1.38,9.18-.6,2.33L47,229.7l.13.73L47,231l-.51.94-.69,1-.47.6-.4.34.35.44.39.12.9-.17.22.09.13.21.13.14.38-.27-.08-.08,0-.35v-.43l.09-.26.82-.47.73,0,.69.43.57.61,1.63,2.63.86.6,1.08.18.91-.39.82-.52,1-.34.47.08,1.25.65h.43l.65-.35,1.34-.13.47-.42.39-.18.47.77.13.52v.48l.09.43L64.55,239l5.26.22,1.16.43.9.74.18,1.16,0,1,.52.91,2.67,3.11.69.55,1.12.39h1l2-.47,1,.17,2.72.09.73.38.48.61,1.2,1.33.52.44,1.21.47,1.2.82,1.12,1,.91,1,.56,1,.47,1.25.31,1.33v2.2l.43.73.56.65.43.82,0,.95-.17,2.55.35,2.06-.26,1L93.47,269l-.26,1.25.65,1.72,0,.56-.17.61-.4,1-.17.61L92.91,277v1.3l.22,1,.56.91.82.94.9.78,3.11,1.25,1.76,0,.61.13,1.21,1,2,.94,1.08.91,3.49.77,3.11,1.86.81-.05.83-.3,3.27-.26,7.93-1.16,1.86-.65,3.27-1.68,1.9-.56,1.21,0,3,1.21,6.3.17,12.11,3.54,1.85,1,.7.82.25.91.18,1,.3,1.26.64.64.95.09,4-.86h.21l.91.21.43.21.22.05,1.38.21.43.13.56.39,1.72.52,1.86-.13.56.08.25,0,2.07-1,.34,0h3.07l2.07-.39.26-.39.34-.26,1.21-.47h.47l6,2.28.47,0,1.08-.25h.39l2.07.73.47,0,1-.17,1.82-.6.43-.05.65.13,1.16.47.64.05,1.25-.26,1.21-.56,1.47-.95.86-.3,2,0,6.51-1.29,11.6.17,2-1,1.42-1.21.74-.21,1.12,0,2.84.65h5.91l10.3,1.63,2.16-.52,2.07-1.59.39,0,1.9.34,5.34.9,5.35.91,5.34.91,5.3.86,5.35.9,10.69,1.77,5.34.86,5.35.87,5.35.86,5.34.86,5.35.82,5.34.86,5.35.82,5.34.82,5.65.86-.6-2.63-1.77-3-.17-.65,1.46-1.08.61-.69.6-1.07.17-1.17-.68-1.64-.05-2.75-.38-1.26-1-2.41-1.59-2.67-.18-.87.3-1,.91-1.63.21-1.6,1.34-8.75,1.34-8.71,1.29-8.75,1.34-8.71,1.29-8.71,1.34-8.66,1.29-8.71,1.33-8.67,1.3-8.66,1.29-8.67,1.34-8.67,1.29-8.62,1.3-8.62,1.33-8.62,1.29-8.62,1.3-8.58Zm-234.09-43-2.2-.43v.26l-.17.86,1.86-.3Zm-9.91,16.64.26-.13-.05-.3-.34-.21-.05-.13.31.08.38.31.26,0,.22-.22,0-.26-.13-.17-.12,0-.43.17-.26,0-.43-.38,0-.17-.21-.31-.61-.26-.39.14.09.39Zm20.3,11.55.73.18,1-.18.35,0,.3.34h.26l.09-.39v-.51l-1.56-1.55-.43-1-.3-.18-.22.39-.13.48.09.26-.43,1.25Z" fill="#35156B"/></svg>