<svg id="ad2e930f-39f0-44f9-ad56-99b1b5d7731b" data-name="Layer 1" xmlns="http://www.w3.org/2000/svg" viewBox="0 0 400 400"><title>State</title><path id="a9e3767e-ce70-4b74-af3e-e9dd1c9513e7" data-name="GA" d="M310.92,300.68l-.17-.88.52-1.74.13-2.14-.13-1.75.13-2-.13-1.43-.22-1.19-.3.05-.13,1.92-2.15,2.4-.17,1.84.13.3.66,1.05.22.52.09.49.21,1.48,1.22,4.37.44.13.26-.61v-1.14Zm17.83-76.93-.88-.09-.7.09-.57-.14,0-.08h0l-1,.08-1-.17-.82-.48-.49-.7-.4-.39-2.13-.57-1.14-.09-2.8.74-.48-.18-1.7-1.52-.3-.18-.57-.21-.27-.22-.22-.4,0-.3.09-.26,0-.18-1.17-1.71-.22-.38v-.61l.3-1.1.05-.4-.35-1.48,0-.65.09-.57.26-.83,0-.74-.31-1.18-.56-1-.7-.56-.79-.13-2.32-4.5-.26-1.79-.39-1-.74-.3-.7-.13L305,199l-.22-.62-.26-.48-.3-.17-1.15-.4-.21,0-.26-.12-.88-.75-.43-.3-.48-.27-.48-.13-1.49,0-1.09-.31-1-.48-.7-.52-.65-.87-.09-.88.13-.91,0-1.14-.17-.39-.31-.4-.35-.35-.26-.08-.17-.26.08-.66v-.7l.22-.48,0-.79-.49-.87-.61-.7-.44-.87-.17-.83-.31-.88-.74-1.53-3.23-3.93-.66-.39-.17-1.14,0-2-.3-1-.66-1.1-.78-.87-.7-.3h-1.1l-.79-.35-1.61-1.1-2.18-.83-4.54-1-2-1.18-.39-.74-.7-2.27-.39-.43-1.09.13-.92-.18-.87-.61-1-1.18.61-.57,0-.61-.44-.61-1-.53.62-.47-.09-.4-.35-.13-.61-.13-.52,0-.22.31-.13.31-.48-.31-2.45-2.14-.48-.79.61-.48-.79-1.35,0-.44.75-.26-.57-.79-.31-.26.18-1.31-.87-.92-2.19-1-1.14-.78-2.48-2.27-1.15-.66-1-.35-2.4-.3-1.1-.31-1.26-.57-1.14-.91-1-1.58-.61-1.22-1-1-1-2.49-1.57-1.35-2.72-1.8-2.31-1.35-2-.92-1.66-.48-1.66-.74-1.36-1.14-1-1.09-.92-.66-1,.14-.83-.14-.69-.56-.62-1.44-.74-1.31-.75-1.54-.52-.56-1.22-.44-.52-.74-.79-1.53-.49-.53-.65-.56-.7-.48-1.18-.27-1-1-.39-.21-.39-.74-1.67-4.85-.61-1.27-3.41-3.8-.52-.44-1-1.79-.48-1.53-.74-1.44-2.23-1-3.32.48-2.23.44-1.7-.62-.87-.79-1-1.22-1.1-.52L194,94.08l-1.92-.75-.48-.65-.17-.79-.36,0-1.14.53-1.7-.58-4.8-2.18-1.83-1.88.08-2.53.66-1.13.13-.53v-.48l-.05-.48.05-.44.13-.35.26-.87.57-.7.65-.57.52-.65.35-.92.44-1.92.31-.92.43-.7,1.71-1.7.57-.44,1.22-.57.48-.61.3-.7.18-.74-.05-.7,0-.09-3.62.61-3.58.62-3.59.56-3.63.61-3.62.61-3.58.57-3.63.62-3.58.56-3.62.57-7.22,1.18-3.62.57-3.58.56-3.63.57-3.63.57-3.57.57-4.24.39-4.55.4-3.41.3-.35-.08-1.65.22-6,.87-6,.83-6,.82-6,.84-6,.78-6,.79-6,.83-6,.79.08.3.26,1L71.34,89,72,91.06l.83,2.58.91,3.06,1.1,3.49L76,104l1.31,4.24,1.39,4.45,1.45,4.76,1.53,4.94,1.61,5.11,1.62,5.29,1.66,5.33,1.66,5.37,1.71,5.38,1.65,5.33,1.62,5.24,1.62,5.11,1.53,5,1.48,4.72,1.4,4.5,1.35,4.19,1.23,3.89,1.09,3.45,1,3.06.83,2.63.66,2.09.48,1.53.3,1,.09.35.7,2.23-.05.52,2.15,4,.09,1.7.13.49.22.43.3.4.35.3,1.13,1,.31.35-.31.62.26.52.53.52.48.66.57,2,.66,1.14.13.74,0,1.05.35.52.65.31.44.4-.17.82,4,3.94.7.87.31.74.48,1.83.52.84.61.79.52.78.18.79V232l0,.44,0-.22,0,.74-.26.7-.13.61.35.61-.92,1.31.35,1,1.1.83,2.53,1.05.52.3.4.62.21,0,.22.09.18.39L127,241l-.31.39-.39.22-.44.09.4.66,0,.61-.35.48-.39.35-.91-.26-.74.3-.09.48.87.44-.52.52-.79.48-.79.35-.66.22-.3.26-.26.57-.53,2v.53l.22,1.44,0,.79-.35,1v1.36l.57,1.26,0,1.49,0,.22-.31.91-.17.31L119.53,261l-.66,2.36-.13,2-.13.79,0,.3v.35l-.13,1.31.48,1.14,2.22,6.29.57.92,2,2.14.57,1,.22.74.26,1.58.13.43.61,1.1.22.78-.13,1.44-.4,1.19-.13,1.22.74,1.61-.87,1.54,0,2.18.3,4.5-.17.57-.52,1-.05.61.13.44.61,1.09.18.52,0,2.15.18.92.65.65,1.09.39,1.62,1.66,1.53,2.32,1,2.62.57.57.17.61-.08.47-.26.45-.14.26-.08.18.17.74.22.21,1,.52.35.27.39.61.61,1.71.48.35.87,1.31.57,1.31.39,2.45L138,328.6l2.53,2.09.43-.13,1.63-.13h.3l1-.08,1.53-.09,2.06-.13L150,330l3.06-.21,3.45-.27,3.89-.26,4.23-.31,4.55-.35,4.8-.35,5.07-.34,5.24-.4,5.42-.44,5.55-.44,5.63-.43,5.69-.44,5.68-.48,5.67-.43,5.59-.49,5.51-.43,5.37-.48,5.2-.44,4.94-.43,4.71-.4,4.42-.4,4.06-.34,3.72-.35,3.28-.26,2.88-.26,2.36-.22,1.83-.18,2.09-.21.14.08v.18l-.05.39-.17.44-.05.21.05.22.08.22.35.44,1.45,1.35.26.35.35.48.09.26.09.27v.61l-.09.87,0,.7,0,.35,0,.31.22.48,1.09,2.05.35.44.22.17.3.13.4.09.48,0,2.27-.66h.35l1,.13h.26l.22,0,1.32-.61.26-.18.13-.26,0-.48,0-.35-.39-1.66v-1.14l.39-3.8,0-4-.08-.66-.14-.57-.13-.26-.3-.39-1.19-1.23-.3-.48-.26-.52-.18-.44-.13-.65,0-.35.13-1.35v-.75l-.44-1.4,0-.56,0-.31.05-.26.13-.22.48-.7.08-.31.05-.34v-.61l.08-.22.27-.13.52.08h.44l.44-.18.17-.21.13-.31v-1.18l.09-.26.22-.22.39-.22.4-.09.69-.08.31-.05.39,0H288l.83.35.44.27.74.26,4.85,1.13.44-.13.48,0,.69,0,.57.3.35.22.57.26.78.18,2.54.35.52,0,.53-.18.35,0,.78.31.53.13,2.14.13.48-.09,1.53-.75.92.1.39,0-.17-.71.09-1.52-.14-1.31-.3-.66-.75-.65-.31-.48-.21-.79-.13-.74-.31-.53-.74-.17-.09-.4.57-.12.52-.05.52.08.53.13-.18-.69-.26-.39-.35-.26-.26-.53v-.26l.09-.87V294l.22-.83,1.23-2,.43-1-.74-.18-1.71.31-1.13-.31,0-.43,2.27-.83.71-.7.09-1.22-.62-.92-2.36-1.75-.87-1,1.35.22,1.4.87,1.27,1.14.79,1,.34-.09.22-4.2-.17-1.53-.92,1.14-.17.7.22,1.14-.57-.36-1.36-1-1.53-.39-.3-.7.35-.53,1.91.7.13-.87-.3-1.14-.79-2.23,0-.91.39-.7,1-.35.49.65.3,2.76.13.65.53.22,1.13-.09.83-.83.92-1.79,1.31-3.19,1,.39.52-1,.09-1.39-.26-.92-.87-.61-2.41-1.23-.87-.17-1.88.13-2.32-.18-2.13-.53-1.45-.91.57-.48h.44l1.09.48,1.18.31,5.37.26,1.93-.31.43-.56-.39-1.14-.75-.79-1.79-1.27-.43-.87-.18-.74.09-.13.35-.44.39-.26.31.26.26.48.13.57.22.56.39.53.48.4.4.13.61-.27,0-.39-.08-.52v-.57l2.61-5.72.53-2.19-1.7.4-1.4,1-2.49,2.4.26-1,.39-.74.13-.61-.52-.57-.09.13-1.48.13-.31,0-.39-.26-.35-.31-.35-.35.79-.39.78-.57.87-.27,1.09.4.93.09.83-.75,1.17-1.7-.74-.62-1.39-.95-.75-.75,1.14-.13,1,.26.7.58.56.69.92,2.06.35.22.26-.27.18-.56.53-3.94v-1.48l-.36-1.22-.78-.66-.79.35-.26.74.65.61.09.39-3,.92-1,.14,1.62-2.45,0-1.1-1.67-.91-1.57-.13-.7-.31-.35-.74.27-.48h.69l.79.31.57.39,1.31.57h1.7l2.58-.48.62-.44.56-.79,1.18-2.23.31-1.57.3-.83H321l-.74.17-1.22-.82-.31-.14-2.8,0,.53-.83,1.83-.83-.13-.53-1.14-.61-.39-.48.39-.61.66-.09.48.44.44.57.35.43.92.22,2.26.05,1,.43.75-.18,1-1,1.35-2-1.3,0L324,230l-.26-1.06.43-.56.26-.26.13-.52.27-.49.65-.17,0,.22.27.48.43.48.52.22,2.11-2.27.69-1.36Z" fill="#35156B"/></svg>