<svg id="f6742853-c107-46d6-87e7-9ead0330a329" data-name="Layer 1" xmlns="http://www.w3.org/2000/svg" viewBox="0 0 400 400"><title>State</title><path id="f92267b4-fae1-434d-8f60-c967b70f40ff" data-name="LA" d="M190,295.1h-1.38l-1.71-.28,0-.1-1.75-.61-1.53-1.28-.9-.53-3.13-.47-.72.09-.19.24-.52.86-.28.28-1.33.52-1,.19-1,.38-1.25,1.24v.9l1,.76,5.84,2.09.57.52.61.19,3.33,1.9,2.13-.57.76-.1.38-.19.09-.47,0-.86.23-1.09.67-.71,1.95-1.28.43-1-.38-.48ZM236.44,325h.14l-.71-.19Zm.14,0,1.67.47,1.94-.14-1.33-.29Zm6.23.14-.44-.1-.19.24.1.28.38.19.43.1.1-.14-.15-.29Zm10-1.9-.24.05h-.95l-.14.18-.38.34-.71.19-.47-.15-.19-.23-.33,0-1.14.57-.25.33-1.47.53.15.38.85-.09,4.18-1.38.9-.48.66-.52.11-.14-.39.24Zm13.2-.38-.66-.29-1.38-.42-3.32-.39-.05.34,2.75.85,2.52.38.38,0,0-.24Zm77-44.59.24-.28-.28.24-.48.47,0,0Zm-16.85-17,.28-.19-.19-.29,0-.28.19-.48-1.42.48L324,261l-.86.86.15.28.47-.24.57-.23,1-.29ZM332.16,290l.85-.66.25-1-.1-.19-.05-.14-.1-.09-.24.09-.19.9-.76.67-1.84.85,1,0Zm-68.85,21.18.28-.38.34-.52-.1-.57-.61.33-.29,1.43.14.9.05-.71Zm74-25.26,1.48-2.09.19-.38-.28.14-.1.1-2,2.85.38-.24Zm-16.94-31.72,1.09-.33,0-.14.15-.33.28-.33.38-.15.2.05.19.14.23.15.43,0,.05-.14.14-.34.24-.37.38-.15.42.1.24.37.24.44.19.28.85,1,.38.09.28-.75.86.14.48-.52.14-1-.14-1h-.39l-.09.43-.24.37-.28.34-.38.33-.1-.29-.33-.61.09-.9-1-.33-.8-.43.71-1.29,1.37-1.8.67-.62.72-.47-.1-.43-.81.29-.67.71-1,1.42-1.28,1.19-.75.47-.81.38.52,1.05-.42.43-.73,0-.37.1-.19.47-.57.38-.71.29-.67.14.43.86Zm2.23,7.27.43-.67.66-1.56.33-1.1h-.28l-.76,1.38-.47,1.09-.2.62-.43.71-.47.72.28-.1Zm2.23,7.5-.33.1-.52.33-.57.14-1.76-.28-.1.38,2.81,2Zm-79.86,56-.24.24v.23l0,.24h.14l.52-.43.14-.47h-.19Zm96.38-16.77.05.48.43-.05L342,308l.38-.19,1.23.24-.48-.62-.23-.1-.52,0-.05-.48,1.14-.09-.67-.86-.66-.38-.85-.05-.95.24.28.62.14.29H340l-.9-.15-.81-.43-.38-.71-2.37-.42-.05-.43.62-.24.52-.28.38-.43.28-.57-.61-.19-.24-.52-.29-.67-.56-.66-.19.19-.53.38-.23-.76-.38-.43-.38-.33-.38-.57-.19.19-.53.28-.05-.71-.09-.61-.14-.38h-.24l-.1-.15,0-.19-.1-.1-.24,0-.37,1.19-.81.9-.95.52-.71-.14-.28-.43-.29-1.18-.38-.47-.62-.25-.48.1-.47.19-1.14.29-.8.38-.43.09-.62,0-.9-.52-.48-.09-.28-.2,0-.42.29-.52.58-.24.61-.05.48-.14.33-.29-.05-.33-.71,0-.66-.05-.58.19-.43.33-.33,0-.38-.24h-.47l-.53.14-.19-.14-1.18-.52-1.23.09-3.24,1.05h-.75l-.62-.24-.33-.62.28-.14.57-.14.52-.48V294.2l-.8.52-.33-.43.14-.9.47-.9-.05-.48-1,.05-1.62-.76-.95-.23.1-.24,0-.05.24-.23-.85-.29-1.38.29-1.37-.72-1.58-.38-.56-.33-.38-.62-.43-1.38-.38-.71-1.75-1.76-.39-.71.2,0,.52,0-.43-.57-.58-.24-1.37-.23,1.9-.57,4.7.8,1.05-.52-1.57-1.33-.1-.28v-.15l-.05-.28-1.18-.38.52-.33.19-.1-.81-.57-1.51-.76-.57-.66,1.7.38,2.86,1.47,1.61.19,1.52-.05,1.75.24.67.38.71.62.81.47h1l0-.47-2-1.48-.91-.43.29,0,.24,0,.23-.05.38.05-.71-.71-1.14.05-1.24.23-1.13,0-.72-.62-.47-1.05.05-1.18.76-1.09.52-.19,1.23.05.52-.1.62-.38.28-.34.49-1.18.71-.9.75-.81.43-.85-.33-1.1.71-.05.71.15.62.33.47.43.71,1,.48.38.67-.05-.05.43-.05.91,0,.42.47-.47.38-1.29.43-.52h.42l1.33.19h.57l-.81-.38-.47-.66-.38-.76-.52-.67.24-.42.37-.48.48-.38.71-.14-.24-.28-.09-.2-.19-.19-.33-.14.33-.19,1.09-.8-1.61-.48-.38-.24-.33.48-.29.24-.8.33-.05-.48,1-.85.38-.58-.23-.66-.48-.09-.66.33-.57.52-.29.53-.34,0v-.33l-.09,0,.05-.06-.38-.24-.9-1,0-.38,1.42-1,.49,1,1-.33.52-1-1-1.14-.81-.14-1.52.43h-.71l-.76-.33.1-.24.52-.24.38-.47,0-.58-.28-.47-.15-.52.29-.67.66-.47,1.57,0,.72-.24.61-.61.05-.53-.38-.33-.8-.19-.39.19-1.09.9-.29.38-.33.05-.14-.24,0,0h-.09l-.19-.1-.05-.47.43,0-.05-.38-.43-.24-1.33-.42-.56,0-.38-.33-.29,0-.39.28-.09.38.09.81,0,.33-.24.57-.19.43-.19.43-.33.42-.57.43-1.09.38-.52.28-.71.72-.24.81.19,2.32-.09,1.38-.48,1.42-.77,1.28-.9.77-1.18.42L303,267l-1.23-.33-1.15-.86-1.42-1.42.14-.77.66-1.13.1-.38-.48-.24-1.8,1-.85.33-1.53.09-.94-.13-.67-.62-.66-1.14-.48-1.19-.18-1,.18-1,.67-1,1.09-.76,1.52-.09,1.47.47,1.14.95.52-.57,0-.61-.24-.57.09-.67.43-.38,1.56-.71.1-1.62.48-.85.71-.66.62-1.19-.62-.33-1-1-.82-.24-1.42.57-.19.48.34.23.47.14.19,0v-.33l.28-.19.29.09.19.38-.1.52-.23.29-.72.62-.28.14-.85-.05-.33.05v.24l-.62,1.56-.19-.34-.24-.18-.23-.14-.19-.15.33-.66.42-1.71.53-.81-.48-.85-.43,0-.09.85-.24.85-.42.86-1.06,1.71-.14.52-.09.29h-.48l-.8-.19-.9-.39-.81-.52-.38-.61-.23-.95-.48-.33-1.29-.1-.85,2.14-1.38,1.85-3.56,3.13-1,.57-1.14.39-3.71.66-2.18.9-1.28.09-3.51-.66-2.1-1.14h-4l-2.33-.71-2-1.52-1.23-2.23v-2.94l1.09-2.1,3.75-3.94,1.29-2,1.75-3.19,1.14-1.42,1.19-1,1.8-.39,2.56.14,2.67.49,2.18.66,2.71,1.95.47.19.28.57,1.38,2.32.57.62,2.52.24.62-.15,1-.38.62-.14,1.23.33,2.09,1.48h1.24l1.8-.81,1.05,0,.57,1.1,0,.62-.09.42v.43l.33.47.42.24,1.14.24.43.24.85-.48.85-.05,1.91.2.9-.34.85-.47.76-.19.62.7-.57.39-.33.14-.52.05,1,.71,1.62-.66,1.52-1.19.52-.9-.43-.38-.71-.14-.66.28-.38.71-1.38-1.32-2-3.76L302,239.64l-.14-2.61-.38-1-1.76-2.33-.48-1-.09-.52-.05-1.15-.09-.52-.19-.42-1-1.62-1.66-.95-.91-1.9-1-.57-1.85-.52-.9-.81-1.72-2.94.57-1.38-.57-1.05-.9-.9-.61-.9-.05-1.14.28-1.42.81-2.37-.43-1.2.38-1.13,1.19-1.76.53-3.75,1-2.47.52-2.33.14-2.27-.23-1-2.05.23-2.37.19-1.09.1-3.09.28L279,197l-6.22.57-7.4.67-8.27.71-8.83.8-9.11.77-9.12.75-8.84.72-8.25.65-7.41.58-6.27.52-4.8.34-3.13.23-1.09.1-2.52.19-.33,0,4-3.89L191,199.1l-1.81-1.91-.76-1.75v-.62l.47-1.14.1-.71.14-.23.19-.72.05-.71L189,191l-.75-.43-.95-1-.67-1.28v-1l.81-.53,1.23-.19,2.62-.1,1.14-.33.61-.75.29-1,.38-4.18.47-.61.09-.58v-1.23l-.14-.38-.8-1.29-.57-.7-.29-.43-.47-2.75,1.14-2,3.61-3v-.42L197,166l-.1-1.53.62-5.6,0-1.28.14-1.09,1.42-3.18.53-2.42.42-1.19.72-1.14.9-.71,2.23-.67,1-.48,1-.9,2.28-3.08.28-.57.43-1.38.38-.57.52-.38,1.62-.66,1.85-1.62,1-2.28L214,133l-1.8-1.76,0-.43-.05-.61.15-.67.47-.57,2.89-.1,1.62-3.37,1.38-4.22,2.22-2.61,0-.48.42-.24.1-.9-.43-.94-1.28-.39-1.89-.14-.91-.28-.42-.43-.67-2.47-1.33-1.09-1.71-.57-1.89-1-.72-.84-.24-1-.14-2.61.09-.62.19-.71.1-.81-.19-.71-.43-.48-1.37-.71-.57-.42-.71-.86-.53-1-.37-1.18-.24-1.39.52-.94,1.33-.38,1.47-.19.94-.33.76-1.43L210.37,92l-1-.71-2.7-.24-.71-.47-.19-.9.19-2.57.62-3.13.47-.72.62-.42.76-.95.66-1.19.43-1.14-1.14-1.19-.71-.62-.71-.18-.86,0-.91-.24-.75-.42-.38-.57L204,74.13l-.76.14-9.54.76-9.6.76-9.58.71-9.55.72-9.54.7-9.59.72-9.6.67-9.53.66-9.6.61-9.59.62L98,81.82l-9.6.62L78.81,83l-9.59.57-9.55.57-9.59.52.38,7.5.76,15,.43,7.51.38,7.5.38,7.5.43,7.46.38,7.5.23,4.75,0,.13.14.2.29.33.76.53.38.14.71.52.23.28,1.25,2,.19.24.23.19L58,154l1.8.8.52.38,1.09,1.05.81.9.53.86.28.57.24.61.47.81L65.18,162l.19.57.52,2.47.24.75.23.48.19.15.15.23.14.24.09.28v.38l-.19,1-.09.57,0,1.8,0,.53-.1.38-.19.47-.18.66v.42l.09.49.19.61.19.38.33.57.63.71,1.51,1.52.48.38.28.15.33.14,1.33.32.33.15.29.14.19.25,0,.37-.14.34-.14.19,0,0v0l-.57.38-.14.28,0,.29.15.52.14.29.19.28.19.15.28.14.67.14.29.09.24.19.23.38.15.52.23,1,.14.53.24.42.57.71.9.86.76.48.14.19,0,.18-.61.95-.14.24-.19.57-.1.38,0,.48.15.66.19.37.28.29,1.47,1.1.62.61.19.24.15.33.19.33.09.53.19.43.19.33.28.43.1.33.33,1.71.14.33.15.19.18.19.15.09.14,0h.38l1-.33,1,.19.33,1v2.84l0,.62-.48.9-.1.71,1.62,2.28.81.67.24.43-.19.66-.38.33-1.47.52-.53.14-.76.72.57,1.42,1,1.29.43.47.47.81,0,.28-.33.67-.76.81-.49.56-.14.67.1.71.34,1.19.09.71,0,.76,0,.57-.28,1.09-1.76,3.8L81.18,230l-.47,1L79,232.52l-.42,1-.62,3.22-.06.67-1.09.38-.75.86-.43,1.14,0,1.28.19.28.42.24.19.33.1,1.24v0l.75,1.91.1.47-.1,1.18-.33.91-1.28,1.75L75,251l-.14,1.23.38,2.8.42,1,.9.71.86.9.33,1.43-.1.62-.47,1.28,0,.76.14.62.63.9.14.42.19,1.19.24.9.09,1-.28,1.47-.63,1.33,0,.57.43.76-3,3.9-1,2h0l.43,0,1,.34.33.9,0,4.13-2,4.65-.86.29-3.47.43-.47.71.19,1.47.71,2.61,1.47,1.85,1.14.76,1.14-.38.86-.76,1.66-.94.75-.72L78.53,291l2.56-.57,4.65-.33h0l5.65-.19,1.37-.67,1,.19,2.47-.42,1.19.42,1.14-.71,3.13-.76,2.9-.28,3.08.33,6.13,1.14,3.85,1.52,6.83,1.8,3,2.14,2.09,1,5.93,2.08,9.41,1.48,1.89-.62.63.29.52-.33,1.33.61,8.55.9,1.65-.19,1.57-.52,3.89-2.42,1.62-.52,3.47.09,1.51-.14.67-.86-1.19-.28.28-.67.67-.42,1.67-.48L173,293l-1.28.09-1.33.52-.81.71h-.42l-.43-1-1.81-3.19.71-.28,1.53-1.18-.52-.29-.44.1-.52.19-1.28.33-.76.66-.43.19-.52-.52-.66-1.19-.52-1.47-.29-1.09,1.24.71.33.05L165,286l.38-.9.19-.19,1,.19.47.62-.09.76-.67.61.81,0,.62-.52,1.19-1.43.71-.48,4.66-2.08.47-.48.28-.85-.14-.57.1-.29.94-.14.67.19.61.43.67.14,1.38-1.28.71-.05,2.61.19.66.33.43.62.19.85-.1,1.15-.42-.19-.52-.67-.48-.43-.57.62-.42,1.23-.15,1.19.48.53.19.47.09.9.52.62,1.38-.38,2-1.38.95-.47,5.12-.67,1.28.05,1.38.47.48.81.05,2.8-.14,1.47-.25,1.1.3.61,1.46,0,.62-.19,1.19-.67.56-.14.48.29.19.66.05.8.23.57.68,1.1.33,1.42-.15,1.33-.72.71,1.39.19,2.27-.57,2.19-.9,1.24-1,.85.48-.1.57-.33.66-.24.67.34.42.66.1,1.37-.05,1.34.24,2.47.81,1.28.76.18-.71.57-1.29.19-.71-.14-.14-.28-.52-.15-.67.19-.62,1.53-1.47.24-.9-.71-1.42.94-.05.72.24.52.56.23.82-.09,1-.43.66-.61.48-.53.57-.61,1.52-.1,1.71.43,1.66.95,1.42.38.24.76.14.28.19.14.43v1.05l.19.47.67.52,1.85.85,3.27,2.38.76,1.33-.85,1.71.05.43.28.09.28.43.29.28-.48.52-.52.43-1.13.52,0-.71-.29-.52-.42-.28-.62-.1.48-.9.14-.95L223,308.3l-1.63.62-1.37-.67-.76-1.23.14-1-1.32.2-.62.76-.33,1.09-.57,1.19-.77.66-1,.33-1-.19-.66-.95.9,2.8,2.57,1.95,3.27,1.19,5.89.52.66.19,1.38,1.09.57.24h.9l.71-.19.48-.52.09-1,.34-.33h.9l.91.28.56.52-.56.19-.38.38-.15.53.1.71,1.52-.71,1.56.23,1.47.81,2.76,2.19.57-.15.14-.28v-.29l.19-.24,1.18-.76.19-.56-.42-1,1,.28,1,.57.94.29,1-.52.52,1.13-.57.48-.85.29-.43.8h.67l2,.48.42,0,.29-1,.95,0,.86.34.38.23L250,320l.19-.33.14-.33.76-.43v-.57l-.09-.57.05-.38.61-.29.62.1.38.52.42.81-.09-1.09.19-2.47-.14-.1-.29-.28.33-1.52.24-.67.34-.52.57.62.52.61.43.24.47-.76-.76-.9.29-.67.52-.8v-1.19l-1.28,0-.28-.19-.1-.72.24-.38.42-.09.57.19,0-.62.29-.33.47-.14.62.09,0,.47-.71.43.57.24,1.94.47.68-.38.42-.57.57-.19.81.9,1.18-1.56.38-.86.05-1,.19-1h.57l.47.38.1.24.34.38,1.28,1.71.38.8.33,3.56L267.4,309l.14-.67v-.85l.23-.62.48-.38.66-.24v.43l.14.71,2.29,2.09.62,1.09.23.29.38-.81.33-1v-.53l.57.05.43.57.24.81.09.66v.76l-.19.95,0,.76-.14.66-.29.72-.19.66.29.57,1.29,1.05.37.47.24.81.1.81v.62l-.34.38.86.23,1.66-.9,2.66-2,.9-.43.85-.85.71-.95.72-.71.28-.44,1-2.61.3-1-1.81.43-1.09-1.71.14-2,1.66-.19-.71-1L284,305l.9.09.87,1,1.09-.62-.05-.42-.95-.38-.86-.71-.57-1-.24-1.18.48.09.33.29.29.38.19.47-.05-1.7-.14-.53-.2-.38-.28-.33-.38-.29-.05-1,.1-.61.42-.44.82-.47-1.34-1-1.37-.72-1.42-.33H280l-.57-.05-.57-.33-2.56-2-.57-.34-.29.38-.23.1-.29-.24-.33-.57.52-.05.48-.14.8-.42,0-.43-.34.05-1.13.09.23-1,.76-1.14.29-.66.85.66,1.52,1.81.94.76.38-.53-.8-.37.19-.38.72-.25.94.1,1.09.38,6.41,3.52,1.71.42,1.81-1,1.89,1.66.95.23L295,294l0-.9.24-.19.42.19,1.34.19.19.38-.19.81-.1-.05-.23.28-.24.38-.09.33,0,.39.15.24.14.09.09.1.14.28.24.43.38.38.33.14,1.14-.81.62-.19.33.57-.14.47-.29.38-.09.48.33.71.14-.33.1-.14.19-.14.28-.33.38.85.28.71,0,.71-.34.76-.61.57-.86.62-1.84.85h7.78l.61-.28,1.39-1.52.76-.47.66.52.05.57-.81,1.57,1,.71.42,1,.57.81,1.52.19h1.48l3.41.9-.71-1.28.57-.62,1.15-.09,1.13.42-1,.58-.49,0,3.62,5.32,1.18.33.47.34L322,313v.48l.81,1.66.62.48,1.23-.38,1.23-.86.62-1.09-.1-.76-.42-1.33-.14-.76.09-.71.33-.43h.38l.24.62.09,1.57.19.8.43.43.44-.24.09-.76-.05-.81.05-.47h.85v1.28l-.38,1.47-.33.76-.77,2.28-.47.29-1.23.38-.43.43v.38l.14.61.1.76-.24.67-1,1.56-.33.67-.9.9-.29.38-.09.62v2l1.18-.47.9-1,2.23-4.13.29-.9,0-.81.38-1,1.15-.52,1.28-.28.85-.43.24-.57-.1-.38-.19-.43-.14-.62.05-.67.24,0,.66.38.43.48,1.66,2.28.38.75.43.62,1.85,1.95.66.38.71-.43-1.32-2,0-1.19,1.38-1.66.62-.95.19-.9.29.47.33.29.66.47,0-.71-.24-.71-.33-.57L339,312,340,312l.66.33.38.71.14.95.67-.81,1.23-3.32-3.65.29-.52.09v-.76l.71-.95.9-.85.76-.29v.38Zm-25-35.89-.38-.76-.81-.38-.23-.19-.29-.19-.71-.38-.76.86-.09,1,.47,2.66.71-.52.38-1.53.43-.33.38.24.33.57.47.57.76.19-.38-.86Zm28.78,2.9,1.7-2.85.71-1.52-3.08,5.08Zm-50.43,27.58-.1.38-.38-.09-.38-.38h-.14l-.14.38-.43.43,0,.28,1,.1.71.47-.19-.33,0-.28.14-.15.38-.14v-.15l-.15-.28Zm54.46-47.29-.91-1-.61-1.47-.71-1.28L345.6,251l.9.62.61.9.76,2.23.43.43-.19.71.33,1,1,1.66-.29.43.15,1,.28,3.32-.19,1.1L348,267.94l.29.33.09.38.1.34-.05.38,1.1-2.75.33-1.48.05-5.32Zm-79.24,62.35-.43-.19-.34.09-.09.33v.33l-.14.15-1.1.61-.85.2-.28.19.14.19,2.85-1.19.33-.38Zm20.6-11-.43.05-.71.94-1.33.67-1.18.76-.24,1.47.38,0,.66-.9,1.85-1.19,1-.85-.43-.43Zm1.43-1.19-.33.24-.24.47h.57l.76-.62,0-.33-.52.1Zm-19.23,14.67-.48.1-.42.19-.43.28-1.47,1.47,3.41-1.61,0-.48Zm10.68-25.78.28.43.24.14.24.09h.28l.29-.23.42,0,.44.38.24.53.33.24.8-.19.29,0,.23-.28,0-.43-.15-.19,0,.14-.05-.19,0-.33-.09,0L287,295l-.19.14-.38.14-.52-.19-.62-.62,0-.23.61,0L286,294l-.38-.52-.53-.19-.67-.1L284,293l-.29-.25-.43-.19-1.23-.33-.76.14-.47,0-.47.09-.34.39.1.56,1,1.05.57.28.71-.28.81-.19h.33l-.14,0Zm63.67-31,.38,1-.19-.62Zm-2.09-.38-.23-.14-.29.14-.52.77.19,0,.9-.62Zm.81-1,.19-.1.14-.61-.19-.05-1,1.28,0,.19.38-.24Zm.52-.29-.14-.09.09,1,.05-.47Zm-34.46,16,.9,0,.23-.14-.14-.24-.19-.14-.33-.09-.24-.15-.09-.33-.14-.71-.35-.15-.19.05.34.48-.19.33-.05.33.09.24.1.1.05.09-.05.19Zm29.52-10.06,0-.38,0-.38,0-.24-.19.52v1.14l0,.14Zm-14.67-9.07-.14-.33-.24.05-.28.42-1.38,1.33-.09.29.52-.19.23-.15.48-.61.66-.57Z" fill="#35156B"/></svg>