<svg id="a707a6df-cbff-47cc-8162-b0ce6399d0f8" data-name="Layer 1" xmlns="http://www.w3.org/2000/svg" viewBox="0 0 400 400"><title>State</title><path id="a65c3772-3e50-4995-a08f-df2556a96a72" data-name="IA" d="M321.29,164.13l-.49,1.32.62.74,1.44.62.71.57.75.79,1.53,1.05,4,2.07,1.49,1.22,1,1.9-.05-.4.4,3.29.53,1.32,1.49.7,1.1,1.28.61.26.62.09,4,1.89.48.39,1.23,1.19.44.26.71,0,.35.4.13.7,0,.88.22.79,1.36,2.5-.13.7v2.46l-.62,2.11,0,3.6-.39,2.63-.44,1.28-.76.62-.7.35-1.75,1.62-.57.66-.53.92-.52,1.23-.31,1.32-.09,1.27-.53,1.23.09.22.22.26.09.31.13,1.4,0,.62-.18.61-.62.75-1.88,1.27-.35.44-.31.84-.79.65-1.8.88-4.4,1.18-.92.5-1.53,2.14-.83.88-1.9.79-12.81,2.06-1.72,1.32L308.2,231l-.74,2.37L307,236l-.17,2.5.09,1.23.35,1.4.61,1.19,1,.44.67.22,2.41,1.54,1.45,1.66,1,2.33.53,2.64,0,2.76-.62,2.16-4.08,5.44-.7,1.19-.4,1-.13.92,0,2.6-.18,1.27-.7,2.41-1.05,1.8-1.45,1.23-1.76.75-1.79.35-1.41.48-1.93,1.05L297,277.72l-.7,1.09-.09.4-.35.65-.08.58.21.48,1.32,1,.48.92.13,1-.17,1.81.09,1,.35,1.49.13.87-.35.62-2.63,1-.53-.44-1.37-.4-.57-.39L291,288l-.44-.53.09-.39-.05-.4-.17-.39-.31-.4-.39-.26-.93-.31-.44-.27-.13-.3-.13-.31-.14-.26-.3-.09-.48,0-.22,0-.22-.13-.22-.35-.26-.79-.14-.22-1.09-.61-1-.18-.44-.22-.39-.4-.22-.43-.13-.54-.09-.78-.22-.31-.88-.53-.21-.26-.44-.83-1.85.13-4.35.35-11.06.88-11.06.87-11.07.84-11.07.79-11.06.79-11.06.79-11.06.75-11.07.7-11.11.7-11.06.66-11.06.61L142,287l-11.06.61-11.06.57-11.11.53-11.11.53h-.26l.13-1V287L97,285.71l-.88-.58-2.46-.88-.52-1-.14-.52-.31-.4-.22-.44-.09-.83.14-.62.17-.31.62-.7.88-1.45-.09-.48-.48-.74-.13-.71.13-1.36.31-1.1.22-1.14L94,271l-.62-1.4-.08-.75.13-1.23,0-.57-.31-.62-.83-.61-.4-.44-.26-.65.09-.54.26-.3.13-.31-.26-.44-.18-.3-.09-.22-.13-.18-.22-.13V262l.27-.4.57-1.66-.31-.8-.18-1.88-.26-.88,1-.53-.61-.44-2.06-.57-.66-.7,0-1,.26-2.5.48-.27.92-1.09.62-1.19-.44-.48-.79-.09-2.07-.61-.74-.4.92-3.73v-.66l.36-2.41-.32-.57-.31-.14-.39.05-1.84-.35-.61-.35-.31-.66.09-.57.17-.75.22-.71.22-.25,0-.18-.35-.4-.57-.39-.57-.13-.39.13-.89.61-.52,0-1-.65L81,233.28l.22-1.18v-.48l-.66-.45-.35-1L80,228.85l-.09-2.46.13-.44.26-.48.44-.62.13-.3-.08-.31-.09-.79.17-1.1.36-1.06.13-1.14-.49-1.31-2.77-2.64-.17-.35-.79-1.49-.17-.53v-.65l.43-1.19.14-.53L77,209.14l-1.66-1.24-1.89-1-1.32-1.62L71.86,204l0-1.19-.08-1.1-.53-1-.83-.7-1.54-.92-.66-.88-.48-1.41.13-1,.35-1,.17-1.09-.13-1.36-.26-1-.53-.75-.65-.48-.09-.92-1.54-1.76.14-2.46.52-2.55L65.1,180l-.79-.57-1.06-.32-2-.25-.09-2.07-.31-.7-.26-.14-.22-.3,0-.35v-.48l0-.36-.13-.31-.3-.52-.18-.27-.17-.17-.27-.13-.75-.44-.09-.18v-.13l.13-.22.05-.09.49-.39.13-.27,0-.26-.18-.22-.35-.39-.4-.35-2.41-1.63-.4-.35-.39-.44-.75-1-.26-.57-.09-.49.09-.78.17-.57.35-.84.66-1,.09-.26.13-.31,0-.31.14-.3.13-.27.17-.22.13-.17.18-.09.66-.31.17-.13.13-.22.05-.31v-.74l.09-.35.08-.27.18-.21.17-.14.09-.31.09-.44,0-1.57.05-.4,0-.13.8-.92.13-.35.18-.71-.09-1.1L59,151.7l.05-.13v-.08l.17-.31.27-.79.08-.39,0-.27-.09-.17-.13-.23-.22-.3v-.31l.09-.31,1.4-1.4.18-.31.17-.44.4-2.33v-.48l-.09-.35-.13-.44-.18-.57-.44-2.5-.17-.62-.13-.26-.18-.22-.26-.13h-.26l-.44,0h-.35l-1-.13-.7.09-.39,0-.31-.1-.31-.3-.08-.31,0-.31.13-.26.4-.44.13-.22-.09-.22-.22-.22-.35-.21-.39-.62,0-.39.13-.27.27-.09.65.09.31-.09.22-.13.18-.22.08-.22.13-1.4-.08-3-.13-.61-.18-.22-.79-.79-.35-.49-.83-.83-.22-.31-.22-.57,0-.44v-.52l.08-.67,0-.39-.13-.4-.13-.3-.13-.35.17-.18,6.23-.26,14.32-.48,14.31-.53,14.31-.57,14.36-.57,14.31-.66,14.31-.71,14.32-.74,14.31-.75,14.31-.83,14.32-.88,14.31-.88,14.27-1,14.31-1,14.32-1.05,14.27-1.06,14.31-1.14v.84l.09.7.18.66.26.61.7,1.14.26.53.18.61.35,1.59.39.57.53.35,3.91,1.18,1.18,1.23.26,2.16-.7,1.79-2.06,3.3-.35,2.06.57,4,.48,1.93.18,2.11.13.66.26.65.27,2.64.35,1.27.57.92,1.36,1.41.53.79.35,1,.31,2.46.26,1.06,1.71,2.76.61.7,1.1.66,2,.66,7.72.84,2.07.57,1.05,0,1.1.26.74.79,1.07,2.28.43.67,1.27,1.53.44.83,0,.66-.48,1.32Z" fill="#35156B"/></svg>