<svg id="a6a83d8a-d748-421e-8e64-ce887815ce74" data-name="Layer 1" xmlns="http://www.w3.org/2000/svg" viewBox="0 0 400 400"><title>State</title><path id="f2aa0861-18da-4929-9852-f7e61ba1087c" data-name="CA" d="M312.68,317.77l.05-.42-.77-.67-.26-.38-.24-.24-.42-.3-2-1.88-.33-.52-.12-.12-.47-.43-.1-.12-.19-.26-.09-.1-.1,0-.11-.05-.36-.05-.14-.07-.12-.17-.1-.21,0-.41v-.28l0,0,.19-.48.19-.42-.21-.36-.05,0-.05-.66-.23-.36-.31-.31-.27-.57v-.21l.15-.74v-.26l-.1-.16-.09-.15-1.24-3.73-.69-.21-.5-.4-.26-.65.07-.9,0-.4-.15-.53L303,299l-.36-.24-.38-.19-.14-.4.21-3.76,0-.23-4.26-5.16-4.2-5.18-4.37-5.39-4.07-5.13-3.59-4.57-3.58-4.58-3.57-4.59-3.54-4.56-3.54-4.59-3.54-4.6-3.51-4.59-3.49-4.59-4.05-5.06-4-5.06-4-5.06-3.94-5.08-4-5.06-3.94-5.09-3.92-5.08-3.9-5.09-5-6.1-5-6.11-5-6.13-5-6.13-4.94-6.13-4.92-6.15-4.89-6.16L185.78,147l.07-.43.33-1.73,1-5.73,1-5.7,1.05-5.7,1-5.7,1-5.71,1-5.7,1-5.7,1-5.7,1-5.68,1.05-5.68,1-5.7,1-5.68,1-5.68,1-5.65,1.05-5.68,1-5.65-6.25-1.17-6.25-1.16-6.22-1.17-6.22-1.21-6.25-1.19-6.23-1.23-6.22-1.24-6.23-1.26L146.7,43l-6.23-1.28-6.22-1.28-6.2-1.31-6.23-1.33-6.2-1.36L109.42,35l-6.2-1.35-.12,0-.67-.14.15.62,0,.32,0,.37-.74,2.8-.31.47-.83,1.05-.83.69-.05.19.74.49,1,1.12.74,1.24-.12.88-.14.47.14.81.12.76.14.33,0,.19-.19.81-.05.31.07.31.15.28.19.24.23.19-.45.48-.07,1,0,2-.26.91-.88,1.66L100.65,56l-1,2-.69,1L98.44,60l-.5.38-.16.48-.1.57,0,.43-.14.43.53,1.37.09.72L98,65.1l-2.45,4.27L94.09,70.8l-.4.62.5-.15.52-.45,1.5-1.64.14-.07,1,.33.28-.07.19.24.09,0-.54.62-.5.16-.55,0-.68.09-.43.31-.88,1.09-.34.22-.33,1.21-.33.55-.5-.38-.28-.38,0-.12.27-.6L93,72.2l-.93.78-.59.67-.53.88,0,.1,0,.16,0,.14-.12,0h-.09l-.1.07-.09.09-.12.34-1,1.06-.29.41-.43.78-.4.79-.17.49-.21.43-.36.48-.26.45,0,.43.24.73.28,2v.81l-.59,1.38-.1.74.31.42.31.26,2.59,3.55,1.16,1.09.36.52.64,1.57,0,.24-.1.71,0,.28.16.15.55.33.19.16.62.91,2.37,5.77,0,.55-.19,1.38.09.76.1.42.12.22.26.16.07.29,0,.33.08.34,0,.52-.54,2.16.28,2-.14.26-.43.21-.4.62-.59,1.31L94.59,116,94,117l.24,1.21-.14.55.16.26.1.47.07.88v1.48l.1.71.33.36.45,2.33,0,.33-.26,1,0,.31.1.69V128l-.29.76-.33.36-.4.21-.46.48-.09.95.47,1.19,1.31,2.23,1.09,1.33.15.38.12.5.42.59.79.86.59.93,3,6.43.66.91,2.66,2.18.57.95.24,2,.5.74-.36,1.55.19.54,0-.21.16-.64,1.24,1.28.33.59,0,.27v.61l0,.29.53,1,.76,2.14.76,1.4.26.74v.76l-.31-.71-.52-.69-.43-.76,0-.88-.16-.57-1-1.59-.4-.53.36,2-.1.86L106,162.22l-1,1.1-.26.45.66.19h.19l.22-.1,0-.07,0-.07.38-.36.19-.23.26-.24.4-.19-.16-.14-.07-.15-.17-.47.24,0,.19-.09.19-.14.19-.22.26,1,.57.75,1.42,1.12.12.14.26.34.19.42.07.88.24.33.55.44.26.35.43,1,.28.21.31-.14.22-.4v-.5l1.14,1.44.57,1,.73.76.29.4.38.43.55.31.57.07.42-.29.08-.54-.19-.5-.1-.4.4-.32.12.53.29.26.26-.12.05-.5-.19-.5-.64-.81-.27-.47.19,0,.26-.19.17-.07-.19-.38.1-.33.3-.24.77-.09-.19-.34-.58-.59-.07-.62.36-1.81,0-.83,1,.17.67,0,.57-.36.64-.76,2.33,2,.33.62,0,.3.21.32.34.23.75.31,1.17.81.5.09h.33l.33-.14,1-.64.19-.17.17-.23.28-.6.12-.17.29-.16.49-.14.5-.1.38.07.36.41,0,.4-.66.9,1.06.57,1.24.34-.28.33-.15.12-.21.09.28.17.41.05.47,0,.41-.07L134,167h.31l.86.33.33,0h1l.57-.19.67-.52,1-1.1.14.05-.26.69-.34.55-.45.4-.54.26-.29,0h-.28l-.31,0-.26.17L136,168l0,.29.07.21.19.14,1.15,0,.64-.09.31-.28.09-.43.12-.22.43-.35.19-.07.14.09.14.12.19.1.15,0,.23-.23.12,0,.6.09.4.22.31.26,1.43,1.78.4.24.21.28.33.6.24.59,0,.24-.38-.27-.42-.49-.38-.6-.14-.47h-.46l-.52-.38-.74-.86-.07-.21V168l0-.26-.23-.22-.26,0-.24.09-.19.15-.17,0-.54-.14-.29.05-.17.24-.07.26-.12.31-.12.26-.14.09-.23,0-.29.07-.24.14-.12.19.12.1.69.38-.54.17-.53-.17-.93-.6-3-.92-1.11-.64-3-1-.59.05-1.31.52-.62.05-.47-.26-.79-1-.5-.26-.57,0-.42.17-1.43.95-.29.07-.35,0-.24-.12-.21-.17-.2,0-.35.66-.38.43-.48.31h-.42l.45,1.21.9.67.72.76-.08,1.54-.57,1.09-.17.69.41.38.5.19,1.19.76.42.38-1.11.22.14.07.33.26-.26.43.19.12.69,0,.26.26.1.29.24,1.3.33,3.83.19.74.31.52.61.12.15.09.09.17.1.28v.17l-.08.19,0,.19.07.09.19.08.38.28-.43.24-.55,0-.52-.14-.45-.31-.21-.45-.17-.59-.21-.46-.34,0-.23-.26-.22-.34-.24-.21-.59.12-.09-.26,0-.39,0-.28-.34-.28-.26-.1-.14-.19,0-.54-.14-.15-.85,0-.29-.08-.28-.71-.14-.19-.19-.12-.46-.12-.19-.14-.26-.36v-.23l0-.27-.11-.42,0-.31.57-2,.12-.26.22-.14.43-.07-.41-.08-.09-.19.07-.23,0-.27-.07-1.33-.19-.38-.5-.21-1.07-.17h-.54l-.43.19-.69,1.14-.12,1.38.07,1.43-.14,1.21-.29.55-.61.83-.27.71-.11,1.43.23.33.31.12.31.07.26.16.26.62V184l.17.64.24.58.12.69v.71l-.08.64-.4,1.33-.5,1.16-.26,1.17.33,1.28.62.76.26.48,0,.62.16.42,1.38,1.57,1.05,2.12.61.92,1.69,1.59.45.29.55.19h.62l.59-.1.5,0,.36.48.92-.36.76.07.62.52.52,1,.91,3.06.42,1-.9,1.83.19.17.21.09H128l.24-.09.05.26v.21l-.08.19-.14.19-.57-.28-.35-.12-.26.28-.43,1.47-.36.6-.4.52-.45.43-.57.17-.38-.31L124,212l-.48-.28-.45.16-.45.43-.69,1.09.38.22.28.31.27.21.21.29,0,.45-.16.26-.5,0-.17.26,0,.57.31,1.62v1.38l-.22,1.38v.26l.15,1v.38l0,.24,0,.19.11.33.24.26.24.19.19.24v.45l0,.33.21.38.29.29.71.38,2.12,2.11.57,1,.87,2.43.19,1.21.19.62.36.33.6.19.45.33.35.41.24.47.17.55.09.64,0,.69-.07.73,0,.64.28.55.71.93.43,1,.29.48.8.66.17.76v1.43l.62,2.09.52.21,1.33,1.07.88.33.6,1,.47,1.64.69,1.21L139,252l.6.83.64.64,1.69.62.59.41.24.45.07.5.07.88.12.4.38.78.12.48-.45.19-.4,0-.12-.22.33-.5-.14-.23-1.1,1.9-.26,1.11,0,.55.16.52.55.74,1.43.93.57.59.14-.12.48-.07.57,0,.38.12.19.21.38.6.21.14.43.26.16.19,0,1L147,267l-.31,1.21-.4,1.21-1.17,1.83-.24.71.08.29.64.83.16.26.1.29.07.28v.36l-.19.73-.62,1.17-.24.69.24.52.17.62.1.64-.24.81-.34.52-.3.4-.27.46-.45.95-.33.47.09.4.27.36.64.33.74.39.59.09.83.95.55,1.21.38,1.33,1.11.24,2.55-.07,3.92.47,1.23.34,1,.64,1.4-.14,1.43.8,2.42,1.83h.5l.62-.14.59-.05.41.26.28.34.52.47.6.4.45.15.36-.17.26-.26.31-.19,1.35-.07.53.28.64.07.3.1.26.19.51.62,1.52,1,.9.45,2.63,3.35.34.24.62.1.28.09.24.22,0,.28,0,.33,0,.31.31.26-.19.34v.45l.17.47.19.45.07.22,0,.4,0,.17.12.12.24.09.14.12,1,1.26.62.5.83.19-.35-.14-.22-.12h-.19l-.07-.31.83.33,1.95,1.71,2.5,1.22,1.28.35.95.62.38.52.54-.19.55-.14,3.9.21.36.1.23.16.22.05.3-.07.43-.17.62.27.71.66.69.86.74,1.73.35,1.57.36,1.26.07.59,0,.48-.2,1-.28.4-.45.36-.22.5.41.78.17.14.26.15.28.07.29-.1.28,0,.22.33.21.4.24.22.23.12.29.19.28.14.31,0,.17-.19.07-.24,0-.31.34-.9.19-.17h.35l.22,0,.23-.09.27,0,.57.6.42.07.55,0,.69.17.45.31,3,4.16.78.88,2.88,2.14,1.09,1.21.86,1.59.5.38,1,.9.38.41,1.28,1.87,2.17,2.12,3,5.84.95,3.21.26,1.71,0,.59.16.43.19,3.3-.09.5-.36.6-.35.28-.26.31-.08.69.5,1.12,0,.47-.15.64-.42,1.38,0,.33.17.6,0,.42.17-.26.31-1,.31-.31.38-.12.19,0,.45.16.4.33.57.36.24.31.36.69.26.78v.6l-.24.23-.33-.14-.14-.45-.29-.66-.19-.65-.28-.33,0-.43-.48-.28-.38-.07-.31.31-.26.28.76.12.53.52.33.79.31,1,0,.81-.21.73,0,.93.16.26h0l2,.12,2,.12,2,.14,2,.12,2,.12,2,.12,2,.12,2,.14,2,.12,2,.12,2,.09,2,.12,2,.12,2,.12,2,.09,4,.24,2,.1,2,.09,2,.12,2,.09,2,.1,2,.12,2,.09,2,.1,2,.09,2,.1,2,.09,2,.1,2,.07,2,.09,2,.1,1.09,0v0l.16-.4,1.12-.59,2.71.92,1.16-.09.31-.45.12-.57.05-.57.16-.55.41-.38,1.09-.55.36-.38.17-.66-.17-2.09.09-.41.1-.28,0-.31,0-.43-.59-1.16-.86-.64-2.4-.5-1-.55-.64-1.24.24-1.09.54-1.14.34-1.35,0-1.86-.11-.45-.72-1.07v-.47l.38-.86.36-.28.14-.26-.12-.36-.16-.29-.24-.45-.07-.38.28-.14,1.31.1.69-.12.52-.29,1.21-1.73.36-.74.31-.29.59-.47.43-.4.12-.22.14-.4-.05-.71.08-.43.23-.14.12-.15.07-.35.08-.69.21-.76.35-.41.36-.33.24-.43-.22-.61-.07-.36.17-.14.12-.17.07-.36,0-.38-.07-.19-.28-.38,0-.78.1-.81v-.47l.54-.33.24-.27v-.28l-.43-.69-.17-.38,0-.38.26-.69.48-.38,1.14-.55.47-.38.5-.45.38-.57.38-1.33.36-.54.47-.41,1-.17,2.94-1.57.53-.07,1-1,1-.76.9-.52.29-.41ZM103.24,172.82l-.14.14,0,.1,0,.05,0-.05,0,0-.05,0,.17-.29,0,0Zm15.25-2.33,0,.07-.11,0-.1.12,0,.26h0v0l.14.12.22,0,.21-.36h0Zm1.15,1.52v.41l0,0,.21.4,0-.09v0h0l-.14-.1.14-.52h0Z" fill="#35156B"/></svg>