<svg id="a0522843-8872-4a34-892e-b04cd7f73c94" data-name="Layer 1" xmlns="http://www.w3.org/2000/svg" viewBox="0 0 400 400"><title>State</title><path id="fe146698-51ce-4ebb-8814-9a832f888956" data-name="NV" d="M274.12,312.35l-.76.76-.53,1.25-.66,1.51-.76,1.76-1.25.51-1.73.06-.85-.16-.76-.44-.56-.62-.35-.6-.25-.54L265.1,314l-.19-.44-.29-.44-.31-.44-.28-.22-.29-.16-.22-.06h-.47l-.22,0-.19.06-.94.41-.22.06h-.22l-.25,0-.29-.06-.43-.22-.32-.29-.25-.25-.16-.12-.12-.1-1.76-.78-.32-.06-.28,0-.57.16-2,.25-1.19.53-1.23.38-.15.12-.16.13-.29.31-.12.16-.1.35-.06.47,0,1-.06.47-.22.44-.67.54-.09,1.16.19,1.16.38,1,1.13,1.92.16.41v.47l-.19.47-.76,1-.25.59-.35,2.33-.06,1.16.06.85.79,3.21.16.72-.41.85,0,1.85-1,1.95.35,1.73.38,2.11.78,2.32.19,1-.19,1.13-.06,1.07.19,2.08,0,1.69-.16.88-.53,1.64-.16.12-.44.13-.5.06-.47-.06-.38.09-.19.57.13.41.53.85.06.56-.19.41-.94.94.16,1.42,0,.47h0l-5.63-6.82-5.56-6.85-5.79-7.14-5.37-6.79-4.75-6-4.74-6.07-4.72-6.06-4.68-6-4.68-6.07-4.69-6.1L193.18,289l-4.62-6.07-5.35-6.69-5.27-6.7-5.29-6.7-5.21-6.72-5.25-6.7L157,242.67l-5.19-6.73-5.15-6.73L140,221.13l-6.64-8.07-6.6-8.11-6.57-8.11-6.53-8.11-6.51-8.14-6.47-8.14-6.45-8.14.1-.57.43-2.29,1.39-7.58,1.35-7.54,1.38-7.54,1.39-7.55,1.38-7.55,1.38-7.54,1.39-7.54,1.34-7.54,1.39-7.52L108.5,86l1.35-7.54L111.24,71l1.38-7.51L114,56l1.38-7.51L116.7,41l5.91,1.07,5.92,1.07,5.9,1,5.88,1,5.91,1,5.88,1,5.91,1,5.91,1,5.91,1,5.9,1,5.92,1,5.9,1,5.91,1,5.91.94,5.91.94,5.94.91,5.88.92,5.91.91,5.91.88,5.91.88,5.91.85,5.9.88,5.91.84,5.91.82,5.91.85,5.91.82,5.91.82,5.91.78L288,68l5.91.78,5.91.76,5.94.75L305,76.71l-.82,6.44-.81,6.48-.82,6.44-.85,6.44-.81,6.48-.82,6.44-.82,6.48-.82,6.47-.84,6.47-.82,6.48-.82,6.47-.82,6.48-.81,6.51-.85,6.47-.82,6.51-.82,6.47-.85,6.51-.81,6.5-.82,6.48-.82,6.51-.85,6.5-.81,6.51-.85,6.54-.82,6.51-.82,6.5-.81,6.51-.85,6.54-.82,6.5-.85,6.54-.81,6.51-.82,6.53-.07.35-.12,1-.19,1.53-.25,2-.32,2.35-.34,2.61-.35,2.8-.37,2.89-.38,2.89-.38,2.8-.31,2.61-.32,2.36-.25,2-.19,1.54-.12,1-.07.35-.22,1.76-.09.41-.13.4-.81.85Z" fill="#35156B"/></svg>