<svg id="baf1e6ae-d7c1-4e3f-981a-569973028a38" data-name="Layer 1" xmlns="http://www.w3.org/2000/svg" viewBox="0 0 400 400"><title>State</title><path id="f505098e-e809-4e7c-9c4e-619b528fd244" data-name="AZ" d="M311.82,123.54l-.62,7.77-.66,7.76-.62,7.77-.65,7.77-.62,7.79-.66,7.77-.62,7.76-.63,7.8-.65,7.77-.66,7.79-.62,7.77-.62,7.77-.66,7.79-.65,7.77-.63,7.8-.62,7.79-.65,7.77-.63,7.79-.65,7.77-.62,7.8-.66,7.8-.62,7.76-.65,7.8-.63,7.8-.66,7.76-.62,7.8-.65,7.8h0v0h0v0h0v0h0v0h0v0h0v0h0l-.85-.07-1.61-.13-1.6-.13-1.61-.13-1.61-.13-1.6-.13L284.1,333l-1.6-.13-1.61-.13-1.6-.16-1.61-.14-1.6-.13-1.61-.13-1.6-.13-1.61-.16-1.61-.13-1.6-.16-1.61-.14-1.6-.13-1.61-.16-1.6-.13-1.61-.13-1.6-.17-1.61-.13-1.6-.16-1.61-.13-1.61-.17-1.6-.13-1.6-.16-1.61-.13-1.57-.17L244,329.4l-1.57-.16-1.61-.17-1.6-.13-1.61-.16-1.61-.16-1.6-.14-1.61-.16-1.6-.16-1.61-.17-1.6-.13-1.61-.16-1.6-.16-1.61-.17-2.16-.2-2.23-.52-1-.49-1.87-.92-1.87-.92-1.83-.91-1.87-1-1.87-.92-1.83-.92-1.87-.92-1.83-.95-14.75-7.17-14.64-7.21-14.65-7.31-14.58-7.3-14.55-7.41-14.48-7.43-14.41-7.47-14.39-7.54-1.31-.69-.16-.1h0l.52-.42h0l.76-1.74.16-.92-.2-1L87,254l.23-.26h0l1-.65.33-.27h0l.52-.69.39-.72.43-1,.23-.55,1.54-.82,3.73,1.28,1.61-.13.42-.63.17-.78.06-.79.23-.75.56-.53,1.51-.75.49-.52.23-.92-.23-2.89.13-.55.13-.4.06-.42-.06-.59L99.84,238l-1.18-.88-3.31-.69L94,235.7,93.09,234l.33-1.51.75-1.57.46-1.86,0-2.56-.16-.62-1-1.48v-.65l.52-1.18.5-.39.19-.36-.16-.5-.23-.39-.33-.62-.1-.53.4-.19,1.8.13.95-.17.72-.39,1.67-2.39.49-1,.43-.39.82-.65.59-.56.16-.3.2-.55-.07-1,.1-.59.33-.19.16-.2.1-.49.1-1,.3-1,.49-.56.49-.46.32-.58-.29-.86-.1-.49.23-.19.16-.23.1-.5,0-.52-.1-.26-.4-.53,0-1.08.13-1.11v-.66l.75-.45.33-.36v-.4l-.59-1-.23-.52-.07-.53.36-1,.66-.52,1.57-.76.66-.52.69-.62.52-.79.53-1.83.49-.76.65-.56,1.38-.22,4.06-2.17.72-.09,1.35-1.35,1.37-1,1.25-.73.39-.55-.1-1,.07-.58-1.05-.92-.36-.53-.33-.32-.59-.43L116,177.8l-.46-.72-.16-.16-.66-.59-.13-.17-.26-.36-.13-.13-.13-.06-.16-.07-.5-.06-.19-.1-.17-.23-.13-.3,0-.55v-.4l0,0,.26-.66.26-.58-.29-.49-.07,0-.06-.92-.33-.49-.43-.42-.36-.79v-.29l.2-1v-.36l-.13-.23-.13-.2-1.7-5.14-.95-.29-.69-.56-.36-.89.09-1.24-.06-.56-.2-.72-.32-.66-.49-.32-.53-.26-.19-.56.29-5.18,0-.32,0-.5-.17-1.47,1-1,.2-.43-.07-.59-.55-.88-.13-.43.19-.59.4-.1.49.07.52-.07.46-.13.16-.13.56-1.71.17-.91,0-1.77-.2-2.17.07-1.11.2-1.18-.2-1.08-.82-2.42-.4-2.2-.36-1.8,1-2,0-1.93.43-.89-.17-.75-.82-3.35-.06-.88.06-1.21.37-2.43.26-.62.79-1,.19-.5V112l-.16-.42-1.18-2-.4-1.08-.19-1.21.09-1.22.69-.56.23-.46.07-.49,0-1,.07-.49.09-.36.14-.17.29-.32.17-.13.16-.14,1.28-.39L113,101l2.13-.26.59-.16.29,0,.33.07,1.84.82.13.1.16.13.27.26.32.3.46.22.29.07.27,0h.23l.23-.06,1-.43.2-.07.23,0h.49l.23.07.29.16.3.23.32.46.3.46.2.46.59,1.9.26.56.36.62.59.65.78.46.89.17,1.8-.07,1.31-.52.79-1.84.69-1.57.55-1.31.79-.79.85-.88.13-.43.1-.42.23-1.84.07-.36.13-1,.19-1.6.26-2.07.33-2.45.33-2.72.39-2.92.4-3,.39-3,.36-2.91.36-2.72.33-2.46.26-2.07.2-1.6.13-1,.06-.36,5.47.73,5.51.68,5.47.69,5.5.66,5.48.69,5.5.65,5.51.66,5.47.65,5.5.62,5.51.62,5.5.63,5.47.62,5.51.62,5.5.59,5.5.59,5.51.59,5.5.56,5.47.59,5.51.56,5.5.55,5.54.56,5.5.52,5.51.53,5.5.52,5.51.53,5.5.49,5.51.49,5.5.49,5.54.49,5.5.5,5.51.45,5.5.46-.62,7.74-.63,7.76L313.1,108l-.65,7.77-.63,7.76Z" fill="#35156B"/></svg>