<svg id="ac4e7798-5341-4ab3-9278-819dea265b11" data-name="Layer 1" xmlns="http://www.w3.org/2000/svg" viewBox="0 0 400 400"><title>State</title><path id="a3ed84bf-db66-4931-b47c-0417ee534b27" data-name="FL" d="M156.22,116.27l-.78.71-1.38,1-.23.38,2-.74.78-.58.26-.9-.29,0Zm-3.81,3.19-.58.87-.48.22-.16.1-.1.22-.13.23-.29.13-.39.1-.06.19v.19l-.1.2-7.44,4.93-1.58.61-.84.19-1.09-.48-.62-.06,1,.51.87.16,2.2-.32.77-.35,2.1-1.61.67-.78,3.52-2.13,2-2,.8-.48,0-.16.26-.32.2-.16,0-.3ZM138.75,125l-.13-.45-.07,0h-.48l-.52-.09-.93,0-.48.55-.71.16-1.59,0,.46.29.77.2.45.16.29.26.29.35.36.32.32.13.87.2.42-.07.13-.46,0-.41.16-.42.2-.35ZM75.93,100.64l-1.26.48-.29-.26-.8.48-3.93,1L68,102.5l-.58.17-1,.48-.32.19-.88.42-2.64.26-2.09,1-4.23,1.26-3,.41-.68.33,2.09,0,24.88-6.25h0L80,101l.43,0,.38-.13.29-.22-3.61,0ZM352.27,266.17l.29.29,0,0,0,0,.48-.07.13-.32-.35-2.35h0v0l-.26.06-.07.32-.13.23-.16.23-.25.25,0,.26h0v0h.16l.1,0,.13.07.13.06h0l-.36.45Zm-76.8-20.34-.78-.29-.94-.32h0l-.26.55-.7.19-1.33-.07-.1,0-.67-.16-.68-.39-.58-.57-.45-.84-.19-.46-.19-.38-.26-.32-.39-.2h0l.39,1.29.58,1.29.35.58.45.42.48.29,2.55.94h0v0l.65,0,.61-.32.83-1,.72-.29Zm75.7,2.55-.06-.33.54-.61.13-1.32-.16-6.45-.29-.93.1-.65-.06-.74-.29-1.44,0-.65.13-1.35-.71-5.87.58-.16v-1.26l-1.1-5.45-.48-1.28-.61-.59-.06-.28.48-.75-.2-1.16-1.74-3.86-.32-.39-.42-.22-.9-.1-.51-.13-.07-.29.42-.29.45-.13.35-.19.2-.52-.13-.48-1-1.45-1.19-2.16-1.26-1.71-.23-.58-.38-.64-1.16-.33-.36-.51-1.71-1.36-.29.1-.83.42-.36-.07L337,202l-.29,0-1.17-1-.29-.29.49-.13.35.1.29.19.3.16.93.29,1.58.13.51.29.49.8-.17-.67-8-12.54-2.51-6.22-16.89-24.72-.48-1-1.49-2.06L309.43,153l-.48-.78-1.62-4-.45-1.71-.29-.81-1.54-2.06.23-.32-.07-.32-.61-1-1.29-3.77.81.19,1.45,1,1.7.29.26.74-.13.9-.23.71-.32-.22-.16.64v.87l.16.84.26.61.65.52.74.19h2.44l.36-.1.42-.19v-.16l-.16-.62v-.16l.23-.06.22.09.23.13.13,0,.74-.2.54.1.42.36.32.61L315,147l.26,1.68-.16,5.61,1.22,7.38.67,1.7,1.72,3.2,2.95,3.67.62,1.42,1.35,1.13.23.25.19.39,1.22,1.61-.35-1.84L321,169.06l-1.12-1.68-.26-.64-.74-1.13-1.58-4.19-.58-2.32-.07-.93-.35-.23.19-.61-.74-4.16.1-.26.29-.19.22-.39.13-.38,0-.26.35-.13.51-.9.33-1L317,149l-1.42-2.65-3-3.57-2.49-2.45-3.12-4-6.45-7.18-.36-.78-.45-.71-.74-.38-.58-.39.1-.81L294,120.2l-3.61-6.35-3.1-4.64-2.19-2.81-.36-.7-.32-.88-.19-.8-.32-.8-1.48-1.81-.94-2.48-.45-.32-.32-.42-.55-2.06-.29-.59.22-.35-.41-.13-.29-.19-.13-.29.09-.46-.22,0-.36-.13h-.23V92.55l-2.12-4.71-.77-3.19-.29-.8-1.07-1.33-.45-.74-2-4.48-.33-1.74-.1-2-.19-.39L271,73l-.29-.19-.16-.23-.1-1.38-.22-.55-.26-.35-.19-.13-.2-.07-.25-.19L269,69.6l-.36-.62-.25-.32L267.24,68l-.06-.19-.65-.13-.38-.55-.19-.77,0-.74-.19-1v-.39l.32-.19.39.1.32.28.26.39.13.42.19,1,.22.74.42.55.65.35-.32-1.22-.49-3.64.07-1.2,0-.74-.25-.29-.16-.06-.07-.19-.1-.2-.29,0-.28.1-.49.25-.19.1-.93-.19-.1-.32-.29,0-.68-.06-1.13.55-.35.06L261,60.7l-.39-.09-.58-.23-.26,0-.38.13-.39,0-1.87-.26-.58-.13-.42-.2-.26-.16-.41-.22-.52,0-.35,0-.32.09-3.58-.83-.55-.2-.33-.19-.61-.26h-.32l-.29,0-.22,0-.52.07-.29.06-.29.17-.16.16-.06.19v.87l-.1.23-.13.16-.32.13h-.33l-.38-.07-.2.1-.06.16V61l0,.26-.07.22L245,62l-.1.16,0,.2,0,.22,0,.42.32,1v.55l-.1,1,0,.26.09.48.13.32.19.38.23.36.87.91.23.28.1.2.09.42.07.48,0,2.93-.28,2.81v.83l.28,1.23,0,.26,0,.35-.09.2-.19.13-1,.45-.16,0h-.19l-.71-.1h-.26l-1.67.49-.36,0-.29-.07-.22-.09-.16-.13-.26-.32-.81-1.52-.16-.35,0-.23,0-.26,0-.51.07-.65v-.45l-.07-.19-.06-.2-.26-.35-.19-.26-1.07-1-.26-.32-.06-.16,0-.16,0-.16.13-.32,0-.29v-.13l-.1-.07-1.54.16-1.35.13-1.75.16-2.12.2-2.42.19-2.74.26-3,.25-3.26.29-3.48.3-3.64.32-3.83.32-4,.35-4.06.33-4.12.35-4.19.32-4.19.36-4.19.32-4.16.32-4.09.32-4,.33-3.87.29-3.73.25-3.55.26-3.35.26-3.13.22-2.87.2-2.54.19-2.26.16-1.9.13-1.52.1-1.12.06-.71.07h-.23l-1.19.1-.32.09-1.87-1.55-1-2.73L137.23,73l-.42-1-.64-1-.36-.26-.45-1.26-.29-.45-.25-.2-.72-.38-.16-.16-.13-.55.07-.13-5.86.78-5.87.8-5.84.78-5.86.77-5.87.77-5.86.74L92.85,73,87,73.76l-5.86.7-5.87.75-5.9.7-5.86.72-5.87.67L51.76,78l-5.9.71L40,79.33l-1.67.19-.16.65.29,2,0,.22-.58,1.74-.1.46,0,.28v.26l.1.33.19.35.45.55.48.48,2,1.55.26.32L42.09,90l.61.68.55.35,3.19,1.52.32.23.16.12.1.45,0,.64L47,95.54l-.16,1.16-.52,1.23-.09.39,0,.19.2.67.9,2,0,0,.68.3.29.16.35.13.71-.2.32.07.39.38.26.55,0,.55-.32.26-.87.32-.64.61-.94,1.45,0,.29.52.26.06.45-.22.45-.39.39-.45.16-.94.1-.42.22.68.13.68.26-1.36.36-.41.19-.33.26-.19.29-.22.25-.43.2.07.32.39-.23.77-.32.32.07.61-.42,5.16-1.74.78-.49-.23-.77.39-.16.9-.26.32-.23.06-.41-.22-1.07,0-.42.68-.51.8-.16.72-.36.19-1,.16.1,0,.06.1.07h.22l.71-1.78.07-.54L57,99l-.84-1-.19-.52-.32-1.35.09-.49.52-.16.48.23.23.42.32.32.64,0-.06.23,0,.48,0,.22h.81L59,98l.22.77.33.55-.17.61,0,.71.25.45.58-.07.33-.54L60.59,99,60.94,98l.52-2.45.16-.32v-.45L61.17,94l.84.4.52.83.45.51.67-.54.23.26.06.13,0,.19-1.19.71-.49.55-.16.64.13.39.2.19.29,0,.39,0,.19.16.58.78.35.15h.65l.83.1.81.3.52.45,0,.48-.58-.1-.74-.32-.52-.13-2.15,2.26-.68.22-2,.26-2.17.87-1.31.81-.29.13-.23.19-.1.52,1.84-.46,3.58-1.48,5.7-1.48,2.09-.26,1-.29.74-.51.84.22,3-.71,2.91-.16.38-.35-.09-.68,0-.19.9,0,.42-.19.38-.71.33-.16.48-.1.45-.23.42-.29.36-.32,0-.32L81.8,95.7l-.1-.51.39.55.42.35h.35l.19-.48.26-.26.35-.13.88-.1-.68,1.26-.1.68.59.48H85l.48-.39.42-.48.51-.26.71-.19,1.55-.61.71-.2,1.61.1.75-.16.51-.61.61,1.09.52.36.64-.26.91-.58.06.71-.23.26-.19.22.33.61,1.28,1.1,0,.23.36.29,0,.58-.32.38-.74-.45-.39-.16-1.84-.29-1.09-.67-.58-.26h-.52l-.45.32.13.29.49.19.57,0,.2.1-.07.29-.22.29-.2.23-1.74-.23-.45-.32-.32-.45-.23-.45,0,0-.06-.06-.16.06-.16.45-.13.61-.2.55-.45.29-2.48-.26-3,.26-.61-.13v.26l0,.06,1.06.55,4.51-.06,6.64,1,4.9.87,4.58,1.74,3.38,1.17,4.93,2.73.9.1L112,108l-.26-.26.29-.13.55.45.19-.64-.71-.52-.74-.36-.35-.45.45-.9-.52-.42-.42-.42-.45-.35-.7-.06-.78.25-.49.26-.41.06-.65-.41-.35-.71.29-.62.64-.48.58-.26,1.17-.29.38-.35.32-.84.58.84.58.64.42.58.1.75.45.09.22-.39.2-.48.39-.29.48-.29.51-.38.42-.1.26.55.58-.55.71-1.68.32-.39.39.17.42.48.58,1-.87.06-1.23,1.93-.93-.25-.58.15-1.29,2.17-.74.58.35.38.32.26.33.19,1.38.49.39.23.35.48.58-.26.94.19.87.45.58.39,0-.26.1-.16,0-.19,0-.32.74.19.55-.26.51-.38.71-.13,0,.26-.49.51-.06.67.32.36.64-.42.23.65.1,1.45.45.68.58.22.32-.42.32-1,.32-.26,0,.1,0,.22.16.19h.29l.61-.12.29.09.23.46-.42.26-.58.25-.26.36-.52.42-1.38-.36-1.45-.8-.71-.81-.74-.55-2.51-.45-.1-.77-2.32-.13-.29.13.38.45,2.1,1.61.55.16,5.25,3.29-.74.09-.93-.45-.88-.7-.51-.65-.29,0,.13.39.16.29.16.23.22.22,1.23.81,4.51,1.45.71.45.74.58.65.74.32.74.36.61,1.38,1.39.48.87.26,3.06.1.48.16.16-.23.43-.35.48-.36.22-.51.07-.32-.16-1.16-1.36-.52-.83-.42-.94-.23-1-.29-3-.16-.42-.41,1,.38,2.19,1.19,3.52.46.57.67.58.81.23,1.32-.84.84-.06.9,0,.81-.1,4.15-2,1.52-.3,3-.06.46-.36.61-1.25.9-.26.52-1.19.45-.35.54-.3.46-.48.45-.29.64.19-.86,2-.1.38.26.72.41-.16.46-.59.48-.32.71-.26.54-.45.78-.8.55-.26,1-.26.41-.32,1.65-2.09,1-1,1.74-.74,1.39-1.49,1.86-1.48.45.39.62-.16.67-.33.71-.25,1.55-.07,1.48.26,0,.26-.13.16-.29.55,1-.81.32-1.06-.38-.87-1.19-.26-2.36,0-.38-.16-.13-.48-.16-.39-.61.06.35-.74.61.1.77.35,1.32.23,1,.25h.51l.06-.15-.86-.81-.29-.35-.11.16-.22.32-.1.19-.22-.35-.13-.23.06-.35,0-.1,0-.1-.19-.32.22-.35.17.09.09.07.29.1-.13-.71.2-.39,1.22-.93.42-.13,1.19-.1,0-.19.16-.49.22-.55.29-.35h.2l.19,0,.16.1,0,.1.77-.13.2-.13.16-.42.22-.13.23,0,.13.07.09.13.1,0,.32.19.23.52.25.32.39-.2.68-.61,2.64-.61,1.13-.68.71-.16,3.06,1.84,3.84,1.71,1.77.48.84-.32.93.81.52.32.67,0,.49.19,1.84,1,.42.39.38.48,1.61,1.26.46.9.19.19.39.17.41.22.23.42.32,1,.1.42.35.68.68.73.78.69.67.41,1.39.39.28.16.49.39.35.19.81.2h.77l.68.09.51.48.29.88.1,1-.13.91-.32.55.29.38.26.58.13.61-.1.42,1,.58.52.16.39-.1,2.22,1.94,1.16.68.9-.29.87.55.78.61,1.35,1.38.84,1.17.12.06.2.87.16.45.16.26.42.32.65.29.74.19h.58l.58.16.41.52.36.55.32.32-.39.48.07.39.32.26.55,0,.26.2.1.48.25.48.65.13.48-.1.26-.09.64-.36.52-.16,1.06-.19.42-.23.71.32.9.23.88-.1.64-.67.22.22.49.36.19.22.29-.26.68-.48.12.84.2.64.38.49.72.22-.75.61.55.68,1.55.9v.17l.19,1.32v.42l-.16.48.29.29.45.16.48,0-.13.87.33.71,1.87,1.74.32.19.29.07.74,0,.29.06.49.48.19.61,0,2.13.13.45.45,1.23-1.1-1-.67-.26-.42.74.19.35.87.87.3.52.12.16L236,151l.29,0,.16.35.26,1.45.13.42.16.29,0,.29-.26.45-.06.36.06.35.17.36.19.26-.26.83.45,3.68-.19,1.35v.52l.32,2.32-.58,1.58.1.28,0,.27-.35.61-.81,3.8.26-.13.1-.1.12-.16.16.55-.22.65L235.6,173l-.1,1.26-.13.58-.42.64-.39-.16-.09.58.09.87.1.55.38,1.06.33.61.45.55-.29.45,0,.52.13,1.16-.2,4.06-.74,3.61-.29-.58,0-.77.16-.75.26-.64-.32.45-.33.68-.22.77,0,.81.22.84.55,1.15.16.55.68.94,2.7,1.93.74,1.32.24.68.45.9.54.71.49,0-.07-.54-.38-.91-.81-1.38-.55-.71-2.64-2.13-.42-.51,0-.65.87.61,1.64,1,.81.65.84,1,.51.19.84,0,.1.2.09.93.16.36.23.16.26,0,.71-.13.58-.35.32-.68v-.81l-.35-.64.26-1.39v-.29l.06-.26.42-.74.1-.45-.1-.48-.32-.87-.16-.52,1.09-.9.32-.32-1.61.45-1.55-.35-1.54-.62-1.55-.32.52-.84,1.64-.77.39-.61-1.39.22-.38,0,0-.19.2-.36,0-.19.13-.49v-.35l-.13-.29-.41-.61-.16-.35,1.77,1.22-.1-.42v-.16l.22,0,.39.41.55.33,1.13.38.06.32-.74.43.06.32,1.2-.16,1,.06.77.45.42,1,.09,2.13.23,1,.62.78.32,0,1.38-.16.1-.46-.13-.45-.36-.58L248,187l0-.71.26-.58.74-.55.68,0,.52.42.64,1.7,1,1.68.26,1-.2.67-1,1.58-.2.49-.94.93-.16.32-.38,1.29-.23.23-.35.16-.26.26,0,.52-.07.35-.93,1-.35.94-.13.93-.26.84-.75.67.23.39.13.13-.36.61.45-.29.59-.19-.16.55-.46.48-1.06.48-.55.42h.58l.49.1.45.19.45.29-.81.16-1.06-.35-1-.13-.54.84.29.25.29.13h.29l.22-.22.23,0,.09.42v.38l-.13.39-.22.35-.48-.35-1.1-.36-.42-.22-.26-.29-.8-1.32-.26,0,.22.68,1.07,1.8.52.55.64.16,1.45,0,1.68.87.77.29.61.45.74,2,1.06,1.52.23,1.06-.26,0-.19-.22-.13-.1-.16-.06-.16-.13.13.93.64.74.75.74.61.88.25-.07-.06-.58.42.23.35.42.23.58.09.7-.22-.16-.16-.19-.26-.45.35.93,1.2,1.61.61,1.49,4.58,6.35.38.8.2.13.22.13.48.19-.29-.64-.64-.9-.22-.68,1.19,1,1.74,3.45,1.25.58.36,0,.26,0,.58.09.36.13.41.32h.26l.23-.06.09-.13.07-.09.09-.07.2.07.45.35.13.06.19-.19.26-.35.16-.36,0-.13.39.39.35,1.19.3-.26.16-.58-.13-.64-.65-1.84-.87-1.48-.26-.26-.29-.25-.74-1.23-.48-.42-.23.39-.48-.33-1.36-1.22-.54-.71-.2-.32.87.26.49.42,1,1.16.59.06.58-.45.35-.16,0,.74.84.71.48.29.16-.16.16-.46.48-.12.43-.26.06-.68.93.1.65-.26.61-.39,1.52-.57.71-.94.57-.29-.25,1.39-.16.32-.33.26-.8.32-1.74,1.45-.65.71,0,.54.9.52.54.19.36.36.26,1,.1,1-.14,5.09.14,1,.29.65.93,1.39.29.74.1,1-.07.67v.55l.45.68.71.58.48-.1.46-.42.74-.45.1.58.32-.22.87-.42.25-.23.13-.23.65-3.5.28-.75,1-1.55.64-.74.58-.38.71-.2.84-.71.52-.32-.07.55-.16.42-.22.36-.36.35-.42-.17-.39.23-.29.45-.06.42-1.42,1.94-.35.61.32,1.06-.51,1.29-.88,1.16-.93.87-.13.23-.13.19-.29.13-.29-.09-.35-.43H276l-.16.46v.61l.13.64.12.39.2-.36.25.2.13,0,.45-.35,2.29.84.81-.17.19.1.19.16.29.1.17-.16.09-.39-.32-1.07-.13-.6.39.6,1,1.23.39.61.32.81.51,2.64-.25,0-.07-.29-.26,0,.26.7,1.48,1.91.07.12,0,.29V253l.9,3.29,1.2,2.93.29,0-.1-.49-.07-.42,0-.45.09-.42,1.16,2.94.77,1,1.27.68-.26.45.19.49.42.45.48.26h.39l.87-.23.58-.1-.07.52-.19.65-.29.51-.32.26-.49-.13-.51-.39-.48-.19-.52.29.48,1.22.2.29.45.39.16.06h.29l.22,0-.06-.29.16-.22.1-.13.09-.33.07-.25.32.29.45.19.46,0,.45-.16.35-.32.19-.62.33-.38.29.44.45.3.45.09.29-.16.12.26.1.1,0,.09-.09.36.29-.16.39-.45.16-.13.35.06.58.29.87.19.52.39.41.1.42-.65.49.33.61.61.52.29.51.1,1.16,0,.51.09,1.07.52,1.06.68.91,1,.35.25-.87,1-.29.52.52.12.22.23.64,1.06.33.33h.36l1.32-.16.16.77.22.45.39.29.06.58,1.07,1.35.74,1.84.23.39.48.09.83-.35.42.1.1.29-.1.39-.19.28-.64.62.58.77,1.51,1.19.84,1.52.13.42.32.84.13.44.39.39,2,1.13,1.54,0,.23.06.74.3h1.42l.77.22,2.61,2,.39.71-.22,1-.58.61-.81.39-.87.09-.74-.16,0-.25.23-.13.32-.23.19-.1-.06-.29-3.16-.74-.58-.26h-.13l-.9-1.19-.32-.29-.45-.32-.52-.23-.48,0L318,287l-.62.67-.41,1.55-.13,1.71.19,1.35.68,1.23.84,1.22,2.15,1.42.62,0,1.74-.74,1.54-.42,1.23-.48,1.48-.29.71-.26.71-1.13.16-.1,1-.9.68.45,1.19,0-.07.38,0,.33.39,0h.19l.1-.13.06-.39.26.23.23.09.23.07.19.1,0-.2,0-.16.06-.13.06-.19.45.38.68.13.64-.09.45-.16.65-.87.49-.32.64.25.23-.06.16-.39-.07-.26-.16-.26-.16-.39.19-.16,1.39-.57-.07.22,0,0H339l-.1.09.64.1.26-.68.1-1,.26-.77.55-.29,1.57-.29.49-.19.19.25.06.13.1.16-.35.13-.16.13-.07.2-.1.29.29.09.23.16.22.19.17.27.61-.55.78,0,.7.45.29.9.26,0-.26-.87-.58-.55-.77-.29-.87.06.39-.61.71-.51.58-.17.12.65.55.09,1,1,.68.39,0-.42-.62-.39-.58-.55,0-.84,0-.48.51-.87.06-.42v-.38l.13-.36,1.39-2.29,1.23-1.48-.07-.51-.32-.3-.55-.19-.38-.29.12-.87.23-.64-.19-.19-.29-.13-.23-.2-.29-.9-.06-.77.16-.84.48-1,.13-.74-.35-2.1v-.84l.93-1.32.48-1.93-.13-1.07.07-.42.35-.44.36-.13.38-.07.39-.26.42-.9-.33-1.81.3-1.19,0-1.58,1.06-2.06.32-.06.23.54.22,1.1.07,2,.32,1.77.26-.07-1.65-12.57ZM313.85,147.53v-1.39L313,145l-.52.13-.42.29-.7.74-.75.62-.16.35-.1.74-.8.13-.1,1.19.36,1.39.45.61.93,3.39.33.77.71.81,2,3.86.81,1.07-.2-.65-.38-.64-.52-.77-.16-.49,0-.39.06-.8-.7-5.29.06-1.64Zm1.68,14.34.19.46.16.51h0v0l.29-.06-.16-.39-.9-1.26.19.29-.19-.29Zm12.11,17.57.93,1.09.17.36.16.51.52.81.38,1.22.39.58.45.46.45.67,2.71,6.16.74,1.25.16.52.16.23.58.32.16.19.26.61,3.22,4.65.71,1.58.94.8.77,1.13,0-.1.06.1-.35-1-9.64-16.28-.22-.64-.23-.87-.32-.87-.84-1.48-2-2.42-1.09-1.61-.58-1.68-.16-.13-.13-.09-.07-.1,0-.22,0,0v0l-.26.13-.1.12-.13.16.65.84Zm26.69,162.34.22-.26.07-.19-.17.16Zm3.6-2.22.27-.14-.14-.09Zm.59-.2.23-.19-.2,0Zm2.19-1.48H361l0-.23Zm1.45-.58,0,.32.16-.1ZM236,156.26l.25.2.16.06.1,0,0-.09v-.16l-.09-.16-.58,0-.07.06Zm-1-10,0,.23.1.22.32.13.07-.13,0-.13-.1-.09-.1-.59-.19-.29-.39-.09-.19.16.39.19v.23Zm.49,4.93-.26.19.09.16.69-.25-.2-.07ZM235,152l-.23,0-.19.13,0,.16.13.06-.1,0-.12,0-.17,0,0,.13.54.13,0,.16.16.09.16,0,.06,0,.13-.35,0-.52-.29-.06Zm.58,1.51-.16-.13v.2l.13,0Zm-1-3.57-.32-.1-.26.06-.06.23.13.26.16.1v.16l-.13.25V151l.19,0,.39-.09.25-.32-.06-.42Zm.68,5.12.16.19-.1-.29Zm-2.67-8.6-.1.06v.2l.13-.17.13.07,0,.1.22-.33-.19-.13-.16.07.13.1,0,0Zm.32,2.06-.29.1-.16.19.13.1.29-.23.12,0,.13,0,.16,0,.1-.09-.13-.07Zm-.71-1.55,0,.23.19.06,0-.09Zm2.22-.64.16,0v-.09l-.19-.1-.2-.06-.19,0-.22.09-.23.2.06.16.46-.16Zm-2.35,3.9.13-.07V150l-.1.1Zm-4.45-13.31-.16,0-.2.13,0,.32.2.13.22-.1.19-.23,0-.19Zm-8.89-.33-.23-.22-.29-.16-.26.29.07.61.35.09.45-.28.26-.13-.13-.07Zm15,8.64.29.13.26,0,.13-.13-.07-.06-.13,0-.12-.07-.2-.06-.22.06-.13.1.09.06Zm.45,7.51v-.1l-.19,0-.16.2.06.09.13-.06ZM300,323.92l-.19-.12-.22-.1h0l-.22,0-.71.83-.26.2-.41,0-.45-.06-.33.13-.06.71,0,0v0l1.16-.36.55-.26.35-.32.13-.29.06-.32.16.19h.07V324l.13.16.13.16.16.09h0l.22,0-.12-.32ZM297.22,267v-.2l-.16-.06-.13.09,0,.39.13.13.16-.16Zm-12.48,58.3-.51-.06-.42.16-.06.16.22-.07.19,0,.29.13.36.13.42.54.06.23.07-.45-.17-.45Zm-.06,1.81v.12l.39-.19.16-.19-.16.06Zm-.77.25,0,0-.07,0,.07.07h0l0,0,0,0,0-.1Zm19-5.19,0,0v0l-1,.45-.45.1-.42-.23h0l-.23,0-.16.3,0,.25.1.2.25.19,0,.26-.33.52-.12.15,0,0v0l2.8-1.35-.29-.67Zm1.29-52.5.13,0,0-.13.1-.13.12-.22.2-.19.38-.1.23-.2-.13-.22-.32-.16-.29-.1-.78-.42-.32-.22-.74-.23-.36.45,0,.42.12.26.17.93.22-.06.26-.35.32.06.51.45Zm.87-.64-.39.35.07.23,1.06.22.29-.13.23-.32-.2-.29h-.45l-.22.1-.13.13-.13-.2Zm-21.53,57.49.07,0-.07-.06Zm14.67-60.3-.33-.26-.48,0,0,.38.13.23.22.16.26.06.1.39,0,.68.13.13.25-.78,0-.35-.13-.26-.23-.19-.13-.1.07,0Zm1.89,1.58.13.1.62,0,.29.27.13.19.19.22.32.23.23-.13.06-.32-.16-.26-.13-.1-.13-.35-.38-.61-.39-.23-.58.23-.16.09-.33.16-.48.33-.06.51.25.2.13.09v.16h.07v-.71l.16-.16Zm-7.25-1-.48.2-.39,0-.35.1,0,.42.13.22.09.1.23.13.13.19.16.29.25.06.49,0,.2-.25.32-.91-.19-.42Zm-37.9,62,0-.07-.07-.16Zm.2-.23h.06l0-.13Zm.22.16,0-.12h-.06Zm-2.42.1.13-.13-.13-.13Zm-5.28-117.6-1.71-1.45-1.16-1.58-.45-.26-.06,0-.65-.2.26.52.58.68.32.28.42.62,1.9,1.64.77.42v0l0,0Zm22.49,25.46-.86-.68-.84-.16v0l0,0-.52.1.71,1.16.93,1.25.74,1.2v1.12l.65.75.94,2,.64.78h0l.52.09-.07-.74-.64-2.16-.39-.55-.74-.83-.62-.87.1-1.58Zm13.12,90.76.13.09.07-.09-.13-.1Zm-27.65.16v0l-.07.06,0,.06h0l0,0v-.06ZM283.2,327l.06.06-.06-.22Zm-16.79-87.86-.84-1.51-.23-1-.29-.17-.06,0-.1,0-.16,0,.81,1.94.45.8.71.87,0,0,0,.06Zm40.51,79-.36-.42-.13,0,0,0v0l-.09,0-.07,0,0-.22h0l-.26,0-.13,1,0,0v0l.42,0,.26.07.06.13-.16.28.07.33h0l.68-.17.41.13.24.42-.1.59-.23.06-.29-.49h0l-.55-.25-1-.1-.19,0v0l0,0,.29.26.25.19.65.26-.23.42-.09.09-.1.16L306,321l-.81.56-.38-.17h0l-.41.26-.65.78,0,.28,0,0v0l2.68-1.25,1.23-.81.86-.84-.06-.32Zm-42.8-85-.58-.9-.23-.26h0l-.13,0-.16.29.48.71.45,2.1.45.84v0l0,0,.13-1-.1-.9ZM319,287.7l.35.19.42.16,0-.42.07-.22-.07-.16-.16-.33h-.32l-.42.2h-.16l.1-.1-.26,0-.2.26Zm5.6,2.25.19-.22.26-.07-.26-.28-.25,0v.06l.06.07,0,0-.13.26Zm.93,1.1.4,0h0l-.1-.32.29-.19.16-.13-.09-.07v-.16l-.29-.07-.23,0,.13.12-.06.2Zm-4.15-3.35.29-.33-.1-.16-.71-.06-.22.1,0,.25.16.23.19.16Zm-1,.74.22.51.39.46.35.06.23-.23.09-.29.23-.55-.19-.44-.2-.07H321l-.48.16Zm-.16-1.78,0-.13h-.64l-.78-.12-.22.12-.07.27.29,0Zm-74.71-84.5h0l-.17,0-.06.16-.13.39,0,0v0l.65-.42,0,0h0l.07-.1-.07,0,0,0-.12.07Zm80.83,87.44.16.23.16.61.1,0,.1-.29v-.38l-.29-.52-.29-.22-.19.29v.35l.09,0Zm-17.24,27.81-.16-.13-.32-.19-.33-.06H308l-.2-.07-.12,0-.08.49,0,.58.23.32.13.1.09.06h.2l.16-.13.16-.09.26,0,.25.19.23.29.06-.22-.16-.78ZM237.05,160l0,.1,0,0,.13-.1v-.09l-.19-.26-.36.06.23.1ZM342.34,289.41l-.16.06v.16l-.2.1-.06.19h0l.29-.13Zm-5.06,4.22-.1-.23-.16-.06,0,.41.09-.06Zm.74,9,.06.22.17-.06Zm.51-8.9-.22-.09-.19.09,0,.1.19.16.1.23.13,0,.09.13.07-.22-.07-.3Zm-2.45-.86-.29.06.29.29Zm1.39,11.6-.29.22L337,305l0,.32.16,0,.55-.48.25-.26.36-.58-.1-.19Zm3.45-3.87-.22.26-1,1.71.38-.23.65-1,.26-.54,0-.1Zm-2.16-7.12.16,0v-.42l-.26-.49-.06-.09-.1.16,0,.45Zm12.48-12.73-.59.51-.77,1.71-.45.42-1.19.55-.19.29.22.45.32.16.36.26.19.58-.19,1-1.16,1.81-.42,2-1.84-.07-.06.81v0l.51-.29h.16l.29.06.29.36-.06.51-.29-.09h0l-.12,0,0,.16.22.25-.25.59-.36.29-.8.29.22.51-.19.52-.77,1.19-.39,1-.26.26-.61.19-.17.29-.22,1.58-.39.26-.58.22-.32.33.29.41h0l.78-.12.7-1.07,1.1-2.09,1-1.26.23-.51.16-1,.19-.51.45,0,.39-.29,2.61-3.67-.06-.26-.29-.61.32-1.13.93-2.07.88-1.64.13-.48v-.33l.09-.54.2-.52.19-.32.16-.13.13-.16.1-.16.06-.26-.9-.19Zm-10.8,10-.26-.1-.33-.06-.12.22.16.16.49.1Zm-1.71,4.09.16.23L339,295l-.13-.23Zm-2.61,4.25.19-.25-.23,0Zm1.64-5-.42,0,.62.19Zm-20.08,22.34-.38.64.06.1.35-.29.23-.35-.07-.16Zm-5.18-1.58-1.3-.71h-.32l-.1,0-.16-.13.13.13h0l-.16-.13,3.29,3.54.26,1.23h0v0l.78-.8-.88-1.58Zm-2.07,2.38-.29,0,0,.17.13,0,0,.09-.22.26.1.26.51.32.1.19.22,0,0-.45-.22-.45Zm1.13.94.13.13.29.13.1-.36-.29-.13Zm3.35-2.68-.29,0-.13.17.16.29.16.13.39.16.39.35,0-.22-.29-.58Zm19.44-13.73.19.17v-.07Zm.83,4.67h0l-.25,0-.2.26-.09,0h0l0-.29V306l0,0v0l-1.51,1.55-.33.55h0l1.43-.35.57-.29.29-.36.16-.29,0-.13,0-.2Zm-4.51-8,0,0-.16-.09ZM326,312.29v0l-.84.29-2,1-.74.52.06,0,0,0,1.25-.22.32.13.13.06.32.58v0l0,0,.09-.58.16-.45.33-.35.84-.52.1-.16v-.29Zm4.22-2.51v0l-1.19.49-2.67,2.58.09-.07-.06.07,2.67-1.71.49-.62.48-.19.13-.1.13-.19,0-.26ZM335,297.66l-.19-.36-.13.19.35.36ZM353.42,274v0l-.32.23-.06.23-.16,2.55-.23.73-.45.55.13,0h0l.1,0,0,0h0l0,0,.45-.62.36-1,.19-1v-.93l0-.23v-.32l-.09-.23Zm-8.24,18.43-.23-.57-.1.41-.22.29,0,.2-.1.06-.06.16.09.13.42-.61Z" fill="#35156B"/></svg>