<svg id="bc005318-c8b3-4eb4-90ba-9587aa2d8188" data-name="Layer 1" xmlns="http://www.w3.org/2000/svg" viewBox="0 0 400 400"><title>State</title><path d="M272.53,139.85l.24.07h.13l.07-.53.33.1.4.33.23.27.27.2.87.4.23.43,0,.1.2-.07.3-.27.13-.06,1.2-.17.33.07.4.23.41.1.23-.17.67-.76.69-.07,1.43.6.81.14,1,0,.87-.26.53-.47.43-1.43h0l.37-1.07V137l-.7-.4-.8,0-.76-.27-.5-1.09-.34-.8-.67-.54-1.53-.53-2,.2-.9.3.1.67.43.2.47,0,.4.16,0,.37h0l.06.37-.13.43-.34.27-.7.4-.73.53-.36.17-.5.13-.2.2-.37.9-.33.23-.67-.3-.77-.5-.69-.13-.47,1v.63Zm-11-13.62-.83.1-.2.4,0,.61-.07.79.73.7.7.93.77.47.83-.6,0-.93-.61-1.1-.79-.93Zm59.81,173.55-.2.29-.17,2.54.1,1.33.47.37.33-.74-.07-1.29Zm-63.58-179,.37.4.17.57.59,1.6.27.49.6.41.67.26.43.43-.06.6h0v.17h.76l.4.07.73.36.1-.3,0-.36h0v-.07l-.14-.23-.33-.2-1.69-2.1-.24-.37-.1-.46-.13-.87.1-.5.6-1.7.36-.7.07-.16,0-.14.17-.1-.63-.23-1.3,0-.6-.36-.2.17-1.23,1.43-.4.6-.3.9.37.26ZM203.13,150l2.13.4,2,.86-.27-1,.17-.66.57-.44,3.36-.9,4.17-.46.5-.34.36-.73.47-1.46,1.76-2.8L219,142l2.59-.1.94-.66.29-.1.37.16.43.34.4.2.33-.17.6-.57.7.17,1.34.84.7.13,2.16-.24.77.11,1.83.76,3.23.47.6.36,1.33,1.17.43.2.34.23.86,1.13.37.24h.63l.8.16.7.4.37.73.73.7,1.53.57,1.5,0,.8-.9-.6-.23-.37-.77,0-.93.43-.66-.4-.24-.23-.4,0-.5.2-.6.4-.4.33-.1.2-.19,0-2.31.6-.63h.93l1.1.47.6-.47.67.14.6.56.29.77.1.57.14.2.3-.1.13-.1.44-.47.23-.13,1,.73.07-.93.13-.34,1.83,0,.9.43.54.1v-.1l.19-.23.24-.23.23-.14.47,0,.69.29.37,0,2.07-.37,6.66.33.27.11.36,0,.27-.2.26-.27.37-.17,1.7-.49.5.16,0-.5,0-.43.2-.9-.6-.07-.47-.26-.43-.33-.47-.24-.66-.06h-.54l-.49-.07-.6-.44L266.44,136l-.24-.33-.06-.63.16-.5.27-.47.23-.57-.46.07-.4-.1-.77-.3h-.23l-.43.13h-.23l-.17-.16-.4-.67-.6-.1h-1l-.87.17-.33.46-.33.34-.83-.64-.74-.83,0-.5.7-.33.9-1.07.76-.17-.46-.69-1-1-.3-.83-.4-1.64-.27-.76-.26-.34-1.33-2-.53-1.1L255.35,120l-.6-.4-.8-.2-.76,0-.7.24-.51.5L251,122l-.83.86-1.17.9-1.27.47-1.13-.47.17-.9-.93-1-1.34-.57-1,.4-.74.87-1,.63-1.13.47-1,.27-.54,0-1.46-.63-1.23-.1-.24-.1-.53-.53-.33-.14-.43.1-1,.64-.5.13-.64-.1-.46-.34-.37-.49-.3-.6.74-1.1.23-.8-.63-1.37-.1-5.09.06-.64.4-.59.5-.44.43-.46.17-.77-.73.2-1.27.57-.66.2-2.73,0-2.44.53-2.82,1.27-5.47,3.56-1.43.44-10.95.33-1,.33-.27-.27-.8.64L197.74,120l-.9,0-.94-.4-4,3.5-3.43,2-1.16,1.17-1.13.3-.47.27-1.3,1.33-.37.5L182.75,131l-.9,1-1,.39,0-.19,0-.47,0-.2-.89.1-.7-.07-.63-.3-.67-.73-.77-.47-.63.34-.83,1.16-.6.44-.83.29h-.81l-.39-.59-.2-.34-.37,0-.4.07-.33-.14-1.13-1.2-.2-.4-.07-.26-.13-.2-.41-.27-.43-.13-.46,0-.4.17-.33.37-.27.23-.4.07-.86,0-.14.2-.47.8-.23.3-.77.13-1.53-.09-1.33.79-4-.16-.87-.3-.56-.84-.4-2.13-.17-.3-.33-.13-1.77-.53-.37-.37,0-.63-.6-.34-.73-.53-.6-.7-.3-.7-.37-.37-1.63-1.33-.5-.53-.73-1.8-.56-.76-.64.26-.33.21-.27-.37-.4-.9-.23,0-.77.34-.36,0-.37-.23-.4-.77-.3-.33-.3-.06-.37.06h-.3l-.16-.33-.47-.33-3.49-.47-5.2.13-1.73.34-2.46,1-.47.6-.2.9-.6,1-.8.8-.73.33v-.26l.53-.94.43-1.23.53-1.1,1.71-1.06.83-1,.23-.77-.93,0-.47.26L128,116.47l-1.26,1.47-1,.5-.84,1.1-.47.27-1.06.26-.33.3.5.47L122,123.3l-1,1.27-.47-.23.1-.27.27-.2.3-.17.23-.19,0-.24-.14-.27-.76-1.16-.17-.44.1-.43.17-.4,0-.43-.07-.4-.23-.37.33-.8.27-1,.13-1.06v-.93l-.26-.84-.53-.76-.67-.6-.56-.4-.24,0-.16.2-.24.1-.23-.26,0-.2.13-.47.13-1.17v-.53l-.2-.43-.77-.5-1.69,0-.83-.17-.77-.57-.14-.73.14-.87v-1.13l-.4-.93-.73,0-.77.5-4.89,4.8-.87.5-.2.16-.5,1.3-.1.24-.17.4-.93,1.86-.5.6-.3.13-1,.27-1.23.63-.33.1-1.6-.2-.67.14-.67.63L96.33,120l-2.4,2.1-2.77,1.53L78.64,126.3l-1.26.77L72,132.66l-1.26.83-5.53,2.24-1.6,1.13-.4.13-1.06.16-.84.31-.76.43-.67.5-.1.23.24.8.16.43.17.17.23.1.37,0,.26,0,.2-.1.57-.4.2,0,.24.1.39.6.2.16.6.07.33.07.34.26.26.17.4.1h.3l.33.07.34.16.47.44.43.46.4.7.63,1.17,1,1.76.63,1.13.34.84.14.23.16.16.93.17.37.07,1,.13,1.54.27,2,.3,2.33.4,2.6.4,2.79.47,2.87.46,2.9.43,2.8.44,2.59.43,2.34.37,2,.3,1.5.23,1,.17.36,0,1.17.2.73.27,2,.83,2,.83,2,.83,2,.84.8.33h.43l.23,0,.47-.14.23,0,.24.07.27.2.33,0,.27,0,.63-.34.23,0h.33l.34.07.53.2.73.13,1.17.43.36,0,.27-.07.67-.57.19-.1h.24l.26,0h.24l.23-.07.37-.27.23-.06.24-.07h.26l.34.1.36.13.57.34.33.06.26,0,.2-.1.24,0,.26.06,1.17.47h.6l.63-.27.3,0,.3.1.9.56.2,0,.54,0,1.13-.1h.26l.27.06.6.27.6.13H133l.26,0,.47-.13.27,0,.26.07.87.57.23.06.53.14.3.16.3.27,1,1.63.13.3,0,.4-.1.27-.1.2-.63,1-.07.24-.06.23v.3l.13.3.37.37.26.2.5.2.53.13.53.06h.27l.53-.1.64-.29h.17l.16,0,.1.07.44.43.16.13.2.13.2.07.57.1,1.43,0,.27,0,.2.1.2.1.13.17.46.46.17.17.83.43.37.24.43.43.5.43.23.2.07.14v.13l-.07.26-.1.14-.33.33,0,.23,0,.34.3.43.64.8.13.23.1.3.07.6,0,.33-.1.27-.16.17-.17.1-.23.1-.14.2,0,.39.41.84.4,1.3,0,.3v.13l0,.23-.14.47-.2.43-.13.2-.13.17-1,.87-.14.2-.06.26,0,.34.13.53V181l0,.31-.27.93,0,.26.13.27.24.27.53.23.3,0,.27-.06.37-.27.2-.07.26,0,.77.13h.26l.23,0,.24-.1,2.26-1.47.2-.06h.2l.24.1.23.23.3.37.26.33.07.23v.23l-.13.27-.43.57-.2.4-.64,1.83-.43,1.83-.06.53v1.41l.06.29.27.37.56.57.83.63.4.4.2.26.1.21.61.36,1.83.47,0-.14-.5-1.86v-.94l1.33-.9,5.86-10.78.14-.51L164,177l.14-.43.56-.73.23-.41.34-2.13.26-.69.94-1.77.7-.83,1-2.7.53-.54,1.37-.59.5-.5.3-1.43.1-.1,0-1.94.26-1.76.34-.9.5-.43.2-.54.36-2.26.3-.63.53-.07.27.43,0,.6,0,.44-.2.63L173,158.8l-.14.5.1.77.3.6.3.47.27.46.14.7,0,2.1.24.67.36.46.33.1.07-.43.23-.33,1.2-.54.8-.23.54-.27.43-.36.13-.47.17-.67.7-1.36-.07-.63.37-.3.26-.34.2-.43.1-.53-.4-.87.37-.46.7-.24.59-.06,1.27.66.84.24.66-.47.37-.63.43-.5.5-.4.6-.37.63-.23.44,0,.33.3.46.57-.73,3,.13.43.14.07.06.2,0,.2-.1.1H187l-.47-.17h-.23l-.76.1-.34.07v.13l0,.2-.1.4-.08.54,0,.2-.1.09-.17,0-.19.06-.14.17-.2,1.3-.16.4-.93,1.07-.07.5.5.73.4.43,1.06.6.61.43.36.2.37.07.3-.23-.07-.47-.17-.43-.13-.2-.07-.2-.2-.37-.06-.27.06-.33.2-.1h.24l.13-.1.47-1.6.39-.66,1-.47.13-.33,0-.43-.07-.5.13-.3.38-.14.76-.13,1.26-.77.17-.23.2-.5.2-.27.46-.2,1.21-.26.46-.37.2-.3-.26-.26.56-2.54.83-2,1.34-1.4,5.42-1.5Zm-24-21,.17.3.23.26.27.4.2.54v.3l.06.17.34.13.2,0,0-.47.13-.14.2.07.17.17.13.2v.1l.71,0,.39-.21.17-.53-.2-.47-.43,0-.47.13-.34-.06,0-.34.13-.43.44-.76-.47-.83L181,127l-.37-.2-.76-.13-.6.27-.27.59,0,.91Zm-64.3-23.75-.2.74,0,1,.17,1.93.47.5,2.89-.1.34.23.63.67.23.13,1.4-.43.36-.47-.06-.79-.44-.44-.76.64.23-.74.47-.83.6-.7.43-.3-.1.7,0,1.53-.06.73-.24.84-.26.39-.87.7-.43.53-.17.47.17.47,2.06,2.5.44-.3.37-.57L123,113l.76-2.43.24-.43,1.13-.7.23-.54.07-.66.4-.33.53-.14.63-.06,0-.3-.43-.5,0-.83.33-.84.4-.53.4-.17.43,0,.4-.1.37-.33,1.14-1.6.3-.27.76-.36.3-.24.43-1.07.2-.19.67-.2.63-.47,1.8-1.73-.57-.5-1.16-.3-1-.13.33-.53.64-.21,1.4-.06,1.66-.7.67-.17.7,0,1.33.27h.7l.63-.23,1.07-.77.73-.13,0-.3-.47-.33-.73-.87-.53-.4-1.24-.5-.66-.1-7.36.8-2.64.73-2.19,1.1L126,95l-.44.56-.3.24-.37-.07-.4-.13-.36,0-.2.17-.77.83-2.46,1.47-1,.8L117.14,103l-.5.6-1.29.93ZM93.5,78.58,94.56,78l0,.3-1.17.7-.26.3-.34,1.07.07.36.1,0,.13-.06.17.1.66.66.73.14.7-.17,5.17-2.9,1.66-.43,0-.26-2.79.26.33-.53,1.13-.8.1-.3,7.89-4,1.53-1.09,1.17-1.21.1-.2-.07-.33-.26-.76,0-.2.64-1,2.16-1.5.77-.83.36-.5.14-.24.06-.23-.3.47-.43.27-.87.33.1-.37.2-.33.64-.57-2.24,1.47-.59.6-.57-.17-1,.54-.4-.17-2.19,2-.07-.6-.9,1-1.4,1.13-1.36.83-.83.1-.54.61-.73.53-.77.33-.63,0-1,.83-4.24,2.66-2.69,2.3.37.43ZM206.39,189.74l-.26-.13-.3-.2-.57.27-.4.63-.13.73.23.6.77.3.53-.53.37-.9.39-.7h-.33Zm2.87-1.4.86-.69-.5-.37,0-.53.2-.57v-.57l-.3-.5-.43-.26-.54-.24-.46-.3-.5.1-.34.34-.37.89,1.41,2.1Zm47-46.72-.93-.2-.37.5-.2.17,0,.3h.26l.13.06.14.07.2.07-.4.36.76.27.64.1,1.33-.13-.27-.47-.33-.3-.4-.1-.46.13.13-.6Zm-44.82,29.51-.17-.07-.14,0-.16.24,1.7,2.09.3.24.1-.8-.33-.67-.57-.56Zm128.48,92,.3-1.46-.3-1.46-.3-.24-.33-.63-1.2-1.76-.41-.34-.3-.4-2.89-7.26-1.87-7.43L331.05,239l-3.83-12-1.6-2.3-.27-.59-.23-.87-.4-.67-2.13-2.33-1.23-.89-1.33-.68-4-1.33-.8,0-.67.2-1.56.77-.43.32-1,1.47-.53.47L310,221l-.4.2-.66.7-.4.2-2.37.43-.3.16-.23.21-.27.33-.76,1.47-.1.33-.44.4-2.86.83.66.13.67-.1.6,0,.46.51-.93,1.36-.5.9-.16.83-.07,1-1.26,2.37-.44,2-.43.86-.67,0-.2-.34-.23-.46-.27-.27-.33.3-1.73,3.6-1,1.36-1.16.87-1.37,0-1.5-.66-1.76-.23-.77-.4-1.7-.4-.83-.37-.8-.73-.77-1.07-.4-1.2.33-1.16,0-.43-.3-1.44v-.66l.3-.53.3-.44V231l-.67-.43L285,227l.66-1.5,1.27-.8.4,0,.77.13.43,0,.3-.17.53-.46.34-.17h.33l.67.13.4,0,.13-.27.1-1.13.07-.43.56-.47,1.6-.3.57-.43v-.43l-.13-.54,0-.46.33-.23.2-.24,0-.54-.3-3.05.06-1.94.47-1.63,1.16-1,.3-.1,1-.1-.07.27-.13.7L297,212l.4-.47,1.2-2.06.23-.6.17-.17.93-.16.3-.17.4-.77.1-.39.07-.61,0-1.76-1.21-9.36v-.9l.4-1.67,0-1-.23-.9-.57-1.7-.43-2-.33-.83-.37-.73-.46-.67-.14-.23-.1-.44-.13-.2-.27-.13-.57-.2-.7-.56-1-.44-.47-.33-.4-.36-.26-.28-.14-.39-.13-.77-.17-.27-.27-.16-.26-.1-.14-.1,0-.4.13-.2.17-.17,0-.33-.06-1.1.16-.83.57-.57,1.1-.3.33.14.83.76.5.3.54.14h.57l1.16-.14-.43-.73-1.3-.4-.4-1h.1l.2,0,.23-.13.06-.24-.06-.3-.1-.17-.1-.13-.07-.1-.1-.4-.4-1.09-.23-.34-.33-.1-.47,0-.4-.1-.23-.3-1.1-1.2-.77-1.1-.13-.4,0-.5.16-.33.54-.67-1.47-1.19-1.53-1-1.6-.63-1.5-.14-1.09.24h-.47L284,164.6h-.5l-.56-.13-1-1-.66-.34h-.37l-1.19.23-.43,0-1-.26-1.2-.14-.7-.46-1.3-1.1-1.57-.53-5,.56-.69-.2-.6-.56-.41-.77-.23-.73-.27-.64-.49-.63-1.14-1-1.16-.73-1.57-.6-1.66-.34-1.47.1-3,.7-1.36-.3-2.77-1.73-4.53-1.5-1.13-.76-.56-.14-.6.3-.31.44-.16.5-.3.46-.6.3-4.33.4-1.26-.23,0,.3.5.3,1.26,1,.14.2-.37.33-1,2-1.74,1.63-.79,1-.5,1.39v1.64l.4,1.53.69,1.33.78.93,1.16.9.56.27,3,0,.63.2-.63,1.23-1.54.8-1.8.4-2.89.2-1.4.47-4.83,3.33-1,1.1-.6,1.33,0,1.66,1.4,5.33.06,4-.56,3.56-1.07,3.3-1.66,3.9-.24.33-.4.17-.36-.14-.17-.3,0-.43.36-.83,0-.47-.1-1,.1-.3.68-.86.3-.86.13-.94,0-1-.07-1v-.49l.27-.57v-.47l-.2-.53-.4-.27-.47,0-.37.27-.13.43-.06.67,0,1.16-.07.54-.23.42-.6.84h.27l.66.2-.23.43-.63.64-.1.36v1.3l-.07.67-.36.66,0,.7-.13.43-.63-.29-.33-.37L222,197.2l-.3-.87L222,195l.87-2.93.06-.63-.1-.6-.29-.43-.28-.07-.83.4.17-.8.33-1,.47-1,.57-.43.2-.4-.34-.77-.77-1.4-.16-1.26.43-.53.54-.21.23-.39.17-.71.3-.83v-.6l-.77,0-.77,1-.46.13h-.44l-.36.13-.37.4-1.26,3.3-.4.67-1.27,1.46-.27.4-.06.77-1.27,3.66-.33.53-.5.27-.57-.1-1.1-.73-.49-.1-.24,0-.43-.13h-.27l-.33.13-.06.24,0,.26-.07.3-.94,1.9-.36.4-.27,0-.23-.09-.23-.1-.17,0-1,.14-.53.29-.07.6.34,1.37,0,3.89.3.71-.2.56-.33.3-.41.17-.53.1h-.33l-.57-.2h-.23l-.23.16-.47.47-1.16.53-.84.87-.37,1.13.53,1.24.68,1,.4,1,.13,1.07-.23,3-.17.5-.1.53.17,1.4-.07.6.63,1.37-.2,1.9-.6,1.79-1.17,2.77-1,3.53-.83,1.7-2.23,2.43-.83,1.4.1,1.66.43.67,1.13,1.2.5.86.4.37.27.4-.17,1,.1.5.3.67,1,3.66,0,1.6-.66,1.6-1.54,2.46-.43,1.47.1,1.73.37.9.94,1.47.43,1.29,6.46,11.63.7.56.36-.53,2.2-1-.1.63-.43.64-.6.53-.53.26-.47.34.2.66,2.26,4.3.51,1.7.49,1,.6.93.47.5,0,.2,0,.1,0,0h.07l-.1,0-.1,0,0,.07,0,.16.57,1.07,1.47,11.09-.51,10.59-.56,3.4-1.83,6.49-3.13,6-2.74,8.73-1.46,3-1.9,2.53-1.9,1.36-.26.53-.3.51-1.34.93,1-.1,2.62-.33,2.64-.3,2.6-.34,2.65-.3,2.6-.33,5.26-.64,2.64-.33,2.63-.33,2.63-.33,2.63-.34,5.26-.66,2.6-.33,2.63-.37,2.63-.33,2.64-.34,2.62-.33,2.6-.37,2.63-.36,2.63-.34,2.63-.36,2.64-.33,2.59-.37,2.63-.37,2.64-.33.36,2.53,2.8-.5,2.79-.5,2.8-.5,2.8-.5,2.8-.5,2.79-.5,2.8-.5,2.8-.53,2.8-.5,2.79-.5,2.8-.53,2.8-.5,2.8-.53,2.79-.51,2.8-.53,2.77-.53-.1-.33.06-.6.24-.4.39-.14.34.21.26,0-.13-1.16,0-.9.16-.8,1.07-2.37.47-.63.66,0,.14-1.26.4-1,.73-.46,1,.23.1-.57,0-.56L319,310l-.39-.39,1-.27.47-.47.46-2,.2.3.2.2.43.33-.2-.3-.06-.23-.17-.63-.13-.27-.37-.4-.1-.16v-.64l.13-.4.07-.33-.2-.43.1-.24.2-.73.37-4.83.46-1.63,1.2-2,.54-.89.53-.67,2-1.17,1.07-.33.27-.17.43-.43.5-.67.43-.77.14-.66,0-.57.2-.86v-.53l-.13-.47-.4-.57-.17-.43-.06-.83.1-1,.2-.87.33-.4,1.4-.83.39-.17.34-.07.2-.23.07-.6-.87-.36-.7-.84-.17-.87.74-.5.77-.33.56-.56.53-.67.73-.67.44.21,1.5.4.66-.1.07.53-.17.66-.06.64.23.26.37.27.2.44-.27.76.8.63.26.1-.86.63-.2.34,0,.16,1.17-.33,1-.63.78-1,.56-1.37.3-1.23.43-3.3-.06-1.86.06-.84-.06-.46-.17-.33-.5-.8,0-.73.26-1.34v-.86l.14-1.6ZM223.08,154.91l.13-.2,0-.2-.07-.3H223l-.23.1-.23,0-.54-.37-.67-.37-.13,0h-.1l-.13,0-.1-.16,0,.9.5.6.73.33.71,0,.16-.1Zm29.51-5.13-.87.07-.7.56.5.43,1.73,1.07,1.23,1,.5.24.6.06.7,0,.67-.13.5-.24.33-.46.43-1.3.27-.5-1.07-.17-.46-.26-.2-.57-.57-.47-.13.24,0,.56-.13.4h-.34l-.83-.33ZM219.88,158l-.16.57-.24.5-.23.43-.16.47-.14,1.89-.37.94-.07.7.81.66,1,.14,1.16-.47.94-.8.4-1-.07-.63-.5-1.13-.17-.67v-1l0-.46-.24-.43-.2-.34v-.3l.17-.33.3-.3-.53-.13h-1.17l-.56-.17.1.8v.57Z" fill="#35156B"/></svg>