<svg id="af85a041-acad-47c3-a851-2038a9cbdc8f" data-name="Layer 1" xmlns="http://www.w3.org/2000/svg" viewBox="0 0 400 400"><title>State</title><path id="e1405b0b-088d-4284-9153-6fecb7e7dcfe" data-name="NJ" d="M248.15,269.11l1.35,1.9-.9,1.45-.54,3.87-1,1.1-1.45-.27-1.08-1.28-1.1-.81L242,276.15l2.81,2.54,3.16-.18,2.7-2.18,2-3.51.45-3.53.36-.27.63-.72.2-.63-4.8.45Zm16-38.93-.45,1.44L263,234.7l.09,2.79-5.87,16.71-.18,3.08-.27,1.17V259l.18.91,1.45-3.35,2.16-9.94,3-4.6,1-4.61.54-5.06V229.1Zm.65-19,.27-4.15-.74-.54.29-2.09-.83-5.41.92-4.89-.65-2.79-1.44-2.08-1.9-.54,1-3.62.91-10.39-1-3.07.45-3,.91-2.91.18-2.7-4.87-15.54-1.45-2.9-1.71-1.26-1,1.08.92,2.36,1.62,2.34,1.45,1.18-1.54.81-4.07-1.35L243.8,149l-2.52.27-4.42,1.9L236,151l-1.72-.64-3.35-.27-1.36-1.53-.18-2.17.82-2.18-.82-.54-.81-3.7-.18-.45.54-1.08,1.27-1.72.63-1.18.45-2.35v-4.87l.54-2.26.63-.91,1.44-1.44.56-.82.27-1.08.18-2.25.45-1.08,1.54-1.55.54,1L237,123.2l1.44-.27,1-.63.72-.9,1.18-2.53,1.71-2.08,1.46-2.35.45-.9v-1.09l-.27-1.62-.18-1.35.36-2.26L245,104l2.35-6.86,1.26-9.3-.18-5L248,80.66l-10.3-3.26-10.21-3.16-10.3-3.16L207,67.83l-10.3-3.17-10.21-3.25-10.2-3.16L166,55l.09.18-1.53,1.53-2,.63-.81.55-1,1.36-1,.27-.36.45-.18.54-.18,1.26-.09.36-3.88,5.61-.36,1.72.18.81-.18,3.51-.9,5.61-3.36,7.32-1,1.18-.54.44-.81.73-.73.9-.27.64L147.5,92l.09.27-.36.27L144.62,98l-1.44,1.71-1.92,1-1.17.9-1.8,1.9-1.63,2.26-.54,2.08.36.81.73.82,1.44,1.17.18.45v.54l.09.45.36.09.54-.09h.63l.36.27.36.73.91.81,1.82,1.26,1.8,1.72.81,2.17-.45,2.17L145,122.39l-.81,1.36.09,3-.09,2.26-1.28,1.54-1.72.63-1.89-.45-.36,2.16-.45,1.08-.54.55-.36.54.36,1,.54.72h.27l-.45,3.62v1.71l.63,1.35.63,1.08-.09,1,.18,1.09,1.17,3.61-.18,1.27.45,1.26.63,1.08,1.47,3.08,1.26.27,2.61-1.18,5,.46,2.37,2.7,2.7,9,1.44,2,2.26,2,2.34.91,3.27-2.17,1.62,1.71,2.35,4.25,5.7,3.08,1.17.9.45.63,4.06,3.61,3.71,2.8,5.77,3,2.91,2,1.62,2.26-.63,2.62-2.27,2.17-2.8,1.72-2.25.81-.72.72-2.62,3.53-.81.63-3.27,1.9-1.17,1.26-2.7,4.78-1,1.09-2.91,2.26-1.08,2-2.35,6.5-.72-.73-.9,1.91-1.71-.27-.09,1.54,1.08,2,1.8,1.53-1.26,1.45-1,1.89-1.08,1.36-1.63-.09-.36.73h-.09l-.2.08L161,239.58l-3,2.25-1.44.63-2.07.63-3.72,1.81-4.69,3.43-3,3.26-2.55,3.79-1.17,3.79.54,3.44v.54l-1,.63-.36,1-.27,1-1,1.27-.09,1.53.18,1.63v1.27l-.46.63-1.53,1.44-1.53,2.52.09.91,1.35,1.27,3.88,2.53.63,1.53.18,5.61.27,2.35-.81-.27-.63-.46-.54-.54,1.71,3.34,2.71,2,3.26,1.26,11.83,8.22.45.55.64.45.81.46.45-.18.45-.55.63-.55.9-.09,1.28,1,1.08,1.71,1.36,1.54,1.62.36,3.52-.72.81.27,1.26,2.18.92.27,1.44.27,3.88,1.89,1.08.72.28.63v1.54l.45.9.9.91,1.55.54v.54l1.62-.45.9-.82.82-1.08,1.08-1.17,2.79-1.36,1.9-.54,1.37.09.54.9.18.91.27.63.9.09.81-.36,1.54-.82.63-.27,3.79-.81,1.64.09,1.71.72,2.71,3.45.36,4.78-2.35,10.84-.09,2.43.27,2.45.45,2.44-.09,1.53-.45,1.18.09.9,1.45.81h1.08l.9-.45,5-3.34,3.06-3.07,2.44-3.62,1.08-3.61-.36-.81-.63-.91-.09-1,2.07-1.18.81-.72.65-.82.36-2.07,1.63-3,.27-.82-.45-1.26-.72-.62-.82.08-.92.72-.18-.36V318l-.18-.18-.45.09.63-1.27.83-.72,1.09-.18,1.17.54,2.25-10,.63-1.71,1.81-1.54,2.72-6.15,2.17-2.43-.18-.81-4.62,2.88-1.35-.09-1.18-.45-1.35-.27-1.62.36,1.17-2.43,2.43-1.27,6-1.17-.18-.63-.72-1.45.63-2.45,2.17-4.33,3,1-1.89,3.06-.81,1.82-.45,1.9.18.63,2.34-1.45,4.62-4.7,2.53-1.8-1.27-2-1.64-2-1.8-1L240.65,279l-.28-1.53.18-1.82.28-1.62.36-1.08,1.17-1.35,1.08-.09,1.1.27,1.44.09.54-3.08-.09-2.08-1.08-.63-1.28-.64-1-2L242,259.17l1.08.55,1.19.45,1.17-.18,1.26-1.09,4,1.54.45.55.46,1.17.72.81,1.17-.54.27-1.9L252,258.72l-1.72-2.26.72-1.9.45-2,.82-1.08,1.08-.81,1-1.27.63-1.27.36-1.54.63-1.26,2.17-1.72.72-1.89.81-3.71.45-.81.72-2,.18-1.8-1.53-.46-1.8-1.17-.37-3.61.55-4.16.63-2.71,1.17-2.44V218l-.63-2.27-.09-1.89.45-1.53,1.71-2.53-1.08-.45-3.25-.27,1.45-2.35.36-2.72-.72-1.62-1.81.9v-1.89l1-.91,1.45-.54,1.26-.9.81-1.45.36-1.81-.54-1.08-1.62.27-.18-.73,1.26-1.8,1.17.63,1,2.08.82,2.71.36,2.62-.09,2-.82,4.52,3.09,19.5.72-2.88Z" fill="#35156B"/></svg>