<svg id="bd065358-b3a2-455c-b533-70404f9fa1ba" data-name="Layer 1" xmlns="http://www.w3.org/2000/svg" viewBox="0 0 400 400"><title>All states</title><path id="b17779e3-8f20-4790-acb2-1e2c2d391946" data-name="AL" d="M148,327l-.35.27-.31.39L147,328l-.66.15-2.47.28-4.06,1.12-.59.46,9.83-1.47.27-.07.58-.32,0-.34Zm133.75-55.83-.5-.5-.89-2.32L279,266.32l-1.44-1.47-1-.35-.58-.58-.16-.81,0-1.9-.15-.46-.54-1-.12-.39,0-.54.47-.89.15-.5-.27-4,0-1.93.77-1.36-.66-1.43.12-1.08.35-1.05.11-1.27-.19-.7-.54-1-.12-.38-.23-1.4-.19-.65-.5-.89-1.79-1.89-.5-.82-2-5.56-.42-1,.12-1.15v-.31l0-.27.12-.7.12-1.78.57-2.08,1-2.21.15-.27.27-.81,0-.19,0-1.32-.5-1.12v-1.2l.31-.92,0-.7-.19-1.28v-.46l.46-1.78.23-.51.27-.23.58-.19.7-.31.7-.42.46-.47-.77-.39.08-.42.65-.27.81.23.35-.31.31-.42,0-.54-.35-.59.39-.07.34-.2.27-.34.08-.43-.15-.35-.2-.07-.19,0-.35-.55-.46-.27-2.24-.92-1-.74-.31-.93.81-1.15-.31-.55.12-.54.23-.62,0-.66-.15-.69-.47-.69-.54-.7-.46-.74-.43-1.62-.27-.66-.61-.77-3.52-3.48.15-.73-.38-.35-.58-.28-.31-.46,0-.93-.12-.66-.58-1-.51-1.74-.42-.58-.46-.46-.23-.47.27-.54-.27-.31-1-.85-.31-.27-.27-.35-.19-.39-.12-.42-.07-1.51-1.9-3.55,0-.47-.62-2-.08-.31-.27-.85-.42-1.36-.58-1.85-.74-2.32-.85-2.71-1-3.05-1.08-3.44L252.71,152l-1.25-4-1.31-4.17-1.35-4.41-1.44-4.53-1.42-4.64-1.47-4.71L243,120.81l-1.47-4.76L240,111.33l-1.43-4.67-1.43-4.53-1.35-4.37-1.28-4.21-1.24-3.94-1.16-3.75-1-3.41-1-3.09-.81-2.71-.74-2.28L228,72.52l-.46-1.4-.23-.85-.08-.27-6.73.77-6.68.78-6.7.77-6.68.78-6.7.77-6.72.73-6.69.73-6.7.74-6.68.7-6.73.69-6.69.7-6.69.69-6.72.7-6.7.66-6.72.66-6.69.66-1.47.11-.5,0,.62,1.31,1,2,1.16,1.4,1.47.81h.77v27l0,5.68V126l0,6.42v6.69l0,6.92v7.12l0,7.19-.08,14.53v7.24l-.08,7.12v6.92l0,6.72,0,6.38,0,6.11,0,5.69,0,5.22,0,4.71,0,4.14,0,3.52v2.82l0,2.13v1.74l.73,4.83.73,4.84.74,4.83.77,4.83.73,4.84.74,4.83,1.47,9.67.73,4.83.78,4.83.73,4.84.74,4.83.73,4.83.78,4.84,1.46,9.67,1.09-.43.93-.62.88-.08.93,1.09h.27l.08-.31.08-.19.07-.2v-.39l1.25.47,2.81.35,1.36.34-.27,1.12.12.51.46.12h.77v0l.93-.08.12.19.11.31.23.12.47-.39.19-.66,0-3.82-.31-2.17v-.93l.23-1.78v-.85l0-.46.35-.67.07-.38-.15-1v-.47l.11-.39.43-.61.28-.58.11-.7-.07-1,.15-.89.35-.59L149,306l-.35-.7.54-.5.27-.66-.07-.73-.39-.7.62.08.31.39.15.65,0,.77.19.59.35.11.5,0,.54,0,1.05.43.58.58,1.78,3.79.34,1-.07.77-.35.66-.39,1-.23,1v.89l.16.27.38.39.35.54.23.61.12.63.15.54.31.46.39.43.39.26.42.24.47.16.5,0,.69,0,0-.12-.11-.24.54-.77.11-.27.2,0,.42.39.12.35-.27,1.2,0,.58.38.57,2.37,1.79.73,1.66-1.16,1-2,.82-1.59.73-1.81-.15-1-.78-.35.2-.19.38-.39.27-1.66.62-1,.54-.46.58,1.43-.15,3.87-1.09,5.53-.61,5.79-1.48,2.75-1.5.93-2.09-.35.27-.46.2-.46.11h-.51l.2-.89-.23-.54-.39-.5-.16-.85.27,0,.24.31.85.62.3.42.08.31.19.2.74,0,1-.36.46-.69.32-.69.62-.35,1.08-.43.46-.7.23-.88.39-.89,1.71-2.09v-.47l.34-.07-.54-.2-.43-.27-.38-.34-.35-.39,0-.35.31.15,0,0-1.08-2.39-.23-.81,0-.23.11-.47.62-1.47.19-1.39.08-1.82,0-.77-.11-.54L177,303l-.38-.27-3.83-1.81-.66-.43-.73-.81-1.12-1.59-.31-.39-2.36-1.86-.58-.57-.54-.66-.23-.42-.12-.39v-.31l0-.35.11-.54.7-2.09,0-.27-.35-2.39.19-.78,2-.23,7-.77,7.08-.86,7-.81,7-.81,7-.85,7.07-.85,7-.89,7-.85,7-.89,7-.89,7-.89,7-.93,7-.92,7-.93,7-1,7-.93.11-.23.23-.39.08-.42Z" fill="#35156B"/></svg>