<svg id="a5d166e9-f524-4639-92fa-296fba3c4282" data-name="Layer 1" xmlns="http://www.w3.org/2000/svg" viewBox="0 0 400 400"><title>State</title><path id="bc5b8b94-4368-414e-bf4e-35501ed1bb74" data-name="MT" d="M346.82,246.45l-.13,3.71-.1,3.7-.13,3.7-.11,3.71-.1,3.7-.14,3.71-.1,3.73-.13,3.7-.06,2.1,0,.45-.84-.06-2.81-.1-2.81-.11-2.81-.1-2.82-.11-2.83-.13-2.81-.1-2.81-.13-2.81-.13-2.81-.11-2.81-.13-2.84-.13-2.81-.13-2.81-.16-2.81-.13-2.81-.13-2.82-.16-2.83-.16-2.81-.13-2.81-.16-2.82-.15-2.81-.16-2.81-.16-2.83-.19-2.79-.15-2.81-.19-2.83-.15-2.81-.19-2.82-.18-2.81-.18-2.81-.19-2.81-.18-2.81-.19-2.81-.18-2.81-.21-2.81-.19-2.81-.21-2.81-.2-2.81-.19-2.81-.21-2.81-.21-2.81-.24-2.81-.21-2.82-.21-2.81-.23-2.81-.21-2.81-.24-2.81-.23-2.81-.24-2.81-.24-2.81-.23-2.81-.24-2.78-.26-2.81-.24-2.81-.26-2.81-.24-2.82-.26-2.81-.27-2.81-.26-2.78-.26-2.81-.26-2.81-.26-2.81-.3-2.81-.26-2.79-.29-1.31-.13-.05.55-.11,1.06-.11,1-.1,1.05-.1,1-.11,1.06-.1,1-.11,1.05-.1,1-.11,1-.11,1-.1,1-.11,1.05-.1,1-.11,1.05-.1,1.05-.11,1-1.1-.43-.39-.34-.66-.94-.37-.79-.31-.42-.27-.24-.36-.23-.19-.16-.13-.16-.05-.15,0-.17,0-.18v-.42l0-.23,0-.21-.07-.27-.14-.15-.18-.16-.24-.13-.1-.16-.16-.45-.89-1.68-.19-.63-.23-.21-.9-.6-.31-.11-.21,0-.13.1-.34.45-.16.13-.21.05h-.74l-.18,0-.34.16-.26.21-.11.16-.05.16.05.15,0,.16.11.13.08.16,0,.16,0,.21,0,.18-.08.22-.1.12-.16.08-.71.19-.13.1-.08.13-.08.37-.05.16-.24.37-.08.18,0,.21v.37l0,.36,0,.16.05.08,0,.11.11.13.16.08.58.26.13.13,0,.13v.16l-.18.08-.27.05h-.44l-.24-.05-.16-.05-.29-.27-.76-.44-.31-.11-2.81-.32-.4,0-1.23.61-.19.07-.44.06-.53,0-.23.06-.56.18-.23,0-.19-.08-.13-.1-.08-.16-.05-.16-.18-.28-.16-.17-.24-.18L141,279l-1.08-.15-.24,0-.21,0-.13.1-.21.08-.26.05-.5,0L138,279l-2.52.16-.24-.05-.6-.31-.71-.27-.47-.08-.61-.05-.29-.05-.18-.11L132,278l-.37-.21-.24,0-.18.05L131,278l-.13.08-.21.06-.68.07-.42.14-.32.13-.15.08-.11.13-.11.16-.29.79-.57,1.07-.16.16-.24.13-.41.08h-.29l-.24-.08-.13-.13-.11-.13-.16-.16-.21-.18-.47-.19-.39-.05-.71,0-.16-.06-.21-.23-.13-.11-.16-.1-3.12-.77-.87-.31-.26,0-.21,0-.5.24-.16.05-.76.07-.16.08-1.65,1.27-.14.13-.1.13-.11.16-.08.15,0,.21,0,.16.37.79,0,.18-.13.19-.45.16-.24-.05-.13-.11-.52-.9-.11-.13-.13-.1-1.13-.5-.16-.13-.13-.13-.34-.58-.13-.19-.21-.15-.42-.22-.21-.15-.08-.21,0-.4,0-.15-.18-.48,0-.15,0-.08.13-.32.31-.5,0-.18,0-.18-.16-.22-.39-.23-.18-.18-.13-.19,0-.39,0-.19,0-.15-.61-.82-.07-.16v-.15l0-.18.11-.14.13-.11.29-.18.13-.13.1-.13,0-.19v-.18l0-.16-.13-.31-.24-.47-.05-.16-.13-.53,0-.15-.08-.16-.18-.29-.08-.16,0-.15,0-.19,0-.18,0-.16-.06-.16-.08-.16-.31-.39-.11-.16-.28-.6-.08-.16-.42-.53-.55-.55-.64-.42-.58-.21-.44-.08-.18.06-.19.05-.13.08-.58.39-.21.08-.26.05-.47,0-.24-.08-.13-.16V266l0-.18-.18-.21-.34-.26-1.13-.69-.29-.26-.18-.31-.14-.32-.23-1.05-.11-.32-.15-.29-.22-.29-.08-.15,0-.16.05-.16.13-.1.14-.08.52-.16.13-.1.14-.14.1-.15.08-.19.26-.81,0-.18v-.06l0-.55,0-.18-.28-1-.11-.34-.68-1.21-.06-.16-.07-.63-.16-.26-.19-.13-.84-.08-.21-.11-.13-.13,0-.18,0-.42,0-.18-.08-.14-.18-.31,0-.16,0-.19v-.21l0-.33-.06-.19-.13-.29-.32-.44-.36-.37-.45-.63-.39-.4-.11-.18,0-.19,0-.36,0-.21-.07-.19-.19-.21-.52-.47-.13-.18-.08-.16,0-.16,0-.39,0-.21.1-.4.16-.84,0-.42-.08-.23-.15-.24-.66-.66-.08-.26v-.4l0-.15,0-.19,0-.18.06-.21.07-.18.22-.32.08-.18,0-.18v-.58l0-.21,0,0,0-.26-.23-.27-.77-.42-.18-.21L95,240l0-.21.11-.42.18-.37.08-.15.24-.26.1-.16,0-.19,0-.18-.08-.21-.21-.26-.16-.19-.21-.1-1.26-.6-.29-.21-.15-.21,0-.37,0-.19-.06-.15-.6-.64-.82-.73-.47-.29-.31-.16-.16,0-.11.08-.08.08-.05.15,0,.21,0,.19,0,.15,0,.24v.34l0,.13-.08.06-.13.05-.69.13-.18.05-.16.08-.13.11-.13.13-.21.32-.08.18-.11.16-.13.15-.13.08-.47.21-.16.11-.1.15-.11.16-.08.16-.1.1-.16.09-1.08.28-.63.29-.16.05H85.3l-.42-.1h-.21l-.15.05-.16.08-.13.11-.14.13-.1.15-.37.69-.13.16,0,0-.14.08-.63.21-.16.08-.23,0-.29,0-.52-.11-.27-.13-.18-.16L81,239.7l-.11-.26-.81-.55-.24-.21-.13-.21,0-.19,0-.21-.11-.2-.78-.72-.24-.1-1.16-.39-.5-.06-.36-.1-.08-.13,0-.13.34-.4.1-.16,0-.18v-.21l-.08-.21-.1-.32,0-.21.06-.18.13-.1.57-.37.4-.29.08-.08,0-.1.08-.16.08-.19,0-.18-.05-.37,0-.16.13-.31v-.24l-.13-.26-.58-.71-.13-.21,0-.18-.08-.48-.15-.34,0-.26,0-.16.13-.1.29-.21.16-.11.11-.16.1-.15.21-.29.34-.4.16-.28.08-.08.11-.11.28-.16.16,0,.18,0,.9.08h.18l.19,0,.15-.08.69-.5.13-.13,0-.21V226l-.42-.89-.08-.18,0-.16v-.18l0-.21.08-.19.08-.18.31-.45.08-.18v-.24l0-.21-.19-.13L81,222.5l-.56-.34-.21-.24,0-.21.08-.18,0-.22v-.23l-.16-.37-.05-.26,0-.21.08-.19.1-.15.61-.66.1-.16.08-.15.05-.21,0-.19-.05-.18-.08-.16L80.18,217l-.1-.21v-.18l0-.18.08-.14.05,0,.13-.08.16-.05.87,0,.18,0,.16-.08.13-.1.1-.13.06-.19,0-.21,0-.37,0-.6v-.19l0-.18-.11-.37-.08-.23,0-.21v-.19l.08-.16.08-.12.26-.27.11-.16.07-.18.08-.4.05-.18.11-.16.6-.65.11-.13.08-.19,0-.21,0-.42.05-.42.14-.39.15-.37.74-1.1.08-.21.08-.19,0-.21v-.21l0-.18-.08-.19-.07-.2-.32-.45-.08-.16v-.08l.08-.16.11-.07.15-.06.74-.15.15-.08.16-.08.13-.11.11-.1.08-.19,0-.15,0-.16,0-.16,0-.18,0-.19.08-.15.24-.27.07-.18.06-.16v-.21l0-.16,0-.18,0-.18.08-.19.21-.31.13-.4.08-.63,0-.21,0-.21-.08-.24-.13-.15-.18-.11-.22-.05-.2,0-1.76.21-.16,0-.45.24-.34.13-.18,0h-.21l-.19-.06-.39-.21-.16,0H82l-.6.13-.32,0-.42,0-.32-.14L80,199.8l-.55-.45-.24-.26-.15-.23,0-.16,0-.18.06-.19.1-.15.39-.37.06-.19v-.26l-.19-.34-.13-.21-.57-.53-.19-.1-.18-.06H78l-.18.08-.45.27-.63.57-.19.08h-.21l-.23-.08-.11-.15,0-.16,0-.19.29-.78,0-.21,0-.24-.08-.26-.11-.16-.15-.13-.71-.29-.37-.21-.24-.26-.31-.45-.24-.26-.71-.58-.21-.21-.13-.18-.16-.51,0-.36,0-.37,0-.58,0-.21.06-.21.1-.18,0-.16v-.18l-.13-.16-.58-.45-.18-.18-.16-.18-.58-1-.13-.18-.16-.13-.47-.18-.34-.19-.18-.16-.11-.16,0-.07v-.08l-.06-.61,0-.18L68,183.07l-.26-.84-.55-1-.24-.29-.63-.52-.19-.27-.21-.34-.13-.18-.18-.16-.24-.16-.13-.16-.08-.18,0-.37-.06-.15-.08-.19-.13-.21-.08-.18-.18-.53-.21-.44-.18-.22-.19-.18-2.12-1.15L60.69,175l-.34-.21-.18-.16-.11-.18-.18-.47-.16-.51-.32-.6-.68-1-.21-.2-1.71-1.43-.92-.42-.39-.23-.16-.21,0-.19,0-.15.1-.11.08,0,.13-.08.16,0,1.08.07.18,0,.19-.05.15-.06.13-.13.08-.16-.08-.23-.21-.19-.36-.24-.21-.18,0,0,0-.7-.15-.4-.19-.24-.6-.49-.11-.19v-.18l.14-.11.15-.07.66-.24.13-.11.13-.1.13-.13.21-.32.08-.18,0-.29-.11-.37-.55-1.08-.08-.29.18-.81,0-.24,0-.23-.11-.32-.16-.18-.65-.56-.11-.18-.05-.23,0-.24-.11-.34-.21-.21-.6-.45-.16-.21-.08-.21L54.2,156l-.05-.21-.13-.29-.19-.18-.52-.42-.21-.24-.21-.37-.24-.29-.28-.29-.14-.18-.07-.18-.14-.4-.5-.84-.23-.55-.61-.94-.47-.56-.16-.36,0-.21.24-1.66.57-3.91.56-3.89.58-3.92.57-3.88.58-3.91.58-3.89.55-3.89.58-3.89,5.07.74,5.38.78,5.39.77,5.36.73,5.38.74,5.36.74,5.38.71,5.39.7,5.38.69.42.05,5,.63,5.38.68,5.39.66,5.38.65,5.39.63,5.38.64,5.39.6,5.38.63,5.41.58,5.39.6,5.38.58,5.41.55,5.39.55,5.41.56,5.38.52,5.41.53,5.41.52,5.39.5,3.1.26,2.31.21,5.41.5,5.39.47,5.41.45,5.41.45,5.41.44,5.41.43,5.41.42,5.41.39,5.42.39,5.41.4,5.41.36,5.41.35,5.41.36,5.41.35,5.41.31,5.44.32,5.41.31,5.41.29,5.41.29,5.44.29,5.41.26,5.41.27,5.44.23,5.41.23,5.41.22,5.44.21,3.86.15-.21,6.36-.18,6.38-.21,6.38-.19,6.42-.21,6.41-.18,6.4-.21,6.44-.21,6.43-.19,6.44L348,207.6l-.18,6.44-.21,6.49L347.4,227l-.18,6.49L347,240l-.19,6.48Z" fill="#35156B"/></svg>