<svg id="e6552cf2-c38a-4e50-befe-b6164a593e89" data-name="Layer 1" xmlns="http://www.w3.org/2000/svg" viewBox="0 0 400 400"><title>State</title><path id="e04bb8ab-eec3-4388-b24a-71a13937c971" data-name="WV" d="M231.38,119.22l6.83,40.34.18.25.3-.06.55-.43.66-.65,5.81-7.44.49-.24,2.45-1,.48-.3.18-.36.42-1.79.3-.78.65-1,1.5-1.69,2.59-2.09.29-.24.18-.36.54-1.14,1-1.08.18-.3.18-.3.12-.36.12-.23.36-2.17.12-.35.18-.42.3-.3,2.1-1.62.48-.18.54-.06,1.14.24,1.13.36,1.38.9.72.24h.49l.54-.12.6-.42.35-.36.18-.36.48-1.08,2.93-4.5.6-1.13.36-1.2.18-.3.19-.3.24-.24.24-.25.3-.18,1-.42.36-.24.12-.23-.12-.18-.3-.42-.12-.3-.06-.42.06-.48.12-.36.66-1.56.18-.72.18-.65.06-.31.17-.3.18-.12h.3l.54.3.24.3.66.48.78.36.18.24v.18l-.3.18L278,120l-.06.18-.12.24v.3l.06.3.06.24v.12l.12.06.42.42.18.12.24.12,2.4.6,1.2.54.3.18.36.17,1.61.24,5.16-.18.12-.29,2-1.08,4.56-.3,1.61-1.74.18-.9-.42-.3-1.32-.18v-1.14l1-.54,1.2-.24.73-.42-2.17-2,.54-.54.54-.18h1.27l.54-.18,1.43-1.14,1.2-.48h2.57l1.21-.24.42-.49.84-1.61.6-.72,1.37-2.58.42-.42.54-.42.66-.36,3.24-.42,3.17,1.26,5.64,3.78,1.38.54,1.45.24,1.37-.24.84-.72.6-.36,1.85.12.3-.3.18-.66.72-.3h.91l.66.12,1.13,1-.06,1.26-1,1.2-1.45.72.54.78,1.51,2.75.35-.12V115l.18-.89.36-.6.6.12.54.78-.06.65-.3.48.06.54,1,.78.9-.17,1-.55,1.09-.3.12.54-.79.37-.3.71.18.85.61.89-1.15,1.26,1,.6,3.05.66.84,1.2-.06,1.49-.18,1.56.36,1.45,1.2,1.31h.12l-.06.36-.24,1-.66,3.42-.6,2.63-.77,3.91-.54,2.51-.24,1.08-.18,1-.6-.37-.78-.35-4.08-2.1-4-2.09-4.07-2.11-4.08-2-4.07-2.1-4-2.1-4.08-2.1-4-2.09-1.14-.54-.79.6-.6,1.55-.18.84v.66l.18.78.85,2.28.18.78.06,1v.48l-.12.89-.61,1.68-1.37,3.06-.12.36-.06.42v.36l.06.36.12.36.12.3.23.83.06.43v.48l-.17,1.32v1l.11.42.12.36.48,1.07.12.36.06.43-.06.29-.24.48-1.49,2.88-2.1,2.4-1.91,3.41-.67,1.86-.06.36v.3l.12.24.12.3v.3l-.18.72L298,166l-.36.42-.48.48-.89.54-.66.24-.48.3-.3.36-.24.72-.36,1.55-.36.73-.24.41-.42.42-1.32.91-.48.24-.36.12-.36-.06-.3-.12-.24-.24-.24-.31-.24-.24-.24-.12-.3.06-.3.24-1,2.34-1.38,3.18-1.69,3.72-1.25,3-.3.42-.3.36-.48-.06L280,184.56l-3.07-1.38-2.09-.9-.3.06-.3.36-1.93,4-.36.78-.12.72v.42l-.12.48-.18.6-.77,1.74-.18.72-.06.47.24,4.56-.06.36-.24.36-.42.48-.84.78-.54.6-.54.78-.36,1-.17.6-.06.54-.12,2.69-.06.24v.67l-.42,2.87-.18.9-.3.78-.85,1.74-1.14,2.4-1.61,3.47-.24.3-.3.24-.48.06-4.14-.54-3.47-.42-3.07-.42-3.11-.42-.18-.06-.12-.06.06-.3.12-.66v-.54l-.06-.11-.24-.36-3.24-3.9-.24-.24-.24-.12-.18-.06-5.58-1-.42.06-.29.42-.24.66L237,212.5l.06.78.06.6.12.42.06.48-.06.42-.18.65-.84,1.86v1.38l.54,3.3-.06.48-.18.54-.78,1.5-.18.78-.24,2.46-.18.47-.6.54-1.07.66-.24.3-.12.48-.12.78-.24.72-.49.9-.24.6.06.78.18.48.37.72.18.36.12.36-.12.53-.18.54-.85,1.33-1.26,1.2-.48.66-1.07,1.91-2.46,3.24-.12.42-.06.42.12.66.3.72v.54l-.6,4.68-1,3.11-1.37,4.44-1.56,2.63-2.75,4.56-2.17,3.48-1.73,2.94-2.16,3.47-.06.3-.18,1.92-.11.6-1.21,3.65-1.56,4.68-.12.84.12.3.12.18.12.12,1,.59.72.37,2,.6.3.24.3.42.18.72-.06.48-.12.42-.54.66-1.14,1-1,.72-.36.3-.42.48-.54.78-.18.6-.06.54.06.37.12.35.18.3.3.24.84.36.31.3.12.84-.12.48-.25.42-7,5.69-1.61,2-.3.36-.36.18-.3.06h-.36l-.3-.12-.3-.18-.24-.3-.18-.36-.06-.42-.12-.66L201,309l-.12-.3-.3-.24-.65-.06-.48.06-1.45.42-1.44.78-2.39,1.68-2.82,2-2.58,2.22-2.57,2.21-.24.19-.48.24h-.25l-.24-.06-.18-.18-.18-.31-.24-.24-.3-.18-.3-.06-1.19-.06-.3-.12-.18-.24L182,316l-.12-.18-.24-.12-.24-.06-1.86-.06-.53.06-.61.18-.84.47-.42.42-.3.36-.18.48-.06.43-.06.47.06.42.06.42.18.43,1.26,1.49.12.42v.6l-.24.9-.3.48-.24.42-3.77,3.18-.42.18h-.36l-1.09-.6h-.48l-.6.18-1.61,1.2-.54.24-6.41,2-4.74,3.6-.66.3-.18-.06-.18-.12-.18-.24-.36-.47-.18-.3-.3-.18-.6-.37L151.05,331l-.3-.18-.48-.36-1.55-1.55-.3-.24-.42-.18h-.54l-.84.18-.48.41-.23.36-.12.36-.24,1.39-.18.59-.24.72-.61,1L144,334l-.42.3-2.45.72-1,.42-.48.36-.36.36-2.7,4.08-.42.42-.42.3-1.5.36-4,.3-.78-.12-1.79-.9-2.46-.78-.35-.18-.61-.48L123.3,338l-.3-.24-.3-.25-.42-.18-.36-.11-.6-.12-1.43.06-.84.17-.85.06-.24-.06-.84-.29-.66-.48-.24-.24-.23-.3-.84-1.38-.24-.3-.3-.3-.66-.42L110.53,332l-.3-.24-.24-.3-.24-.35-.06-.43-.12-.42-.06-2-.06-.42-.06-.42-.18-.42-.18-.36-.18-.3-.24-.24-.3-.18-2.51-1.08-.3-.24-.18-.3-.06-.36.12-.42.12-.3,1.38-1.44v-.06l.06-.18v-.36l.06-.41-.12-.48-.12-.36-.24-.36-.24-.25-.66-.48-1.27-.47-.72.05-1.85.72-.72.06-5.34-.78-1-.29-.48-.42-.06-.43v-.48l-.18-.36-.18-.35-.3-.3-.6-.48-2.22-1.5h-.54l-.3.18-.24.18-.18-.12-1.44-1.5-.72-.54-.53-.24-.54-.18-2.65-.54-.6-.24-.35-.42-.48-1.14-1.38-2.45-.12-.42-.06-.43-.6-.77-1-1-4.67-3.41-.18-.3L74,300.2l-.3-.78L73,297l-.18-.54-.36-.48-.6-.77-.42-.36-.43-.3-2.87-1.44-.36-.36-.12-.42.06-.24.6-1.38.12-.36V290l-.18-.36-.3-.6-.42-.42-.24-.24-4-2.52-.54-.48-.42-.65-.53-1.09-.42-.66-5.82-5.93-.48-.66L55,276v-.66l.12-.18.18-.24,1-1,.42-.6.12-.36.06-.31v-.41l-.3-1.33v-.42l.06-.36.12-.23.3-.18.77-.24.26-.24.11-.3-.06-.42,0-.42-.12-.42-.2-.84-.12-1.8v-1l-.17-.78-.36-.9L55.5,260.1l-.3-.6-.06-.18-.06-.3-.06-2.1-.12-.9-.06-.48.06.06,2.39.66,2.77-.72,5-2.76,4.61-1.14,1.07-.6.67-1.56.24-1.43.24-7.19.48-1.87.72-.83,3.11-.06,1.32-.49.79-1.43-.06-.84-.37-1-.42-1L76.72,232l-.06-.84.24-1.2-.54-1.91-.72-1.26-.72-1-.65-1.32-.12-1.86.89-1.14,1.08-1,.42-2,.6-1.5.18-.78L77.2,213l.6-2.64,1.32-3.29L80.74,204l1.74-1.79L84,202l1.33.6,1.08.71,2.09.48,1,.85.78,1.13.48,1.21.29.36.24.41.2.54-.14.42-.24.3-.29.18-.12.24v1.08l-.24.54-.06.36.59.84,1.27.36,1.26-.9,1-1.5.54-1.26.18-2,.17-1,.6-.54.84.18,1.26,1,.79.18,1.13-.61-.18-.89-.77-1.15-.66-1.25L98.31,200l-.37-1.38-.9-.48-.42-.12-.54-.3-.54-.48-.29-.48-.48-1v-.3l.36-.06,2.93-1.79.37-.85-.12-1.8-.73-2.87-.06-1,.3-1.32,2.4-3.95.54-2.82,1.2-.6,1.5-.3,1.31-.72.49.47.48-.47.3-.18.42.06.6.3.54-1.08-.12-3.11.3-1.5,4-5.22.89-.66,2.64-.42.72.54.77,1.26,1.08,1.32,1.39.72,1.43-.48,1.86-2.34,1.2-.72,1.27-.36,1.25-.6,1.2-.78.84-.78,1.43-2.21,1-1.08,2.29-1.32.71-1.39,1-2.87,1.62-2.52,6-6.59,3.84-3.18,0-.78.35-2.28v-.42l-.24-.84v-.36l.18-.36.9-1,.06-1.55-.42-1-.78-.78-1.2-.9-.48-.9.36-.78,1.21-1.08.17-.84v-1.61l.06-.85.24-1,.3-.79.9-1.61.06-.66-.42-.78-.48-.9-.3-.78.06-1.26h.66l.9.3.78-.24.24-.84-.18-.71-.36-.61-.18-.54.18-1.43.42-1,.3-1.19-.12-1.8-.66-3.23-.06-1.57.36-2,.84-3,.29-1.5L150,95.78l.24-1.91.78-3.31.48-.71,1.39-1.62.3-.54.18-2.58.18-.48-.3-1-.72-1.74-.06-.35-.06-.84-.12-.36-.36-.24-.43-.12h-.6l-.24-1.8.72-3.3V73l-.42-1.09-.78-1.32-1.85-2.39-2.45-2.34-.72-1.26.36-1.68.95-1,1.5-.78,1.56-.36,1.13.42,2.41-2.4.9-.42v.06h0v.18H154v.12l1.13,6.3,1.08,6.29,1.14,6.29,1.13,6.3,1.15,6.29,1.14,6.3,1.08,6.29,1.13,6.36,1,5.46,1,5.45,1,5.51,1,5.46,8.09-1.44,8-1.44,8.09-1.49,8-1.44,8.09-1.51,8-1.49,8-1.5,8.09-1.5Z" fill="#35156B"/></svg>