<svg id="ebc480a8-a785-45f8-8f95-046a0117dcb7" data-name="Layer 1" xmlns="http://www.w3.org/2000/svg" viewBox="0 0 400 400"><title>State</title><path id="a0f85659-fc68-4e8f-a03a-742d116646d6" data-name="TX" d="M274.45,337.44l.36,1.33.25.64.32.5.14.29.36,1.72.28.63.69,1.17.22.68.37,2.35.29.8.48.78.23.5.71,6.27.21.53.27.16.2-.55,0-.52-.34-1.62-.44-.94-.07-.62,0-1.3-.11-.7-.44-1.21-.27-1.83-.2-.68-.25-.37,0-.39-3.1-9.42-1.05-5.34-.41-7.85.18-.6-.39.46-.11,1.44-.21.64.23.55v.57l-.18,1.16.07.62.27,1.09.32,2.88-.05,1.07-.25,1.05.87,1.21.12.25,0,.11.14.23,0,.19,0,.09-.28.09,0,.11,0,.25.07.23.11.18.21.19-.21.23Zm6.84-35.21-.2.82-.16.32-1.12,1.1-.7.93-1.42,3.31h-.16l-.21-.34-.32-.21-.66-.25.14.51.18.32,0,.29-.39.34.09.6-.48.82-.59.84-.28.6,0,.36-.48,1-.11.41-.21,1.28-.8,2-.39,3.38-.18.53.25.13.18-.09.3-.48.43-1,.51-2.55,1.5-4.36,2.4-5,3.31-5.13.29-.32-.22-.27Zm5.55-9-.37-.13-.32.18-.2.32-.14.32-.18.23-.39.09L283.73,297v.16l.53.12,0,.18-.17.36L284,298l-.8.89-.93,1.48-.35.94.25.55.14-.6.37-.61.93-1.14,1.08-1.74L287,295l.07-.3,0-.68.07-.3-.09-.25Zm11.86-8.51-.13,0-.16.07-.25.07-.09.13,0,.64v.25l-.32.57-.32.19-1-.07-.59.09-.34.23-.55.57-1.23.61-.21.19-.25.3-1.11.66-.25.54-.21.19-1,.66-.32.13-.43.1-.87.29-.55.09-.45.25L288,292l.09.57.23.32v.21l-.32.32-.28.5-.2.59-.09.53h.2l.21-.53.32-.48.7-.73,1.44-1.12.64-.75,2.51-1.41,1.46-1.35.82-.57.89-.27,1.94-1,.05-.14.2-.34.07-.25,0-.25,0-.82Zm3.5-2.64-1,.66-1.48,1.39v.23l.55-.07.41-.32.68-.73L302,283l.21-.29.57-.43.2-.14,0-.09L303,282l.11-.07.23,0,0-.21Zm37.9-28.41-.05-.16-.09,0,0,.05,0,.18v-.2l0,.09v.09l0,0h-.14v.21l.48.07.09.36-.16.41-.25.21-.07,0-.57.21-.13.16-.19.48-1.09,1-.1.13-.41,0-.29.09-.21.25,0,.41-.3.46-1.94,1.32-1,1-.48.57-.29.7.18,0,.43-.61,3.74-3,1.19-.5,3.88-3.52-1.69-.52Zm32-53.81-.39-.32-.78-1.1.05-.34.23-.43,0-.3V196l-.16-.5-.48-.09-.5.16h-.18l-.07,0-.07,0-.09-.09-.07-.09-.07-.16-.16-.83,0-.16-.14-.2-.09-.16-.09-.2-.05-.26-.09-.16-.06-.16-.1-.11-.3-.3-.7-.52-.14-.14-.09-.18-.07-.32,0-.23,0-.18.09-.28.07-.11.29-.46,0-.09-.07-.09-.37-.23-.43-.41-.27-.34-.12-.2-.06-.26-.12-.48-.07-.25-.11-.18-.11-.09-.14,0-.32-.06-.14-.07-.09-.07-.09-.14-.07-.14-.07-.25,0-.13.07-.14.28-.18v0l0,0,.07-.09.06-.16,0-.18-.09-.12-.14-.07-.16-.07-.63-.15-.16-.07-.14-.07-.23-.18-.73-.73-.3-.34-.16-.28-.09-.18-.09-.3,0-.23v-.2l.09-.32.09-.23,0-.18,0-.25,0-.87.05-.27.09-.51V180l-.05-.13-.06-.12-.07-.11-.09-.07-.12-.23-.11-.37-.25-1.18-.09-.28-.71-.93-.23-.39-.11-.29-.14-.28-.25-.41-.39-.43-.52-.51-.25-.18-.87-.39-.14-.06-.11-.1-.09-.11-.6-1-.11-.14-.34-.25-.19-.06-.36-.26-.14-.16-.06-.09,0-.07-.11-2.28-.18-3.6-.21-3.58L356,158.4l-.18-3.61-.21-3.6-.37-7.19-.18-3.61-.25-3.67-.23-3.65-.23-3.65-.22-3.65-.12-2v0l-.25-.09-.41-.17-.75-.52-.46.27-.55,0-.5-.09-.89-.46-.37.16-.31.32-.37.16-1.26-.57-.43,0-.25.38-.16.48-.23.3-.54-.27-.53.29-.48-.07-.18-.29.29-.32v-.21l-.63.14-.64-.16-.5-.41-.21-.62-.27-.54-.46-.1-.14,0-.64,0-.47-.22v.22l-1.24-.36-.39-.18.1-.16.06-.14-.54,0-.66.17-.21-.28-.29-.16-.37-.09-.37,0h-.18l-.27.16-.19,0-.13,0-.23-.28-.46-.2-.45-.71-.37-.14h-.32l-.66-.18-1.67-.23-1-.89-.41-.66-.14-.18-.27-.16-.23-.09-.16-.19-.09-.45-.07-.14-.18-.16-.21-.14-.18,0h-.89l-.39-.09-.41-.28-.87-.8-.45-.27-.8-.16-.16-.18-.11-.21-.14-.18-.3-.18-1.71-.48-.41.07-.45.41-.15.48,0,.52-.11.34-.32-.16-.14.25-.18.14-.23.12-.27.16-.3-.16h-.18l-.07.29v.23l0,.14-.12.09-.16.09-.2,0-2.15,0-.27.06-.18-.22-.17-.12-.2-.07h-.25l-.09.07-.16.12-.12.06-.07-.11-.11-.16-.07-.11v0l-.79,0-.35-.15.23-.46-.2-.46-.3-.23-.35-.16-.34-.25-.34-.11-.27.27-.32.6H313l-.44-.14-.06.06-.6.35-.27.07-.28.18-.25.21-.16.2h-.25l-.39,0-.82,0-.18.2.13.85-.27.23-.18-.07-.14-.14-.14-.2-.2.07-.14.16-.16.2-.7.16-.3-.07-1.48-.87-.28-.27-.27-.07-.32.21-.25.29-.1.23h-.18l-.39.23-.45.34-.87.41-.34,0-1.32,0-.25.07-.51.32-.27.07-.25.23L299.3,119l-.23.41-.48.32-.46.07-1.09-.09-.66.11-.16.3,0,.45-.11.65-.71.52-.78-.71-.77-1.11-.62-.71-.48-.09-1.71.15-.21-.09-.09-.25-.06-.27-.1-.23-.16-.11-.57-.28-1.05-.29-.32-.32-.11-.12-.07-.13,0-.16v-.16l0-.16.27-.57-.07-.19-.22-.2-.64-.25-.34-.07H287l-.13.09-.09.09-.17.28-.29,1-.07.16-.07.14-.09.11-.12.1-.2.09-.25.09-.48.07h-.27l-.23,0-.14-.07-.69-.51-.27-.11-.2,0-.89.13h-.25l-.21-.06-.11-.07-.33-.32-.16-.25-.13-.3-.18-.87-.12-.29-.11-.16-.21-.12-.34-.16-.25,0h-.2l-.87.18-.16.07-.12.07-.18.25,0,.41,0,.73-.37.85-.38.52-.55.18-.92-.22.05.47.18.21.21.14.11.29-.11.23-.48.3-.09.34-.05.89-.2.8-.46.5-.82.07-.62-.36-.5-.69-.36-.8-.14-.75.09-.53.46-.77.09-.51-.07-.38-.21-.34-.29-.28-.32-.23-.16.1-.32.13-.14.12-.09.13-.09.23-.43.8-.14.2-.71-.59-.3-.09-.41.3,0,.09-.14.32-.07.11-.13.16-.28.16-.09.11-.2.16-.28.09-1.66.17-.41-.26-.19-.7-.06-.64-.21-.39-.39-.2-.59-.1-1.62.14-.39-.2-.25-.58v-1.14l-.25-.52-1-.46-1,.37-.88.73L257.63,117l-1,.64-1.12.2-1.09-.32-.6-.3-.25-.29.07-.46,0-.2,0-.3.16-.64v-.29l-.18-.35.16-.34-.07-.32-.18-.25-.26.07-.91-.3-1.25-.23-1-.48-.07-1-.13-.66.09-.91v-.8l-.41-.35-.64.1-1.19.45-.77.12-3.42-.39-.64.2-.42.46-.29.55-.34.52-.16.28-.62.11-1.28,0-.36-.2-.87-1-.34-.22-.16-.16-.44-.73-.27-.19-.84-.15h-.3l-.57.11-1.71.73-.3-.16-3.19-.66-.53-.18-1.94-1.24-.57-.13-.41.11-.39.16-.54.11-.51-.06-1-.3-.52-.07-1.19.07-.57-.11-.43-.37-.09-.48-.1-1.66.1-.37.09-.25-.44-.52-.79-.71-.23-.48-.16-.55-.25-.46-.51-.2-.5,0-.25-.07-.23-.09-.2-.21-.12-.23-.06-.2-.14-.19-.48-.34h-.37l-.25.34-.14,1.53-.2.46-.39.21-.59-.07-.55-.21-1-.55-1.23-.16-.23.07-.23.14-.27.34-.18.16-.46.14-1.55-.14-.48-.16-.32-.34-.5-.75-4.29-4.11-.25-.16-.55-.12-.23-.13-.41-.12-1.14.16-.39,0V94.76l0-3.5V77.32l0-3.49V59.89l0-3.47v-14l0-3.46V37.48h-8.33l-4.65,0-5.53,0-6.14,0-6.59-.07-6.78-.06-6.8-.12L150,37l-6.14-.12-5.52-.13-4.66-.12-3.58-.09-2.3,0-.82,0-1,0V37l0,1-.13,4.26-.14,4.25-.14,4.27L125.35,55l-.14,4.25-.14,4.26-.13,4.27L124.8,72l-.14,4.26-.13,4.27-.14,4.27-.11,4.27-.14,4.24L124,97.61l-.16,4.26-.14,4.27-.13,4.27-.14,4.27-.14,4.26-.14,4.27-.13,4.27-.14,4.27-.14,4.26-.13,4.27-.14,4.27-.14,4.26-.13,4.27-.14,4.27-.14,4.29-.13,4.24-.14,4.27-.14,4.29-5.77-.16-5.8-.18-5.79-.18-5.8-.21-5.77-.2-5.8-.23L81,173.05l-5.78-.25-5.8-.25-5.77-.28L57.85,172l-5.78-.3-5.79-.29-5.78-.32-5.79-.32-5.78-.35-.68,0-.43,0v.52l.47,1.14.1.66,0,.71.14.55.59,1-.2.21.16.36.22.28.3.2L30,176l.34.25L31.79,178l.5.16,1.16,0,.94.46.82.92.64,1.11.45,1.07.55,2.13.28.57,1,1.37.23.48.09.32,0,.18,0,.13.16.23.87.57.25.39.59.3,1.07.39.87.59.48.23.66.11.41.19,1.12.84.3.32.18.3.16.52.14.27.5.32.3.25v.12L47,193l.46.41,1.89,2.47.16.57.23.41,1.94,1.39.43.2.16.14.62.78.52.43.44.28.38.34.28.61.29,1.1.23.46.66.36.82,1.12,2.08,1.78,1,1.36.32.3.78.23,1.45.82.17.16.13.21.14.16.27.14H63l.12-.07.2-.21.09,0,.28.11.16,0,.2.11.23.46.25.11.27,0,.21.1.11.18,0,.34.09,0,.11.09.32.39.18-.21h0L67,212.14l.5.22.48.15.55.29.5.43.32.48.06.32v.37l0,.32.16.27.28.09.82.16.18.12.14.34.75,1,.29.55,0,.3,0,.66,0,.29.43.3.09.16,0,.18-.16.34,0,.21,0,.34.25.41,0,.32-.07.43,0,.21,0,.16.21.37.18.22.34.21.16.2,0,.28v.36l0,.3.14.14.5.34.34.75.3.87.3.62.18.15.46.26.25.25.45,1.12.37.5,0,.68L77,230.28l-.14.71-.41,1.07-.11.62,0,.73.44,1.71v.27l-.1.46,0,.32.09.16.34.43.07.16.09.32.48.64.32,1.44.1.27.45.57.46.41.34.46.18,1.32.44.89.16.46,0,.43v.32l.09.3.36.43,1.24.94.36.39.07.2.09.28.11.27.17.11.18.09L85.07,249l.27.41.48-.23.76,0,.68.21.41.57.62.5.2.11.19.17.43,1.11.84,1,.55.5.91.5,1.23,1.49,1,.61,2.42.91,1.69.42,1.87.18.29.11.26.23.11.3-.25.68.18.16.3.12.25.11,1.23,1.14.78.46,2.35.66.73,0,.2,0,.23.18.09.21.05.23.16.25,1.32,1.41,1.14.69.32.11.23.19.73.73.39.18.32-.18.25-.3.25,0,.3.55.16-.09.41-.11-.21.64.39.25,1.62,0,1.46.43,1,.19.69-.33.38-.82.16-1.05h0l.25-.06.09.06.19-.52.13-.3.23-.18,1.1-.55.2-.18h0l.25-.32.78-1.51.32-.31.18-.17h0l.6.35.16-.25,1.23-.89.73-.12.3-.13h0l-.23-.35-.64-.45-.21-.28,0-.39.41-1.18,0-.55.07-.32.16-.23.34-.25.14,0h.34l.25-.14h0v-.14l-.21-.43,0-.18.25-.42,0-.34-.09-.36-.07-.34.07-.44.16-.27.18-.27.89-2.24h0l.26-.18v0l.16-.22-.12-.42.25-.11.07-.11-.14-.41.32-.14.16-.18h0l.28-.51,0-.07.43-.82.12,0,.13-.41.8-1.37.09-.34.05-.25.07-.23.2-.23H130l1,0,.46-.11,1-.5.5-.18.09,0,.12.32.13.09.19,0,.09-.05,0-.07v0l.28-.21v0l.23-.37.2-.06,2.9.29h0l0-.11.66-.94.09-.29.09-.82.09-.28.21-.2.34-.07.3-.12.27-.54.25-.16.48.16.34.34.35.27.47-.11.12.57.36.18,1,.12,1.23.68.3.27,1,.46,2.53-.23.71.18.43-.38.42.13.36.32.34.19h.28l.22,0,.23-.11.19-.16.22-.09.28,0,.52.18h.89l.32-.2.16,0,.07.32.23.18,4.33.69,1.4-.16.41-.16.29-.3v0l.12-.57.09-.14h0l.18.07.21.23.07.29,0,.14-.25.53-.09.25.57.16.43-.23.41-.34.53-.19.2.1.19.38.25.16.29,0,.3,0,.27-.09.23-.11-.11.36.06.41.19.37.43.7.18.55.3.73.18.3.23.21.34.18.71,0,.23.14-.05.48-.23.66,0,.46.3.11.48-.41.66-.39.66-.07.41.39,0,.8-.25.91.09.44.28.27.29,0,.28.07.23.19.5.66.77.41,1.78.59.8.3.21.52.09.87.09.43.18.32.21.3.25.25.3.18,1.93.92.64.59.51.66.23.18,1.25.62.55.41.34.46.55,1.05-.21.66.21.41,1.39,1.19.09.18.11.18.32.09.32.05.26.09.22.43.21,1.78.52,1.21.09.64-.23.66.19.19.11.25.05.34V270l.16.23.32.22.32.35.14.48.06.11.41.2.14.1.09.25-.18.39.09.2.18.09.39,0,.18.12.12.16.13.32.12.16.16.29.66,3,.34.68,1,1.3,0,.55.29.21.64.32.28.2.11.3,0,.73,0,.34.36.64.55.37,1.12.45h0l-.78.41-.14.23,0,.34.18.26.23.18.09.18.14,1.12.23,1.07.77,1,.41.68,0,.5-.19.58.25.59.48.5.46.34.75.14.19.07.09.25,0,.43.09.41.23.19.43.07,2.67,1.37.51.5.2.68,0,.41.07.21.38.43.37.32.2.07,0,.16-.07.2,0,.21.18.5.18.41.28.39.39.48.38.14.6.13.34.23-.32.46.25.43.43.57.48.48.44.18.07.14-.12.32-.23.48.09.34.21.18.25.14.21.27,0,.3-.07.66,0,.3.14,0,.36.32.32.34,0,.16.66.14.34.32.26.41.32.39.27.13.48.17.18.11.12.27.06.37.09.29.21.14.48.73.13.14h1l.16.16.27.52.12.12h.29l.57-.32.35-.09.27.11.34.59.16.14.46.16.54.25.55.5.23.46v1.23l-.07.71v.32l.18.14.41,0,.21.11.12.25.09.44v.13l0,1.15-.09.36-.23.71-.09.62-.14.38,0,.34-.09.28-.46.5,0,0-.19.32.78.3.18.14.05.06.05.26.09.11.29.14.09.06.39.46.3.51.2.54.05.59-.09.6-.39,1.32-.07.62.07.14.11.18.14.22.05.28-.07.25-.55,1,.5.69.12.18.41.32.25.12h.23l.23,0,.18.25.07.35v.61l.11.34.25.25,1.12.89.3.42.89,1.07.38.5.48.48.39.5.41,1.35.37,1.43,1.12,3.24.09.51.2,1.52.18.71.67.28.71.16.34.43.32.84.06.39-.11.37-.25.39-.16.38.07.35.57.45.54.09.51-.06.55,0,.13.09.19.25.16.07.18,0,.48-.2.66,0,.23.16.25.48.43-.44,1,.76.64-.14.25.16.27.07.23,0,.16-.21h0l.3.18.23-.07.18-.13.25,0,.16.11.41.5,1,.6.3.36-.12.51.39,0,.34,0,.34.11.28.27-.34.41,0,.16.25,0,.23.07.57.55.32.19.37.06,1.62-.64.8.41.86.23.8.3.57.68.37-.45.07-.09.77.23.89.5.75.2-.2.62v.32l.32.09h.75l.16.21.66.95.28.3,2.16,1.07,1.05.3,1,0,1.3-.36.55.11.25.75.27.12.57-.21.87-.45.39-.05,1.6.21,1.75-.25,2.1,0,.55.14.07.45.36.12,2.45.09.55.11.5.26.54.38.28.41.23.49.29.41.83.31,1.27,1.26.5.34.46.16.46.09h.59l.21.23.16.46.29.43.59.09.12-.11h0v-.18l0-.14h.23l.19.16.09.21.14.2.27.07.55-.25v-.6L275,362l-.09-.55.09-.18h0l.64-.46.48.32.64-.21.16-.15.34-.35h0l.07-.5h0l.36-.09,1.35,0,1.82-.18.05-.27-.11-1.37-.1-.87-.25-.82-.36-.07-.3.21-.11.45,0,.55-.12.48-.18.34-.25.21-.67.31-.15.17,0,.13-.09.05-.29-.14-.16-.11-.1-.18-.13-.51v-.43l.29-.73,0-.55.41.18.27-.09.18-.27.09-.46-.34-.13-.34-.07h-.75l-.34-.05-.28-.14-.21-.13-.16-.05L276,355l-.16-.82,0-.91.13-.64-.41-.62-.13-.27-.07-.37.11-.25.16-.2.09-.25-.18-.35-.23-.16-.18,0-.18.09-.25.06-.23-.27,0-.66.13-.64.25-.3.16-.13-.11-.23-.21-.14-.11.16-.07.12-.13.16-.19.09H274l-.07-.21.25-.61,0-.26-.18-.07-.6,0-.2-.07-.16-.36-.05-.41-.14-.33-.5-.13h-.36l-.07-.11.07-.3.07-.87.11-.45,0-.28-.93-.3.73-.22.25-.23.14-.41.06.18.21.25.09.21-.2-1-.66-2-.32-2-.71-1.93-.21-1.35-.16-.5-.23-.46-.34-.32-.45-.13H269l-.3-.07-.21-.39,0-.41.05-.62.11-.59.19-.3.29.14,1.26,1.12.31-.62-.38-.39-1.1-.45-.31-.37-.26-.43-.16-.55-.11-1.3,0-.34.3-.14,1.53-.16.36-.27,0-.53-.34-.75.3-.34-.19-.41-.27-.37,0-.18.44,0,.41-.16.34-.27.18-.37-.06-.38-.21-.48-.1-.41.25-.19.12-.23,0-.54,0-.57-.06-.32.31-.14.19-.34,0-.41-.16-.39-1.8.62-.53.36-.5.25h-.69l-1.36-.3-.6-.22-.43-.28-.44-.2-.68-.09-1.37.13-.59-.16-.39-.57h.66l.64.14.66.07.64-.25.3-.41-.14-.32-.41-.12-.52.25-.07-.11-.05-.09,0-.21.54-.29-.34-.64-1-1h.39l-.29-.64-1-.91-.11-.73.86.55.71.68,2.26,3.1.09.28,0,.27.1.18.36.07.3-.07.16-.13,0-.21-.11-.2.5-.76.25-.11.18.43.41-.38.23-.14.3-.14-.21-.41.32-.21.62-.64.52-.25-.09.6,0,.59.12.34.2.12.21-.05,0-.11.21.16h.11v.07l-.23.27-.18.11-.29.05-.55,0,.11.12,0,.11.07.1.16.09-.32.32-1,.54.53.37.39-.14.57-.66,1.76-.77.29-.23.07-.69,1.05-3.19.36-.48.1-.32.07-.59.43-1.37.8-1.58.09-.25,0-.68.1-.35.13-.25.3-.41.25-.5.09-.48-.23-.39-2.44-1-.43-.41-.73-.84.18-.26-.09-.29.21-.89-.16-.48-.21.27-.3.16h-.34l-.25-.18-.89.23-.62-.09-.5-.41-.45-.73.43-.18.11,0,.23.07.09.14,0,.11,0,.07.16.07.21.09.2,0,.16,0,.07-.28.14-.11.75-.07,1.53,0,.7-.2-.09.2,0,.12-.07.11-.18.19.69-.07,1.09-.5.62-.09.47.11.4.32.36.45.32.51-.57,0,0,.23.71.07.59-.46,2.06-3.15.95-1.82.05.09v.09l0,0,.12,0,.43-.94.19-.25.27-.29,0-.16,0-.19,0-.41.13-1.21-.09-.34-.29-.22-.19.08-.09.07,0,0,0,.11.12.12-.44.54-1.3.59-.27.51,0,.39-.14.41-.16.36-.21.23-.32.14v-.16l.12-.28v-.34l-.3-.43-.39-.32-.5-.21-.59-.07-.25-.27.5-.68,1.09-1.17-.43-.14-.11-.29.09-.35.22-.24.32-.07.4.09.2.25-.16.3.73-.19,1.05-.48.94-.64.41-.66h.18l.18.43-.14.94.19.32-.07.16-.09.12-.09.09-.1.07,1,.29.3-.14.36-.61.26-.64.14-.53-.09-.43-.37-.32.62-1,.36-.48.32,0,0,.45-.25.53-.13.54.38.57-.36.51-.23.5-.29,1.14.45-.23.87-.25.43-.32.92-1.32.43-.5,1-.64.27-.39-.55-1.14.09-.55.25-.55.14-.55-.41-.73-.82-1-.55-.83.44-.41.36.21.57.39.52.22.21-.31-.09-.48-.21-.35-.68-.52-.23.11-.09-.18.09-.32.23-.23.2-.13.26.2.5.76.11.09.32.18.12.11.07.19,0,.29.07.25.13.12.51,0,.25.18.09.35.09,1.11.18.48.27.25.46-.16.48.37,2.9-1.74.41-.13.91-.62.52-.14,1.92-1.11-.11-.73-.8-.67-1-.34L296,282l-.27.26-.46.27-.43,0-.21-.5.23-.07,1.41-.73-.25-.57-.13-.23-.21-.2-.18-.16-.57-.26-.8-.5-.34-.11-.25.29-.21.05-.25-.32v-.2l.12-.75,0-.33-.09-.29-.12-.23-.79-1L292,276l-.14-.54,0-.75.31.15.14.1.12.16.34-.21.36-.05.37.07.31.25.23.28.09.2.05.23.14.41,0,.25v.21l0,.18.15.21.13,0,.37,0,.16.09.29.07.32-.09.27-.05.12.23.25.73,1-.73.25.57-.16.59-.39.14-.51.07-.41.41L297,279l.93-.41,1.54-1-.94-.26-.37-.22.07-.44.09-.27-.07-.23-.11-.21,0-.25.09-.11.18-.14.16-.18.07-.29-.09-.23-.21.09-.23.2-.2.07-.18-.23-.21-.45-.16-.55,0-.46h.16l.11.25.5.78.12-.11.25-.16.16-.16.38.41.19.45-.07.44-.25.36.13.3.83.75.16.3,0,.2.11.07.46-.16.52-.36.71-.91.55-.3-.16.43.59-.41.37-.18.41-.07h.54l.21.09-.11.32-.6,1-.11.36.14.21.54.07.39-.07.35-.14.38-.09.46,0v.23h-.16l-.41.37-1.26.18-.45.27-.09.46H304l1.26-.41,1.57-.8.55-.14.34-.16,1-.64.53-.09.53.25.18.48-.09.48-.28.23L309,278l-3.81,2.12-.89.69-.62.82.8-.39,1.71-1.14,1.54-.57,1.59-1.37,2.76-.75,1.74-1,3.1-2.24-1,.14-1,.43-3.63,2.26-.09.09-.16.07-.21,0-.11,0-.12-.19,0-.11.06-.14,0-.5.09-.27,0-.32-.18-.37,3.58-1.48,1-.16,1.23,0,1.21-.11,1.18-.34,1.15-.6,3-2.14,1.75-1.39.48-.21.6-.09.29-.2,1.4-1.33,1.39-1.71.75-.46,1.87-1.62.18-.38,0-.44,0-.5-.27-1.28,0-.66.21-.71-.37-.77-.22-.25.47.22.44.05.34.16.25.57.73-.48.6-.5,1.69-2.12v-.07l-.05-.28,0-.06.07,0,.23,0,.09,0,.52-.43.23-.27.09-.39H337l.43.32.39-.25.3-.62.09-.66.18-.62.48-.16.57.12.43.27.07-.14.07,0,.09,0,.09,0-1.21-.48-.36-.05-.3-.2-.8-1.23v.16l0,0h-.05v.14l.11.09,0,.23h-.69l-.13-.42,0-.5-.48-.29v-.23l.39-.14.37-.2.29-.32.18-.44-2-.52-.92-.53.19-.82L335,247l.37-.55.13-.52-.91-.44-.16-.5.11-.57L335,244l-.14-.27-.15-.11h-.53l-.29-.05-.23-.18-.44-.46.14-.16,1.6,0,.87.48.82.68.84.35.82-.62.39-1,.23-1,.18-.3.46-.29,1-.46.59-.37.23-.06.2.11.14.57.23.14.52.09.11.32.05.48.21.55-.19.68-.27,1.48-.32,1.12-.41,1-.32.48-.27.13-.39.1-.29.11,0,.25.21.25.27.12h.32l1.39-.25,3.86-1.35h.48l.43.16.43.39.55.16.39-.32.23-.23,0,.43-.16.55-.31.27L348,248l-1.32,0-.25.09-.3.21-.75.89-.21.13-.25.17-.29.11-.64.14-.66.38-2.08,2.24-.2.41.11.3.64.09.54-.28,1.31-1.73.93-.75,8.33-4.29,3.13-1.37,2.19-1.39.77-.42,1.1-.38.59-.12,3.24-.09.8.16.3,0,.38-.57-.47-.91-1.55-1.62-.69-1.1.16-1.12,1.92-3.12.22-.57.07-.57.32-.17.69-.06.52,0h0l.48-1,1.46-1.87-.21-.37,0-.27.3-.64.14-.71-.05-.48-.11-.43-.1-.57-.06-.21-.3-.43-.07-.3,0-.36.23-.62,0-.29-.16-.69-.41-.43-.43-.34-.2-.46L367,220.9l.07-.59.32-.71.62-.84.16-.44,0-.57,0-.22-.37-.92v0l0-.59-.1-.16-.2-.12-.09-.13,0-.62.2-.55.36-.41.53-.18,0-.32.29-1.55.21-.5.84-.76.23-.45.13-1.49.85-1.82.14-.53,0-.27,0-.37-.05-.34-.16-.57-.05-.34.07-.32.23-.28.37-.38.16-.32,0-.14-.23-.39-.2-.23-.46-.61-.28-.69.37-.34.25-.07.71-.25.18-.16.09-.32Z" fill="#35156B"/></svg>