<svg id="f3a00c3b-a2bd-435a-877d-bea29ba045f1" data-name="Layer 1" xmlns="http://www.w3.org/2000/svg" viewBox="0 0 400 400"><title>State</title><path id="e4cc9fb4-7753-4ec9-b99e-5d8e542c12ae" data-name="HI" d="M284.33,192.12l.69-2.06-.82-1.95L281,186.42l-.8-.27-2.49-.34-.49-.55-.32-1.16-.35-.56-2-.32-1.23-.34-.55-.66-.33-.59-.76-.8-.89-.53-.71.22-.13-.23-.16-.11-.19-.05-.23,0-.74-.28-.91-.15h-.95l-.84.09-.87.3-1.78,1.21-.61.14-1.62.07-.83.13-.88.39-.7.4-.66.11-.78-.48-1.58-3.55-.41-.65-.45-.54-2.19-2.07-.7-.41-.86-.66-.45-.1-.21.57-.18.29-.44.09-.5-.06-.38-.13-.08.39-.24.69,0,.43-.26-.11-.67-.15-.27-.12-.24,1.3-2,4,3.69,5,.33.29.43.1,1.3.52,1,.63,1.6.65.72.06.51-.13.45-.17.59-.11,1.35,0,.64.14.27.44.2,1.21.19.61.22.26.52.44.3,1.05.16,4.67.62,1.86,1.44,1.07h2.45l1-.5.62-.2.27.14.28.31.63,0,2.07-.44,3.1-2,1.07-.23,1,.17,1.05.28,1.2.16,1-.28,3.76-2,1.63-1.33Zm-30.76,7.37-.86-.79-1.08.13-1,.58-1.68,1.18-2.06.78-.8.56-.56.93,1.72,1.08.74.12,1.33-.66.57-.13,2.39.08,1.28-.21.68-.66-.72-.5Zm93.27,55.8L344,253.83l-2.23-2.19-.36-.74-.45-2.81-.27-.94-.66-.49-1.36-.14-2.21.36-.62-.26-.39-1.19V241l-.2-1.23-.49-1-4.67-5-1.87-1.4L321,229l-6-2.35-2.46-.42L310.43,225l-1.2-.44-.58.14-.55.35-.6.16-.73-.45-.7-.64-.4-.25-1.06-.3-1.46-1.28L299.84,221l-.35-.32-.13-.51-.07-.54-.19-.41-.3-.28-1.55-.29-3.18-1.35-1.8-.29-1.35,1.48-.83,2.12-.22,1.64.51,2.11.93,1.81,2.76,3.3.18.22.59,1.09,0,1-.51.73-1.76,1.35-.37.38-2.12,3.05-.55.62-1.11,1.85-2.33.8-.78.61-.3,1.05-.51.54-1.15.75-1.19,1-.63,1.31.3,2.34,1.14,1.77,1.46,1.61,1.3,1.88.49,1.12.35,1.15.22,1.21.08,1.29.09.51.66,1.93.21.05.74-.09.18,0,0,.27-.07.6,0,.27,1.3,4.52.76,1.26.22.68,0,.46-1.42,8.82-.05,4.62.28,1.18.66.5.66.3.26.68.14.77.28.52.48.1,1.8-.1,2.08.52,2.26.94,2,1.16,1.24,1.16,1,1.58,0,.31.68-.23,1-1.05.59-.23.77-.48,2.44-3.31.83-3.14.51-.86,2.4-2.19.84-.27,2.82-1.51.79-.57,1.32-1.31.8-.55.91-.22.68-.25,1.78-1.67,1.34-1,.69-.27,1-.25,4.37.18,1-.49,3.78-.83,1.91-1,1.08-.38,1.39-.14.95-.27,4.92-4.24.41-.62,4.54-2.44.7-.87.61-1.13.42-1.22.16-1.16ZM244.44,168l-1.63-.38-1.1,0,0,0-.45-.13-.3-.18-.3-.13-.44,0-.31.18-.6.51-.43.11H235l-1.12-.17-.74-.42L231.84,166l-1-.8-.11.19.08.7-.48.7-.81.1-1.94-.69-.86-.2-7.39-.34-.65-.45-.62-.62-.6-.42-.59.16-.54.27-.65,0-.58-.19-.34-.23-.08,1.06.14.79-.15.82-1,1.11-.52.45-.61.67-.43.86V171l.63.81,1.08.41,1.22-.06,1.06-.58.91-.29,3.46.12,4.73-.41,1.24.17,5.38,2.12,2.19.61,2.16.2,2.14-.42,2.09-.83,2.08-1.08,1.71-1.56.93-2.24Zm-143-54.67-.36-.19-.3-.5-.22-.63-.08-.6-.34-.77-.77-.74-.93-.54-1.39-.42-.59-.38-.57-.23-.54.26-.39.24-.57.16-4.32.6-.42.15-.75-.56-.89-.42-.86-.07-.73.45-1,.32-3.06,1.47-4.29,2.66-.13.16-.38.16-.09.38v.49l-.12.44-2.22,2.63-.63.44-.4.56.52,1.22.78,1.13.4.3.28.94.69.38.92.28,1,.67.93.25,1.33-.08,1.2.12L83,125.5l1.5,1.3.44.53h.38l1.29-.38,2.57.14,2.55.64,1.23,1.14,3-1.92L99,124.34l-.25-.59,0-.34.34-.06.62.2.06-1-.06-1.07-.16-1-.26-.75,2-3.25.6-2.32,0-.6Zm-43.72,7.46-.62.24-.66.66-1.21,1.57-.61.62-.79.49-.14.65-1.71.42-2,2.68-.71,1.53L49,131.2l.4,1.25,1.37.59h.59l.48-.14.32-.41.28-1.66.4-.77,1.87-2.15.51-.14,1.05,0,.72-.16,1.09-.74.66-.24-.4-1.5.2-1.41.67-1.2,1-.84-.72-.76Zm132.35,36.58-.26-1.05,0-1-.19-.74-.9-.28-.87-.47.17-1,.56-1,.32-.37h-2.68l-.75.2,1.51,1.1-1,.37-.63.08-.29-.26-.24,0-1.28-1.32-.73-.61-.56-.72-1-2.11.37,0,.19.09.23.33v-1.07l-.09-.84-.35-.63-1.4-.93-1-1.31-.85-1.49-.14-1-.56-1-.66-.86-.81-.67-1-.45-.12-.2L175,138l-.1-.16v-.27l-3.31,1.63-.84.67-.53,1-.4.61-.43.27-.42.17-1.66,1-.27.51v.48l-.21.35-.84.14-.61-.06-1.07-.23-3.06-.15-1.25.09-1,.35-.53,1,2,1.68-.17,1-.44,1.12.57,1.11.94.89.63.49.62.74,1.07,1.88.76,1,.45.34.87.34.39.29.23.35,1.12,3.81.3.11.25.22.25.09.54-.38.66-.32,2.64-.4,1.2-.05,1.2.39.16-1.67-.71-.81-1.11-.52-1-.82h1.09l1.29.4.68-.09-.79-1.48.84.52.29.27.44-.31.46,0,.4.22.24.49-.08.72-.5.25-.6.16-.36.42.29,1.17,1.11.3,1.26-.36.74-.77,1.2.61.5.36.58.54-.26.57.53.47,1.65.86.77.7.37.08h.94l1.27-.34,1.46-.56,1.27-.11.76,1,.85-.72,2.93-2-.82-.74Zm47.58,26.75-.34-.21-.74-.43-2.84-2.56-6.41.41-1.62.89,1.15,1.69,1.94,1.07.55.62.2,1.19v1.3l.16,1.24.44,1.06.9.74,2.31.35,2.36-.71,2-1.37L239,187.7l.53-.94,0-.54-.36-.6Z" fill="#35156B"/></svg>