<svg id="b0acfcda-8439-4405-95d8-5c062ebbe304" data-name="Layer 1" xmlns="http://www.w3.org/2000/svg" viewBox="0 0 400 400"><title>State</title><path id="aed4d797-155c-4caa-aacb-32953612a1bb" data-name="MS" d="M250.81,335l-.48,1-1.21.48-2.64.13,0,.39,1.6-.22.74.17.47.56.3-.43.44.39-.22.26-.26.35-.17.21.21.18.13.13.18,0h.21l.7-1.82.09-.65-.09-.6.09-.17.3-.18-.09-.3ZM233,343.31l-.26.56.44.13.26-.56-.13-.35ZM256,337l-.09.21,1.29-.3.74-.3-.65,0Zm23.26-2.51,1.69.17,1.77-.13.3-.43-3.85-.05Zm4-10.47-1.64-10.82-.86-5.4-.82-5.41-.83-5.4-.82-5.42-.87-5.4-.82-5.41L274.9,270l-.83-5.4-.82-5.4-.86-5.41-.82-5.41-.82-5.41-.82-5.4v-2l0-2.38v-3.16l0-3.93.05-4.64,0-5.27,0-5.84.05-6.36,0-6.83,0-7.14.05-7.52v-7.75l.08-8v-8.09l.09-16.26,0-8.05v-7.95l.05-7.75v-7.48l0-7.18V97.27l0-6.36V60.72h-.86l-1.65-.91-1.3-1.56L265.73,56l-.43,0-1.74.18-6.14.64-6.18.66-6.19.64-6.23.66-6.18.6-6.18.6-6.2.61-6.18.6-6.18.56-6.19.61-6.19.56-6.22.57-6.19.56-6.19.56-6.18.56-6.23.52.17.26,1.65,1.65.12,2.42L165,72.18l-2.12,1.64-5.15,2.56-.48.82.31,1,.65,1.12.3,1-.61.82-.39.57-1,.38-1.08,0-.95-.52-.6.26-.57,1.21-.65,2.12-.22,2.46,1.22,3.94-.09,4.93.18,2-.22,1.68-1.43,1.82-1.69,1.12-1,.52-2,.39h-.56l-.39-.17-.65-.43-.17.34v.52l.26.82.52,1,.13.73-.13.48-.56,1.13-.13.6-.17.26-.48,0-.82-.31-.66.09-.3.13-.17.35-1.51,4.41-.56.52-.74.35L138,116.6l-.56.65.18,1.64,3.63,1.43.3,2.21-.56,1.08-.73.52-.95.22-1.13.08-1.08.26-2.59,1.6-2.52.78-.38.43.25.82.52.35.65.22.69.3.92,1.56-.56,1.42-.83,1.39.47,2,.61.87.39,1.07-.51,1.3-.49.22-1.29.17-.52.18-.48.38-.9,1.13-.31.22-.38.43-1.7,2.72-.86.69-.69.48-.09.57,1,.9,2.08.82.82.7.3,1.47-.34,1.21-.78.65-1.05.3-1.16.08-.74.48.31.95.82.91.82.35.91.26,1,.73,1.77,1.56.13,1,.17,1.64v1.73l-.17,1.13-1.64,2.55-.43,1.3.77,1.08.57,0,1.51.43.7.48.34.69.26,2.9.69,1.9.22,1-.22,1.07-.6.44-1,.35-.9.51-.35.74.22,6.06,0,1.94.35.52.69.39.83.22.77,0,.65.17.65.56,1,1.09-.39,1-.61,1.09-.69.86-.56.39-.43.65-.56,2.86-.17,2.33.17.82.65.43,2.46.22.9.65.31,1-.7,1.29-.86.31-1.34.17-1.21.35-.47.85.21,1.27.35,1.07.47.91.65.78.52.39,1.25.65.39.43.17.65-.08.74-.18.64-.08.57.13,2.38.21,1,.66.77,1.73.87,1.55.52,1.21,1,.61,2.26.39.38.82.26,1.73.13,1.17.35.38.87-.08.82-.39.21,0,.44-2,2.38-1.25,3.84-1.48,3.07-2.63.09-.43.52-.13.61,0,.55.05.4,1.64,1.6.13,2.12-.91,2.08-1.68,1.46-1.48.61-.48.35-.34.52-.39,1.25-.26.52-2.07,2.81-.87.82-.95.43-2,.61-.82.65-.66,1-.39,1.08-.47,2.21-1.3,2.89-.13,1,0,1.17-.56,5.1.09,1.39-.22.65v.38l-3.29,2.77-1,1.82.43,2.51.26.39.52.64.73,1.17.13.35v1.12l-.09.53-.43.56-.34,3.8-.26,1-.56.7-1,.29-2.38.09-1.13.18-.73.48v.9l.6,1.17.87.91.69.39.3.3,0,.65-.18.65-.12.22-.09.64-.43,1v.57l.69,1.59,1.65,1.74.43,1.47-3.64,3.54.31,0,2.29-.17,1-.09,2.85-.22,4.37-.3,5.71-.47,6.75-.53,7.52-.6,8-.65,8.3-.69,8.31-.7,8-.73,7.53-.65,6.75-.6,5.66-.52,4.41-.39,2.82-.26,1-.09,2.16-.17,1.87-.21.21.86-.13,2.08-.47,2.12-1,2.25-.49,3.41-1.07,1.6-.35,1,.39,1.09-.74,2.17-.25,1.29,0,1,.56.82.82.82.52,1-.52,1.25,1.56,2.68.82.74,1.69.47.86.52.83,1.73,1.51.87.95,1.47.17.39.09.47,0,1,.09.48.43.91,1.61,2.12.34.94.13,2.38,1.13,1.61,1.81,3.42,1.26,1.21.35-.65.6-.26.65.13.39.34.08-.17h.35l.56.3.73,0,.69-.35.4-.6.48.34.13.13-.22.35.39.39.56-.56.17-.43v-.48l.09-.65.73-1.12.18-.62-.48-.73,4.33-3.07.43-.56,0-.69-.13-1.13-.26-.17-1.16.09-.48-.13v-.48l.43-.65.61-.56.52-.26,1.08.13,1.72,1.08,1,.44-.7.47-.39.56.18.43.91.13.65-.13,3-1.29,3.08-1.17,3.46-1.56.82-.18.65-.21,1.47-.95.64-.3,3.12-.17,1.51-.31.79-.82-6.24-.22,0-.39.82-.08.7-.26,1.17-.69,4.15.73,5.62,3.41,1.56.09,2.42-.51,2.16-1.13.78-1.56.39,0,.21.65.75.48.47,1.16.48.26.64.05.61-.09,1.38.22,1,.51.91.27,1.08-.61.3-.43.17-.43.26-.35.65-.22.47-.34v-.65l-.13-.65.18-.35Zm-10,10.21-1.17-.39-1.16-.61-1.7-.13-1.64.22-1.21.52v.34l10.21.57.48-.26.39-.26-1.13-.3Zm-13.46.86-.25.26-.35.57.43-.18.79-.7-.05-.21Z" fill="#35156B"/></svg>