<svg id="b34ffee2-5e06-499d-9a3d-d93350c8fe4d" data-name="Layer 1" xmlns="http://www.w3.org/2000/svg" viewBox="0 0 400 400"><title>State</title><path id="a5345bbf-b760-4e82-b891-f72ef67b7d9b" data-name="OR" d="M125.7,88.37l2.34.07.63.34.41.51,1,1.15.45.37,1,.41,1,.71,1,.85.78.85.48.89.41,1.07.26,1.15v1.89l.37.63.48.55.37.71,0,.81-.15,2.19.3,1.78-.22.85-.38.92-.22,1.08.56,1.48,0,.48-.15.52-.34.89-.15.52-.22,1.85V115l.19.85.48.78.7.81.78.67,2.67,1.08,1.52,0,.51.11,1,.82,1.74.81.93.78,3,.66,2.67,1.6.7,0,.7-.26,2.82-.22,6.81-1,1.6-.56,2.81-1.44,1.63-.48,1,0,2.55,1,5.41.15,10.41,3,1.59.89.59.7.23.77.14.9.26,1.07.56.56.81.07,3.41-.74h.18l.78.18.37.19.19,0,1.19.18.37.11.48.34,1.48.44,1.59-.11.48.07.22,0,1.78-.89.3,0h2.63l1.78-.33.22-.34.29-.22,1-.41h.41l5.18,2,.41,0,.93-.22h.33l1.78.63.4,0,.89-.15,1.56-.52.37,0,.56.12,1,.4.56,0,1.07-.22,1-.48,1.26-.82.74-.26,1.7,0,5.6-1.12,10,.15,1.71-.85,1.22-1,.63-.19,1,0,2.44.55h5.08l8.85,1.41,1.85-.45,1.78-1.36.33,0,1.63.3,4.6.78,4.59.77,4.59.78,4.56.74,4.59.78,4.59.74,4.59.78,4.6.74,4.59.74,4.59.74,4.6.74,4.59.71,4.59.73,4.59.71,4.59.71,4.86.74,0,.22.08,1.51.67,2.82,1.81,2.41.18.78.3.66,2.48.93.3.37.63.93,1.89,1.52,1.44.51.45.52.37.59.33,1,.37,2,.93,2.52.11,1-.11,1-.41.85-.63.67-1.22,1-.26.29-.89,1.52-.33,1-.19.45-2,1.82L353,168l-1.45,1.19-.59.78-.3,1-.41,2-.48.74-.59.74-1.07,2.82-1,1.74-4.67,4.92-.37.48-.18.48v.57l.11.4.15.26,0,.15-.18,1-.74,2.14-.45.86-1.07,1.55-2.41,2.74-.59.52-.78.45-2.41,1-.77.67-.48.63-1.38,2.3-1.18,1.51-.56,1-.59,1.81-.52.85-.62.75-.56.48-.45.14-.41,0-.37.18-.22.6-.18.26-.41.22-.26.3.15,1.33-.41.81-.55.9-.3,1.1.08.56.33,1.07,0,.63-.15.48-.26.6-.11.48.11.92.48.74,1.26,1.19.4-.33.37-.37.41-.3.52-.11.45.18.22.45.15.48.22.41.74.37.63-.07.7-.19h.85l.41.22.08.45-.12.55v.52l.19.7.15.26.74.56.55.55.6.78.11.48-.19.34-.29.22-.19.26-.07.55-.15.56-.22.52-.37.44-.45.12-.48-.12h-.52l-.44.38-.12.77.75,1.78.11,1.07-.11.52-.19.37-.22.34-.26.51-.56,1.93-.7,1.48-.29,1.11-.6,1-.51.56-.89.48-.71.7.11,1.15,0,.37h0l0,.63-.67,4.33-.33,2.15-.77,5-.74,5-.78,5-.78,5-.74,5-.78,5-.74,5-.78,5-.78,5-.74,5-.78,5-.77,5-.74,5-.78,5-.78,5-.74,5-7-1.08-7-1.1-7-1.12-7-1.11-7-1.15-7-1.15L264,321l-7-1.14-7-1.19-7-1.22-6.92-1.19-7-1.22-6.92-1.22-7-1.22-7-1.26-7-1.26-9.74-1.82-9.74-1.81-9.71-1.82-9.7-1.88-9.74-1.85-9.71-1.93-9.7-1.92-9.7-2-9.71-2-9.7-2-9.7-2-9.67-2L75.19,285l-9.67-2.11-9.67-2.11-9.67-2.11-.18-.07-1-.22-.3-1.15-1.85-2-1.22-2.37-.44-.41-.15-.52.26-5.26L41,265.45l-.56-.59.18-.49.11-1.07,0-1.85-.15-.15-.29-.41-.19-.4.45-.27.26-.33.44-.71.22-.55.19-.74.26-1.63v-1.45l.08-.55.29-.67L43.59,252l.3-.58.66-1.56,0-2.37.22-1.52v-.85l-.29-.52-.49-.44-.4-.53-.3-.85-.22-1.55-.22-.71-.59.34-.22-.67,0-2.78-.11-.63-.29-.55-.52-.52.81-.41,2.74-3.89,1.86-2.59.59-.63.63-.55.59-.67.41-1,.26-1,.7-2,2.85-6.14.52-2,.07-.71.15-.33.38-.48.44-.41.78-.26.41-.22.4.08-.4,2.62.44.67.26.08.26-1.23.07-.55-.07-.6.4.11.26,0,.19-.18.29-.34-.37-.59.64-1,1.11-1,1-.3.48.26v.44l-.15.6.11.85.37.52.67.48.71.25.59-.07-.93-2,0-1.22-.18-.42-.19-.33,0-.25.14-.41.64-.93-1.34.48-1.63,1-1.48,1.22-1.11,1.19-.19-.41.89-1.08,3.71-5.92.18-.52.59-.92.78-2.19.41-.63.56-.56,1.07-.62.52-.45.4-.63.34-.59.37-.37.55,0V197l-.11.33v.34l.26.18,1.63.37.08-.3-.37-.55-.71-.74-.81-.56-.75.08-.51.74-.6,1.07-.48.52-.18-.85.22-1,1.07-1.85,2-5.56.78-1.92.26-.78.44-2,.19-.37.52-.18.29-.44v-.26l-.11-1.41,0-.63.11-.37.11-.34.59-1.44,1.45-4,.55-3,.63-1.7,0-.3-.11-.48,0-.3.14-.26.41-.33.15-.22,1.3-2.67.3-.92.4-.67.67.15,1.18.85-.18-1.34-.56-.18-.7.07-.56-.51,0-.89.26-1.15,2.37-5.89.41,0,.66.62.67.38.26-.74-.15-.67h-.37l-.45.15-.44-.19-.22-.59.07-.48.15-.48-.11-.67,0-.63.7-2.11.18-1,0-.85.56-2.93.4-.7.63-.74L82,143l.26-.85.11-.37.34-.15.3-.29.22-.78,0-.3L83,140l.55-1,.45-1.4.7-2.12-.26-.59.15-.44.55-.78.93-.92.52-1.08.48-1.11.08-.7.15-1.11,0-.52.19-.67.52-1.74.14-.11.15,0,.22-.11.15-.22V125l.26-1.33.18-1.15-.25-.41-.52-.37-.48-.15.07-.33.78-.07.4-.52.3-.78.23-.59.22-.49.18-.29.19-.26.11.11-.11.18L89.78,120l.7-.37.63-.67.6-.48-1.12-1-.4-1,.48-2,.63-.92.48-1.48.3-.37-.23,1.48,0,1.29.37.71.55.26.56.56.25-.12.3-.41.71-.29,0-.37-.78-.3-.33-.67.11-.88.37-1-1.07,0-.67-.86-.29-.41.18-.59.67-1.44.48-1.07.93-.6.37-.41.41-.22.44-.08.44-.18.45-.48-.26,0h-.15l-.18,0-.23.11-.44-.44-.45,0-.4.4-.3.26-.34.45.38-1.45,0-1.4-.45-1.19-.74-.67,1.23-1.51.44-.89.71-2.67.11-1.15-.11-1.11-.56-1,.41-.44.37-.11.41-.11,1-.63.22-.26.34-.55.4-1L98,89.29l.19-1.1.07-1.08-.07-1.89-.89-4.11,0-1.07.7,0-.15.15-.07.15-.15.33.89.29.89.78.74.93.48.81.56.52,1.22.15.41.33.11.78-.19.67-.11.62.37.68.07-.64.19-.51.34-.3.48,0,.07-.26-.26-.37-.52-1-.3-.25-.37-.12-.33-.18-.26-.3-.22-.37.7-.11,1.34.19.66-.26.56-.12.33.45.48,1.11.52.41.56.07,3.29.08.6-.15-.41-.59-.23-.19.53-.07,1.11.26.63,0,1.07-.45.55-.11.75,0,.4.22.34.41L117,86.93l.15.44.48.59,3.6,1.45,2.07.44.52-.15,1.26-1,.66-.3Z" fill="#35156B"/></svg>