<svg id="b9e9c70f-24be-4d52-ae4b-c35d79d3d725" data-name="Layer 1" xmlns="http://www.w3.org/2000/svg" viewBox="0 0 400 400"><title>State</title><path id="be2f5427-d092-473e-b38d-3448f1e6c4c4" data-name="WI" d="M152.19,81.34l.14,1,.65.28,1.9-1.52,2.41-.83.51-1-.79-.05.37-.74,1-.92,1.06-.46,1.16-.23.69-.41V75.8l-.83-.88-.87.23-2.47,1.38-.46.55-.46.79L153,80Zm8-9.34.79,0,.78.18.7.51-.28-.87.14-.65.42-.55.41-.47,0-.88-.69,0-1.71.69-2.18.7-.51.36-.66,1.07.42.32ZM143.7,70.76l.74-.36.56-.84.32-.83-.73-.75-.47.6-1.2,1v.6ZM318.86,184l-1.12-.23-1-.79-1.52-1.9-1.52-1-1,.73-.84.83-1.15-.55-1.53,2-.65.56.14-1.07-1.16,0-1.21.84-1,1.16-.7,1-1.35,2.64-1.17,3,.51.88-.37,1.06-.65,1-.33.74-.46.6-3.1,1.66-1.86,1.67-.93,1.1-.28,1.11-.28,1.44-.92.73-1.21.23-1.11-.14-.88-.42-1-.74-.6-.74.47-.37.19-1.85,0-1.35.19-.55.28-.46.32-.83.28-.24.14-.32-.37-.88-.09-.33.19-1.48.19-.6.41-.69.93-1,.46-.6.14-.7v-.68l.15-.8.24-.74.23-.6,2.22-3,.61-1.72-.69-1.67,1.16-1.75,2-1.07,3.93-1.33.94-.51.74-.59.46-.93.05-1.3-.18-1.25,0-.69.09-.51,1-1.9.09-.41-2.54-.66-.84-.5-.13-.29-.28-.37-.55-.55-1.16-.88-.78-.79-.37-.51-.09-.41v-2l.1-.73.6-2.54.89-2.55.27-.56.61-.78.18-.37v-.33l-.09-.32-.37-.46-.41-.52-.33-.32-.32-.14h-.28l-.27.09-3.16,2-.32.14-.33,0h-.37l-1.06-.19-.37,0-.28.1-.5.37-.38.09-.42,0-.74-.32-.32-.38-.18-.37,0-.36.37-1.3.05-.42v-.51l-.18-.74,0-.46.1-.37.18-.28,1.35-1.2.19-.24.19-.27.27-.6.19-.65.05-.32v-.19l-.05-.41-.55-1.81-.56-1.16,0-.56.2-.27.32-.14.23-.14.24-.23.14-.37,0-.46-.09-.83-.14-.42-.18-.33-.88-1.11-.42-.61,0-.46,0-.32.47-.46.13-.19.1-.37V134l-.09-.19-.33-.27-.69-.61-.6-.6-.51-.33-1.15-.6-.23-.24-.65-.65-.18-.23-.28-.14-.27-.13-.38,0-2,0-.79-.14-.27-.09-.28-.19-.23-.18-.6-.61-.14-.09-.23,0h-.23l-.89.42-.74.14h-.37l-.74-.09L279,129l-.7-.27-.37-.28-.5-.51-.19-.42v-.42l.1-.32.09-.32.88-1.35.14-.27.14-.37-.05-.56-.18-.41-1.44-2.28-.41-.37-.42-.23-.74-.19-.32-.09-1.2-.79-.37-.09-.37,0-.65.18-.37.05h-.37l-.84-.19-.83-.37-.37-.09h-.37l-1.57.13-.74,0-.28,0-1.25-.79-.41-.14-.42,0-.88.37h-.83l-1.63-.65-.36-.09-.33,0-.28.14-.37,0-.46-.09-.78-.46-.51-.19-.46-.14h-.37l-.33.09-.32.09-.52.37-.32.1h-.32l-.37,0h-.33l-.27.13-.93.79-.37.09-.51,0-1.62-.6-1-.19-.74-.28-.46-.09h-.46l-.33,0-.87.46-.37.05-.47-.05-.37-.28-.33-.09-.32,0-.65.18-.32.05h-.6l-1.11-.46-2.83-1.17-2.81-1.16-2.78-1.16-2.77-1.16-1-.37-1.62-.29-.51,0-1.34-.24-2.09-.33-2.77-.42-3.24-.52-3.61-.61-3.89-.61-4-.61-4-.65-3.88-.66-3.61-.56-3.24-.56-2.73-.43-2.13-.37-1.34-.19-.51-.1-1.29-.23-.23-.23-.19-.32-.46-1.16-.88-1.57-1.43-2.47-.87-1.61-.55-1-.6-.65-.65-.6-.47-.23-.46-.1h-.42l-.55-.14-.37-.23-.46-.37-.46-.1-.83-.09-.28-.23L174,93l-.33-.14-.28,0-.79.55-.28.14-.37,0-.51,0-.32-.14-.23-.23-.23-.6-.32-1.12.14-.32-1.11.88-.88,0-2-.88-3.28-.47-4.31-1.91-3.56-2.73-1-.47.33.19,1,.92h-.5l-.47.14-.41.19-.42.27.05.37,1.57-.13-.74,1.24-1.12.88-5.18,2.54-1.26.36-1.25-.46.47-1.25.65-1.2,2.6-3.47.19-.74-.28-.55-.37-.56-.23-.56V82.81l.19-1.3.42-1.11.79-.56.69-.64.93-2.77.65-.88-.28-.56-.14-.23,1-.6-.18-.47-.61-.37-.37-.37-.28-1.15-.46-.33-1.34.19-.23-.14-.14-.37-.09-.42-.09-.23-.41-.19-.42-.09-.88,0-.33.23-.14.41-.09.47-.1.28-.41.18-.51.18-.93.14-.37,0-.69-.18-.28,0-.41.14-.28.28-.18.27-.14.19-1.86,1-.47.46-.18.38-.05.41-.09.33-.37.18-.88.09-.37.14-.37.28-.6,1.39-.57.5-.88-.46,0-.37,0-.14-.05-.09,0-.28-.78,1-1,.41-.64-.27.23-1.34-1.25.41-2.09,2L127.3,81l-2,2.12-.65-.46-3.24,1.56-3.52.74-9.68,4.23-6.48,1.43H100.6l-2.9-1.17-.7-.14-.78-.37L95.06,88l-1-1-.32-.56-.6.28-.7.55-.27.6-.33,1-.14.23-.23.18-.69.23-.29.15-.19.18-.18.28-.14.32,0,.37-.09,1.53-.1.28-.09.13-.14.24-.23.13-.65.23-.74.09H87l-.65-.18-.18,0-.09.23.09,1.29.22,3.8.27,3.8.22,3.75.27,3.79.22,3.8.27,3.8.27,3.8.23,3.79.09.88.09,2-.84.23-.55.46-.56.69-.42.83-.14.83-.41.56h-1l-1.15-.14h-.79l-.65.6-.88,1.62-.65.36-1.85.14-.42.18-.32.28-.28.32-.14.14,0,.14-.46.88-.23.28-.33.23-1.15.23-2.37,1.61-.79.23-1.34.74-1.21,1.57-1.58,3.38.32,1.71-1.16,1.85-3.67,3.83-.37.74-.09,1L62.74,158l1,2,2,.33,2.31-.18,1.77.51.55.88.83,2.28.41.83.83.92.88.79.69.89.27,1.16-.09,1.06-1.21,2.17-.19,1.39-.18,1.11L72,175l-.65.6-.6.79-.33,1-.09,1.11.13,2.69-.23,1.29,0,.7.23.32.92,1.95.14,1.34L71.29,188l-.56.87-.87.37-.62.65.42,1.29,1.25,2.65.59,2.54.37,2.55-.14.42-.56,1.06-.09.65.36,1.89.09.75-.18,1.67-1.68,3.88,1.3,1,3,1.53,3.38,2.92.87.47.33.51.23.55.23.33L81,217.56l7.17.65,1.66.47,1.63,1.12,1.43,1.48,1.38,2.55.41.65.51.46.66.24,5.41.52,2.5.7,7.44,5.61,1.94,2.74L117.1,241l1,1.11,1.84.65L125.6,247l.55.28.61.09,4.44-.31.28.09,2.77,1.86.33.13.41.1h1.71l.57.23.32.29.23.32.14.37.13.46.37.84,1.15,1.2.42.79,2,.56.66.32.5.47.33.56.27.65.32,1.48.14,1.39,0,1.75.05.56.13.51.23.47.28.41.69.7.32.41.19.56.27,1.16.09,1.16-.33,3.32,0,.57.5,1.57.05.65-.05,1.9.09.83.42,1.53.14.78-.05.79-.14,1.43v.89l.1.73.18.7.27.65.74,1.2.28.56.18.64.37,1.68.41.6.56.37,4.11,1.26,1.25,1.29L156,293l-.74,1.89L153,298.39l-.37,2.18.59,4.25.5,2,.18,2.22.14.7.27.69.28,2.78.36,1.34.6,1,1.43,1.48.56.83L158,319l.32,2.59.27,1.12,1.8,2.92.64.74,1.16.7,2.08.7,8.14.89,2.18.61,1.11,0,1.16.28.78.83,1.11,2.41.47.7,1.33,1.62.46.88-.05.69-.51,1.39h.1l0,0h.05l8.34-.59,8.32-.63,8.29-.68,8.29-.63,8.33-.67,8.34-.68,8.28-.73,8.29-.67,8.28-.72,8.34-.78,8.29-.72,8.28-.77,8.3-.77,8.32-.81,8.29-.82,8.16-.77L312.5,322l0-.6.14-.7V320l-.51-1-.14-.74-.09-.83v-.61l.28-1.15.8-2,.06-4.17-.2-1.11-.69-1.26L310,304.78l-.55-.83-.23-.6-.68-4.91-.51-1.39-.93-1.21-1.34-.23-.41-.75.14-1.1.69-2.27.05-.51,0-.74-.23-.33-1-.65-.28-.55.05-1.39.23-1,0-1-.5-1.39-.51-1.06-.28-.65-.27-2.18.8-4.72.14-1.9,2.32-5.92.42-2.45-.69-1.9.1-1.48.37-1.25,2.29-5.18.88-3-.41-.37.23-.7-.09-.18-.28-.41.32-.66.1-.6-.09-.55-.23-.7-1.2-1.62-.14-.28-.42-.65-.23-1.57-.08-4.63,0-.65.71-1.39.05-.55v-1.53l.19-1.3,1.81-5.59.6-1.11.61-.6,2.5-1.62.79-.93.65-1.1.47-1.3.09-1.29-.41-.92-2.12-2.33-.56-2v-.69l.29-1.25.14-1,.51-1.34.09-.65-.09-1.39.57-6.9.61-2.73.93-2.35,1.85-2.92.33-1.2.52-1.11.09-.32v-.7l.1-.69,1-4.12-.09-1.34ZM154.53,73l.83-.55.42-.42-.14-.6-.69-.93-.32-.19L153.8,70l-.47-.23-.14.51-.14.42-.18.41-.29.42,1.44.92Zm13.62-8.17-.37-2,.1-.23.09-.18.05-.19v-.27l-1.39.13-.83,1.11-.38,1.76v2l1.85-1ZM336.7,149l.28-1,.28-1.06-.09-1-.6-.65-.83.05-.83.41-.79.18-.7-.69-.51-.42-.37.46-.14,1v1l.37,1.48-.1.6-.55.65.46.23.55-.09,1.12-.37,2.87.05-.28-.55Zm-4.78,6.14-.09-.51.14-.5.14-.84-.37-.14-1.11.33-1.39.13-.56-.19-.69-.51-.23.46-.14.42-.05.51,0,.56-.09.32-.37.18-.42.09-.27.19L326,158.4l-.05.84-.28.6-1.48.73-.28.6-.23.65-.75,0-.88-.18-.6-.05-.55.64-.38,1-.18,1.21v1.94l-.14.65-.51,1v.28l.14.7v.23l-.19.09-.55-.05-.19.05-2.28,3.46-.88,2.27-.33,2.63L316,180l1.43,2.18,1.8,1.26,1.85-.23.7-.65,1.86-3.14.28-.61.09-1.2.19-.51.37-.41.93-.6.37-.46-1.2-1,.37-1.95,1.72-3.41.28-1.3.23-.6.46-.28.37.09.42.14.38.1.14-.24-.19-1.1.05-.28.23-.56.19-.23.37,0,.37-.19.23-.5-1.95-1.49-.5-.75.55-.32.61.05,1.34.42-.18-.56-.56-.78-.13-.6v-.61l.32-1.94-.23-.37-.36-.33-.14-.28.6-.27.46.09,1.89.89.42-1.3-.32-.51Z" fill="#35156B"/></svg>