<svg id="efeec837-5e4d-4eaa-85c0-f35f3ed36d23" data-name="Layer 1" xmlns="http://www.w3.org/2000/svg" viewBox="0 0 400 400"><title>State</title><path id="a6d8bc1e-c09b-48e9-86c5-1ca94ad77280" data-name="MA" d="M356.25,266l-3.67-3.67-2.68-4.26-.58-.76-.59-.33-.66-.08-.84.33L349,260l.09,2.42-1.42,5,1.08-.93,1.67-3.08,1.35-1-.08,1.67-.52,1.66-.92,1.34-1.91,1.25-.59,1.26-.58.42-.75.17-.83-.34h-.92l-2.5.58-6.93,2.84.16.67,9.85.58,4.84-.5,4.51-1.42L358,269.3ZM314,264.87l-1.35-1.5-.91,1.33-.84,2.25-.91,1.34.83,1.09,1.5,1,1.6.67,1.08-.17.25-1-.25-1.6Zm-8.68,2.25-1.27-.08-1.33-.67,1.42-1.42.6-1.08-.25-1-1.27-1.34-1.33-.25-.5,1.09-.42,1.42-1.08,1,.16-2.76H299l-4,3.09-1.75,3.17-.91.92-.84,1.09-1.16,4.34-.67,1.58-1.42,1.09L283,278.73l.16.84,1.25.41,2.1,1.67,1.09.59,1.75.5.91-.25,1.17-1.93,1.58-1.83,2-1.58,2.44-1.26,11.6-3.42,1.33-.75-2.25-5.18Zm41.24-27.29L347,233l.75-2.51-.25-.93-.33-.58-.42-.42-.75-.08.17,3-1.08,9.1Zm1.66-14.28-1.5-7.27-1.66-5.51-1-1.24-1.25.16-1.6,1.66-.09-1.49-.5-3.09v-1.59l1.44.92,1.5.67.33-.17.25-.17.25-.25.17-.41-1.84-1.84-7.1-11.53L332.8,192l-5.93-3.75-1.92-.76-4-.75-1.58-.65-1.5-.25-3.42,1.4-1.52-.25-.66.17-.67.83-.42,1.18v1.08l.34.42.58.25.67.17.5.16,2.6,2.18,1.33.41,1.33-.91-.25-.76-.33.17-1.25.25.92-3.09,2.83-.83,3.27,1.25,2.08,2.92.59,1.16,2.83,4.6.58,1.59,1.25,5,.59-1.43-.42-3.42.92-1,.93.17,1,.67,1.25.41,1.67-.25.25.84-1.25.92-.59.33-.83.25,2.33,2.18,1.59,3.33.5,3.6L338,215l-1.09.83-2.83,1.34-1.93,2.25-6.84,4.1-3.68,3.67-2.34,1.66-3.33.84-1.75.08-.52-.58.85-.92,3.09-.83,1.08-.83L308,228.55l-3.5-.33-6.35-2.17-3.1-2.17-.67-2.75-.08-3-1.59-3.92-2.25-3.27-2.16-1.08L285.11,211l-1.58.16-1.75-.75-6.1-3.5.67-.67.6-.33h.66l.92.25-.58-5.26.33-.92,1,.42,1.25,1.33,1.75,2.68-.5.25-.67.58-.33.25,1,.33h.83l.84-.33.66-.91.34-.85-.17-.25-.58-.17-3.5-3.16L279,198.58l-.08-1.92-2.25-1.24-3.1-3.19-2-1.75-1.34-.58-.33.08-.17-.33-.83-3.18-.42-.57-2.77-2-2-1-2.17-.58h-4.19l-2.41-1-4.5-2.76.25,1.26,1.08,1.58,1.33,1.17,1.25.42.17.59-.33,1.24-.84.75-1.33-1.17-.75.92-1.08,1.09-1.17.83-.5.09-.08.41-.52.09-.58-.17-.5-.25-.09-.5.59-1.07.16-.6-1.25-1.16-1.66.49-1.42-.08-.33-3-1.67,1.66-.75.17-1.17-.58-1.1-1.25.09-1.17.85-.92,1.25-.41-.67-.85-.85-.5-.92-.08-1-.08.59-1.59,1.41.25,1.6.68,1.5-.68-1-.17-.83-.58-.33-.75.75-.5,1.16.08,1.84,1.33,1.25-.16-.92-.83-.5-.92-.92-2.34-1.08-1.5-.17-.92.42-1.66,1.42-1.35,2.91,2,1.84-1.18-1.17-.33-1.33-.59-1-1-.09-1.34.42-.58,1.42-.25.58-.25.42-.5,1.25-2,.26-.5.34-.58.66-.34.59-.41-.34-.6-1.08-.75-.6-.9-.67.74-.83,1.43-1,.83-.08-1.1.16-.83.34-.82.5-.68-.75-.58,1.08-1.34,3.77-2.84,8.85-4.59.5-.83.16-1.09.5-1.16.75-.92h.5l.25.25.17.17,1.59-.17.33-.33L265,141l.49-1,.17-1,.42-.75,1.18-.33-.18-.57-.67-.76v-1l-.17-.84-.83-.08-1.16.17-.75-.17-.59-.75-.25-1.58-1.92,1.75-.83,1-.33,1.16.91,2.75-.16,1.09-1.67-.49-.5-1.35-4.6.84-2-1.42.83-.24.59-.25,1.08-1-5.17-.92-2.26-1.33-1.25-3.18,1.16.59,3.44,2.84.33-.92L246.13,127,244.88,126l-.67-.84-.33-.25h-.34l-.58.25-.25.09-1.92-.34-.91-.33-1.1-.75,3.76-.75.67-.43-.08-1L241.46,118l-.08-.75-2.77,1.51h-1.83l-3-.42-1,.16-.75.18-7,5.51-.75.91-.33.5-.84,1.67-.41.76-.84,1.07-.75.42-.93.25-1,.09-1.33.34-.84.33-.58.41-.33.42-.34.42-.5,1.09-.25.58-.33,1.34-.17,2.16-.16.84-.59,1.08-.83.77-1.5.82-.77.59-.5.59-.75,1.66-.91,1.42-.92,1.25-.58.43-.84.33-1.83.49-5.94,1.35-5.83,1.33-5.85,1.34-5.85,1.33L175,153.91l-5.85,1.34-5.94,1.33-5.83,1.35-5.85,1.33-11.68,2.59L134,163.18l-5.91,1.34-5.85,1.24-5.85,1.35-5.84,1.25h-.08v.08h-.08l-4.1.83-4.09.93-4,.83L94.1,172l-4.08.83-4.1.84-4,.92-4.1.83-4.09.83-4,.92-4.09.84-4.08.83-4.1.84-12.18,2.59-.92,2.08L44.27,187,44,195.25l-.25,8.25-.25,8.19L43.27,220l-.34,8.27-.51,16.53L42.17,253,42,257.27v2.08l2.85,2.1L55,259.27l10.19-2.08L75.4,255.1l10.1-2.17,5.69-1.17,5.33-1.08,4.6-.76.75,2.76,3.5-1.24-.17-2.51,11.44-2.76,2.1.08,1.08-.08.67-.17,1.33-1.16,4.17-.92L138.27,241l12.27-2.92,12.27-2.83,12.28-2.93,9.43-2.43.42,1.17,7.33-2.08,7.52-2.17,7.35-2.09,7.44-2.09,4.33-1.09.42,1.43,1.1,3.34,2.08,6.6.25.66.42.5h.66l1.59-.5h.66l.42.33.5,1.1.17.83.08.67v.91l.17.59.41,1,.5,3.75.25.5.25.68.75.67,1.27,1,1.58.66,1.09.25.91.09,1.84.75L240,251l.33-1.43.09-.58.25-.76h1.16l2.09.25.58-.66.42-.92,1.25-5.68.66-1.58,1.09-.84-.84,5-2.58,8.67-.25,4.51.33,2.25.67,2.59,1.5,4.59,2,3.77.16.83-.16,1.25.58,1.09,1.75,2.16,4-6.09,1.75-1.66-.5-.42-1.17-1.51,3.19-.25.83-.83-.58-2.17,1.41,1,.84,1.5-.09,1.58-1.5,1.1,2.75.4,1.92-1.08,3-3.67-.08.25v.5l1.18-.33.84-.83,1.41-2-1.33-3,.33-2.18.67-2.08-.58-2.75,2.41.74.67.42.58.66,1.09,1.85.66.41.92-.33-.17-1.25-1.25-2.59.75-.17,1.52-1.09,1.08-1.17-.16-.33-.17-.5.5-1,.83-.5,1.42,1.25,1-2.17.08-1.92.5-1.33,2.34-.34-1.17-1.34-.5-1.25-.67-3.5.75-.42,1.92.42,3.18,1.25.5-.17v-1.41l.42-.93.83-.08.92,1-.33.25-.67.83.83,1-.41,1.17-.75,1.17-.25,1.16.5,1.43.91,1.59,2.09,8.17.08,3.18-1.42,2.58,2.59-.92,4.18-3.41,2.33-1.26,2.75-.83,2.19-1.18,1.75-1.58,1.16-2.42,1.34-4.93.66-1.16h1.09l1.66,1.67.84-.68.93-1.33,1.08-.59,2.75-.5,1.34-.58,1.91-1.67,1.17-.5-.08,2.92.16,1.17.59-.84.68-2.42.5-1,.75-.59,1-.5,2.25-2,4-1.1,12.45-5.92Z" fill="#35156B"/></svg>