<svg id="e84f91d0-ece3-4d13-b997-dff716a6acc8" data-name="Layer 1" xmlns="http://www.w3.org/2000/svg" viewBox="0 0 400 400"><title>State</title><path id="b890bef7-bdfc-4920-807b-0e4425698ee3" data-name="WY" d="M339,208.59l-.19,6.33-.23,6.29-.19,6.33-.23,6.33-.23,6.32-.19,6.34-.23,6.32-.19,6.37-.23,6.33-.19,6.33-.23,6.36-.2,6.33-.23,6.37-.19,6.36-.23,6.37L335.6,310l-6.21-.23-6.21-.23-6.22-.23-6.25-.27-6.21-.27-6.22-.27-6.21-.3-6.21-.27-6.21-.31-6.22-.3-6.21-.35-6.22-.3-6.25-.35-6.21-.35-6.22-.34-6.21-.39-6.21-.34-6.21-.39-6.22-.38-6.21-.42-6.22-.38-6.21-.42-6.21-.43L186.4,302l-6.21-.42-6.17-.46-6.21-.46-6.22-.46-6.21-.46-6.22-.5-6.21-.5-6.21-.49-4.92-.43-5-.42-4.91-.42-5-.43-4.91-.42-5-.42-5-.46-5-.42-4.94-.46-5-.46-5-.46L77.4,293l-4.94-.46-4.92-.5-4.94-.46-5-.5h0l.31-3.18.3-3.15.31-3.18.34-3.14.31-3.19.31-3.14.34-3.18.31-3.15.31-3.14.31-3.19.3-3.14.35-3.15.3-3.18.31-3.15.31-3.14.34-3.15.77-7.9.77-7.86.81-7.86.8-7.87.76-7.86.77-7.86.81-7.86L69,177.6l.8-7.86.77-7.82.76-7.83.81-7.83.77-7.82.77-7.78.8-7.83.77-7.78.15-1.5.15-1.54.16-1.53.15-1.5.15-1.53.15-1.5.16-1.49.16-1.53.15-1.5.15-1.53.15-1.5.16-1.54.15-1.49.15-1.53.16-1.5.15-1.54.08-.8,1.91.19,4.07.42,4.1.39,4.11.42,4.1.38,4.11.39,4.06.38,4.11.38,4.1.39,4.11.38,4.1.35,4.1.38,4.1.34,4.07.39,4.1.34,4.11.35,4.1.34,4.1.35,4.11.34,4.1.35,4.11.31,4.1.34,4.1.31,4.11.3,4.1.35,4.11.31,4.1.3,4.11.27,4.1.31,4.1.3,4.11.27,4.1.31,4.11.27,4.1.27,4.1.26,4.11.28,4.1.26,4.1.27,4.11.27,4.14.23,4.1.27,4.07.23,4.14.27,4.1.23,4.11.23,4.1.22,4.11.23,4.1.2,4.14.23,4.11.23,4.1.19,4.11.19,4.1.23,4.1.2,4.15.19,4.1.19,4.1.15,4.11.19,4.1.2,4.1.15,4.15.19,4.1.15,4.1.16,4.11.15,4.1.15-.19,6.26-.23,6.25-.19,6.29-.19,6.25-.23,6.26-.2,6.28-.23,6.29-.19,6.25-.19,6.29-.23,6.29-.19,6.3-.23,6.29-.19,6.32-.23,6.29-.2,6.29-.23,6.33Z" fill="#35156B"/></svg>