<svg id="ace56341-7ed8-4739-a0bc-197bcca2bab4" data-name="Layer 1" xmlns="http://www.w3.org/2000/svg" viewBox="0 0 400 400"><title>State</title><path id="a06b4b8b-4c3e-4860-afe5-062d56581d8b" data-name="KY" d="M351.19,185.41l-.45,0-1.18.45-.45,0-3.39-.49-.61-.19-.3-.27,0-.27v-.3l-.11-.23-.12-.23-.19-.19-.38-.3-1.41-.95h-.34l-.19.11-.16.12-.11-.08-.91-.95-.46-.34-.34-.16-.34-.11-1.68-.34-.38-.16-.23-.26-.3-.73-.87-1.55-.08-.27,0-.27-.38-.49-.6-.61-3-2.17-.12-.19-.15-.23-.19-.49-.46-1.56-.11-.35-.23-.3-.38-.49-.26-.23-.28-.19-1.82-.91-.23-.24-.07-.26,0-.15.38-.88.08-.23v-.19l-.11-.23-.19-.38-.27-.26-.15-.15-2.52-1.6-.34-.31-.26-.41-.35-.69-.26-.42-3.69-3.77-.31-.41-.07-.23v-.42l.07-.11.12-.16.6-.64.27-.38.08-.23,0-.19v-.27l-.19-.84V155l0-.23.08-.15.19-.12.49-.15.16-.15.08-.19,0-.27,0-.26-.07-.27-.13-.53-.07-1.14v-.65l-.12-.5-.22-.57-1-1.44L320,148l0-.12,0-.19,0-1.33-.07-.57,0-.3-.49-.54-.91-1.52-.54-.64-3.35-2.44-1.67-.72-1.94-.35-1.9-.68-1.49-1.75-1.48-3.2-.27-.95-.15-1-.23-.72-.53-.27-1,.35-2.24,1.59-1,.31-.77.38-.53.68-.45.8-.5.61-1,.57-.31.31-.15.42-.27,1.1-.22.57-.66.53-.83.2-1.86-.08-.92.22-.57.46-.42.5-1.37.53-.34-.08-.57-.45-1.21-1.41-.32-.31-.57-.3-1.21-.34-.57,0-1.44.23-.39-.12-.76-.57-.84-.38-.87-.23-.87.08-2.71,1.33-.42.38,0,1-.35.92-.64.68-.76.38-1.79-.11-1.75-.84-3.08-2.32-.76-.72-.65-.8-.73-.65-1.78-.23-1.71-.53h-1l-3.46,1.22-.91,0-4.72-1-1-.54-.49-.8-.23-1.21-.27-1-.38-.88-.53-.76-.46-.42-.61-.42-.57-.49-.3-.68-.19-.88-.38-.87-.54-.81-.68-.53-1.83-.64-1-.23-.79,0-.5-.34-.57-.84-.69-.87-.91-.34-1.67.56-3.2,2-1.71.08-2.32-1.75-.65-.27-.23-.11-.6-.69-.38-.11-.5.15-.3.34-.54.8-2.05,1.68-.68.57-1,1.48.3,1.6,1.26,1,.68.68.34.84-.26.95-1.22,1.56-.3.53.57.58.68.22,1.75-.15.92.19,0,.76-.42,1-.47.73-.15,1,.77,1.6-.5.38-3.31.08-1.33.38-2.43,1.4-5.33,4.38-1.6.57-.84-.38-1.59-1.37-.73-.26-2.55.22-4.56,1-.68.53.11.95.46,1,.38.65.76,3,1.1,1.86-.08,1-.46.81-1.93,1.86-.46.68-.5.95-.57.54-1.67.42-.8.34-1,1.6-.34,4.56-.65,1.87-1.29,1.25-.76.57-1.45.65-.49,0L193,171l-.23-.15-.53-.12-.57-.07-.42,0-.45.68-.61,2.21-.31.49-.65.46-.42.95-.22,1.18-.08,1.07.27,4.87-.27,1.36-.19.46-.27.45-.34.43-.42.34-1.94.61-.87.46-.31.91-.34.41-.95-.57L181.09,186l-.92-.12-2,.12-.87-.34-.73-.46-1.67-.65-.72-.45-.46-.69-.15-.76-.15-2.17-.42-.53-2.29-1.37-.79-.27-.88,0-.38.38.61.88.84.38.87.15.38.34-.61.88-1.59.95-1,.19-.49-.08-.27-.45-.26-.2-.5-.19-.45,0-.16.5.23.53.8.69.3.53,0,1.1-.61.72-.88.42-.87.16-.46.53-.07,1.1.53,3.31,0,.76-.45.57-2.1.72-.15.8.11,1-.19,1.06-.8.65-.94.07-.7-.42.24-.91.34-1.07-.8-.11-1.75.57-1.44-.11-1.38-.84-1-1.26-.5-1.29-.76-.83-1.41.72-1.41,1.37-.79,1-.53.34-2.33.53-.68.38-.5.46-.41.61-.38.87-.76,3.31-.5,1.29-1.18,1-.46-.23-.42-.27-.68-.72-.27-.54-.19-.57-.22-.41-.5-.15-.76,0-.57-.07-.46-.15-1.56-.81-2.85-.76-.8-.42-.8-.53-1-.49-1-.34-.87-.12-1.67.65-1.57,1.06-1.56.54L122,196.93l-.16-.49-.07-.83-.28-.35-.3-.11-.38.11-.23.35-.07.64.3,1.1.88,1.41.34,1-.26,1.45-.92,1.25-1.18.61-1-.49-.15-.77.23-1.71-.15-.68-.57-.34-.69.11-.57.42-.34.42-.38.07-1.56.73-.8.19-.92-.08-.79-.3-.69-.54-.68-.64-.84-.57-.91-.08-.65.5-.19,1.1.26.64,1.53,2.9-1.64,2.28-.15.34-.76-.11-1.56-.76-.76-.19-.92.22-.07.69.07,1-.3,1.18-.53.72-2.09,2.21-.38.72-.42,1.18-.16,1.26.39.91.83,1.33.23.27,1.37,1.14,1.1,2.09-.15,1.44-1.22,1-7.34,2.17-2.24,1.6-.69.27-1.83.15-.83.23-.65.42-.45.57-.38.76-.54,2.2v2l.57,1.79,1.07,1.6,1.4,1.63.88,1.49.19,1.6-.65,2.13-1.06,1.33-1.52.42L87,245l-3.12-1.63-11.75-4.19-2-.19-1.87.42-1.63.91-1.3,1.3-.38.61-1.14,2.7-1.25,1.71-.73,1.67.24,1.3.87,1.18,1.56,1.48.3.87-.07,2.25.22,1.6v.49l-.19.38-.34.46-.34.57-.11.61.26,1.06.8,1.72.19,1.14L65,264.74l-1.29,3.69-.72,3-.76,1.49-1,.68-1.33-.34-1.17-.88-1.11-1.06-1.1-.8-.42.31-.23.3-.3.91L55.08,274l0,.8-.42,2.44-.19.6,7.11-.68,7.16-.68,7.08-.73,7.15-.72,7.08-.72,7.11-.73,7.11-.76,7.12-.76v-1.21L111.2,269l-.15-.8-.84-2.55-1-2.32-.15-.49,0-.27.08-.08.19,0,2.24,0,3.73,0,2.28,0,.35.08.22.26.35.69.22.26.23.16.23-.08,1.67-.19.57-.08,1.57-.19,2.39-.3,3.16-.38,3.73-.5,4.11-.49,4.45-.57,4.56-.61,4.61-.57,4.41-.57,4.15-.57,3.73-.49,3.12-.39,2.43-.34,1.56-.19.54-.08,1.78-.26,1.41-.5.38-.08,1.79-.15,1.21-.11,3.54-.3,5.45-.5,7.07-.64,8.37-.76,9.32-.88,10-1,10.31-1L240.87,250l10-1,9.32-1,8.37-.88,7.08-.79,5.44-.61,3.5-.38,1.25-.12,2-.27,1.4-.6,1-.69,1.56-1.79.76-.49.27-.08,3.39-1.86,3.87-1,.43-.19.26-.23.46-.53,1.48-1.14,4-2,4.07-1.29.31-.23.23-.23,0-.23,0-.27-.16-.45v-.2l.08-.19.42-.6.19-.5.53-1.75.68-1,.2-.16.27-.11,1.74-.31,2.37-1.37,2.31-1.33.57-.42.15-.22.12-.23,0-.27.07-.27v-.26l0-.76-.11-.57-.08-.27-.11-.8.15-.46.34-.49.89-.88,3.3-2.31.38-.35.11-.23.12-.22.07-.31v-.61l-.22-1.1-.27-.76,0-.34.27-.54.65-.83,1.75-1.68,4-2.78,3-2.09,2.69-1.9.88-.8,3-3.5,3.35-3.88,2.13-2.51,3-3.47,1.94-2.28ZM49.49,274.78l-1.3.69L48,277.29l.46.61.41.42,2.67-.35.15-.68-.72-2Z" fill="#35156B"/></svg>