<svg id="f221d167-c8a2-4bf9-884e-48dd5a869d46" data-name="Layer 1" xmlns="http://www.w3.org/2000/svg" viewBox="0 0 400 400"><title>State</title><path id="ac3fd7d0-7e7a-4eda-a770-6695b9673c5a" data-name="RI" d="M235.81,328.85l-2.43-2.69-.48-4.6-1-3.16-1.21-1.93-1.7-1-2.42.73,1.69,4.12.24,3.64-1.45,2.67-3.64,1.72-1.21,2.4.24,4.89,2.19,4.13,3.87,1.21,6.79-3.18,2.91-2.16,1.46-2.2-1.22-2.69Zm19.93-122.64-1.94-6.79-1-2.48-1.22-1.69-1.69-.73h-2.43l-.72,11.93.72,5.09,3.4,2.18-.49,1.7v1.21l-.48,1.21-1.22,1.22,1.7,3.63.49,7.3,1.21,2,1.21-.75,1.45-2.67,1.46-2.66.73-2,.24-4.6-.24-6.06Zm31.8,3.63-.48-2.91-.24-3.17-.73-3.86-5.82-23.34v-11.4l-1.7-6.33L276.39,162l-5.09,5.33-1.7,3.18-.48,3.88.73,9.23-.49,3.88-1,1.46-3,2.9-.48,1.48,1.45,4.37.25,2.44-.25,1.68-1.69,3.9.24,3.4,1.94,3.39,3.92,3.15-1.93,2.91L262,223.9l-1,2.21,1.94,4.12,2.18.49,2.42-1.94,2.24-3.88,4.84-.51,2.91-5.82,3.88-5.82h8Zm-20.65-49.79,4.17-5.82,1-.49-.25-1.21-1-4.14-.48-2.89.24-.73-10.71-10.71-5.34-2.19-2.66-.24-3.16-.72L244.1,129l-3.69-2.91-2.18-1.94-.73-2-.72-1.45-1.46-10.93-1.21-2.91-.48-1.7v-2.67l-.25-1.94-.48-2.42L231.44,95l-1.21-1h-1.94l-4.6,1.46h-1.94L220.53,94l-.72-1.91-6.06-19.2-3.2-9.72L209.33,59l-12.6,3.15L175.1,68.24l-21.38,6.08-21.87,6.31-21.33,6.06,4.6,17.74,4.85,18,4.85,18,4.85,18,4.65,18,4.85,17.75L144,212l4.85,18,2.43,9.48L154,252.58,157.6,272l-2.91,1.72-.73,2.89-.48,4.65,1.94,16.25.24,6.54,21.14-8.73L213,270.06l11.2-3.39,2.91.24,6.3,1.21h2.43l1.94-2.18.48-3.15-.24-2.91.48-1.72,6.36-26.72-.73-5.57-4.66-16.27L237,205.24l-4.85-5.58.24-3.44,2.67-3.86,1.21-6.57-1.21-6.3-2.42-6.06L229,169.26l-6.3-1.21.72-2.4,2.18-2.94,2.43-1.94,2.91-.48,2.42.73,2.18,1.69,2.43,2.18.24-3.15,1.46-7v-2.66l-1.7-3.66-2.67-1.46L232.9,146l-2.18-1.73-2.19-5.09-2.42-7.3-1.45-7-.25-4.38,4.12,3.66,3.16,3.39,2.18,4.12,1.94,5.34,3.15,3.88,5.62,2.69,5.34,1.47,2.42.25.24-2.72-1.21-6.79.49-1.69h2.42l1.94,1.21,1.21,2.18L256,145l-.24,5.82v6.07l.72,4.36,2.67,2.91,3.88-1Z" fill="#35156B"/></svg>