<svg id="bca91217-7d23-447a-a915-39922e0d8711" data-name="Layer 1" xmlns="http://www.w3.org/2000/svg" viewBox="0 0 400 400"><title>State</title><path id="ba31850e-2ea1-473b-8bec-1e43fdc2b49e" data-name="ME" d="M231.05,262.89l-2.32.32-1.15,0-2.16-.69-.91.21,0,1.38,1.27.05,1.16.42.63.79-.1,1.27,2,.37,1,0,.31-.48.16-.74.64-.58.42-.79-.31-1.37Zm5.11-8.64-.47-.26-.47-.53.52-.42,1.16-.69.48-.47-.48-.69-.37-.84-.58-.74-1.15-.37-1.48-.31-.58.21-.37.79-.1.73.16.74.31.69.37.58-.42.05-.84.37-.42,0,.89,1.06.37.63-.05.69,0,.68.26.26,2,.48,1-.53,1.69-1.58-.11-.42Zm15.93-20.51-.53-1.26-1.73-.53-2.07.74-1.68,1.47-.69,1.64.74.37v.63l-.42.63-.63.43-.32.42-.26.89-.26,2.59v.94l.21.85.47.21h.79l.47.32v.52l-.68.48.79.89,2,.32.85.73.21-.21.53-.41.15-.16.63,1,.74-.43.63-1.05.42-.95-.21-.73-.89-.48-.79-.73-.16-1.7.37-.1,1.47.74,2.11-.8,1.85-1.52.74-1.63-1-1.79ZM307,187.4,305.86,186l-.1-.26-.06-.32-.05-.26h-.21l-.68.26h-.16L303,183.92l-.74-.47h-.85l1.75,2.58.31,1.37-.89,1.1-.48-1.47-.95-1.58-1-.95-.85.64.37.26.48.58.21.26-.58.58.58.37-.69.42-1.16-1-.52.27.05.53.47,2,.11.69L296.9,187l-.68-.53-1.22-.63-.9-.73.06-1,.63,0,2.11.9.74.1.74-.47.26-.8-.26-.73-.95-.43.11-1.68h.57l.85.69.68.31.95-.69.05-1.05-.16-1.1.37-1-.79-.47L298.48,176l-.42-.37-.74-.11-1-.57-.64-.95.21-1.21-1-.95-1.05-.85-.74-.37-.36-.16h-.37l-.11-.1-.52-.79-.53-.58-.26-.42-.32-.32-.43-.05-1,.37H289l-.47-.69-.95-.1-1.37-.32-.68.06-.53.31-.37.63.05.58.16.53-.05.69-1.43,1.58-2.06-.26-2.21-1.28L276.34,168l-2.74-1.31-.53-1-.05-1.38.16-1.21.58-2.48-.47-2.53-4-3.69L268,152.13l.95-1.42,1-1.26.58-1-.48-2.37L269,144.28l-1.16-.53-1.32.26-1.48.64-2.21.63-3,.21-2.94-.37-1.84-.63-.91-.48-.53-.63-.52-.58-.63-.26-.37.21-.11.53-.26.52-.68.06-1.43-.37-.9-.37-.58-.79-1.26-3.43-.05-1.11.26-1.32.37-1.26.1-.9-.42-.84-1.16-.9-.63-1,.26-1.11.64-1.21.26-1.16-.26-.58-.53-.37-.58-.31-.47-.42-.27-.64-2.8-8.75-2.73-8.75-2.75-8.75-2.79-8.75L230.57,82l-2.73-8.74-2.75-8.71-2.74-8.74-.94-2.54-.37-.37-2.33-.42-.94-.37-2-1.63-2.65-1.05-.47-.42-.47-.85-.63-.63-2-1.22-2.65-.73-3.78-1.79-.79-.21-1.65-.16-.63-.16L198.16,42l-.79-.37-2.75-.53-2.68.26-2.17,1.32-1.11,2.48.11.79.26.58v.37l-1.15.63-.48.48-.58.26L185,47.75l-1.32.27-1.21.52-.95.63L179.71,51l-.9,1.11-.58,1.21-.69.9-1.16.47-2.42.59-2,1.15-5.31,4.86-.8.26-7.65-2-1.21-1-.68-1.27-.21-.42-.63-2.11-.58-4.06-.54-1.9-1-.67-7.9.31-.74.26-.52.58-.58,1.06-2.75,7.11-2.68,7.12-2.75,7.12-2.79,7.12-2.75,7.11-2.73,7.12-2.8,7.11-2.79,7.12-.53,1.37v3.06l.47,3.48,1,6.7.63,4.53-.16,1.84-3,4.17-.64.47-.9.95v1.53l.26,1.48,0,.63-1,.63-.36,1-.21,2.64-.64,3,.22,1.36,1.21.27,1,1.16.64,1.37.1,1.43-.47,1.1L117.76,153l-.42.8.21.52.42.27.26.26.32.16.21.21.16.37-.06.26-.31.53-.06.26.11,2.53.32,1.06.85.79,1.37.26.89-.05.47.42.16,1.79-.42,2.43-1,1.9-3.06,3.9-.74,1.21-.16.48.11.73.26.37.37.32.42.63.47,1.42.11,1.27-.37,1.11-.79,1-.47.26-1.16.32-.53.42-1.16,1.64L112,184.87l-.63.9-3.42,6.59-1,4.85.21,1.1.85,1.27,1,.74,2.26.64,1.11.52.79,1.11-.37,1-1,.74-1,.26-1.22-.26-2.16-1.21-1.11-.22-1.16.27-.79.73-.42,1,0,1.27.26,1.37,1,2.9.21,1.26-.21.7-.84,1L104,214l0,.58.42,1.26v.68l-.73.95-.9-.57L99,211.86l-1-.63-1.32.16-1.05.58-.43.74-.26.84-.64,1.11-.42.37-1,.42L94,219l1.16,3.48L96.25,226l1.16,3.48L98.57,233l2.32,7L102,243.5l1.16,3.47,1.16,3.54,1.15,3.48,1.16,3.53,1.12,3.53,1.16,3.48,1.15,3.53,1.16,3.49,1.16,3.52,1.17,3.54,1.16,3.48,1.1,3.53,1.21,3.53,1.16,3.53,1.11,3.48,1.16,3.54,1.16,3.53,1.16,3.53,1.16,3.48,1.16,3.53,1.16,3.53,1.16,3.54,1.16,3.53,1.15,3.53.69,2,.31,2.16.28,1,.1,1v.32l.06.48.15.58.42.9.37,1.1.06.79L132.1,340v.42l.16.48.16.47.42.69.42.53.53.42,2,1.37,2.32,1.89,2.16,1.85,2.32.74.43.26.37.43.47.89.16.58.1.58v2.16l.11.74.21.37,1.37,1.42,2.31,1.48L150,359v-.31l.11-2-.21-.36.89-.37,1,.73,1,.9.9.21.42-.73.54-4,.52-2,.48-.79.73-.63-.84-.26.32-1.42.47-1.22-1.11-1.26-.36-1.64.15-1.73.37-1.59,1.06-2.48.42-.68.47-.26,1.53-.53,1.1-.85.64-1.05.53-1.16.74-1.11.36-.31.64-.27.21-.31,0-.37v-.95l.05-.42.63-1.48.48-.69.58-.57-.11-.37-.53.21-.47.37-.84.89-.69-1.42-.47-1.26-.16-1.27.16-1.64.37-1,.79-.95.74-.1.52,1.37.69-.69.63-1.79.89-.58-.05.53-.05.53.64-.37,1.16-1,.73-.32v-.48l-.31-2.16-.21-.74-1.11-1.47-1.22-.16-1.26.42-1.58.27-.11-.53,1.53-.37.63-.47.37-.85-.26-.52-.48-.9-.26-.85,1.26-1.42.53-3.16,1-.95,1.89-3.43.48-.37.52-.21.58-.42,1.11-.95.42-.58.53-1.37.37-.73.53-.54.68-.31-.1.9-.27.79-.36.63-.37.47.68-.1,1.37-1.79,1-.48,0,2.06L175,301.7l-.42,2.05.89-.37.58-.89.27-1.22-.11-1.15V299l.37-1.69.47-1.52.42-.69.58,1.32-1.42,7.8.37-.16.26-.32.11-.42-.11-1.16.21-.26.32-.21.26-.37,1.33-3.32.53.84.47-.26.42-.95.11-1-.32-1.22-.53-.68-.68-.37-.69-.16.22-.58.36-.42.43-.27.52-.1.69.1.1.21-.1.48,0,.74.37.58.89.42.37.53.1.74-.15.31-.16.27-.05.47.26,1.58.32,1.11.47.43.63.31.7,2,.78.58.06-.84.21-.9.42-.69.58-.41.05-.38-.11-1.79-.31-.63-.79-1.05-1.11-2.16-.74-2.33-2.11-5.11L180.18,285l-.63,1.42-.37.63-.53.31-.53-.1-.48-.42-.21-.58.11-.79,2.12-4.17.63-.73.42-.37.31-1.11.58-.37.37.27-.26.89-.69,1.42-.05,1.59.26,1.48.58,1.31.42,1.21.48.69.26.74.16.79.31.84.37.69.64.79.37.63,1.21,3.17h.16l.26-.06.27.06.21.42v.21l-.11.21,0,.31.1.48,1,1.79.63-.16.42-1.32.21-3.74-.11-1.06-.52-.36-.42.47-.27,1.74-.37.58.16-2-.1-1-.37-.85-.53-.26-.73-.1-.43-.37.21-1.11,2.64-8.54.47-1,.58-.58.8-.16-.05.63-.44.79-.21.37-.21,2.64.11.89.52,1,.59.27.64.1.68.69-.37-.06-.68.06-.42-.11-.06.58v.42l.16.38.37.42-.58,1.9.21.42.74.52,1.16.53.84.21.73-.32.58-.84.58,2.27.32.47.31-1.11,0-1.21-.42-1.11-.63-.89-.74-.69.16-.47-.05-.53-.27-.53-.36-.31.15-.48.11-.63,0-.63-.27-.42-.21-.48.11-.63.37-1.21.21-2,.21-1,.37-.74.57,1-.78,3.1v1.64l.26.48.58.32.26.42.05.31-.05.84.05.48v.73l-.1.69.26.64,1,.58-.26.58,1,.79-.63-2.22-.21-1.06V286.3l.31-.05.48.89.68.75.63.84.47,1.37.64-1.37.21-2.16-.06-6.22.11-1,.32-1h.31l.79-.42.47-.74-.79-1.48.48-.53.64-.53.21-.63-.05-1.1.52-.16.53.53v.94l-.63,1.37.16.38.94-.11.32.31,0,1-.37,1.68.79-.21,1.05-1.1.68-.37.64.16-.06,1.94.42.79.43-.73,2-4.65.94-.36-.15,1.26-.9,2.85.32,1.74.31.05.9-.53.52-.42,1.48-1.63-.69-.37-.26-.63-.05-.85.21-.84.52,0,.27-.16.1-.47-.1-.69,1.59.16.36-1.05-.15-1.32.21-.79,1.26-.58.68-.79.21-1.16.16-1.63-1.63.68-.31-.74v-1.21l-.58-.95-.11-.37.37-.74.26-1,.21-2-.05-3.43.47-1.21.21-3.43.64-.63.89-.74.74-.89.16-1.11-.69-1-2.1-2-.32-.63,0-.79-.69-.37-.36-.47.89-1,2.11-1.32.52-.62.95-1.74.75-.69.79,0-.16,1.26.63,0,.89-.74.69-1.05-.84-.16-.32.05-.05-4-.21-1.84.26-.16.84-.21,1.79-.06.53,1.11-.58,3.8,0,.47.21,1v.48l-.21.42-.47.52-.16.21-.11.9,0,1.16.21,1.05.63.64.58-.27.37-.83.54-1.75.37-.53,1.57-1.52.32.89,1.37,1.21-.16.43-.58.05-1.21-.32-.31.16-.37.73-.53.75.48.42.52.69.21.63-.37.47-.47-.05-.63-.48h-.54l-.52.69-.11,1.31.26,2.59,1.43-.58,1.48-1.69,1.31.05,1.85,1.11,1.27.42.74-.47,1.73-.37,5.75,2.53,1.26-1-.63-.15-.58-.21-.52-.38-.48-.63.84.32.42-.32-.1-.74-.53-.9-.52-.26-.63.05-.58-.1-.42-.74-.06-.84.21-2-.26-.57-.64-.64-1-1.37-.79-.53h1.37l1.17-.36.94-.79.63-1.53.43.58.31.68.47,1.58.27.27.37-.64.21-.89.1-.69-.16-.53-.15-.21-.27-.1-.31-.16-.32-.37v-.31l.11-.33V234l-.37-.84-1.58-1.79,1.42-.42,1.05.16.74.95.89,3.58.43.74.69-.16,1.21-.79-.47-.84.84-1.8,0-1.42,1,.48,1.16-.06,2.22-.68-.27-.22-.15-.21-.28-.2-.31-.11.48-1.58-.9-.74-1.79-.21-.11-1.32.74-.16,1,.21.91-.26.26,1.1.47.64,2.11,1.31.05-.41-.32-.9-.15-1,.31-1.85.53.22.58,1.42.58,1.84.26.42.37.16.73-.21.38-.26-.15-.38-.33-.42-.11-.31v-.53l-.1-.37v-.36l.37-.43h.27l.16.32.1.37.27.16h1.47l.53,1,.21,1.57.73,1.64,1.11,1.8.79.94.21-.26.75-.53-.11,1.06.11.9.42.68.84.48.26-1,.79-2.84.11-.68-.16-.32-.05-.21.42-.37h.31l.21.42.32.32.47-.16.21-.37.06-.58v-.58l-.11-.48-.21-.16-1.05-1.63-.11-.32-1.84-.42-.79-.42.53-.47,1,.16.47-.16v-.69l-.16-.68-.05-.53.11-.43.47-.26,1.47,4.33.27.52.26.21.37.16.37.22.64.21v-.54l-.53-1.21-.22-1.1v-1.22l.33-1,.63-.58-.26,1.58.15,2,.63,1.68,1.22.68-.32-1.68-.16-3.21-.58-1.22.63.11h.74l.53-.42-.06-1-.47-.68-1.37-1.16-.42-.74.26-.26.53-.26.48-.53-.06-1.85.32-.58.52-.16.69.42.1-1,.27-.84.31-.21.53,1-.05,1.1-.21,1.22.05.95.74.48.26.2-.05-.68-.21-.27.58-3.58.43-.58.31.42.42,3.48.53,1,.63.67.74.27.73-.05.64-3.59.47-1.1.37-.48.48-.26.32.21.37.53.15.47.27.53v.31l.1.21.63.11.37,0,.42-.11.42-.26.27-.27.31-.26.58-.32.37-.36-.21-.37-.37-.53-.1-.58v-.63l-.06-.58-.52-2.06-.53-.37-1,.37,1.42-2.43.74-.36.73,1.37.32-.11.26-.84.59-.11.53.59-.05,1,.89.1.9-.16.89-.37.79-.57-.89-.48-.32-.84-.26-1-.69-1,1.27,0,.78,1.16.69,1.58,1.05,1.06v-.74l.21-.48.59-1.05.21.11.37-.16.11-.43-.95-.41.1-1.48-.53-.79-.85-.58-.63-1,.63.38.74.16.64-.16.53-.69-.79-.21,1.21-1.17,1.05.33.53,1.15-.42,1.43.16.47,1.05.21.89.48.85.31,1.16-.21-.85-.94-.21-.53.32-.32.53-.15.16.1,1,.32.47,0,1.37-.42-.42-.53-.21-.21.32-.52.79-.59.36-.32,1.86-3.84.21-1,.1-1.32.53.37.1-.47.06-1.32-.06-.21.48-.26,1.1-.16.48-.21.47-.74L307,188.4l.16-.84Z" fill="#35156B"/></svg>