<svg id="af9134ec-d12c-417a-b804-02f59d8cfa9d" data-name="Layer 1" xmlns="http://www.w3.org/2000/svg" viewBox="0 0 400 400"><title>State</title><path id="f39d8aff-c9c5-4111-8c83-c82493c9e730" data-name="ID" d="M300.59,250.76l-.63,6.41-.67,6.44-.63,6.41-.63,6.43-.66,6.44-.63,6.45-.63,6.43-.67,6.47-.63,6.45-.66,6.46-.63,6.48-.63,6.47-.67,6.47-.66,6.47-.63,6.47-.64,6.5-6-.63-6-.6-6-.63-6-.63-6-.66-6-.67-6-.66-6-.66-6-.7-6-.69-6-.73-6-.69-6-.73-6-.75-6-.76-6-.76-6-.76-5.93-.76-5.94-.78-6-.79-5.94-.79-5.93-.82-5.94-.82-5.93-.86-5.93-.82L135,335l-5.93-.88-5.94-.86-5.93-.88-5.94-.88-5.93-.92-5.91-.92.63-4.26.67-4.22.66-4.27.63-4.26.67-4.23.66-4.26.63-4.26.67-4.23.66-4.23.63-4.26.66-4.23.63-4.23.66-4.23.67-4.27.63-4.22.66-4.23.28-1.84.57-3.69,0-.53h0l0-.32-.09-1,.6-.6.76-.41.44-.47.5-.89.26-.94.59-1.27.48-1.64.22-.44.19-.28.16-.32.09-.44-.09-.92-.64-1.51.1-.66.38-.32h.44l.41.1.38-.1.32-.38.19-.44.12-.48.07-.47.15-.22.26-.19.15-.28-.09-.41-.51-.67-.47-.47-.63-.47-.13-.23-.16-.59v-.45l.1-.47-.06-.38-.35-.19h-.73l-.6.16-.53.07-.63-.32-.19-.35-.13-.41-.19-.38-.38-.16-.44.1-.35.25-.31.32-.35.28-1.07-1-.41-.63-.1-.79.1-.41.22-.51.12-.41,0-.53-.28-.92-.06-.47.25-1,.47-.76.35-.69-.13-1.14.22-.25.35-.19.16-.22.19-.51.31-.15.35,0,.38-.13.47-.41.54-.63.44-.73.51-1.55.47-.82,1-1.29L116,218l.41-.55.66-.56,2-.88.67-.38.5-.45,2-2.33.92-1.33.38-.72.63-1.83.15-.86,0-.12-.12-.22-.1-.35v-.48l.16-.41.31-.41,4-4.19.89-1.49.91-2.4.51-.63.41-.63.34-1.67.26-.85.5-.67,1.24-1,.66-1.29,1.73-1.55.16-.38.29-.82.75-1.29.22-.25,1-.82.54-.58.35-.72.09-.88-.09-.86-.79-2.14-.32-1.74-.28-.85-.32-.51-.37-.44-1.24-.44-1.61-1.29-.53-.79-.25-.32-2.12-.79-.25-.56-.16-.67-1.54-2-.57-2.4-.07-1.29,0-.19-.44-1.93-1.3-2.18-.12-.47,1.07-.79.44-.51.45-.78.12-.86-.5-1.2,0-2-.29-.91-.76-1.77-1.16-2-.13-.63.22-.72.66-1.2.16-1.17,1-6.41,1-6.37.95-6.41,1-6.38,1-6.38,1-6.34,1-6.38,1-6.34.95-6.35.95-6.34,1-6.35.94-6.31.95-6.31,1-6.32.95-6.31.94-6.28,2.91.44,6.44,1,6.47,1,6.44,1,6.44.94.35,0-.7,4.66-.66,4.67-.7,4.68-.69,4.7-.69,4.67-.7,4.71L167,83.11l-.7,4.7-.28,2,.06.25.19.45.57.66.73,1.13.28.67.6,1,.16.47.09.22.16.22.35.35.28.35.25.44.25.29.64.5.22.22.16.35.06.25.28,2,.1.25.19.26.72.53.26.25.12.41,0,.29.07.28.12.22.79.67.19.22.13.38.06.28,0,.29-.22,1,.09.35.67,1.3.12.44,0,.34-.09.22-.25.38-.16.16-.16.13-.16.12-.79.29-.19.09-.15.13v.22l.12.22.73.6.22.29.19.47,0,.85,0,0,.26.22.44.29.25.22.09.28-.09.19-.16.16-.19.07-.22.06-.22,0L173,113l-.19,0-.16.09-.1.06-.12.13-.06.19,0,.22.19.25.47.29,1.1.5,2.06,1.71.25.25.82,1.2.38.72.19.6.22.57.12.23.23.18.41.25,1.48.45,2.56,1.38.22.22.22.26.25.54.22.63.1.22.15.25.1.22.06.19,0,.44.1.22.15.19.29.19.22.19.16.22.25.41.22.32.76.63.28.35.67,1.2.31,1,2.31,3.13,0,.22.06.73v.09l0,.1.13.19.22.19.41.22.57.22.19.16.15.22.7,1.17.19.21.22.23.7.54.15.18v.23l-.06.19-.12.22-.07.25-.06.25,0,.69,0,.45.06.44.19.6.16.22.25.25.85.7.29.31.38.54.28.31.44.26.86.34.18.16.13.19.09.32,0,.28,0,.25-.34,1,0,.22.07.19.12.19.29.09h.25l.22-.09.76-.69.53-.32.22-.09H200l.22.06.22.12.69.64.16.25.22.41v.31l-.06.23-.47.44-.13.19-.06.22,0,.22,0,.19.19.28.28.32.66.53.41.22.39.16.5,0,.38-.06.73-.16h.22l.18.07.48.25.22.06h.25l.22,0,.41-.16.54-.28.19,0,2.11-.26.25,0,.26.06.22.13.16.18.09.29,0,.25,0,.25-.09.76-.16.48-.25.38-.1.22-.06.22,0,.22,0,.19V154l-.07.19-.09.22-.28.32-.1.18,0,.23,0,.22.07.19,0,.19,0,.19-.1.22-.12.12-.16.13-.19.09-.19.1-.88.19-.19.06-.13.09-.09.19v.1l.09.19.38.54.1.25.09.22,0,.22v.25l-.06.25-.09.23-.1.25-.88,1.32-.19.45-.16.47-.06.51,0,.5,0,.25-.09.22-.13.16-.73.79-.12.19-.06.22-.1.47-.09.23-.13.18-.31.32-.1.16-.09.19v.22l.06.25.09.29.13.44,0,.22v.22l0,.73,0,.44,0,.25-.06.22-.13.16-.16.13L204,170l-.22,0-1,0-.19.06-.16.1-.06.06-.1.16-.06.22v.22l.13.25,1,1.39.09.19.07.22,0,.22-.07.26-.09.19-.13.19-.73.78-.12.19-.1.22,0,.25.06.32.19.44v.29l-.06.25-.09.22.06.26.25.28.67.41.79.31.22.16.06.25v.29l-.09.22-.38.54-.1.22-.09.22-.06.25v.22l0,.19.09.22.51,1.07V182l-.07.25-.15.16-.83.6-.19.09-.22.07h-.22l-1.07-.1-.22,0-.19.07-.35.19-.12.13-.1.09-.19.35-.41.47-.25.35-.13.18-.12.19-.19.13-.35.25-.16.13-.06.19,0,.32.19.4.09.57,0,.23.16.25.7.85.16.31v.29l-.16.38,0,.19.06.44,0,.22-.1.22-.09.19-.07.13-.09.09-.48.35-.69.44-.16.13-.06.22,0,.25.13.38.09.25v.25l-.06.22-.13.19-.41.48,0,.16.1.15.44.13.6.06,1.39.48.28.12.95.86.12.25,0,.25,0,.22.16.25.28.26,1,.66.12.32.1.15.22.19.32.16.63.13.34,0,.29-.06.19-.09.75-.26.16-.09,0,0,.15-.19.44-.82.13-.19.16-.16.16-.12.19-.1.19-.06h.25l.5.12h.26l.18-.06.76-.35,1.3-.34.19-.1.12-.13.1-.19.12-.19.13-.18.19-.13.57-.25.15-.1.16-.19.13-.19.09-.22.25-.38.17-.15.15-.13.19-.1.22-.06.82-.16.16-.06.1-.06.06-.16v-.41l-.06-.29,0-.18,0-.23,0-.25.06-.19.1-.09.12-.1.19,0,.38.19.57.35,1,.88.72.76.07.19,0,.22,0,.44.19.26.34.25,1.52.72.25.13.19.22.25.31.1.26,0,.22-.07.22-.12.19-.28.32-.1.18-.22.45-.13.5-.06.25.09.26.23.25.91.5.29.32.06.32,0,0,0,.25v.7l0,.22-.09.22-.25.38-.1.22-.06.25,0,.22,0,.22,0,.19v.47l.09.32.79.79.19.28.1.29-.06.5-.19,1-.13.48,0,.25,0,.47.06.19.09.19.16.22.63.57.22.25.1.22,0,.25,0,.45,0,.22.13.22.47.47.54.76.44.44.38.54.16.35.06.22.06.41v.25l0,.22,0,.19.22.38.09.16,0,.22-.06.5,0,.22.16.16.25.13,1,.09.22.16.19.32.1.75.06.2.82,1.45.13.41.34,1.19,0,.22.06.67V222l-.06.22-.32,1-.09.22-.13.19-.16.16-.16.13-.63.19-.16.09-.16.13-.06.18,0,.19.1.19.25.35.19.35.13.38.28,1.26.16.38.22.38.35.31,1.35.82.41.32.22.25,0,.23v.69l.16.19.28.09.57,0,.31-.06.26-.09.69-.48.16-.09.22-.06.22-.07.53.1.7.25.76.5.66.67.51.63.09.19.35.73.12.18.38.48.1.19.06.19,0,.18,0,.22,0,.23.06.18.09.19.22.36.1.18.06.19.16.63.06.19.29.57.16.38,0,.19v.22l0,.22-.13.16-.16.15-.35.23-.15.13-.13.15,0,.22v.19l.09.19.73,1,.06.19,0,.22-.07.47.16.23.22.21.47.29.19.26.06.21-.06.22-.38.61-.15.37,0,.1,0,.19.22.56,0,.19,0,.48.09.25.25.19.51.26.25.18.16.22.41.7.16.16.19.15,1.35.6.16.13.13.16.63,1.07.16.13.28.06.54-.19.16-.22.06-.22-.45-1-.06-.19,0-.25.1-.19.13-.19.12-.16.16-.15,2-1.52.19-.1.91-.09.19-.06.6-.29.26,0,.31,0,1,.38,3.76.92.19.12.16.13.25.28.19.07.85,0,.47.07.57.22.26.22.18.19.13.16.16.16.28.09h.35l.51-.09.28-.16.19-.19.69-1.29.35-.95.13-.19.12-.16.19-.1.38-.15.51-.16.82-.1.25-.06.16-.09.28-.25.22-.07.28,0,.45.26.41.37.22.13.35.06.72.07.57.09.85.32.73.37.28.07,3-.19.51.12.6,0,.31-.06.26-.1.15-.12.26,0,.28,0,1.3.18.53.26.28.22.19.19.22.35.07.19.09.18.16.13.22.1.29,0,.66-.22.29-.07.63,0,.53-.06.22-.09,1.49-.73.47,0,3.38.38.38.12.91.54.35.32.19.06.28.06h.54l.31-.06.23-.09v-.19l-.07-.16-.16-.16-.69-.32-.19-.09-.13-.15-.06-.13-.06-.1,0-.19-.07-.44v-.44l.07-.25.09-.23.28-.44.07-.19.09-.44.1-.16.16-.12.85-.22.19-.1.13-.15.09-.26,0-.22,0-.25,0-.19-.1-.19-.12-.16-.06-.19-.07-.19.07-.19.12-.19.32-.25.41-.19.22-.06h.88l.25-.06.19-.16.41-.54.16-.12.25,0,.38.12,1.07.73.29.25.22.76,1.07,2,.19.54.13.19.29.15.22.19.15.19.1.32,0,.25,0,.29v.5l0,.22.06.19.06.19.16.19.22.19.44.28.32.29.37.5.45,1,.79,1.13.47.41,1.33.51Z" fill="#35156B"/></svg>