<svg id="e107231e-ca2f-4d3b-a1ff-7d32fdf01cfb" data-name="Layer 1" xmlns="http://www.w3.org/2000/svg" viewBox="0 0 400 400"><title>State</title><path id="bff6f57c-a4da-450f-bad6-0934b2e68b3a" data-name="NM" d="M178,307.94l2.08,2.44-.49-.52-.39-.16-1.56-.1-.94-.07-1-.06-1-.07-.94,0-1-.06-.94-.07-1-.06-.94-.07-1-.06-1-.07-.94-.06-1-.07-.94,0-1-.07-1-.07-.94-.06-1-.06-.94-.07-1-.07-1-.06-1-.07-.95-.06-1-.06-1-.07-.95-.07-1-.06-.94-.06-1-.07-1-.07-.94-.06-1-.07-1-.06-1-.07-.95-.06-1-.1-1-.06-1-.07-1-.06-.95-.07-1-.06-.95-.07-1-.07-1-.09-1-.07-1-.07-.95-.06-1-.07-1-.06-.94-.06-.95-.1-1-.07-1-.06-1-.07-1-.06-.94-.07-1-.09-1-.07-1-.06-.94-.07-1-.1-1-.06-1-.07-1-.09-.94-.07h0l0,.33,0,.29v.29l0,.32,0,.3v.33l0,.29,0,.32,0,.3v.32l0,.29,0,.33v.3l0,.29,0,.32,0,.29v.33l0,.3,0,.32v.29l0,.33,0,.29v.29l0,.33,0,.3v.32l0,.29,0,.32,0,.3v.33l0,.29,0,.29v.33l0,.32,0,.3v.29l0,.33,0,.29,0,.33v.29l0,.33,0,.29v.29l0,.33,0,.29v.32l0,.3,0,.32v.3l0,.32,0,.3,0,.32v.3l0,.29,0,.32v.3l0,.32,0,.29,0,.33v.29l0,.3,0,.32v.29l0,.33h0l-1.59-.13-1.6-.1-1.6-.13-1.59-.13-1.6-.1-1.59-.12-1.6-.14-1.59-.13-1.6-.13-1.59-.09-1.6-.13-1.6-.13-1.59-.13-1.6-.13-1.59-.14-1.6-.13-1.59-.13-1.6-.13-1.6-.13-.74-.06h0v0h0v0h0v0h0v0h0v0h0v0h0l.65-7.75.61-7.75.66-7.72.62-7.75.65-7.74.62-7.72.65-7.75.62-7.75.65-7.72.62-7.75.65-7.72.62-7.75.61-7.75.66-7.72.65-7.75.62-7.72.62-7.72.65-7.75.65-7.71.62-7.76.61-7.71.66-7.72.62-7.75.65-7.72.61-7.72.66-7.71.62-7.72.62-7.72.65-7.72.65-7.72.62-7.71L103.8,75l6.65.56,6.64.52,6.64.48,6.65.52,6.61.49,6.64.49,6.64.46,6.65.46,6.64.45,6.64.46,6.65.42,6.64.39,6.64.39,6.65.39,6.64.39,6.68.36,6.64.36,6.64.36,6.64.32,6.65.33,6.64.32,6.64.3,6.68.29,6.64.26,6.64.26,6.68.26,6.65.26,6.64.23,6.64.23,6.67.19,6.65.2,6.64.2L316.35,92l-.13,5.47-.16,5.44-.13,5.47-1.5,0v.78l0,1.37-.2,6.09-.19,6.06-.2,6.09-.19,6.08-.2,6.06-.19,6.09-.2,6.09-.19,6.06-.2,6.09-.19,6.09-.2,6.09-.16,6.09-.2,6.06-.19,6.08-.23,6.09-.2,6.09-.19,6.09-.2,6.09-.2,6.09-.19,6.09-.2,6.09-.19,6.09-.2,6.09-.19,6.09-.2,6.09-.19,6.09-.2,6.09-.19,6.09-.2,6.12-.19,6.06-.2,6.09-.19,6.12-8.25-.23-8.26-.26-8.27-.26-8.28-.29-8.24-.29-8.27-.33-8.27-.33-8.24-.36-8.27-.35-8.24-.39-8.27-.39-8.24-.43-8.27-.42-8.24-.46-8.27-.45-8.24-.49-1-.07-.61,0v.75l.68,1.63.13.94.06,1,.2.78.85,1.4-.3.3.23.52.33.39.42.29.49.1h0l.49.36Z" fill="#35156B"/></svg>