<svg id="e5d80c41-1b8c-4234-ba22-b0d0a60918c9" data-name="Layer 1" xmlns="http://www.w3.org/2000/svg" viewBox="0 0 400 400"><title>State</title><path id="ac916ccc-b031-4b74-b6b7-48251bb751fb" data-name="OK" d="M339.78,149.61l1.09,5.92,1.05,5.89,1.08,5.89,1.09,5.93,1.05,5.89,1.08,5.92,1.08,5.89,1.08,5.92.29,9.3.25,9.3.26,9.3.29,9.33.25,9.29.29,9.3.25,9.33.25,9.3-.19,0-.89,0-.66-.32v.32L347,270.8l-.54-.25.13-.23.1-.19-.77,0-.92.22-.29-.38-.41-.22-.51-.13-.51-.06h-.26l-.38.22-.25.06-.19-.06-.32-.38-.64-.29-.63-1-.51-.19h-.45l-.92-.25-2.33-.32-1.4-1.24-.57-.93-.19-.25-.38-.23-.32-.12-.22-.25-.13-.64-.1-.19-.26-.23-.28-.19-.26-.06h-1.24l-.54-.13-.57-.38-1.21-1.11-.64-.39-1.11-.22-.22-.25-.16-.29-.19-.26-.42-.25-2.39-.67-.57.1-.63.57-.2.67,0,.73-.16.48-.45-.22-.19.35-.25.19-.32.16-.38.22-.42-.22h-.25l-.09.41v.32l-.07.19-.16.13-.22.12-.29,0-3,0-.38.09-.26-.32-.22-.16-.29-.09h-.35l-.13.09-.22.16-.16.1-.09-.16-.16-.22-.1-.16v-.06l-1.11,0-.48-.22.32-.64-.29-.64-.41-.32-.48-.22-.48-.35-.48-.16-.38.38-.44.83h-.26l-.6-.19-.1.09-.83.48-.38.1-.38.25-.35.29-.22.29h-.35l-.54.06-1.15,0L304,263l.19,1.19-.38.31-.25-.09-.19-.19-.19-.29-.29.1-.19.22-.22.29-1,.22-.41-.1L299,263.41l-.39-.38-.38-.1-.44.29-.35.42-.14.32H297l-.54.31-.64.48-1.2.57-.48.07-1.85.06-.35.1-.7.44-.38.1-.35.32L290,267.9l-.32.58-.66.44-.64.1-1.53-.13-.92.16-.23.41,0,.64-.16.89-1,.73-1.08-1-1.09-1.56-.85-1-.67-.13-2.39.22-.29-.12-.13-.35-.09-.38-.13-.32-.22-.16-.8-.38h0l-1.46-.42-.45-.44-.16-.16-.09-.19-.07-.23v-.22l0-.23.38-.79-.1-.25-.32-.29-.89-.35-.47-.1h-.38l-.2.13-.12.13-.23.38-.41,1.34-.1.22-.1.19-.12.16-.16.13-.29.13-.35.12-.66.1h-.39l-.31,0-.19-.1-1-.7-.39-.16-.28,0-1.24.19H266l-.29-.09-.16-.1-.45-.45-.22-.34-.19-.42-.26-1.21-.15-.41-.16-.23-.29-.16-.48-.22-.35,0h-.28l-1.22.25-.22.1-.16.09-.25.36,0,.57-.06,1-.51,1.18-.54.73L259,266l-1.27-.31.06.66.25.29.3.19.16.41-.16.32-.68.42-.12.47-.07,1.25-.28,1.11-.64.7-1.14.1-.87-.51-.7-1-.51-1.11-.19-1,.13-.74.64-1.08.12-.7-.09-.54-.29-.48-.41-.38-.45-.32-.22.13-.44.19-.19.16-.13.19-.13.32-.6,1.11-.2.29-1-.83-.42-.13-.57.42-.06.13-.19.44-.1.16-.19.22-.38.23-.13.16-.29.22-.38.13-2.32.22-.58-.35-.25-1-.09-.89-.3-.54-.54-.29-.82-.12-2.27.19-.54-.29-.35-.8v-1.59l-.35-.73-1.33-.64L236,261l-1.24,1-3,3.15-1.37.9-1.56.28-1.53-.44-.82-.42-.35-.41.09-.64,0-.28.07-.42.22-.89v-.41l-.25-.48.22-.48-.1-.45-.25-.35-.36.1-1.27-.41-1.75-.32-1.37-.68-.09-1.39-.2-.93.13-1.27v-1.12l-.57-.47-.89.12-1.66.64-1.08.16-4.77-.54-.9.29-.57.63-.41.77L210,257l-.22.38-.86.16-1.79,0-.51-.28-1.2-1.38-.48-.31-.23-.22-.6-1-.39-.26-1.17-.22h-.42l-.79.16-2.39,1-.41-.23-4.46-.92-.74-.25-2.7-1.72-.8-.19-.57.16-.54.22-.76.15-.71-.09-1.37-.41-.73-.1-1.65.1-.8-.16-.61-.51-.12-.67-.13-2.32.13-.51.12-.35-.6-.74-1.11-1-.32-.67-.23-.77-.35-.64-.7-.28-.7,0-.35-.1-.31-.12-.29-.29-.16-.32-.1-.29-.19-.25-.67-.48h-.51l-.35.48-.19,2.13-.28.64-.55.29-.82-.1-.77-.28-1.34-.77-1.71-.23-.32.1-.32.19-.39.48-.25.23-.64.19-2.16-.19-.67-.23-.45-.48-.7-1-6-5.73-.35-.22-.77-.16-.31-.19-.58-.16-1.59.22-.54.06v-2.41l0-4.88V209.73l0-4.87V185.4l0-4.84V161.1l0-4.83v-2.14H141.7l-6.5,0-7.7-.07-8.57-.06-9.2-.09-9.46-.1-9.49-.16-9.17-.16L73,153.3l-7.7-.19-6.5-.16-5-.12-3.22-.07-1.14,0,.12-5.35.16-5.32.13-5.35L50,131.4l4.26.09,4.24.13,4.26.09,4.27.1,4.24.1,4.26.09,4.27.06,4.23.1,8,.13,8,.12,8,.1,8,.09,8,.07,8,.06,8,0,8,0h8l8,0,8,0,8,0,7.93-.06,8-.1,8-.06,8-.13,8-.13,7.92-.16,8-.15,7.93-.2,8-.19,8-.19,7.95-.25,8-.22,8-.26,8-.29,8-.28,8-.32,8-.35,8-.35,7.93-.35,8-.38.25,5.34.26,5.32.25,5.35.25,5.32Z" fill="#35156B"/></svg>