<svg id="b6e8962d-9edc-4895-a862-644d91987ee1" data-name="Layer 1" xmlns="http://www.w3.org/2000/svg" viewBox="0 0 400 400"><title>State</title><path id="a40e6636-830c-4a50-94b8-9ea6f56fb502" data-name="DE" d="M166.56,62.54l-1.06,2.12-4.55,5-1.52,2.88v8.37l-1.21,4-5.16,10.34-.61.92-5.19,3.33-.45,1.52v2.14l-.46,2.41-.15,2.29.76,1.67,5.49,3.36,1.82,1.51,2.28,3,.91,3.64-.15,3.81-1.52,4-.3,4.55,2.42,4,3.49,2.86,2.58,1.69,2.89,2.58,9,11.39.6,1.22,1.07.3,2.73-.61,1.36.61,5.95,4.73,5,7.29,2.42,3.79,1.67,4.72L198,190.8l1.52,4.41.91,1.84,1.82,2.58.94,1.82.3,4.7.91,2.45,5,1.66,3.18,3.05,7.13,9.41,1.86,3.05,1.36,3.79,1.21,4.87,1.67,1.67,10,5,10.5,9.13,5.15,2.73,6.41.15,4.4-1.06,2.73-.3,1.67,2.12,6.85,20.82.46,4.72-.46,3.05L271,273.33l-2.91-2.42-7.43,1.66-.15,1.22,4.7,6.39-2.43.16-.91-.16-.91.31-.15.46-.46.15-.45.3,2,1.22,2.28,1.06,2.42.3,2.89-.6-2.89,4.25L256.41,293l-2,3.95,3.18-.76-.3,1.68-.61,1.37-.6,1.06-.76.76,2.58-.16,5.31-5.62,4.09-1.2,1.22.89,1.67,1.67,1.7,1.38,1.21-.45,2.27-4.72.92-2.73-.92-1.69.31-1.51,1.06-.46,1.52,2.13.45,1.82.91,8.52,2,4.86,2.57,4.55,2,4.72.15,5-2.13.45-.91-.45-1.06-.3H281l-1.52.3.61,1.52-3.79.76-8.53,2-12.29,2.88-12.17,2.76-12.47,2.72-12.17,2.74-12.29,2.73-12.32,2.74-12.32,2.73L179,332.47,176.45,323l-3.94-14.29-4-14.43L164.59,280l-4-14.42-3.79-14.3-3.94-14.44-4-14.29L145,208.12l-4-14.27-3.79-14.43-4-14.29-3.95-14.29-4-14.45-3.94-14.29-4-14.43-3.8-14.29,1.22-.15.15-.46,2.27-6.37,2.16-6.23,2.43-7,2.27-3.35,2.88-3,2.58-2,4.71-2.58,3.36-1.36L144.53,59l7.62-.61,6.07.61,5.16,1.68,3,1.67.15.16Z" fill="#35156B"/></svg>