<svg id="eb192831-526c-4f84-85fd-b8a66f596465" data-name="Layer 1" xmlns="http://www.w3.org/2000/svg" viewBox="0 0 400 400"><title>State</title><path id="ad81efb7-0f06-4506-b41f-b1ab4ef53024" data-name="CO" d="M330.82,160.31l-.07,4.25-.07,4.28-.07,4.28-.07,4.29,0,4.28-.07,4.28-.07,4.28-.07,4.29-.06,4.28-.07,4.28-.07,4.31L330,211.7,330,216l-.07,4.29-.06,4.31-.07,4.28,0,4.28-.07,4.32-.06,4.28-.07,4.29-.07,4.31-.07,4.29-.07,4.31-.07,4.28,0,4.32-.07,4.28-.07,4.32-.07,4.28-.07,4.32-.07,4.32-.06,4.28-.07,4.31-4.56-.1-4.59-.07-4.59-.1-4.55-.1-4.6-.1-4.59-.11-4.56-.13-4.58-.11-7-.2-7-.21-7-.2-7-.25-7-.23-7-.28-7-.27-7-.28-7-.27-7-.31-7-.31-7-.34-7-.34-7-.34-7-.38-7-.38-7-.38-7-.41-7-.41-7-.41-7-.41-7-.45-7-.47-7-.48-7-.48-7-.48-7-.52-7-.51-7-.55-7-.51-7-.55-7-.59.48-5.72.48-5.72.45-5.72.48-5.72.48-5.72.44-5.69.48-5.72.48-5.72.45-5.72.48-5.69.48-5.72.44-5.72.48-5.69.48-5.72.45-5.69.48-5.68.47-5.72.45-5.69.48-5.69.45-5.68.47-5.69.48-5.69.45-5.69.48-5.68.44-5.69.49-5.68.48-5.66.44-5.68.48-5.69.48-5.65.44-5.69.45-5.65,5.55.44,5.55.45,5.55.44,5.55.41,5.55.41,5.55.42,5.51.4,5.55.38,5.55.41,5.55.38,5.55.38,5.56.34,5.54.38,5.56.34,5.54.34,5.55.31,5.55.34,5.55.31,5.55.31,5.59.31,5.55.27,5.54.31,5.56.27,5.55.28,5.55.24,5.55.27,5.55.24,5.55.24,5.58.24,5.55.21,5.55.21,5.55.2,4.21.17,4.22.14,4.21.13,4.21.14,4.22.14,4.21.14,4.22.1,4.21.14,4.22.1,4.21.13,4.21.11,4.22.1,4.21.07,4.21.1,4.21.1,4.25.07,3.26.07-.07,2.85,0,2.84-.07,2.84,0,2.84-.07,2.85,0,2.84-.07,2.84,0,2.85-.07,2.84,0,2.85-.06,2.84,0,2.84-.07,2.85,0,2.84-.07,2.84,0,2.88Z" fill="#35156B"/></svg>