<svg id="afefe003-6d9b-48b2-bff5-6e7b9b8407fb" data-name="Layer 1" xmlns="http://www.w3.org/2000/svg" viewBox="0 0 400 400"><title>State</title><path id="bef69d48-4f46-4d53-bab4-bae28ff9c6b1" data-name="NH" d="M269.21,273.81l-.16,2.75,1.61-.89,1.77-.73.57.57.08,1.45-.24,1.53-.16.57-.25,1.85L270,288.42l-.73,4-.16,2.35.32,1.69L266.78,298H265l-2.9-.41-1,.16-.72.17-6.79,5.33-.73.88-.32.49-.8,1.61-.41.73-.8,1-.73.4-.9.25-1,.09-1.29.33-.8.31-.57.4-.32.41-.32.4-.49,1.05-.24.57-.32,1.29-.16,2.09-.16.81-.57,1.05-.8.74-1.45.8-.75.56-.48.58-.73,1.61-.88,1.37-.89,1.21-.56.41-.81.32-1.77.48-5.74,1.3-5.64,1.28-5.66,1.3-5.66,1.29L205.26,332l-5.66,1.29-5.74,1.29-5.64,1.31-5.66,1.28-5.65,1.3-5.65,1.2-5.66,1.29-5.73,1.29-5.66,1.21-5.65,1.31-5.65,1.2h-.08V346h-.08v-.08l-1.29-2.82-2.11-1.78-4.27-2.5-1-1-.64-.88-.65-1.12-.56-1.55-.4-1.86.08-1.37.24-1.21.24-1.62-.56-4.6.08-1.93,1.2-1.13,1.7-1.14.32-1.94-.89-4.76-.08-6.14-.4-2.42-1.13-2.58-.32-1.21-.65-4.36.41-.73.24-.56v-.65l-.16-.64-.32-.25-.26-.16-.16-.25-.17-1.37.08-1.13.34-1.13.57-1.13.48-2.18-.4-2.34L131,279.62l-3.87-17.68-.24-2.83.4-1.69,2.1-3.16.65-2.09.16-2.18-.41-4.44-.64-3.64.24-1.21,1.69-2.18.66-1.61,3.15-4.69.48-1.86.08-2.18-.08-2.34-.4-2.26-.08-2.26.56-2.42,3.31-8.32v-.81l-.65-.41-.88-.48-.57-.81.08-1.69,1.86-6.63.24-3.54-.57-4.05-2.33-9-.73-5.4.73-4.12,2.33-2.91L142,169l3.87-.8,1.77-.82,1.21-1.37,1.79-3.79.89-1.37,5.72-5.9,1.87-1.29.4-1.13.81-2.5,2.09-2.84,1-2.17-.4-1.86-.65-1.77v-2.11l.65-.72,1-.25.89-.4.4-1.21-.24-1-.8-1-1.37-1.13L159,128.38l-.74-1.46-1.05-1.7-1.45-1-1.13-1.46-.41-2.67,1-4.11,2.34-5.9,2.19-5.57.08-2.66-1.14-1.46-1.45-1.21-1.13-2.26-.48-2.75.48-1.2,1.21-.73h0l-.81-2.35-.24-1.69.16-1.54,1.94-5.33.16-1.21-.16-2,.08-1.13,1.22-4.21v-2l-1.55-.89-2.25-.48.56-.9,3.16-1.69.81-1.21,1.53-3.39,1.05-1.45,1.61-1,1.45-.16,7.43,2.1,2,.08,2-.24,1.21-1,1.45-4.11.8-1.79.65-.48.08-.08,1.77,5.41,1.78,5.33,1.71,5.41,1.77,5.32,1.77,5.34,1.78,5.41L194,91.55,195.73,97l1.77,5.32,1.77,5.42,1.78,5.34,1.77,5.4,1.71,5.41,1.77,5.32,1.78,5.42,1.77,5.34,1.77,5.4,1.79,5.41,1.78,5.33,1.69,5.41,1.85,5.42,1.78,5.4,1.71,5.34L224,183l1.77,5.41,1.78,5.42,1.77,5.32,1.79,5.42,1.77,5.41,1.78,5.4,1.77,5.42,1.77,5.4,1.05,3,.48,3.32.42,1.53.16,1.53v.48l.08.74.25.88.64,1.38.57,1.69.08,1.21-.08,2.74v.65l.24.74.24.72.64,1,.65.81.8.64,3.07,2.1,3.56,2.9,3.31,2.84,3.54,1.13.66.4.57.65.72,1.37.24.88.17.89v3.31l.16,1.14.32.56,2.1,2.18,3.54,2.26,2.84,1.86Z" fill="#35156B"/></svg>