<svg id="b96d65fb-76d8-42ff-b80a-b6382185ecd5" data-name="Layer 1" xmlns="http://www.w3.org/2000/svg" viewBox="0 0 400 400"><title>State</title><path id="f075dde2-02c2-40be-90ef-f86f66996c52" data-name="MO" d="M231.39,95.7h0l-1.15,1.14-.76,2.37-.38,2.64L229,104l.15,2.33,1.69,8.29.27.76.61.8.76.77.23.34.23.35.15.38.08.46.07,1.22-.19,1.53.08.58.19.34.57.53.34.65,1.16,1,.3.49.11.54.2,1.19.61,1.67.91,1.19,10.74,8.21.69.73.53.92.31,1.07.26.68.65.54,9.86,6,1,.8,1,1.15,1.18,1.79.57,1,.34,1,.12.68,0,1.42.07.65.28.61.84,1.07.19.53-.12.57-.26.62-.12.65.31.65.38.57.27.84.11.84-.11.65,2.13,3.63,1.38,1.42,1.72.49,1.68-1,2.25-3.52,2-.61.81.23,1.44.8.77.12h.95l2.11.42,4.16,1.87,1.76,1.19.76,1.29-.23.92-.57,1.34-.65,1.22-.54.53-.49.61,0,1.27.38,2,.15,2.1-.57,1.65L286.33,185l-1.57,5.85-1.68,3.33-.49,1.67v1.91l.57,2.3.31.8.3.57.31.5.38.46,2.41,1.72.3.45,1.26,1.08.31.42.34.76.76.54,1.61.76,1.15,1,1.1,1.19,1.18,1,1.5.34,2.4,1.72.7.3,1.48-.15.54.11,1.33.27,1.5.92,2.55,2.21,1,.54,2.59.84,1.07.61,1.11,1.34,1.45,2.67,1,1,4.13,1.49,1.18.84-.26.65.23.8.38.92.23.91v.84l-.11.88,0,1,.23,1,1,1.68,1.3,1.53,1.1,1.68.62,2.06-.54,1.91-1.3,1.53-1.07,1.57.19,2,.23.16.84.26.38.16.69.46v.68l.23.85.39.76,1.1,1.6,1.87,2.15.73,1.37-.16,1.53.77.69,2.22,1.49,1.76.53.46,0,.15-.53-.19-.77-.34-.42-.39-.26-.42-.39-.54-1.11.19-.53.77-.19,1-.08.26.23.31,1.23.15.41.42.31.91.46.35.31.27.53.15.53.19.54.42.38.5.08.5-.16.45-.26.39-.16.84.31.3.88-.08,2.25.23,1.61v.5l-.19.38-.34.46-.34.57-.12.61.27,1.07.8,1.72.19,1.15-.19,1.37-1.3,3.71-.72,3-.76,1.48-1,.69-1.34-.34-1.18-.88-1.11-1.07-1.11-.8-.42.31-.23.3-.3.92-.42,1.95,0,.8-.42,2.44-.19.61-.08.31-.8,1.22-.62.73-.53.34-1.11-.19-.11-.76.27-1,.07-.47.16-.68-.73-2-1.49-.53-1.3.69-.19,1.83.46.61.42.42.19.15.39.73-.19,1,0,.8,1.11,2,.23,1.11-.34,1.18-.69.57-1,.23-1.07.08-.76.5.19.92.72,1,.84.65,1.08.26.46.31-.12.57-.38.35-.5.19-3.85.5-.74.34,2.57,3.09,1.29,1.95-.26,1-.65.19-.77.49-.61.57-.26.5-.08.88-1.07,2.22-.2,1.79h-.15l-.07,0h-.08l-5.92.69-5.88.73-5.93.68-5.92.69-3,.34-.26,0-.08-.22,0-.2.12-.53,1.22-3,.34-.54.58-1.22.46-.61.23-.42.15-.19.19-.15.19-.15.84-.27.23-.12.19-.15.19-.15.11-.23.12-.23.07-.31v-.27l0-.45,0-.27.08-.27.15-.23.15-.19.38-.3.19-.12.55-.22.87-.46,1.26-.85.19-.19.12-.19.11-.27.08-.26.07-1,0-.23.15-.19.2-.16,1-.42.23-.15.19-.15.12-.19.15-.23.08-.23.07-.27,0-.27,0-.27-.3-1.49V297l.15-1.26v-.61l-.11-.27-.12-.23-.15-.19-.15-.19-.19-.16-.24-.15-1.45-.72-.15-.16-.15-.22-.08-.27-.08-.27-.11-.8-.08-.23-.07-.19-.16-.12-.23-.11-.19-.15-.11-.16-.5-1.11-.26-.38-.08-.11-.08-.12-2.86.27-11.35,1-11.35,1-11.38.92-11.35.91-11.38.88-11.35.84-11.35.84-11.38.77-11.39.76-11.39.76-11.34.69-11.39.69-11.39.65-11.38.65-11.39.57-11.39.58-.3-6.38-.31-6.42-.3-6.38-.31-6.42-.3-6.54-.34-6.53-.31-6.54-.3-6.49-.35-6.53-.3-6.53-.31-6.54-.34-6.53-.31-6.5-.31-6.53-.3-6.5-.35-6.53-.3-6.49-.31-6.54-.3-6.49-.35-6.5-.15-3.74,0-.34-.19-.08,0-.16v-.15l-.08-.08.53-.64-.07-.42-.69-.23-1,0-.16-.08-.08-.42-.23-.15-.19,0-.42.08-.61,0-1.22.12-.91-.31-1.84-1.11-.84-.19-.76-.46-.23-1.07L99.31,161l-.42-.46-1.38-.88-1-2-.42-2,.34-.91-1.79-.31-.19-.27-.27-.8L94,153l-1.76-1.1-.76-.31-.31-.19-.42-.57-1-1.76-.24-.38-.72-.27-.73-.76-.53-1v-1.07l.31-.15,1.06-.12.42-.3.12-.42,0-.57L89.41,143l.28-.88.57-.88,1.22-1.34.42-.3.34-.19.23-.31,0-1.26.11-.54.19-.42.31-.19,1.95.5H96l.61-.65,0-.57-.22-.35-.31-.34-.19-.61,0-.57.11-1,0-.49-.42-.54-1.8-1-.61-.69.31-.54v-.68l-.31-.58-.53-.26-.92.07-.69.19-.57.35L89.37,130l-.8.57-.91.31-.84-.38-1.15-1.19-.46-.31-.46-.15-.84-.08-.34-.08-.34-.3-.23-.34-.16-.42-.3-.42-.34-.15-.5-.08-.46-.08-.58-.76-2.32-2-1.15-.92-.69-.34-1.87-.27-.5-.57-.11-.88.11-1.15.38-1,.12-.57-.12-.23-1.29-1.15-.27-.72-.58-.85-1.14-1.29.57-1.3,0-.65-.46-.54-.69-.23-1.45,0-.61-.26-.5-.65-.38-.69-.42-.61-.73-.46h-.72l-.8.15-.65-.07-.3-.65.49-.38.38-.39.19-.38-.11-.19-.53-1.49-.7-1-.19-.38,0-.34,0-.77,0-.3-.34-.8-.73-.84-.38-.73-.07-.73.11-.57,0-.57-.65-.54-1-.3-.8-.12L59.23,97,59,95.73l.15-1.33h.23l9.67-.46,9.67-.46,9.62-.5L98,92.45l9.67-.54,9.63-.53,9.62-.58,9.67-.6,9.63-.62,9.63-.65,9.62-.68,9.63-.69,9.63-.69,9.63-.73,9.62-.76,9.63-.76,3.78-.31L219,84.2l.38.72.2.23.76.46.19.27.08.68.11.47.19.38.34.34.39.19.88.16.95.53.12.19.23.69.19.3.19.12.19,0,.42,0,.27.07.11.24.11.26.12.27.38.23.81.27.34.22.27.35.15.34,0,.35-.08.34.38.46,1.57,1.29.49.35,1.19.35.46.38Z" fill="#35156B"/></svg>