<svg id="a6844d32-90c3-465b-92de-c7aa2a78b0dd" data-name="Layer 1" xmlns="http://www.w3.org/2000/svg" viewBox="0 0 400 400"><title>State</title><polygon id="afb23422-4915-44e4-8535-fba387a9288b" data-name="IN" points="286.61 251.26 287.18 249.97 287.13 248.93 285.87 248.67 283.49 248.87 282.55 248.56 281.77 247.78 282.19 247.05 283.85 244.93 284.21 243.63 283.75 242.48 282.81 241.55 281.1 240.2 280.69 238.02 282.09 235.99 283.02 235.21 282.29 229.6 281.57 223.99 280.84 218.44 280.11 212.83 279.38 207.22 278.65 201.66 277.93 196.05 277.2 190.49 276.48 184.89 275.8 179.33 275.08 173.78 274.34 168.16 273.62 162.6 272.89 157 272.16 151.44 271.44 145.88 270.71 140.27 269.99 134.72 269.26 129.16 268.52 123.6 267.85 118.04 267.12 112.49 266.4 106.88 265.67 101.32 264.95 95.76 264.22 90.2 263.5 84.64 262.76 79.09 261.31 68.02 260.63 62.47 259.91 56.91 259.34 52.96 255.23 53.49 251.13 54.06 247.08 54.63 242.97 55.15 238.87 55.72 234.77 56.23 230.67 56.8 226.61 57.37 222.52 57.9 218.41 58.42 214.3 58.94 210.2 59.51 206.15 60.03 197.94 61.06 193.85 61.58 189.74 62.1 185.63 62.62 181.53 63.14 173.33 64.13 169.27 64.65 165.12 65.11 161.07 65.64 156.96 66.11 152.87 66.62 151.3 66.78 142.06 73.32 133.33 77.53 128.6 78.57 123.51 78.31 122.32 78.05 121.44 77.58 120.97 76.75 120.97 75.3 119.36 76.13 117.39 75.04 115.67 73.17 115.78 73.84 116.87 83.76 117.97 93.68 119.05 103.6 120.09 113.52 121.18 123.44 122.27 133.36 123.36 143.29 124.46 153.21 125.55 163.17 126.63 173.09 127.72 183.07 129.91 203.01 130.95 212.98 132.09 222.91 133.18 232.88 133.44 235.52 133.28 235.84 130.17 237.76 129.28 238.91 128.86 240.36 129.28 241.5 130.79 243.68 131.05 246.64 127.93 250.44 128.03 253.08 128.4 253.65 128.81 253.91 129.7 254.33 131.57 255.84 132.24 256.98 133.02 259.52 133.44 260.61 134.16 261.34 135.94 262.54 136.4 263.37 136.71 266.17 136.61 267 135.99 268.14 135.88 268.98 136.76 271.47 138.27 273.96 139.25 276.61 138.11 281.85 137.91 282.37 137.28 282.58 136.51 282.68 135.99 282.84 135.15 283.67 134.47 284.92 134.16 286.37 134.58 287.72 134.47 288.08 134.32 288.4 134.16 288.6 133.96 288.76 134.27 288.76 133.64 289.23 132.97 289.9 132.5 290.74 132.35 291.83 132.66 292.87 133.75 294.21 133.85 295.05 133.54 295.82 133.28 295.82 132.92 295.57 132.4 295.62 132.04 295.98 131.52 296.76 131.1 297.23 129.44 298.27 127.83 298.99 127.93 299.51 128.81 300.24 128.71 301.64 128.03 303.2 127.31 304.34 126.94 304.6 125.91 305.12 125.49 305.48 125.13 306.32 124.82 307.93 124.51 308.76 124.41 309.38 124.46 310.26 124.41 311.04 124.04 311.46 123.51 311.2 123.2 310.57 122.99 309.9 122.73 309.64 122.37 309.9 121.96 310.47 121.7 311.04 121.39 312.39 120.77 312.08 120.14 311.35 120.04 310.94 119 311.3 118.59 312.19 118.38 313.38 118.12 314.53 117.7 315.2 117.28 315.62 116.92 316.13 116.87 317.01 117.07 317.75 117.54 318.21 117.97 318.63 118.22 319.04 118.8 319.62 119.94 320.13 120.71 320.81 120.25 322.11 119.78 322.47 118.59 322.88 118.12 323.36 117.02 324.65 115.88 325.69 116.81 326.06 118.48 325.64 119.42 326.31 118.69 327.09 117.86 327.77 116.92 328.34 115.98 328.6 115.36 328.96 116.3 330.57 115.73 331.46 116.04 332.13 116.35 333.22 116.5 334.31 116.3 334.78 115.83 335.2 115.88 336.08 116.35 337.43 116.61 338.36 116.81 339.04 116.71 339.56 115.88 340.07 115.36 340.13 112.82 339.97 113.86 341.01 116.87 343.3 117.28 344.02 116.76 344.39 115.88 344.54 114.27 344.6 114.12 344.75 114.12 345.11 114.38 345.43 114.74 345.53 115.83 345.53 117.18 345.89 118.43 345.58 119.47 345.84 121.59 346.88 122.63 347.04 122.84 346.57 125.08 343.45 122.99 339.5 122.63 338.62 122.89 337.12 123.78 336.45 125.03 336.55 126.17 337.33 127.1 338.21 128.03 338.94 129.12 339.35 130.38 339.45 131.47 339.19 133.59 338.21 134.11 338.11 134.58 337.54 135.37 336.96 136.3 336.81 137.08 337.28 137.28 338.21 136.97 340.54 137.18 341.58 138.53 342.26 140.13 341.43 141.39 339.71 141.75 337.74 141.28 336.39 140.08 334.47 139.67 332.96 139.77 332.08 140.08 331.61 140.6 331.46 141.02 331.61 141.39 332.08 141.49 333.22 141.7 333.89 143.83 335.51 145.95 334.78 148.09 333.32 150.37 332.44 151.56 332.6 152.92 333.07 154.27 333.74 155.36 334.47 156.44 335.04 160.34 336.08 162.47 337.17 163.09 337.38 163.87 337.48 164.92 337.43 165.59 337.64 165.9 338.21 166.16 338.99 166.52 339.71 167.46 340.7 168.03 341.06 168.65 341.38 170.27 340.02 170.94 338.26 171.98 333.74 172.5 332.55 173.07 331.72 173.74 331.1 174.67 330.57 177.85 329.85 178.57 329.38 179.66 328.03 181.58 326.16 183.51 325.18 184.54 326.31 185.22 328.08 186.62 329.79 188.5 330.94 190.47 331.1 192.85 330.31 193.95 330.47 193.48 331.93 193.16 333.17 194.1 333.74 195.4 333.64 196.49 332.75 196.75 331.3 196.59 329.95 196.8 328.86 199.66 327.87 200.28 327.09 200.34 326.06 199.61 321.54 199.72 320.03 200.34 319.31 201.53 319.09 202.72 318.52 203.55 317.53 203.6 316.03 203.19 315.3 202.1 314.37 201.79 313.64 202 312.96 202.62 312.91 203.29 313.17 203.66 313.44 204.02 314.06 204.69 314.16 206 313.9 208.18 312.6 209.01 311.4 208.49 310.94 207.29 310.73 206.15 310.21 205.32 309.02 205.84 308.5 207.03 308.45 208.12 308.81 211.25 310.68 211.82 311.4 212.02 314.37 212.23 315.41 212.85 316.34 213.84 316.96 216.12 317.85 217.11 318.47 218.31 318.94 221.11 318.78 222.35 318.94 224.75 320.91 226.04 321.69 226.51 321.12 226.92 319.88 228.12 319.25 230.77 318.42 231.34 317.95 231.81 317.38 232.17 316.75 232.43 316.13 232.79 314.27 232.43 307.62 232.53 306.16 232.84 304.55 233.41 303.25 234.31 302.63 234.72 301.96 235.55 298.94 236.17 298.01 236.74 297.96 237.52 298.06 238.25 298.21 238.56 298.42 238.87 298.99 239.54 298.94 241.52 298.06 242.56 297.28 244.32 295.57 245.2 293.02 245.67 286.79 247.08 284.61 248.17 284.14 250.45 283.57 251.23 282.84 251.91 281.54 252.53 280.61 255.18 278.06 255.8 276.97 255.91 275.62 254.4 273.08 253.36 268.92 252.85 268.04 252.22 266.64 252.07 265.33 253 264.61 259.23 263.21 262.71 262.9 263.7 263.26 265.88 265.13 267.02 265.65 269.21 264.87 276.48 258.9 279.8 256.98 281.62 256.46 286.13 256.36 286.81 255.84 285.77 253.65 285.98 252.25 286.61 251.26" fill="#35156B"/></svg>