<svg id="ac28ce26-a206-45d9-8514-1f1dc831b18a" data-name="Layer 1" xmlns="http://www.w3.org/2000/svg" viewBox="0 0 400 400"><title>State</title><path id="be43dbca-c4a6-4bb8-9204-a87a654a1cbd" data-name="CT" d="M298.79,84.63l2.53,9.73,2.66,9.85,2.66,9.85,2.65,9.86,2.55,9.85,2.66,9.72,2.66,9.85,2.66,9.85,1.33,5.19,1.46,7.19,2,10.65-1.59.94-.4,1.58-.27,2.56,1.07,8.9.13,3.59-4.25,1.74-.27-1.21,2-.93-.39-.92-1.47-.81-2-.53-1.86.13-8.53,2.53-1.2.53-7.31,6.54-7.73-4.14-1.33,1.47.26,4.13-.79,2.26-3.33.66-4.81-.66-3.58.66.39,4.8-4.11-1.34-6.92,6.8-4.67-.79-1.2-.54-2-.4-1.07-.39-.66-1.21V221l.13-1.48-.26-1.6-1.2-1.6-1.59-1.2-2.26-.8-2.56.4,2.16,2.41,2.79,1.71,2,2.42-.4,4.39,1.6.66.53.13-1.86,2.93-2.92.53-6.14-.67-2.53.93-2.66,2-2.12,2.53-1.2,2.79-.93-.67-.53-.13-.4-.27-.56-.78-1.06.27-1.2,1.44-6.11-1.18-3.19-.13-7.2,3.59-.93,1.46-.67,1.46-.93.93-1.73.4-1.46-.27-1.33-.66-1.59-.4-1.86.13-4.95,1.6-1.32.8-1.73,2.13h-1.07l-1.46-.39-7.87,2.25-1.86-.27-1.46-1.59-1.33-4-.79-.66-.93,1.46-.67,2-.13.94-3.85,5.85L175,258.38,174,260l-1.59.93-3.72,1.21-1.2,1.18-1.06,1.61-2.53,2-.93,1.34-.8,2.13-.26,1.06-.56.8-1.59,1.2-2.26,1.06-1.07-.4-.93-1.06-1.72-.67-.94.53-3.58,4.4-.67.13L148,277l-.53-.4-.27-.13-.4.79V279l-.42.27-.4.66-1.2,2.67-.66.93-1.2.27-2.13-.53h-1.19l-1.06.66-1.07,2-.93.67-1.72.66-2.4,1.46-2.15,1.87-.53,2.12-.93.53-4.92,5.35-1.59,1.19L118,304.18l-1.35.4-2.39-.27-1.6,4.8-1.46-1.21L109.47,311l-2,2.27L105,314l-3.35-1.46-.26.79-.4.27-1.46,1.19-2.66,2.4L96,316,95,314.7l-.53-.53L94,314l-.8-.27-.53-.4-4.52-4.26-4.28-4.27-1.06-.93,1.59-1.73,4.95-4.91,6.38-6.41,6.8-6.78,5.58-5.59,1.73-2-2.66-2.41-2.52-2.53L102,268.91l-3.48-3.74L98,262l-1.47-8.12-1.33-8.13-1.46-8-1.46-8.12-1.33-8-1.46-8.12-1.33-8-1.49-8.12-1.46-8L83.9,181.3l-1.46-8L81,165.2l-1.33-8-1.46-8.12-1.46-8-1.33-8,16.24-3.47,16.24-3.32L124.12,123l16.1-3.47,9.07-1.86,8.5-1.73,7.34-1.21,1.19,4.4,5.59-2-.27-4,18.23-4.4,3.35.13,1.73-.13,1.06-.26,2.13-1.86,6.64-1.47,19.59-4.67,19.56-4.66,19.57-4.51,19.59-4.67,15-3.87.66,1.86Z" fill="#35156B"/></svg>