<svg id="b99db94c-0ad1-4436-a65f-694f08b04ca3" data-name="Layer 1" xmlns="http://www.w3.org/2000/svg" viewBox="0 0 400 400"><title>State</title><path id="a5330a39-5e80-4c09-9202-55952a0e5627" data-name="UT" d="M237.47,75.35l-.35,3.16-.3,3.15-.31,3.16L236.2,88l-.34,3.15-.31,3.16-.31,3.2-.31,3.14-.31,3.16-.34,3.19-.31,3.16-.31,3.19-.35,3.16-.3,3.19-.31,3.15-.31,3.2h0l5,.5,5,.46,4.92.5,5,.46,5,.5,5,.46,5,.47,5,.46,5,.42,5,.46,5,.42,4.92.42,5,.43,4.93.42,5,.43,4.92.42-.5,6.35-.5,6.39-.54,6.34-.54,6.39-.49,6.38-.54,6.36-.54,6.38-.5,6.39-.54,6.38-.5,6.39-.54,6.38-.54,6.39-.5,6.39-.54,6.38-.5,6.39-.54,6.42-.53,6.39-.51,6.39-.53,6.42-.54,6.39-.5,6.42-.54,6.43-.54,6.38-.5,6.43-.54,6.42-.54,6.43-.5,6.39-.54,6.42-.53,6.43-.5,6.42-.54,6.43L295,338l-6.47-.54-6.46-.54-6.46-.58-6.5-.57-6.47-.58-6.46-.57-6.46-.58-6.47-.62-6.46-.61-6.46-.62-6.47-.61-6.5-.66-6.46-.65-6.46-.65-6.43-.7-6.46-.66-6.47-.69-6.46-.69-6.46-.69-6.47-.73-6.42-.73-6.46-.74-6.47-.73-6.46-.72-6.43-.77-6.46-.77-6.46-.77-6.43-.81-6.46-.77-6.42-.81L94.7,317l-6.42-.85,1-8,1-8,1-8,1-8,1-8,1-8,1-8,1-8,1-8,1-8,1-8,1-8,1-7.93,1-8,1-8,1-7.92,1-8,1-7.93,1-8,1-7.93,1-7.92,1-7.93,1-7.92,1-7.93,1-7.92,1-7.89,1-7.93,1-7.88,1-7.89,1-7.92,1-7.89,1-7.89,7.28.92,7.31.93,7.3.92,7.28.89,7.3.84,7.31.89,7.32.84,7.3.85,7.27.81,7.31.8,7.31.81,7.32.81,7.3.77,7.32.77,7.3.73,7.35.77Z" fill="#35156B"/></svg>