<svg id="a4a5fb6a-cfcf-47e1-bcb9-f4d08345c454" data-name="Layer 1" xmlns="http://www.w3.org/2000/svg" viewBox="0 0 400 400"><title>State</title><path id="e2625d50-625a-46ed-9581-aa330f80e171" data-name="ND" d="M345,277.56l-9.06.27-9.06.25-9.06.24-9.05.2-9.06.2-9.06.19-9.06.17-9.1.12-9,.12-9.09.12-9.06.08-9.06,0-9.06,0-9.06,0H200l-9.06,0-9.06,0-9.06-.08-9.06-.12-9.1-.08-9-.16-9.06-.13-9.06-.16-9.06-.19-9.06-.2-9.06-.24L91.23,278l-9-.25-9.06-.27-9.06-.32L55,276.8l.28-9.86.32-9.85.28-9.86.31-9.82.32-9.86.28-9.77.33-9.82.27-9.78.32-9.78.33-9.77.27-9.74.32-9.74.28-9.74.32-9.69.28-9.7.32-9.66,2.35.08,8.22.28,8.26.28,8.22.24,8.27.24,8.22.24,8.26.2,8.22.16,8.26.2,8.22.16,8.26.12,8.22.12,7.06.11h1.2l8.22.09,8.26.08,8.26.08,8.22,0h8.27l8.22,0,8.26,0H227l8.26,0,8.22-.08,8.26,0,8.22-.13,8.26-.07,8.26-.12,8.22-.16,8.22-.16,8.26-.16,8.22-.2,5.63-.12h0L315,123l.32.83.4.77.16.67.2,1,.24.48.24.43.2.45.32,1.75,1.19,2.72.32,2,.36.84.92,1.72.36,2.43-.72,2-1,1.87-.28,2.16,1,2.91.24,1.6.24.83V151l-.16.56-.44.92-.16.64.76,3.31.28.72.2.8-.48,3.55.08,2.11.32,1.92.68,1.8,1.75,3.75.48,1.87.64,1.72L325,176l-.52,1.24.16,1.16,1,2.47v.33l-.2.35.08.24.12.08.16,0,.08.08.08.12.12.2,1,1,.28.63.52,1.8.56,1,.52.76.44.87.28,1.84.48,1.4.63.44.16.24,0,.35-.08.28-.15.25,0,.2.07,1.23,0,1,.07.92.4.83,0,.76-.55,2.64v1l.23.29.32.31.36.44.16.52-.08,6.54.16,1.16.64,2.48.16,1.07,0,.4-.12.44-.12.52,0,.6.6,2.11.08,1-.2,3.39.12.68.19.48.53.76.16.68v.4h-.16l.24.12.44.12.4.24.43.12.24.2.16.32,0,.23-.12.24-.2.84-.51.72-.12.52.12,1.76,0,.55-.12.36-.32.84-.08.52.16.84.6,1.75.16,1.16-.12,1.16-.4,1.79.12,1.12.4.72,1.27,1.56.28,1,.28,1.92.08,1.08-.24,1.08.24.35.63.64.25.4.08.4v.44l.08.52.28.56,2.35,3.31L342,257l.61.87.28,1.08v3.35l.12,1,.16.56.16.44.95,1.36V266l-.08.4V267l.16.28.32,1.92v.64l-.2,1.47-.44,1.16,0,1.24.88,3.83Z" fill="#35156B"/></svg>