<svg id="a5882e69-7718-403d-94c0-ad65bad4be4a" data-name="Layer 1" xmlns="http://www.w3.org/2000/svg" viewBox="0 0 400 400"><title>State</title><path id="ae0ffe72-2d95-4216-a9f8-36150d3aaf07" data-name="NY" d="M278.15,306.4l-.5.27-.46.43-.54.34-.92.16-.62,0-.43.23-.27.93,0,.81.27,1.57-.08.81-.23.27-.34.23-.35.35-.23.5,0,.35.38,1.35,4-3.51,1.51-2.35-.51-2.62Zm32.17-8-.08-.15,0-.08.19,0-.08-.31-.69.47-2.43.65-.42.2-.23.15-.5.65-.85.55-.24.26-.5.39-5.43,2.35,1,.34,5.32-2.46,2-1.77,2.89-1ZM327,288l-1.77,1.43-1.92,1-.39.42-.42.42-1.51.89-.54.19-.46.35-.88,1.31-.5.57-2.32,1.59-3.58,1.65-1.15.89-1.27.42h-1.13l.4.54,1.34-.42,3.58-1.66,3.82-2.43,1.11-1L320,294l2.19-2.15,3.36-2.05.53-.23.39-.5,1.24-1-.08-.31Zm31.28-24.23-1.08.16-.78.35.27.46.08.31-.77.08-.65-.12-.43.19,0,1.12-.81-.08-.65.58-1.17,1.58-1.3,1-.77.38-.42-.19-.31-.46-1.74-1.54-.58,0-.27.69v1l.2.89L345.29,269l-.62-.16-.27.39,0,.57.07.27-.42.28-.89.8-.5.16-.31-.31-.31-.54-.42-.27-.54.42.66.85-.47.73-.88.7-1.7,2.23-.5.85,0,.57.23.62-.5.62-.81.54-.77.38-.88.08-.89-.16-.77.08-.66.81-.38-.19-.42,0-.43.08-.42.15.23-.73.54-.81.65-.73.89-.58.23-.35.35-.77.07-.23.08-.65.15-.27.16-.08.46,0,.2-.08.84-1.19.35-.19.15.3.47.51.46.31,0-.51-.23-.61-.26-.47,0-.5.27-.65.3-.27.85-.19.35-.31-.35-.07-.35-.12-.3-.23-.31-.35,2-3.12,1.31-1.27.81.81.46-.35.5-.53.39-.67.07-.61-.34-.39-.58-.11-.62.08-.5.19-1.81,1.54-.46.62-.66,1.34-.46.62-1.65.92-.73.58-.39,1.47-2,1.54-1.85,3-.77.54-4.7,2.24-6.16,1.23L313,280.94l.35.47,0,.38L313,282l-.5.12,0-1.08-.61-.08-.81.47-.62.46.39.81-.23.88-.62.73-1.62,1-.42.11-.35,0-.88-.23h-.39l-.81.08-3.66-.42-.8.23-.28.46.93.77.35-.81.65.16.54.65,0,.69-.5.16L302,287h-.77l-.4.58-.57-.27-.42-.27.15-1-.81-.46-1,.23-.34,1,.23.5.84.66.16.38-.27.27-1.12-.23-.54.08,0-.27.12-.16-2.2,0-2,1.11-1,1.89,1.12,2.35-.54.19-.81-.54-1-.84-.92-.58-.43.5-.27.69.08.54,1.35.19.3.58-.11.62-.35.38-.38-.23-.46-.58-.5-.42-.58.23-.15.54.42,1.31,0,.62-1.09-.43-1.34,0-1,.5-.15,1.2h-2l-.89.92-.92,3.58-.12.27-.34.35-.15.23,0,.16,0,.42v.2l-.81,1.57-.11.46.42,1.12,1.42,1,0,1,.65-.11,1.93-.89.19-.19.39-.51.31-.22.5-.12.38.08.35-.08.27-.62-.62-.54-.31-.15-.38-.08-.08-.34.93-1,.53-.38.85-.27.81-.08,1.12.08.85.27.07.5.27.27.08.16.08.19-.74.23-4.77,3.19-.62.62,1.39-.07,5.12-3,7.05-1.7-.08-.34-1.11,0-2.85,1-.93-.27,0-.81,1-.5,2.2-.54,3.88-2.43,3.93-1.27.78-.5,1.23-1.23,2.35-1.2.38-.3.43-.7L310,295l.69-.19,1.85.12.92-.08.51-.35-.12-.5-.28-.54.12-.5.47-.23.5,0,.54.11h.46l.46-.15,1.58-.85.38-.58.39-.18,2.46-.74.77-.46.82-.81L323,289l1,.3h.5l.77-.34.46-.58v-.69l-.58-.74,1.38-.26,4.16-1.7.94-.19-.24.5-.66.5-1.8,1-.23.11-.08.19.15.27.27.12.16-.12.11-.23.19-.16.39-.15,3.58-2.62,2.32-1.07,1.26-1.32.35-.5-.11-.46-.39-.42-.23-.46,0-.47.42-.27,1-.15.5.19.11.54-.26.92.73-.3,1.16-1.12,1.23-.62,1.92-1.42,3-3.31,2.23-1.28,2.46-2.11,2.47-1.31,4-3.93.61-.42.47-.47.15-.54Zm-8-7.47.5-.15.5-.39.81-1,.59-.57.11,0L353,254l.07-.23-3,1.15-.53.47-.08.65.35.27ZM263.94,122.44ZM158,145.32l.31.12.86-.38,1.19-1.39.77-.66,0-.19-.12-.15-.27-.23h-.23l-.23.23-.34.19-.47-.15-.34.46-.89.5-.35.42-.08.38,0,.47Zm3.78-4,.15.46.08.58.39.38.3-.15.89-1.16.62-.42.69-.77.58-1,.34-1,.08-.12V138l0-.27-.5.15-.3.31-.5.88-.35-.69-.38.42-.58,1.62-.31-.23.08-.12,0,0,0,0,0-.23-.47.11-.34.16-.23.3-.12.39-.11,0-.16,0-.23,0-.27.12.08.38Zm-3.66,17.33.23-1.2v-.57l-.42,0-.62.42-.46.47-.54.73-.11.58.46,1.57,1.11-1.31ZM281,288l-.27-1.31-1.59-4.12-.38-2.2-.27-.89-.54-.77-.73-.53-.77-.43-.61-.54-.7-1.62-.27-.34-.23-.43,0-.73.11-.46.31-.47.58-.73.31,1-.11.88.07.89.89.92,1.54.81.57.43.59.65.8,1.62.62,1.85,1,4.08.12,1-.08,2.16.19,2.15-.46,2.24.08,1.12-.08.77-1.31,4.39-.07,1,.11,1.08.23,1.07.77-.88.54-3.24.5-1.34.92-.81,1.35-.62,1.43-.39,1.19-.07-.27-.42-.77-.85-.23-.39.12-.5.42-.19.46-.08.15-.27v-.92l.31-.93,1.28-2.23L289,288l.42-.24.84-.19.08-.23.54-1.35.08-.54-.16-.19-.46-.23.31-.43.11-.11-.23-.35-.3-.38-.16-.16-.11,0-.23-.08-.16-.12-1.3-1.23-1.24-1.23-.31-.27.46-.5,1.43-1.43,1.85-1.85,2-2,1.61-1.62.5-.58-.77-.69-.73-.73-.77-.77-1-1.08-.15-.92-.42-2.35-.39-2.36-.42-2.31-.42-2.35-.39-2.31-.42-2.35-.38-2.31-.44-2.35-.42-2.31-.38-2.35-.43-2.31-.42-2.35-.38-2.31-.43-2.35-.42-2.31-.38-2.31-1.32-1v-1l.08-2,.11-3.81.24-7.63.16-3.82.11-3.81.12-3.78.11-3.8.12-3.82,0-1.23.42-1-.81-1.23-1-1.51v-1.85l-.11-.84-.08-.55-.12-.34-.23-1-.34-1.62-.46-2.07-.54-2.43-.62-2.78-.65-2.93-1.35-6-.66-2.93-.61-2.73-.58-2.43-.46-2.08-.35-1.62-.23-1-.07-.39-.23-1.07-.4-.31-.42-.27-.23-.08-.42-.35-1-1.62-.24-.23-.26-.19-.31,0h-.62l-.27.08-.27.08-.23.15-.2.15-.15.2-.12.27,0,.27,0,.92,0,.31-.12.23L270,155l-.35.43-.38.27-.12.07H269l-.11-.11-.39-.43-.3-.5-.23-.58-.27-1.08-.08-.57V152l.77-5.36v-.38l-.15.27-.35-1.54-.15-.43-.39-.38-1-.66-.31-.5,0-.57.11-1,0-.62-.23-.55-.35-.46-.65-.65-.54-.81-.39-.84-.65-2.59,0-1-.11-.57,0-.08-.35-.27-.27.11-.35.51-.12.53-.69-2,.08-5.28-.77-1.61.84-.81,1.93-3.43-.53-.58-.39-.5-.27-.65-.47-1.39-.69-1.62-.27-.35-.23-.22-.15-.16-.58-2.7-.19-.54-.42.12-.16.88,0,1.12.19.85-.38-.58-.19-.65,0-.7.11-.65v-.69l-.34-.62-.93-1,.5-.74.08-.84-.39-.66-.89-.11-.38-.35-.5-.85-.38-1-.12-.65-.23,0v-.38l-.12-.46-.23-.39-.34-.38.46-.62,0-.73-.5-1.27,0-1,.31-.5h.46l.54.73.23.19h.27l.11-.38-.11-.5-.23-.31-.27-.19-.62-.54-.26-.12-.12-.15,0-.62.16-.5L255,97l.23,0,.23-.26.23-1-.12-.62-.46-.43-.65-.38-.31-.54-.19-.89-.08-.92.12-1.42-.35-1.78-.08-.77.12-.11.19,0,.19-.19.12-.54-.08-.46-.19-.47-.42-.69.07-.39-1.43.39-3.66.93-3.7.92-3.65.88-3.7.93-3.66.93-3.7.88-3.66.92-3.7.89-3.65.92-3.7.89-3.66.89-3.7.88-3.69.89-.62.07-1.08.28-4.81.53-.66.2-.58.35-1.15,1.15-2,1.27-.55.46-1.34,1.58-.58.43-1.84,1-4.55,4.2-2.12,2.89L179,116.21l-3.66,5-3.65,4.92-1.43,3.13-1,1.8h0l.65.62.42.85.27.85-.23.77-2.07,2v.19l0,.31V137l-.07.27-.12.11-1.81,1.2-.12.38-.27.54-4,5.12-4.4,3.16-5.5,5.93-.19.78.42,1,.58.23.73,0,.77.46.31.5v.43l-.08.34.16.39.34.19h.35l.23-.3v-.58l.19-.73,2.19-1.7.47.58,1.46-.58.66.43-.23.3-.08.2v.65l.19-.35.27-.3.31-.2.35-.11-.08.69-.27.74-.42.64-.89.7-.5.7-.27.69.27.19,2.35-.5.65-.38.82-1.12.57-.35h.66l.34.35,0,.57-.31.7-.5.42-1.2.46-.38.62-.12.77.08.61v.66l-.42.89-1.35,1.69-.27.77-1.19-.46.16-.35.11-1.07-1.66,1.27-.42.53-.27.89.31.31.61.11.69.43.28.19.58.23.23.2.19.34.08.39.15.34.69.85.66,1.27.38.58-.15,1,.19,1.12.42,1.15.5,1.12.16-.77.27-.54.39-.23.53.16L163,177.56l0,1.16,1.19.5-.58.81-1.12,2-.69.54-2.42,1-1,0-1.69-.23-.66.23L154.52,186l-.63.69-3.53,2.7-1.24,1.31-1,1.54-1,3.46-1-.38-.58,0-.12.61-.15.23-2.23,1.63-3.74,1.61-.15.2-.12.46,0,.38.12.28V201l-.08.35,0,.15,0,.12-.35.19-.34.12-.39,0-.34-.19-.35-.31,0-.2.12-.53L122.66,203l-1.66.7-4.43,2.66-1.73.34-1.69-.38-3.2-1.82-.23,0-.89,0-.11-.54-1-.23L93.61,204l-4.43,1.62-6,.34L71.77,210l-2.23,1.65-4,1.46L61,215.89l-2.51.93.35.84,1.05,4.43.07.54,0,.66-.07.46-.16.42-.08.54.16.73h0l1.69.69,4.35-.34,1.23,1.08,0,1.11-1.08,1.62L66,230.8l.27.42.8.46.23.27.7,2.16.35.5L69.47,236l.34.58L70,237l.23,1.15.11,1.24-.19,1-.5.73-.65.69-2.74,1.85L65,244.74l-.81,1.46-.47,2-.46,1-.73.54-.15.23L62,251.4l-.3.85-.16.23-.46.35-2.39,1.23-.58,1.23L56.26,257l-1.74,1.12-.39.3-.19.39-.23.54-.31.5-1,.77L51,263.27l-1.93,1.54-.5.84-.54.7-2.47,1.46-2.46,2.78-1,.69-.66.77-.42.23,0,.11.27,1.43.27,1.46.27,1.46.26,1.47.28,1.47.27,1.46.27,1.46L43.2,284l.31,1.73,1.42-.27,5.24-1,5.28-1,5.27-1,5.24-1,5.28-1,5.23-1,5.29-1,5.23-1,5.28-1,5.23-1,5.25-1,5.27-1,5.24-1,5.24-1.08,5.23-1,5.29-1.08,5.23-1.08,5.24-1.08,5.24-1.11,5.23-1.08,5.25-1.12,5.23-1.12,5.24-1.11,5.24-1.12,5.24-1.12L181.4,258l5.2-1.12,5.23-1.15,5.24-1.16,5.24-1.15,5.2-1.2,5.24-1.16.85-.19.46-.12.15.7,1.08.46,1.31.27.92.39.47.85.34,1.23.46,1,.78.34,2-.85.5.08,1,.5,1.12.12.77.81.38.11.54.08,0,.5-.65,1.27.92.27.69.08.58.34.43,1v.51l-.43.53,0,.51,1,1.73.23,1,.35,2.62.23.5.61.34,2.89,3.63.66.65.81.43,1.8,0,.63.34.5.47.65.34h1l1.85-.58.89.27.57.35.43-.08.34-.27.39-.23.34.12.27.34.5.74.46.38.86.92.42,1,4.35,1.38,4.36,1.35,4.35,1.39,4.39,1.35,4.35,1.38,4.39,1.35,4.35,1.35ZM62.49,229.87l.43.23.65.58.78.46H65l1.42-3.39v-.65l-.42-.39-1-.15-.65-.15-.63.19-.61.3-.69.2.19.69-.19,1.77Z" fill="#35156B"/></svg>